<!--?xml version="1.0" standalone="no"?-->
              <svg id="sw-js-blob-svg" viewBox="0 0 100 100" xmlns="http://www.w3.org/2000/svg" version="1.1">
                    <defs> 
                        <linearGradient id="sw-gradient" x1="0" x2="1" y1="1" y2="0">
                            <stop id="stop1" stop-color="rgba(18, 214, 223, 1)" offset="0%"></stop>
                            <stop id="stop2" stop-color="rgba(110, 134, 236, 1)" offset="100%"></stop>
                        </linearGradient>
                    </defs>
                <path fill="url(#sw-gradient)" d="M25.6,-29.8C31.9,-25.3,34.6,-16,36.4,-6.3C38.3,3.3,39.2,13.3,34.9,19.7C30.6,26.1,21.1,28.9,12.4,30.7C3.6,32.4,-4.3,33.1,-11,30.5C-17.7,27.9,-23.1,22.2,-27.1,15.5C-31,8.9,-33.5,1.3,-32.2,-5.6C-30.9,-12.4,-25.7,-18.5,-19.7,-23C-13.7,-27.6,-6.9,-30.7,1.4,-32.3C9.7,-34,19.4,-34.4,25.6,-29.8Z" width="100%" height="100%" transform="translate(50 50)" stroke-width="0" style="transition: all 0.3s ease 0s;" stroke="url(#sw-gradient)"></path>
              </svg>