<svg width="303" height="255" viewBox="0 0 303 255" fill="none" xmlns="http://www.w3.org/2000/svg">
<path d="M259.025 113.467H296.279V253.734H259.025V113.467Z" fill="#FFCA3A"/>
<path d="M57.1703 160.112H94.4248V252.96H57.1703V160.112Z" fill="#FFCA3A"/>
<path d="M0.276276 87.1328H37.5308V252.959H0.276276V87.1328Z" fill="#FFCA3A"/>
<path d="M120.284 93.1519H157.538V252.959H120.284V93.1519Z" fill="#FFCA3A"/>
<path d="M195.022 47.9072H232.277V252.96H195.022V47.9072Z" fill="#FFCA3A"/>
<path d="M101.294 253.92H43.5707C42.468 253.92 41.5967 252.984 41.674 251.884L44.5553 211.033C44.6256 210.039 45.4519 209.267 46.4492 209.266L99.4412 209.191C100.459 209.19 101.298 209.99 101.344 211.007L103.194 251.933C103.243 253.015 102.378 253.92 101.294 253.92Z" fill="#263238"/>
<path d="M93.3306 253.92C93.242 253.92 93.1696 243.924 93.1696 231.595C93.1696 219.262 93.242 209.268 93.3306 209.268C93.4193 209.268 93.4917 219.262 93.4917 231.595C93.4917 243.924 93.42 253.92 93.3306 253.92Z" fill="#455A64"/>
<path d="M92.6474 210.327C92.6523 210.33 92.6228 210.386 92.5602 210.49C92.4871 210.61 92.3942 210.762 92.2782 210.952C92.0117 211.372 91.6382 211.959 91.1642 212.706C90.1825 214.219 88.7577 216.41 86.8343 219.005C84.8912 221.577 82.4529 224.596 79.1708 227.359C77.5365 228.741 75.6827 230.033 73.6306 231.145C71.5721 232.231 69.2521 233.096 66.7611 233.296C64.2667 233.505 61.8327 232.943 59.6737 232.068C57.5097 231.181 55.5687 229.988 53.9041 228.635C50.5672 225.911 48.3638 222.618 47.0157 219.685C45.6584 216.735 45.1753 214.118 44.9762 212.33C44.9369 211.88 44.8912 211.481 44.8715 211.133C44.8672 210.791 44.8637 210.498 44.8609 210.253C44.8609 210.03 44.8609 209.853 44.8609 209.713C44.863 209.591 44.8665 209.528 44.8722 209.528C44.8778 209.528 44.8848 209.591 44.894 209.713C44.9024 209.852 44.9129 210.03 44.9263 210.252C44.9383 210.496 44.9516 210.788 44.9678 211.128C44.9973 211.473 45.0522 211.869 45.1014 212.316C45.3377 214.09 45.8511 216.679 47.2232 219.591C48.5854 222.484 50.7866 225.728 54.0919 228.405C55.741 229.735 57.6588 230.906 59.7925 231.777C61.9213 232.634 64.3053 233.18 66.7365 232.976C69.1677 232.781 71.449 231.935 73.4843 230.866C75.5146 229.77 77.355 228.497 78.981 227.132C82.2462 224.404 84.6921 221.415 86.6528 218.868C88.5938 216.297 90.0468 214.128 91.0602 212.636C91.5559 211.904 91.9456 211.328 92.224 210.916C92.3513 210.733 92.4526 210.587 92.5328 210.472C92.6038 210.373 92.6425 210.324 92.6474 210.327Z" fill="#455A64"/>
<path d="M68.7593 233.333C68.7593 234.796 67.5736 235.982 66.1101 235.982C64.6466 235.982 63.4609 234.797 63.4609 233.333C63.4609 231.87 64.6473 230.684 66.1101 230.684C67.5729 230.684 68.7593 231.87 68.7593 233.333Z" fill="#455A64"/>
<path d="M84.2603 200.949C83.1519 199.923 81.5935 199.542 80.0906 199.394C76.4653 199.034 72.475 199.788 69.3075 201.587C66.1393 203.385 63.808 206.382 62.2588 209.68L64.3404 211.858C65.1906 208.429 67.0902 205.445 70.0368 203.497C72.9835 201.549 76.1158 200.655 79.6033 201.217C80.405 201.345 81.5379 201.645 82.2032 202.11C83.564 203.063 83.7729 204.17 83.5331 205.583C83.1779 207.672 82.6526 208.58 81.7587 209.701C83.2912 209.737 83.6491 209.745 85.1808 209.781C85.5676 208.271 85.9572 206.739 85.9298 205.181C85.901 203.623 85.4038 202.008 84.2603 200.949Z" fill="#263238"/>
<path d="M142.222 232.485H164.105V241.107H142.222V232.485Z" fill="#FAFAFA"/>
<path d="M96.2891 231.005H165.017V232.811H96.2891V231.005Z" fill="#455A64"/>
<path d="M96.2894 240.723H164.698V242.529H96.2894V240.723Z" fill="#455A64"/>
<path d="M142.222 231.435L142.119 242.185H96.2901V231.435H142.222Z" fill="#455A64"/>
<path d="M131.084 236.799C131.084 238.277 132.193 239.474 133.561 239.474C134.929 239.474 136.039 238.277 136.039 236.799C136.039 235.322 134.93 234.124 133.561 234.124C132.192 234.124 131.084 235.322 131.084 236.799Z" fill="#263238"/>
<path d="M133.562 239.858C135.139 239.858 136.422 238.486 136.422 236.798C136.422 235.111 135.139 233.739 133.562 233.739C131.983 233.739 130.7 235.111 130.7 236.798C130.699 238.486 131.983 239.858 133.562 239.858ZM133.562 234.509C134.716 234.509 135.654 235.536 135.654 236.799C135.654 238.062 134.716 239.09 133.562 239.09C132.407 239.09 131.469 238.062 131.469 236.799C131.469 235.536 132.407 234.509 133.562 234.509Z" fill="#E0E0E0"/>
<path d="M143.866 238.994C143.866 239.105 148.363 239.195 153.908 239.195C159.455 239.195 163.951 239.105 163.951 238.994C163.951 238.884 159.455 238.794 153.908 238.794C148.363 238.794 143.866 238.884 143.866 238.994Z" fill="#263238"/>
<path d="M143.866 237.492C143.866 237.602 148.363 237.692 153.908 237.692C159.455 237.692 163.951 237.603 163.951 237.492C163.951 237.382 159.455 237.292 153.908 237.292C148.363 237.292 143.866 237.382 143.866 237.492Z" fill="#263238"/>
<path d="M143.866 235.99C143.866 236.1 148.363 236.19 153.908 236.19C159.455 236.19 163.951 236.101 163.951 235.99C163.951 235.88 159.455 235.79 153.908 235.79C148.363 235.79 143.866 235.88 143.866 235.99Z" fill="#263238"/>
<path d="M143.866 234.489C143.866 234.599 148.363 234.689 153.908 234.689C159.455 234.689 163.951 234.599 163.951 234.489C163.951 234.378 159.455 234.288 153.908 234.288C148.363 234.288 143.866 234.378 143.866 234.489Z" fill="#263238"/>
<path d="M101.372 233.721H122.023V239.475H101.372V233.721Z" fill="white"/>
<path d="M118.807 238.89C118.917 238.89 119.007 237.863 119.007 236.598C119.007 235.332 118.918 234.306 118.807 234.306C118.696 234.306 118.606 235.332 118.606 236.598C118.607 237.863 118.696 238.89 118.807 238.89Z" fill="#E0E0E0"/>
<path d="M116.076 238.89C116.187 238.89 116.277 237.863 116.277 236.598C116.277 235.332 116.188 234.306 116.076 234.306C115.966 234.306 115.877 235.332 115.877 236.598C115.877 237.863 115.966 238.89 116.076 238.89Z" fill="#E0E0E0"/>
<path d="M113.345 238.89C113.456 238.89 113.546 237.863 113.546 236.598C113.546 235.332 113.457 234.306 113.345 234.306C113.235 234.306 113.146 235.332 113.146 236.598C113.146 237.863 113.235 238.89 113.345 238.89Z" fill="#E0E0E0"/>
<path d="M110.615 238.89C110.725 238.89 110.815 237.863 110.815 236.598C110.815 235.332 110.726 234.306 110.615 234.306C110.504 234.306 110.414 235.332 110.414 236.598C110.415 237.863 110.504 238.89 110.615 238.89Z" fill="#E0E0E0"/>
<path d="M107.884 238.89C107.994 238.89 108.084 237.863 108.084 236.598C108.084 235.332 107.995 234.306 107.884 234.306C107.773 234.306 107.683 235.332 107.683 236.598C107.684 237.863 107.773 238.89 107.884 238.89Z" fill="#E0E0E0"/>
<path d="M105.153 238.89C105.263 238.89 105.354 237.863 105.354 236.598C105.354 235.332 105.264 234.306 105.153 234.306C105.043 234.306 104.953 235.332 104.953 236.598C104.953 237.863 105.043 238.89 105.153 238.89Z" fill="#E0E0E0"/>
<path d="M139.315 243.692H161.198V252.314H139.315V243.692Z" fill="#FAFAFA"/>
<path d="M93.3819 242.211H162.109V244.017H93.3819V242.211Z" fill="#5EA813"/>
<path d="M93.3821 251.929H161.791V253.735H93.3821V251.929Z" fill="#5EA813"/>
<path d="M139.315 242.641L139.212 253.391H93.3822V242.641H139.315Z" fill="#5EA813"/>
<path d="M128.176 248.005C128.176 249.483 129.285 250.68 130.653 250.68C132.022 250.68 133.131 249.483 133.131 248.005C133.131 246.528 132.022 245.33 130.653 245.33C129.285 245.331 128.176 246.528 128.176 248.005Z" fill="#263238"/>
<path d="M130.653 251.065C132.231 251.065 133.515 249.692 133.515 248.005C133.515 246.318 132.231 244.946 130.653 244.946C129.075 244.946 127.792 246.318 127.792 248.005C127.792 249.692 129.075 251.065 130.653 251.065ZM130.653 245.714C131.807 245.714 132.746 246.742 132.746 248.005C132.746 249.268 131.807 250.295 130.653 250.295C129.499 250.295 128.56 249.268 128.56 248.005C128.56 246.742 129.5 245.714 130.653 245.714Z" fill="#E0E0E0"/>
<path d="M140.959 250.2C140.959 250.31 145.456 250.4 151.001 250.4C156.548 250.4 161.043 250.311 161.043 250.2C161.043 250.09 156.548 250 151.001 250C145.456 250 140.959 250.09 140.959 250.2Z" fill="#263238"/>
<path d="M140.959 248.698C140.959 248.809 145.456 248.899 151.001 248.899C156.548 248.899 161.043 248.809 161.043 248.698C161.043 248.588 156.548 248.498 151.001 248.498C145.456 248.498 140.959 248.588 140.959 248.698Z" fill="#263238"/>
<path d="M140.959 247.196C140.959 247.306 145.456 247.396 151.001 247.396C156.548 247.396 161.043 247.306 161.043 247.196C161.043 247.086 156.548 246.996 151.001 246.996C145.456 246.996 140.959 247.086 140.959 247.196Z" fill="#263238"/>
<path d="M140.959 245.694C140.959 245.804 145.456 245.895 151.001 245.895C156.548 245.895 161.043 245.805 161.043 245.694C161.043 245.583 156.548 245.494 151.001 245.494C145.456 245.494 140.959 245.584 140.959 245.694Z" fill="#263238"/>
<path d="M98.4643 244.927H119.116V250.681H98.4643V244.927Z" fill="white"/>
<path d="M115.9 250.096C116.01 250.096 116.1 249.07 116.1 247.804C116.1 246.538 116.011 245.512 115.9 245.512C115.789 245.512 115.699 246.538 115.699 247.804C115.699 249.07 115.789 250.096 115.9 250.096Z" fill="#E0E0E0"/>
<path d="M113.169 250.096C113.279 250.096 113.369 249.07 113.369 247.804C113.369 246.538 113.279 245.512 113.169 245.512C113.058 245.512 112.968 246.538 112.968 247.804C112.969 249.07 113.058 250.096 113.169 250.096Z" fill="#E0E0E0"/>
<path d="M110.438 250.096C110.549 250.096 110.639 249.07 110.639 247.804C110.639 246.538 110.549 245.512 110.438 245.512C110.328 245.512 110.239 246.538 110.239 247.804C110.239 249.07 110.328 250.096 110.438 250.096Z" fill="#E0E0E0"/>
<path d="M107.708 250.096C107.818 250.096 107.908 249.07 107.908 247.804C107.908 246.538 107.819 245.512 107.708 245.512C107.597 245.512 107.508 246.538 107.508 247.804C107.508 249.07 107.597 250.096 107.708 250.096Z" fill="#E0E0E0"/>
<path d="M104.977 250.096C105.087 250.096 105.177 249.07 105.177 247.804C105.177 246.538 105.088 245.512 104.977 245.512C104.866 245.512 104.776 246.538 104.776 247.804C104.776 249.07 104.866 250.096 104.977 250.096Z" fill="#E0E0E0"/>
<path d="M102.246 250.096C102.356 250.096 102.446 249.07 102.446 247.804C102.446 246.538 102.357 245.512 102.246 245.512C102.135 245.512 102.045 246.538 102.045 247.804C102.045 249.07 102.135 250.096 102.246 250.096Z" fill="#E0E0E0"/>
<path d="M31.2402 0H49.1438L101.388 31.4428C101.192 31.7367 95.0252 36.1961 86.9707 41.9551L162.625 181.255L225.941 153.292L282.004 254.055H251.37L212.741 183.492L154.638 210.408L130.007 213.347L63.3335 58.7686C54.9555 64.7076 48.52 69.2549 48.52 69.2549H30.6164C30.6164 69.2549 35.8374 25.4348 35.8374 25.0867C35.8374 24.7386 31.2402 0 31.2402 0Z" fill="#5EA813"/>
<path opacity="0.3" d="M31.2402 0H49.1438L101.388 31.4428C101.192 31.7367 95.0252 36.1961 86.9707 41.9551L162.625 181.255L225.941 153.292L282.004 254.055H251.37L212.741 183.492L154.638 210.408L130.007 213.347L63.3335 58.7686C54.9555 64.7076 48.52 69.2549 48.52 69.2549H30.6164C30.6164 69.2549 35.8374 25.4348 35.8374 25.0867C35.8374 24.7386 31.2402 0 31.2402 0Z" fill="black"/>
<path d="M263.879 254.055L207.591 152.429L144.501 181.256L63.1362 31.4429L38.911 44.1698L130.007 213.347L194.616 183.492L233.245 254.055H263.879Z" fill="#5EA813"/>
<path d="M83.4839 31.4428C82.9072 32.3078 30.6156 69.2549 30.6156 69.2549L31.2394 0L83.4839 31.4428Z" fill="#5EA813"/>
<path d="M83.4838 31.4426C83.4838 31.5439 87.4917 31.6255 92.4349 31.6255C97.3795 31.6255 101.387 31.5432 101.387 31.4426C101.387 31.3421 97.3795 31.2598 92.4349 31.2598C87.4924 31.2598 83.4838 31.3421 83.4838 31.4426Z" fill="#263238"/>
<path d="M69.497 42.2473C69.497 42.3486 73.5049 42.4302 78.4481 42.4302C83.3927 42.4302 87.3999 42.3479 87.3999 42.2473C87.3999 42.146 83.3927 42.0645 78.4481 42.0645C73.5049 42.0638 69.497 42.146 69.497 42.2473Z" fill="#263238"/>
<path d="M203.957 104.972C203.957 104.972 205.044 105.444 205.213 103.994C205.383 102.543 202.36 99.5237 201.393 98.5645C200.426 97.6052 199.044 97.8113 197.818 98.0848C196.591 98.3584 191.572 98.864 189.907 99.933C188.242 101.002 185.692 106.364 185.161 106.619C184.629 106.873 168.97 107.689 168.97 107.689L169.644 120.523C169.644 120.523 185.013 117.595 188.057 115.691C191.1 113.787 190.701 113.029 191.566 111.253C192.431 109.478 193.36 107.592 193.36 107.592L194.799 107.354L197.105 108.627C197.105 108.627 197.378 111.884 199.66 111.801L200.779 111.212C200.779 111.212 201.525 112.075 202.376 110.741C203.226 109.407 203.065 109.158 203.065 109.158C203.065 109.158 203.96 110.265 204.927 108.892C205.894 107.519 203.957 104.972 203.957 104.972Z" fill="#AE7461"/>
<path d="M187.088 110.42C187.086 110.43 187.143 110.448 187.257 110.473C187.371 110.501 187.544 110.523 187.768 110.523C188.214 110.528 188.89 110.418 189.61 109.999C190.328 109.592 191.08 108.859 191.562 107.835C192.059 106.819 192.302 105.567 192.371 104.24L192.123 104.391C193.153 104.868 194.365 105.174 195.635 105.218C196.526 105.252 197.4 105.153 198.215 104.946C198.605 104.831 199.056 104.771 199.396 104.398C199.577 104.221 199.619 103.852 199.436 103.642C199.268 103.435 199.057 103.361 198.882 103.286C197.473 102.715 196.177 102.271 195.078 101.935C193.979 101.599 193.077 101.373 192.452 101.23C191.825 101.089 191.474 101.032 191.468 101.056C191.462 101.082 191.802 101.185 192.415 101.368C193.028 101.552 193.916 101.816 194.999 102.182C196.082 102.547 197.36 103.014 198.753 103.598C198.924 103.667 199.085 103.747 199.161 103.849C199.232 103.95 199.227 104.06 199.129 104.172C198.924 104.411 198.517 104.496 198.128 104.599C197.343 104.792 196.504 104.885 195.647 104.852C194.426 104.809 193.261 104.521 192.268 104.072L192.031 103.964L192.02 104.223C191.963 105.523 191.743 106.731 191.288 107.708C190.847 108.692 190.163 109.394 189.494 109.811C188.825 110.234 188.191 110.374 187.762 110.406C187.331 110.437 187.092 110.392 187.088 110.42Z" fill="#6F4439"/>
<path d="M195.015 101.62C194.986 101.658 195.544 101.96 196.494 101.908C196.96 101.903 197.509 101.824 198.09 101.863C198.682 101.889 199.236 102.141 199.693 102.668C200.644 103.731 201.782 104.433 202.639 104.791C203.503 105.156 204.082 105.229 204.091 105.189C204.107 105.132 203.559 104.969 202.749 104.556C201.939 104.144 200.888 103.453 199.956 102.414C199.71 102.16 199.436 101.899 199.1 101.752C198.772 101.596 198.426 101.539 198.109 101.525C197.471 101.504 196.93 101.613 196.477 101.649C195.571 101.764 195.036 101.568 195.015 101.62Z" fill="#6F4439"/>
<path d="M198.243 105.039C198.157 105.068 198.79 106.511 200.238 107.744C201.677 108.989 203.198 109.395 203.214 109.306C203.257 109.201 201.852 108.659 200.477 107.466C199.089 106.288 198.34 104.981 198.243 105.039Z" fill="#6F4439"/>
<path d="M197.678 107.008C197.587 107.018 197.793 108.282 198.709 109.522C199.615 110.771 200.757 111.35 200.794 111.266C200.857 111.174 199.859 110.489 199.005 109.306C198.136 108.134 197.784 106.976 197.678 107.008Z" fill="#6F4439"/>
<path d="M150.386 79.96L164.399 105.244L186.147 104.87L187.781 117.931L165.339 123.433L156.098 113.287L150.386 79.96Z" fill="#E0E0E0"/>
<path d="M162.649 109.535C162.757 109.544 162.893 108.505 163.378 107.331C163.852 106.151 164.482 105.313 164.398 105.245C164.333 105.178 163.541 105.949 163.039 107.193C162.529 108.431 162.556 109.537 162.649 109.535Z" fill="#263238"/>
<path d="M145.057 35.2075C146.83 35.4431 148.677 34.1709 149.089 32.431C149.501 30.6904 148.421 28.7255 146.731 28.1404C147.857 27.0279 148.168 25.1762 147.467 23.757C146.766 22.3385 145.106 21.4602 143.539 21.6782C143.502 20.1162 142.597 18.6021 141.237 17.8313C139.879 17.0606 138.114 17.0599 136.755 17.8299C135.057 16.3186 132.276 16.2124 130.467 17.5887C128.955 17.2807 127.286 18.0578 126.548 19.4137C125.811 20.7696 126.066 22.5931 127.147 23.6944" fill="#263238"/>
<path d="M129.617 21.1763L130.419 21.1917C138.488 21.3479 145.085 27.673 145.578 35.7288C146.036 43.2214 146.446 51.5051 146.319 55.5172C146.055 63.8248 137.719 64.9563 137.719 64.9563L138.228 74.9531L137.242 82.573L118.072 73.9376L116.989 37.6952C116.413 29.0535 120.962 21.5138 129.617 21.1763Z" fill="#AE7461"/>
<path d="M137.787 64.9458C137.787 64.9458 132.475 65.1624 126.961 61.5483C126.961 61.5483 129.536 67.9825 137.842 67.3952L137.787 64.9458Z" fill="#6F4439"/>
<path d="M142.88 44.199C142.89 44.8263 142.367 45.3517 141.712 45.3742C141.059 45.3967 140.52 44.9079 140.51 44.2806C140.5 43.6533 141.022 43.1273 141.676 43.1047C142.33 43.0822 142.87 43.5724 142.88 44.199Z" fill="#263238"/>
<path d="M143.713 39.7596C143.563 39.9115 142.677 39.2286 141.4 39.2075C140.125 39.1675 139.175 39.8067 139.039 39.6478C138.972 39.5768 139.128 39.3004 139.541 39.0113C139.948 38.723 140.64 38.4487 141.435 38.4677C142.23 38.4874 142.894 38.7933 143.273 39.1007C143.659 39.4094 143.787 39.6921 143.713 39.7596Z" fill="#263238"/>
<path d="M132.065 43.9336C132.075 44.5602 131.553 45.0862 130.898 45.108C130.245 45.1305 129.705 44.6417 129.695 44.0144C129.685 43.3878 130.208 42.8611 130.862 42.8386C131.516 42.8168 132.055 43.3063 132.065 43.9336Z" fill="#263238"/>
<path d="M131.156 39.7545C131.006 39.9064 130.119 39.2236 128.843 39.2025C127.567 39.1631 126.617 39.8016 126.482 39.6427C126.415 39.5724 126.569 39.296 126.984 39.007C127.392 38.7186 128.082 38.4443 128.878 38.4633C129.673 38.483 130.336 38.7889 130.715 39.0963C131.101 39.4043 131.229 39.687 131.156 39.7545Z" fill="#263238"/>
<path d="M135.607 49.3159C135.602 49.2427 136.399 49.1211 137.688 48.9818C138.015 48.9551 138.324 48.896 138.384 48.6745C138.465 48.4403 138.335 48.0866 138.185 47.704C137.894 46.9093 137.588 46.0759 137.268 45.2025C135.998 41.6412 135.085 38.7156 135.228 38.6657C135.372 38.6158 136.519 41.4619 137.79 45.0232C138.095 45.9008 138.387 46.7384 138.665 47.5387C138.781 47.9121 138.985 48.3362 138.809 48.8215C138.716 49.0634 138.474 49.2357 138.264 49.2877C138.054 49.3475 137.87 49.3475 137.709 49.3538C136.413 49.3974 135.61 49.3876 135.607 49.3159Z" fill="#263238"/>
<path d="M132.359 34.8631C132.184 35.1838 131.096 34.8111 129.749 34.7415C128.405 34.6416 127.264 34.8737 127.147 34.5347C127.097 34.3737 127.342 34.0874 127.833 33.8371C128.32 33.5874 129.056 33.4011 129.863 33.451C130.67 33.5023 131.366 33.7787 131.803 34.0875C132.244 34.3969 132.437 34.7105 132.359 34.8631Z" fill="#263238"/>
<path d="M143.877 34.4962C143.602 34.781 142.554 34.4596 141.287 34.4209C140.021 34.345 138.942 34.5707 138.701 34.2627C138.596 34.1136 138.77 33.826 139.244 33.5608C139.711 33.2964 140.489 33.0875 141.36 33.1262C142.23 33.1663 142.98 33.4434 143.415 33.7493C143.857 34.0552 143.998 34.3569 143.877 34.4962Z" fill="#263238"/>
<path d="M144.852 31.9023C144.852 31.9023 142.761 26.656 140.275 25.3929C137.266 23.8641 135.893 27.1729 133.014 26.3079C130.135 25.4429 127.262 23.9759 124.26 26.1567C120.974 28.5435 122.458 30.2912 122.187 33.9748C121.086 48.9078 118.274 53.0817 117.634 46.0259C117.563 45.253 115.435 44.5976 115.181 41.3323C114.852 37.098 114.788 31.9635 115.79 28.9824C116.634 26.4696 118.109 24.7516 120.731 22.876C124.87 19.9153 130.475 19.9589 134.274 20.4153C138.073 20.8717 145.325 25.3937 144.852 31.9023Z" fill="#263238"/>
<path d="M118.169 45.8092C118.142 44.5258 117.056 43.4913 115.776 43.5883C114.223 43.7058 112.482 44.5525 112.522 47.7566C112.594 53.441 118.286 52.197 118.294 52.0338C118.299 51.9234 118.22 48.1877 118.169 45.8092Z" fill="#AE7461"/>
<path d="M117.03 49.9108C117.004 49.8932 116.931 49.9818 116.765 50.0599C116.604 50.1365 116.323 50.1921 116.025 50.0845C115.422 49.8714 114.904 48.9248 114.864 47.9002C114.843 47.3833 114.946 46.8889 115.124 46.4789C115.292 46.0604 115.557 45.7672 115.859 45.7095C116.159 45.6364 116.375 45.8143 116.447 45.9732C116.525 46.1315 116.49 46.2454 116.521 46.2545C116.537 46.2686 116.642 46.1575 116.593 45.9233C116.568 45.8108 116.499 45.6772 116.365 45.5703C116.227 45.4613 116.026 45.4071 115.816 45.4324C115.378 45.4683 114.988 45.8762 114.793 46.3263C114.573 46.7792 114.446 47.334 114.469 47.9149C114.52 49.0605 115.12 50.1246 115.945 50.3517C116.345 50.4509 116.677 50.3264 116.848 50.19C117.021 50.0486 117.049 49.9213 117.03 49.9108Z" fill="#6F4439"/>
<path d="M118.493 34.8044C119.221 35.322 119.99 35.8571 120.878 35.9619C121.765 36.0674 122.791 35.5765 122.959 34.6982C123.034 34.3036 122.946 33.843 123.212 33.5427C123.529 33.1841 124.099 33.3092 124.575 33.369C126.223 33.5765 128.188 31.7895 128.64 30.1903C129.049 30.8295 129.968 31.0377 130.614 30.639C131.259 30.2402 131.496 30.0102 132.006 29.449C132.516 28.8871 133.226 28.3899 133.975 28.5109C134.394 28.5784 134.783 28.8365 135.205 28.807C135.953 28.7549 136.334 27.8885 136.461 27.1501C136.589 26.4117 136.693 25.5495 137.333 25.1592C137.926 24.7977 138.68 25.0276 139.365 25.1423C140.05 25.2569 140.94 25.1127 141.129 24.4446C141.228 24.0944 141.084 23.7203 140.895 23.4094C140.037 21.9994 138.12 21.3433 136.578 21.9326C136.059 20.0443 134.331 18.5492 132.388 18.3066C130.445 18.0633 128.403 19.0865 127.434 20.7884C126.254 19.6758 124.518 19.185 122.931 19.5148C121.343 19.8446 119.947 20.9867 119.307 22.4769C117.933 22.0866 116.347 22.5908 115.449 23.7027C114.552 24.8153 114.395 26.4714 115.068 27.7324C114.035 28.2957 113.141 29.2936 113.097 30.4695C113.053 31.6446 114.176 32.8387 115.316 32.5511C114.84 33.4576 115.189 34.7073 116.066 35.2362C116.944 35.765 118.212 35.49 118.791 34.6454" fill="#263238"/>
<path d="M136.967 23.6135C136.972 23.6142 136.971 23.6494 136.964 23.7176C136.955 23.7858 136.949 23.8892 136.922 24.02C136.865 24.2816 136.751 24.6677 136.488 25.1065C136.223 25.539 135.815 26.0363 135.202 26.4252C134.601 26.8197 133.781 27.1115 132.862 27.044L132.961 26.9202C133.128 27.4097 133.068 27.992 132.817 28.4864C132.578 28.9899 132.208 29.433 131.817 29.8648C131.618 30.0716 131.443 30.3163 131.169 30.5048C130.902 30.6855 130.585 30.7868 130.262 30.8212C129.62 30.8909 128.901 30.6785 128.447 30.1306L128.66 30.0737C128.494 31.2003 127.83 32.3178 126.796 32.9873C126.248 33.367 125.575 33.5928 124.918 33.5625C124.261 33.5436 123.653 33.3389 123.088 33.123L123.241 33.059C122.922 33.7595 122.441 34.3523 121.863 34.7862C121.295 35.2194 120.544 35.4656 119.873 35.2869C118.538 34.9775 117.67 33.8446 117.511 32.7911L117.638 32.8537C116.966 33.2032 116.251 33.2243 115.68 33.1026C115.102 32.9852 114.651 32.7243 114.331 32.469C114.009 32.2088 113.822 31.945 113.71 31.7622C113.607 31.573 113.565 31.4682 113.571 31.4654C113.6 31.4422 113.751 31.9007 114.39 32.393C114.708 32.6286 115.15 32.8677 115.707 32.9669C116.257 33.0717 116.934 33.0358 117.555 32.7003L117.663 32.642L117.683 32.7629C117.844 33.7461 118.68 34.8031 119.92 35.076C120.528 35.2314 121.188 35.0106 121.726 34.6013C122.267 34.192 122.726 33.6202 123.022 32.962L123.069 32.8579L123.175 32.898C123.732 33.1082 124.318 33.3002 124.926 33.3164C125.534 33.341 126.138 33.1406 126.66 32.7805C127.636 32.1476 128.26 31.1018 128.423 30.0357L128.463 29.7678L128.637 29.9794C129.02 30.4485 129.663 30.6503 130.24 30.5892C130.53 30.5596 130.811 30.471 131.044 30.3149C131.27 30.1658 131.452 29.9239 131.655 29.7157C132.045 29.2916 132.405 28.8655 132.632 28.3971C132.871 27.9344 132.925 27.4231 132.783 26.98L132.739 26.8436L132.882 26.8563C133.747 26.9315 134.537 26.6678 135.124 26.2986C135.723 25.935 136.13 25.4638 136.4 25.0517C136.932 24.2014 136.927 23.5995 136.967 23.6135Z" fill="#455A64"/>
<path d="M135.243 53.6792C135.215 53.4668 133.812 53.7312 132.588 52.7213C131.36 51.7136 131.232 50.1875 131.034 50.2142C130.942 50.2114 130.825 50.5996 130.929 51.2339C131.026 51.857 131.397 52.7234 132.146 53.3416C132.896 53.9577 133.771 54.1166 134.356 54.0547C134.953 53.9964 135.27 53.7734 135.243 53.6792Z" fill="#263238"/>
<path d="M175.741 134.124L164.92 122.189L155.872 94.843C154.024 90.0989 152.438 84.0754 150.2 79.5767C149.099 77.3642 147.244 75.6194 144.986 74.6159L141.144 72.9098L138.846 69.243C140.17 77.5365 128.546 78.5577 116.193 68.2612C116.193 68.2612 112.112 71.0222 106.36 75.7924C103.842 77.8811 101.558 80.1632 100.606 83.6106C98.8779 89.8696 106.305 108.393 114.392 125.818C116.811 131.031 128.333 154.387 128.333 154.387L132.48 157.409C132.48 157.409 169.144 146.301 172.442 140.212C175.741 134.124 175.741 134.124 175.741 134.124Z" fill="#E0E0E0"/>
<path d="M169.738 127.008C169.746 126.999 169.641 126.877 169.431 126.65C169.193 126.4 168.884 126.075 168.499 125.671C167.648 124.799 166.465 123.589 165.01 122.1L165.041 122.149C164.364 120.065 163.554 117.575 162.653 114.801C161.721 112.025 160.777 108.942 159.823 105.683C157.974 99.2935 156.225 93.5142 154.61 89.4535C153.827 87.4155 153.091 85.8071 152.575 84.7016C152.315 84.1826 152.105 83.7656 151.945 83.4456C151.797 83.1601 151.714 83.0131 151.703 83.0187C151.691 83.0243 151.752 83.1819 151.878 83.4772C152.023 83.8042 152.21 84.2304 152.445 84.7607C152.92 85.8824 153.617 87.5013 154.367 89.5457C155.916 93.6182 157.621 99.392 159.471 105.787C160.425 109.045 161.384 112.139 162.334 114.907C163.264 117.67 164.1 120.153 164.8 122.23L164.81 122.259L164.831 122.28C166.32 123.735 167.53 124.918 168.402 125.769C168.806 126.154 169.131 126.463 169.381 126.701C169.606 126.911 169.729 127.017 169.738 127.008Z" fill="#263238"/>
<path d="M136.075 81.4651L148.756 133.451L161.927 140.001V127.284L139.135 80.335L136.075 81.4651Z" fill="#5EA813"/>
<g opacity="0.3">
<path d="M160.329 128.771C156.734 130.123 153.496 132.264 150.32 134.426C147.145 136.588 143.97 138.804 140.447 140.335C136.923 141.866 132.975 142.681 129.214 141.906C125.451 141.13 121.938 138.56 120.698 134.925L160.329 128.771Z" fill="black"/>
</g>
<path d="M141.143 72.7483L137.902 67.7854L136.63 74.5852L133.399 70.9303L117.373 63.4336L114.592 69.3909L132.299 79.8624L137.21 79.4967L140.791 75.2469L141.143 72.7483Z" fill="#E0E0E0"/>
<path d="M141.143 72.749C141.102 72.7448 141.031 73.1274 140.9 73.7744C140.739 74.5501 140.558 75.4256 140.357 76.3954L140.677 76.3476C140.403 75.8441 140.11 75.3082 139.805 74.7505C139.321 73.8946 138.867 73.0915 138.454 72.3608L138.281 72.0542L138.167 72.3805C137.883 73.1907 137.732 73.8742 137.604 74.3489C137.483 74.8243 137.408 75.0951 137.44 75.1085C137.471 75.1211 137.607 74.8686 137.781 74.4052C137.961 73.9453 138.16 73.2652 138.463 72.4951L138.175 72.5148C138.575 73.2526 139.015 74.0634 139.483 74.9277C139.794 75.4826 140.093 76.015 140.374 76.515L140.604 76.925L140.694 76.4672C141.121 74.3215 141.23 72.756 141.143 72.749Z" fill="#263238"/>
<path d="M135.75 75.2553L137.79 75.0063C138.343 75.6273 139.694 76.9066 140.247 77.5282L140.243 77.5852C140.002 78.946 139.76 80.3061 139.518 81.6669C138.379 81.6114 137.231 81.7035 136.114 81.9405C135.433 80.7457 134.919 79.8448 134.238 78.6499L135.75 75.2553Z" fill="#5EA813"/>
<path d="M132.267 151.936C132.31 151.973 132.909 151.334 133.913 150.342C134.917 149.349 136.343 148.02 138.021 146.674C139.702 145.33 141.311 144.227 142.498 143.465C143.685 142.701 144.44 142.256 144.413 142.207C144.401 142.185 144.199 142.27 143.842 142.444C143.484 142.616 142.977 142.888 142.363 143.244C141.134 143.954 139.488 145.032 137.793 146.388C136.101 147.746 134.689 149.117 133.727 150.162C133.246 150.684 132.87 151.118 132.624 151.43C132.376 151.741 132.248 151.92 132.267 151.936Z" fill="#263238"/>
<path d="M135.59 75.6745L133.325 74.5591L132.557 78.5241L134.444 78.6914L135.59 75.6745Z" fill="#5EA813"/>
<path opacity="0.3" d="M133.634 72.9622V81.9415L116.94 70.915L132.476 79.9604L133.634 72.9622Z" fill="black"/>
<path d="M114.591 69.391C114.577 69.4121 114.922 69.6716 115.562 70.1238C116.206 70.5668 117.15 71.1927 118.35 71.9135C120.735 73.3798 124.158 75.1746 127.847 77.2942C129.406 78.1986 130.877 79.1079 132.201 80.0053L132.42 80.1536L132.468 79.8955C132.974 77.1535 133.414 74.7744 133.744 72.9839L133.557 73.043C134.279 73.716 134.867 74.2645 135.318 74.6851C135.732 75.0613 135.961 75.2561 135.976 75.2407C135.991 75.2259 135.789 75.0016 135.403 74.5986C134.97 74.1591 134.406 73.5859 133.713 72.8819L133.567 72.7336L133.525 72.941C133.163 74.7259 132.683 77.0973 132.13 79.8301L132.397 79.7204C131.072 78.8062 129.596 77.8856 128.032 76.9777C124.328 74.8511 120.894 73.0957 118.482 71.6913C117.27 71.0007 116.308 70.41 115.64 70.0049C114.978 69.59 114.605 69.3706 114.591 69.391Z" fill="#263238"/>
<path d="M137.765 75.7658L138.702 73.4731L140.247 76.3122L139.585 77.3411L137.765 75.7658Z" fill="#5EA813"/>
<path d="M135.205 75.4343C135.127 75.5074 136.244 76.7993 137.445 78.5195C138.653 80.2355 139.487 81.7264 139.582 81.6771C139.668 81.6371 138.971 80.0505 137.745 78.3092C136.526 76.5637 135.273 75.3675 135.205 75.4343Z" fill="#263238"/>
<path d="M136.339 82.0088C136.365 82.1086 137.131 81.9933 138.067 81.8372C139.003 81.6783 139.765 81.5362 139.756 81.4335C139.749 81.3344 138.96 81.3147 138.007 81.4764C137.052 81.6354 136.314 81.9131 136.339 82.0088Z" fill="#263238"/>
<path d="M220.493 114.344L231.058 84.4844C231.26 83.8409 230.866 83.1623 230.207 83.0188L205.804 76.6445C205.195 76.5101 204.583 76.8582 204.387 77.4504L193.284 111.087L158.848 133.706L160.503 135.395L169.312 133.248L220.493 114.344Z" fill="#455A64"/>
<path d="M160.502 135.395C160.505 135.4 160.566 135.367 160.68 135.298C160.811 135.215 160.976 135.111 161.182 134.98C161.641 134.68 162.28 134.261 163.093 133.729C164.766 132.615 167.148 131.029 170.082 129.075C175.984 125.103 184.1 119.64 193.066 113.605C193.69 113.183 194.311 112.763 194.889 112.372L194.941 112.337L194.96 112.279C198.204 102.493 201.109 93.7266 203.214 87.3768C204.24 84.2276 205.07 81.679 205.653 79.8892C205.927 79.0249 206.142 78.3449 206.297 77.8554C206.362 77.6381 206.415 77.4637 206.456 77.3245C206.49 77.2042 206.505 77.1416 206.499 77.1402C206.494 77.1381 206.468 77.1972 206.423 77.3132C206.372 77.4489 206.309 77.6205 206.231 77.8329C206.06 78.3174 205.824 78.9905 205.524 79.8456C204.915 81.6263 204.048 84.163 202.976 87.2974C200.844 93.638 197.901 102.391 194.615 112.163L194.686 112.07C194.107 112.461 193.487 112.88 192.862 113.303C183.92 119.372 175.825 124.866 169.938 128.861C167.032 130.856 164.672 132.475 163.013 133.612C162.217 134.168 161.591 134.605 161.141 134.919C160.944 135.062 160.785 135.177 160.659 135.267C160.551 135.346 160.498 135.39 160.502 135.395Z" fill="#263238"/>
<path d="M216.282 113.707C216.287 113.605 211.488 113.297 205.564 113.017C199.638 112.737 194.832 112.592 194.828 112.693C194.823 112.794 199.622 113.103 205.547 113.382C211.47 113.662 216.277 113.807 216.282 113.707Z" fill="#263238"/>
<path d="M212.392 96.6627C211.966 98.0171 212.205 99.2978 212.925 99.5242C213.645 99.7507 214.574 98.8357 214.999 97.4813C215.425 96.1268 215.186 94.8461 214.465 94.6197C213.745 94.3939 212.817 95.3082 212.392 96.6627Z" fill="#E0E0E0"/>
<path d="M182.321 107.31C182.321 107.31 183.233 107.763 183.375 106.31C183.5 105.02 180.405 103.11 179.247 102.395C178.089 101.678 175.646 102.171 174.4 102.333C172.716 102.551 168.794 104.307 167.547 105.803C166.28 107.323 165.412 111.21 164.951 111.578C164.491 111.946 148.898 118.08 148.898 118.08L152.447 130.432C152.447 130.432 166.761 124.114 169.297 121.573C171.833 119.032 171.273 118.384 171.715 116.458C172.158 114.534 172.638 112.487 172.638 112.487L173.985 111.93L176.52 112.65C176.52 112.65 176.829 113.613 177.483 114.365C178.263 115.263 179.675 115.223 180.46 114.33C180.46 114.33 181.747 114.777 182.374 113.325C182.631 112.73 182.446 111.825 182.446 111.825C182.446 111.825 183.598 112.051 183.607 110.615C183.617 109.073 182.321 107.31 182.321 107.31Z" fill="#AE7461"/>
<path d="M174.202 108.945C174.204 109.005 174.725 108.986 175.527 109.162C176.324 109.332 177.408 109.749 178.341 110.569C179.274 111.391 179.823 112.415 180.092 113.184C180.367 113.958 180.414 114.477 180.474 114.472C180.514 114.472 180.561 113.936 180.338 113.107C180.123 112.285 179.578 111.173 178.583 110.295C177.587 109.418 176.416 109.017 175.574 108.907C174.722 108.791 174.196 108.905 174.202 108.945Z" fill="#6F4439"/>
<path d="M175.368 106.295C175.374 106.361 175.935 106.266 176.794 106.466C177.649 106.654 178.772 107.205 179.732 108.146C180.692 109.093 181.344 110.154 181.818 110.913C182.288 111.678 182.584 112.153 182.63 112.128C182.673 112.105 182.46 111.589 182.043 110.784C181.623 109.988 180.993 108.876 179.987 107.884C178.978 106.892 177.759 106.342 176.843 106.212C175.919 106.069 175.355 106.262 175.368 106.295Z" fill="#6F4439"/>
<path d="M175.594 103.399C175.601 103.46 176.085 103.394 176.835 103.533C177.583 103.662 178.583 104.049 179.522 104.738C180.463 105.429 181.187 106.224 181.717 106.791C182.245 107.363 182.581 107.714 182.621 107.68C182.658 107.649 182.395 107.242 181.914 106.623C181.43 106.01 180.721 105.166 179.738 104.443C178.752 103.718 177.669 103.345 176.871 103.277C176.067 103.199 175.583 103.361 175.594 103.399Z" fill="#6F4439"/>
<path d="M109.049 75.3467C104.665 76.2033 101.811 80.055 100.92 84.8716C99.6545 91.7031 115.316 123.991 118.235 131.04C121.309 138.466 128.111 140.089 132.072 139.997C136.033 139.906 163.788 126.888 163.788 126.888L159.719 112.803L135.057 120.125L125.283 92.6272" fill="#E0E0E0"/>
<path d="M125.283 92.6279C125.283 92.6279 125.329 92.7967 125.437 93.1188C125.551 93.4521 125.713 93.9275 125.924 94.5471C126.365 95.8122 127.008 97.6562 127.834 100.028C129.513 104.794 131.936 111.672 134.929 120.17L134.972 120.288L135.093 120.253C142.181 118.158 150.558 115.684 159.765 112.963L159.557 112.849C160.854 117.353 162.212 122.064 163.616 126.937L163.711 126.728C157.233 129.735 150.3 132.892 143.072 135.933C140.137 137.151 137.228 138.364 134.29 139.3L133.185 139.617C132.817 139.713 132.452 139.744 132.086 139.814C131.329 139.826 130.57 139.789 129.823 139.687C128.325 139.502 126.873 139.076 125.523 138.468C122.821 137.25 120.585 135.17 119.226 132.658C118.536 131.417 118.03 130.071 117.445 128.783C116.865 127.495 116.293 126.222 115.728 124.964C111.171 114.922 107.132 105.844 104.235 98.0275C102.809 94.1195 101.574 90.5315 101.072 87.269C100.967 86.4554 100.901 85.6572 101.012 84.9117C101.157 84.1613 101.325 83.4419 101.553 82.7745C101.991 81.4334 102.577 80.2709 103.238 79.3194C104.567 77.3981 106.172 76.4163 107.28 75.9346C107.842 75.6955 108.288 75.5492 108.593 75.4775C108.897 75.3973 109.051 75.3467 109.051 75.3467C109.051 75.3467 108.892 75.372 108.584 75.4409C108.274 75.5014 107.822 75.6357 107.251 75.8664C106.125 76.3298 104.486 77.3039 103.122 79.2371C102.444 80.1943 101.841 81.3666 101.388 82.7197C101.153 83.3941 100.979 84.1191 100.826 84.878C100.705 85.6607 100.769 86.4709 100.871 87.2972C101.359 90.599 102.581 94.1947 103.993 98.1168C106.864 105.957 110.881 115.052 115.422 125.102C115.985 126.36 116.555 127.634 117.132 128.922C117.714 130.204 118.212 131.544 118.923 132.828C120.309 135.4 122.608 137.545 125.377 138.795C126.76 139.419 128.246 139.855 129.778 140.046C130.543 140.151 131.319 140.188 132.098 140.176C132.488 140.107 132.896 140.068 133.274 139.969L134.399 139.647C137.369 138.702 140.274 137.49 143.216 136.27C150.452 133.225 157.384 130.065 163.864 127.048L164.001 126.984L163.959 126.838C162.549 121.967 161.185 117.258 159.881 112.756L159.834 112.593L159.672 112.642C150.472 115.387 142.103 117.883 135.02 119.997L135.184 120.08C132.143 111.599 129.682 104.734 127.976 99.9784C127.12 97.6168 126.455 95.7806 125.999 94.5211C125.772 93.9071 125.598 93.4359 125.475 93.1054C125.354 92.7875 125.283 92.6279 125.283 92.6279Z" fill="#263238"/>
<path d="M131.12 130.456C131.234 130.477 131.611 128.003 132.71 125.147C133.791 122.283 135.154 120.186 135.057 120.125C135.019 120.1 134.629 120.592 134.1 121.457C133.571 122.321 132.921 123.569 132.369 125.017C131.818 126.465 131.473 127.83 131.293 128.826C131.111 129.823 131.074 130.45 131.12 130.456Z" fill="#263238"/>
<path d="M110.756 75.4074C110.734 75.4714 111.664 75.7703 113.058 76.4749C113.757 76.8223 114.558 77.297 115.409 77.8772C116.25 78.4715 117.136 79.1804 117.99 80.0067C118.837 80.8422 119.566 81.7121 120.18 82.5391C120.779 83.3767 121.272 84.1658 121.636 84.8571C122.372 86.2348 122.693 87.1567 122.756 87.1335C122.78 87.1251 122.717 86.8902 122.58 86.4697C122.451 86.047 122.21 85.452 121.867 84.7389C121.528 84.023 121.05 83.2058 120.454 82.3422C119.845 81.4892 119.109 80.596 118.247 79.7444C117.376 78.9019 116.466 78.1874 115.599 77.598C114.722 77.0228 113.894 76.5635 113.171 76.2414C112.45 75.9144 111.85 75.6873 111.424 75.5677C111 75.4411 110.764 75.3828 110.756 75.4074Z" fill="#263238"/>
<path d="M183.348 163.982C183.42 164.053 191.322 155.992 200.993 145.98C210.668 135.965 218.449 127.792 218.377 127.722C218.305 127.651 210.405 135.711 200.73 145.726C191.058 155.737 183.274 163.913 183.348 163.982Z" fill="#455A64"/>
<path opacity="0.3" d="M249.551 165.521C249.551 165.521 234.047 136.543 226.744 134.614C226.744 134.614 237.308 148.93 240.844 159.065L249.551 165.521Z" fill="black"/>
<path d="M215.075 131.153C215.089 131.203 215.779 130.876 217.111 130.764C218.431 130.636 220.415 130.864 222.556 131.923C224.71 132.958 226.83 134.947 228.696 137.492C230.552 140.052 232.416 143.012 234.198 146.203C237.715 152.626 240.427 158.694 242.591 162.985C243.655 165.14 244.564 166.861 245.2 168.045C245.515 168.607 245.766 169.056 245.956 169.395C246.133 169.702 246.231 169.86 246.243 169.854C246.254 169.847 246.177 169.678 246.022 169.36C245.847 169.013 245.616 168.553 245.326 167.979C244.73 166.776 243.857 165.04 242.825 162.872C240.723 158.555 238.048 152.471 234.519 146.026C232.727 142.818 230.855 139.862 228.968 137.29C227.071 134.731 224.887 132.717 222.671 131.691C220.472 130.641 218.438 130.448 217.099 130.623C215.746 130.781 215.075 131.153 215.075 131.153Z" fill="#455A64"/>
<path d="M250.831 185.741L260.694 203.917C260.694 203.917 282.683 201.319 284.637 204.625L248.906 222.893L234.077 194.249L250.831 185.741Z" fill="#333333"/>
<path d="M248.854 208.018C247.399 209.332 249.339 211.652 250.857 210.374C252.477 208.912 250.164 206.552 248.744 208.131" fill="#E0E0E0"/>
<path d="M248.906 222.893L247.524 219.947L282.299 203.534C282.299 203.534 284.244 203.413 284.637 204.625L248.906 222.893Z" fill="#455A64"/>
<path d="M261.18 203.439C261.264 203.616 260.432 204.142 259.86 205.142C259.262 206.127 259.206 207.109 259.011 207.122C258.013 206.516 260.172 202.858 261.18 203.439Z" fill="white"/>
<path d="M265.721 203.073C265.847 203.223 265.243 203.905 265.028 204.946C264.782 205.981 265.04 206.855 264.863 206.936C263.717 206.702 264.588 202.798 265.721 203.073Z" fill="white"/>
<path d="M270.143 206.47C269.179 206.595 269.036 202.727 270.003 202.782C269.957 202.9 270.091 206.359 270.143 206.47Z" fill="white"/>
<path d="M258.712 199.389C258.587 199.383 255.169 201.392 255.116 201.497C254.566 200.679 258.27 198.509 258.712 199.389Z" fill="white"/>
<path d="M264.246 153.341L281.147 165.258C281.147 165.258 299.703 153.177 302.92 155.274L278.998 187.494L253.647 167.535L264.246 153.341Z" fill="#333333"/>
<path d="M272.353 174.184C271.632 176.007 274.4 177.225 275.193 175.407C275.997 173.378 272.877 172.289 272.305 174.334" fill="#E0E0E0"/>
<path d="M278.998 187.494L276.453 185.466L300.341 155.332C300.341 155.332 302.03 154.361 302.92 155.274L278.998 187.494Z" fill="#455A64"/>
<path d="M281.37 164.614C281.524 164.735 281.011 165.576 280.942 166.725C280.843 167.873 281.228 168.778 281.059 168.877C279.896 168.776 280.209 164.54 281.37 164.614Z" fill="white"/>
<path d="M285.277 162.272C285.456 162.349 285.218 163.229 285.486 164.258C285.725 165.294 286.344 165.963 286.221 166.115C285.091 166.412 284.14 162.528 285.277 162.272Z" fill="white"/>
<path d="M290.747 163.356C289.939 163.895 288.095 160.492 288.987 160.112C288.998 160.238 290.651 163.279 290.747 163.356Z" fill="white"/>
<path opacity="0.3" d="M185.994 161.244C185.994 161.244 205.699 146.243 210.397 140.461C215.033 134.757 217.504 129.218 217.504 129.218L185.994 161.244Z" fill="black"/>
<path d="M264.633 176.705L277.961 160.048C277.961 160.048 226.403 117.573 221.529 114.539C217.837 112.241 210.334 109.191 203.23 111.577C196.128 113.964 184.103 122.272 179.671 124.967C175.238 127.662 136.65 151.563 132.479 157.41C132.479 157.41 140.875 172.598 146.373 175.144C150.679 177.139 163.093 174.161 170.346 169.752C177.599 165.342 210.876 136.843 210.876 136.843L264.633 176.705Z" fill="#054E82"/>
<path d="M259.667 196.231L241.661 209.165L207.009 152.695L172.022 168.637L195.548 129.33C195.548 129.33 214.522 129.553 217.504 129.217C221.33 128.787 228.315 134.826 232.128 142.198C235.442 148.606 259.667 196.231 259.667 196.231Z" fill="#054E82"/>
<g clip-path="url(#clip0_80_10946)">
<path d="M259.02 113.47H296.27V253.74H259.02V113.47Z" fill="#E7E6E6"/>
<path d="M57.1699 160.11H94.4199V252.96H57.1699V160.11Z" fill="#E7E6E6"/>
<path d="M0.279785 87.1299H37.5298V252.96H0.279785V87.1299Z" fill="#E7E6E6"/>
<path d="M120.28 93.1499H157.53V252.96H120.28V93.1499Z" fill="#E7E6E6"/>
<path d="M195.02 47.9102H232.27V252.96H195.02V47.9102Z" fill="#E7E6E6"/>
<path d="M101.29 253.92H43.57C42.47 253.92 41.6 252.98 41.67 251.88L44.55 211.03C44.62 210.04 45.45 209.26 46.44 209.26L99.43 209.18C100.45 209.18 101.29 209.98 101.33 211L103.18 251.93C103.23 253.01 102.36 253.92 101.28 253.92H101.29Z" fill="#263238"/>
<path d="M93.3299 253.92C93.2399 253.92 93.1699 243.92 93.1699 231.6C93.1699 219.28 93.2399 209.27 93.3299 209.27C93.4199 209.27 93.4899 219.26 93.4899 231.6C93.4899 243.94 93.4199 253.92 93.3299 253.92Z" fill="#455A64"/>
<path d="M92.6501 210.33C92.6501 210.33 92.6301 210.39 92.5601 210.49C92.4901 210.61 92.3901 210.76 92.2801 210.95C92.0101 211.37 91.6401 211.96 91.1701 212.7C90.1901 214.21 88.7601 216.4 86.8401 219C84.9001 221.57 82.4601 224.59 79.1801 227.35C77.5501 228.73 75.6901 230.02 73.6401 231.14C71.5801 232.23 69.2601 233.09 66.7701 233.29C64.2801 233.5 61.8401 232.94 59.6801 232.06C57.5201 231.17 55.5801 229.98 53.9101 228.63C50.5701 225.91 48.3701 222.61 47.0201 219.68C45.6601 216.73 45.1801 214.11 44.9801 212.33C44.9401 211.88 44.9001 211.48 44.8801 211.13C44.8801 210.79 44.8801 210.5 44.8701 210.25V209.71C44.8701 209.59 44.8701 209.53 44.8801 209.53C44.8901 209.53 44.8901 209.59 44.9001 209.71C44.9001 209.85 44.9201 210.03 44.9301 210.25C44.9401 210.49 44.9601 210.79 44.9701 211.13C45.0001 211.48 45.0501 211.87 45.1001 212.32C45.3401 214.09 45.8501 216.68 47.2201 219.6C48.5801 222.49 50.7801 225.74 54.0901 228.41C55.7401 229.74 57.6601 230.91 59.7901 231.78C61.9201 232.64 64.3001 233.18 66.7301 232.98C69.1601 232.79 71.4401 231.94 73.4801 230.87C75.5101 229.77 77.3501 228.5 78.9801 227.14C82.2501 224.41 84.6901 221.42 86.6501 218.88C88.5901 216.31 90.0401 214.14 91.0601 212.65C91.5601 211.92 91.9501 211.34 92.2201 210.93C92.3501 210.75 92.4501 210.6 92.5301 210.49C92.6001 210.39 92.6401 210.34 92.6401 210.34L92.6501 210.33Z" fill="#455A64"/>
<path d="M68.76 233.33C68.76 234.79 67.57 235.98 66.11 235.98C64.65 235.98 63.46 234.8 63.46 233.33C63.46 231.86 64.65 230.68 66.11 230.68C67.57 230.68 68.76 231.87 68.76 233.33Z" fill="#455A64"/>
<path d="M84.2598 200.95C83.1498 199.92 81.5898 199.54 80.0898 199.39C76.4598 199.03 72.4698 199.78 69.3098 201.58C66.1398 203.38 63.8098 206.37 62.2598 209.67L64.3398 211.85C65.1898 208.42 67.0898 205.44 70.0398 203.49C72.9898 201.54 76.1198 200.65 79.6098 201.21C80.4098 201.34 81.5398 201.64 82.2098 202.1C83.5698 203.05 83.7798 204.16 83.5398 205.57C83.1798 207.66 82.6598 208.57 81.7698 209.69C83.2998 209.73 83.6598 209.73 85.1898 209.77C85.5798 208.26 85.9698 206.73 85.9398 205.17C85.9098 203.61 85.4098 202 84.2698 200.94L84.2598 200.95Z" fill="#263238"/>
<path d="M142.22 232.49H164.1V241.11H142.22V232.49Z" fill="#FAFAFA"/>
<path d="M96.29 231.01H165.02V232.82H96.29V231.01Z" fill="#455A64"/>
<path d="M96.29 240.72H164.7V242.53H96.29V240.72Z" fill="#455A64"/>
<path d="M142.22 231.43L142.12 242.18H96.29V231.43H142.22Z" fill="#455A64"/>
<path d="M131.08 236.8C131.08 238.28 132.19 239.48 133.56 239.48C134.93 239.48 136.04 238.28 136.04 236.8C136.04 235.32 134.93 234.12 133.56 234.12C132.19 234.12 131.08 235.32 131.08 236.8Z" fill="#263238"/>
<path d="M133.56 239.86C135.14 239.86 136.42 238.49 136.42 236.8C136.42 235.11 135.14 233.74 133.56 233.74C131.98 233.74 130.7 235.11 130.7 236.8C130.7 238.49 131.98 239.86 133.56 239.86ZM133.56 234.51C134.71 234.51 135.65 235.54 135.65 236.8C135.65 238.06 134.71 239.09 133.56 239.09C132.41 239.09 131.47 238.06 131.47 236.8C131.47 235.54 132.41 234.51 133.56 234.51Z" fill="#E0E0E0"/>
<path d="M143.87 238.99C143.87 239.1 148.37 239.19 153.91 239.19C159.45 239.19 163.95 239.1 163.95 238.99C163.95 238.88 159.45 238.79 153.91 238.79C148.37 238.79 143.87 238.88 143.87 238.99Z" fill="#263238"/>
<path d="M143.87 237.49C143.87 237.6 148.37 237.69 153.91 237.69C159.45 237.69 163.95 237.6 163.95 237.49C163.95 237.38 159.45 237.29 153.91 237.29C148.37 237.29 143.87 237.38 143.87 237.49Z" fill="#263238"/>
<path d="M143.87 235.99C143.87 236.1 148.37 236.19 153.91 236.19C159.45 236.19 163.95 236.1 163.95 235.99C163.95 235.88 159.45 235.79 153.91 235.79C148.37 235.79 143.87 235.88 143.87 235.99Z" fill="#263238"/>
<path d="M143.87 234.49C143.87 234.6 148.37 234.69 153.91 234.69C159.45 234.69 163.95 234.6 163.95 234.49C163.95 234.38 159.45 234.29 153.91 234.29C148.37 234.29 143.87 234.38 143.87 234.49Z" fill="#263238"/>
<path d="M101.37 233.72H122.02V239.47H101.37V233.72Z" fill="white"/>
<path d="M118.81 238.89C118.92 238.89 119.01 237.86 119.01 236.6C119.01 235.34 118.92 234.31 118.81 234.31C118.7 234.31 118.61 235.34 118.61 236.6C118.61 237.86 118.7 238.89 118.81 238.89Z" fill="#E0E0E0"/>
<path d="M116.08 238.89C116.19 238.89 116.28 237.86 116.28 236.6C116.28 235.34 116.19 234.31 116.08 234.31C115.97 234.31 115.88 235.34 115.88 236.6C115.88 237.86 115.97 238.89 116.08 238.89Z" fill="#E0E0E0"/>
<path d="M113.35 238.89C113.46 238.89 113.55 237.86 113.55 236.6C113.55 235.34 113.46 234.31 113.35 234.31C113.24 234.31 113.15 235.34 113.15 236.6C113.15 237.86 113.24 238.89 113.35 238.89Z" fill="#E0E0E0"/>
<path d="M110.61 238.89C110.72 238.89 110.81 237.86 110.81 236.6C110.81 235.34 110.72 234.31 110.61 234.31C110.5 234.31 110.41 235.34 110.41 236.6C110.41 237.86 110.5 238.89 110.61 238.89Z" fill="#E0E0E0"/>
<path d="M107.88 238.89C107.99 238.89 108.08 237.86 108.08 236.6C108.08 235.34 107.99 234.31 107.88 234.31C107.77 234.31 107.68 235.34 107.68 236.6C107.68 237.86 107.77 238.89 107.88 238.89Z" fill="#E0E0E0"/>
<path d="M105.15 238.89C105.26 238.89 105.35 237.86 105.35 236.6C105.35 235.34 105.26 234.31 105.15 234.31C105.04 234.31 104.95 235.34 104.95 236.6C104.95 237.86 105.04 238.89 105.15 238.89Z" fill="#E0E0E0"/>
<path d="M139.32 243.69H161.2V252.31H139.32V243.69Z" fill="#FAFAFA"/>
<path d="M93.3799 242.21H162.11V244.02H93.3799V242.21Z" fill="#FFC938"/>
<path d="M93.3799 251.93H161.79V253.74H93.3799V251.93Z" fill="#FFC938"/>
<path d="M139.32 242.64L139.22 253.39H93.3901V242.64H139.32Z" fill="#FFC938"/>
<path d="M128.18 248.01C128.18 249.49 129.29 250.68 130.66 250.68C132.03 250.68 133.14 249.48 133.14 248.01C133.14 246.54 132.03 245.33 130.66 245.33C129.29 245.33 128.18 246.53 128.18 248.01Z" fill="#263238"/>
<path d="M130.65 251.07C132.23 251.07 133.51 249.7 133.51 248.01C133.51 246.32 132.23 244.95 130.65 244.95C129.07 244.95 127.79 246.32 127.79 248.01C127.79 249.7 129.07 251.07 130.65 251.07ZM130.65 245.72C131.8 245.72 132.74 246.75 132.74 248.01C132.74 249.27 131.8 250.3 130.65 250.3C129.5 250.3 128.56 249.27 128.56 248.01C128.56 246.75 129.5 245.72 130.65 245.72Z" fill="#E0E0E0"/>
<path d="M140.96 250.2C140.96 250.31 145.46 250.4 151 250.4C156.54 250.4 161.04 250.31 161.04 250.2C161.04 250.09 156.55 250 151 250C145.45 250 140.96 250.09 140.96 250.2Z" fill="#263238"/>
<path d="M140.96 248.7C140.96 248.81 145.46 248.9 151 248.9C156.54 248.9 161.04 248.81 161.04 248.7C161.04 248.59 156.55 248.5 151 248.5C145.45 248.5 140.96 248.59 140.96 248.7Z" fill="#263238"/>
<path d="M140.96 247.2C140.96 247.31 145.46 247.4 151 247.4C156.54 247.4 161.04 247.31 161.04 247.2C161.04 247.09 156.55 247 151 247C145.45 247 140.96 247.09 140.96 247.2Z" fill="#263238"/>
<path d="M140.96 245.69C140.96 245.8 145.46 245.89 151 245.89C156.54 245.89 161.04 245.8 161.04 245.69C161.04 245.58 156.55 245.49 151 245.49C145.45 245.49 140.96 245.58 140.96 245.69Z" fill="#263238"/>
<path d="M98.46 244.93H119.11V250.68H98.46V244.93Z" fill="white"/>
<path d="M115.9 250.1C116.01 250.1 116.1 249.07 116.1 247.81C116.1 246.55 116.01 245.52 115.9 245.52C115.79 245.52 115.7 246.55 115.7 247.81C115.7 249.07 115.79 250.1 115.9 250.1Z" fill="#E0E0E0"/>
<path d="M113.17 250.1C113.28 250.1 113.37 249.07 113.37 247.81C113.37 246.55 113.28 245.52 113.17 245.52C113.06 245.52 112.97 246.55 112.97 247.81C112.97 249.08 113.06 250.1 113.17 250.1Z" fill="#E0E0E0"/>
<path d="M110.44 250.1C110.55 250.1 110.64 249.07 110.64 247.81C110.64 246.55 110.55 245.52 110.44 245.52C110.33 245.52 110.24 246.55 110.24 247.81C110.24 249.07 110.33 250.1 110.44 250.1Z" fill="#E0E0E0"/>
<path d="M107.71 250.1C107.82 250.1 107.91 249.07 107.91 247.81C107.91 246.55 107.82 245.52 107.71 245.52C107.6 245.52 107.51 246.55 107.51 247.81C107.51 249.07 107.6 250.1 107.71 250.1Z" fill="#E0E0E0"/>
<path d="M104.98 250.1C105.09 250.1 105.18 249.07 105.18 247.81C105.18 246.55 105.09 245.52 104.98 245.52C104.87 245.52 104.78 246.55 104.78 247.81C104.78 249.07 104.87 250.1 104.98 250.1Z" fill="#E0E0E0"/>
<path d="M102.25 250.1C102.36 250.1 102.45 249.07 102.45 247.81C102.45 246.55 102.36 245.52 102.25 245.52C102.14 245.52 102.05 246.55 102.05 247.81C102.05 249.07 102.14 250.1 102.25 250.1Z" fill="#E0E0E0"/>
<path d="M31.2401 0H49.1401L101.38 31.44C101.18 31.73 95.0201 36.19 86.9601 41.95L162.61 181.25L225.93 153.29L281.99 254.05H251.36L212.73 183.49L154.63 210.41L130 213.35L63.3301 58.77C54.9501 64.71 48.5201 69.26 48.5201 69.26H30.6201C30.6201 69.26 35.8401 25.44 35.8401 25.09C35.8401 24.74 31.2401 0 31.2401 0Z" fill="#5EA813"/>
<path d="M31.2401 0H49.1401L101.38 31.44C101.18 31.73 95.0201 36.19 86.9601 41.95L162.61 181.25L225.93 153.29L281.99 254.05H251.36L212.73 183.49L154.63 210.41L130 213.35L63.3301 58.77C54.9501 64.71 48.5201 69.26 48.5201 69.26H30.6201C30.6201 69.26 35.8401 25.44 35.8401 25.09C35.8401 24.74 31.2401 0 31.2401 0Z" fill="#474748"/>
<path d="M263.88 254.05L207.59 152.42L144.5 181.25L63.1402 31.4399L38.9102 44.1699L130.01 213.35L194.62 183.5L233.25 254.06H263.88V254.05Z" fill="#5EA813"/>
<path d="M83.4799 31.44C82.8999 32.3 30.6099 69.25 30.6099 69.25L31.2399 0L83.4799 31.44Z" fill="#5EA813"/>
<path d="M83.48 31.4398C83.48 31.5398 87.49 31.6198 92.43 31.6198C97.37 31.6198 101.38 31.5398 101.38 31.4398C101.38 31.3398 97.37 31.2598 92.43 31.2598C87.49 31.2598 83.48 31.3398 83.48 31.4398Z" fill="#263238"/>
<path d="M69.5 42.2498C69.5 42.3498 73.51 42.4298 78.45 42.4298C83.39 42.4298 87.4 42.3498 87.4 42.2498C87.4 42.1498 83.39 42.0698 78.45 42.0698C73.51 42.0698 69.5 42.1498 69.5 42.2498Z" fill="#263238"/>
<path d="M203.96 104.97C203.96 104.97 205.05 105.44 205.22 103.99C205.39 102.54 202.37 99.52 201.4 98.56C200.43 97.6 199.05 97.81 197.82 98.08C196.59 98.35 191.57 98.86 189.91 99.93C188.25 101 185.7 106.36 185.16 106.62C184.63 106.87 168.97 107.69 168.97 107.69L169.64 120.52C169.64 120.52 185.01 117.59 188.05 115.69C191.09 113.79 190.69 113.03 191.56 111.25C192.43 109.47 193.35 107.59 193.35 107.59L194.79 107.35L197.1 108.62C197.1 108.62 197.37 111.88 199.66 111.79L200.78 111.2C200.78 111.2 201.53 112.06 202.38 110.73C203.23 109.4 203.07 109.15 203.07 109.15C203.07 109.15 203.97 110.26 204.93 108.88C205.89 107.5 203.96 104.96 203.96 104.96V104.97Z" fill="#AE7461"/>
<path d="M187.09 110.42C187.09 110.42 187.15 110.45 187.26 110.47C187.37 110.5 187.55 110.52 187.77 110.52C188.22 110.52 188.89 110.41 189.61 110C190.33 109.59 191.08 108.86 191.56 107.84C192.06 106.82 192.3 105.57 192.37 104.24L192.12 104.39C193.15 104.87 194.36 105.17 195.63 105.22C196.52 105.25 197.39 105.15 198.21 104.95C198.6 104.84 199.05 104.78 199.39 104.4C199.57 104.22 199.61 103.85 199.43 103.64C199.26 103.43 199.05 103.36 198.88 103.28C197.47 102.71 196.17 102.27 195.08 101.93C193.98 101.59 193.08 101.37 192.45 101.23C191.82 101.09 191.47 101.03 191.47 101.06C191.47 101.09 191.8 101.19 192.42 101.37C193.03 101.55 193.92 101.82 195 102.18C196.08 102.54 197.36 103.01 198.75 103.6C198.92 103.67 199.08 103.75 199.16 103.85C199.23 103.95 199.23 104.06 199.13 104.17C198.92 104.41 198.52 104.49 198.13 104.6C197.34 104.79 196.51 104.89 195.65 104.85C194.43 104.81 193.26 104.52 192.27 104.07L192.03 103.96V104.22C191.96 105.52 191.74 106.73 191.29 107.71C190.85 108.69 190.17 109.4 189.5 109.81C188.83 110.23 188.2 110.37 187.77 110.41C187.34 110.44 187.1 110.4 187.1 110.42H187.09Z" fill="#6F4439"/>
<path d="M195.01 101.62C195.01 101.62 195.54 101.96 196.49 101.91C196.96 101.91 197.5 101.83 198.09 101.87C198.68 101.9 199.24 102.15 199.69 102.68C200.64 103.74 201.78 104.44 202.64 104.8C203.5 105.16 204.08 105.24 204.09 105.2C204.11 105.14 203.56 104.98 202.75 104.57C201.94 104.16 200.89 103.47 199.96 102.43C199.71 102.18 199.44 101.92 199.1 101.77C198.77 101.61 198.43 101.56 198.11 101.54C197.47 101.52 196.93 101.63 196.48 101.66C195.57 101.77 195.04 101.58 195.02 101.63L195.01 101.62Z" fill="#6F4439"/>
<path d="M198.24 105.04C198.15 105.07 198.79 106.51 200.24 107.75C201.68 108.99 203.2 109.4 203.22 109.31C203.26 109.2 201.86 108.66 200.48 107.47C199.09 106.29 198.34 104.98 198.25 105.04H198.24Z" fill="#6F4439"/>
<path d="M197.68 107.01C197.59 107.01 197.8 108.28 198.71 109.52C199.62 110.77 200.76 111.35 200.8 111.26C200.86 111.17 199.86 110.48 199.01 109.3C198.14 108.13 197.79 106.97 197.68 107V107.01Z" fill="#6F4439"/>
<path d="M150.39 79.9602L164.4 105.24L186.15 104.87L187.78 117.93L165.34 123.43L156.1 113.28L150.39 79.9502V79.9602Z" fill="#E0E0E0"/>
<path d="M162.65 109.54C162.76 109.54 162.89 108.51 163.38 107.34C163.85 106.16 164.48 105.32 164.4 105.25C164.33 105.18 163.54 105.95 163.04 107.2C162.53 108.44 162.56 109.54 162.65 109.54Z" fill="#263238"/>
<path d="M145.06 35.2098C146.83 35.4498 148.68 34.1698 149.09 32.4298C149.5 30.6898 148.42 28.7198 146.73 28.1398C147.86 27.0298 148.17 25.1798 147.47 23.7598C146.77 22.3398 145.11 21.4598 143.54 21.6798C143.5 20.1198 142.6 18.5998 141.24 17.8298C139.88 17.0598 138.12 17.0598 136.76 17.8298C135.06 16.3198 132.28 16.2098 130.47 17.5898C128.96 17.2798 127.29 18.0598 126.55 19.4198C125.81 20.7798 126.07 22.5998 127.15 23.6998" fill="#263238"/>
<path d="M129.62 21.1802L130.42 21.2002C138.49 21.3602 145.09 27.6802 145.58 35.7402C146.04 43.2302 146.45 51.5202 146.32 55.5302C146.06 63.8402 137.72 64.9702 137.72 64.9702L138.23 74.9702L137.24 82.5902L118.07 73.9502L116.99 37.7102C116.41 29.0702 120.96 21.5302 129.62 21.1902V21.1802Z" fill="#AE7461"/>
<path d="M137.79 64.9498C137.79 64.9498 132.48 65.1698 126.96 61.5498C126.96 61.5498 129.53 67.9798 137.84 67.3998L137.79 64.9498Z" fill="#6F4439"/>
<path d="M142.88 44.2C142.88 44.83 142.37 45.35 141.71 45.38C141.06 45.4 140.52 44.91 140.51 44.29C140.51 43.66 141.02 43.14 141.68 43.11C142.33 43.09 142.87 43.58 142.88 44.2Z" fill="#263238"/>
<path d="M143.71 39.7598C143.56 39.9098 142.67 39.2298 141.4 39.2098C140.13 39.1698 139.18 39.8098 139.04 39.6498C138.97 39.5798 139.13 39.2998 139.54 39.0098C139.95 38.7198 140.64 38.4498 141.43 38.4698C142.22 38.4898 142.89 38.7998 143.27 39.0998C143.66 39.4098 143.78 39.6898 143.71 39.7598Z" fill="#263238"/>
<path d="M132.07 43.9302C132.07 44.5602 131.56 45.0802 130.9 45.1002C130.25 45.1202 129.71 44.6302 129.7 44.0102C129.69 43.3802 130.21 42.8602 130.87 42.8302C131.52 42.8102 132.06 43.3002 132.07 43.9302Z" fill="#263238"/>
<path d="M131.16 39.75C131.01 39.9 130.12 39.22 128.85 39.2C127.57 39.16 126.62 39.8 126.49 39.64C126.42 39.57 126.58 39.29 126.99 39C127.4 38.71 128.09 38.44 128.88 38.46C129.67 38.48 130.34 38.79 130.72 39.09C131.11 39.4 131.23 39.68 131.16 39.75Z" fill="#263238"/>
<path d="M135.61 49.3201C135.61 49.2501 136.4 49.1301 137.69 48.9901C138.02 48.9601 138.33 48.9001 138.39 48.6801C138.47 48.4501 138.34 48.0901 138.19 47.7101C137.9 46.9201 137.59 46.0801 137.27 45.2101C136 41.6501 135.09 38.7201 135.23 38.6701C135.37 38.6201 136.52 41.4701 137.79 45.0301C138.1 45.9101 138.39 46.7501 138.67 47.5501C138.79 47.9201 138.99 48.3501 138.81 48.8301C138.72 49.0701 138.47 49.2401 138.27 49.3001C138.06 49.3601 137.88 49.3601 137.71 49.3701C136.41 49.4101 135.61 49.4001 135.61 49.3301V49.3201Z" fill="#263238"/>
<path d="M132.36 34.8602C132.19 35.1802 131.1 34.8102 129.75 34.7402C128.41 34.6402 127.27 34.8702 127.15 34.5302C127.1 34.3702 127.34 34.0802 127.84 33.8302C128.33 33.5802 129.06 33.3902 129.87 33.4402C130.68 33.4902 131.37 33.7702 131.81 34.0802C132.25 34.3902 132.44 34.7002 132.37 34.8602H132.36Z" fill="#263238"/>
<path d="M143.88 34.4999C143.61 34.7799 142.56 34.4599 141.29 34.4199C140.02 34.3399 138.94 34.5699 138.7 34.2599C138.59 34.1099 138.77 33.8199 139.24 33.5599C139.71 33.2999 140.48 33.0899 141.36 33.1299C142.23 33.1699 142.98 33.4499 143.41 33.7499C143.85 34.0599 143.99 34.3599 143.87 34.4999H143.88Z" fill="#263238"/>
<path d="M144.85 31.9C144.85 31.9 142.76 26.65 140.27 25.39C137.26 23.86 135.89 27.17 133.01 26.3C130.13 25.44 127.26 23.97 124.26 26.15C120.97 28.54 122.46 30.28 122.19 33.97C121.09 48.9 118.28 53.08 117.64 46.02C117.57 45.25 115.44 44.59 115.19 41.33C114.86 37.1 114.8 31.96 115.8 28.98C116.64 26.47 118.12 24.75 120.74 22.87C124.88 19.91 130.48 19.95 134.28 20.41C138.08 20.87 145.33 25.39 144.86 31.9H144.85Z" fill="#263238"/>
<path d="M118.17 45.8102C118.14 44.5302 117.06 43.4902 115.78 43.5902C114.23 43.7102 112.49 44.5502 112.53 47.7602C112.6 53.4402 118.29 52.2002 118.3 52.0402C118.3 51.9302 118.23 48.1902 118.18 45.8202L118.17 45.8102Z" fill="#AE7461"/>
<path d="M117.03 49.9101C117.03 49.9101 116.93 49.9801 116.77 50.0601C116.61 50.1401 116.33 50.1901 116.03 50.0801C115.43 49.8701 114.91 48.9201 114.87 47.9001C114.85 47.3801 114.95 46.8901 115.13 46.4801C115.3 46.0601 115.56 45.7701 115.87 45.7101C116.17 45.6401 116.39 45.8101 116.46 45.9701C116.54 46.1301 116.5 46.2401 116.53 46.2501C116.55 46.2601 116.65 46.1501 116.6 45.9201C116.57 45.8101 116.51 45.6701 116.37 45.5701C116.23 45.4601 116.03 45.4101 115.82 45.4301C115.38 45.4701 114.99 45.8701 114.8 46.3201C114.58 46.7701 114.45 47.3301 114.48 47.9101C114.53 49.0601 115.13 50.1201 115.96 50.3501C116.36 50.4501 116.69 50.3201 116.86 50.1901C117.03 50.0501 117.06 49.9201 117.04 49.9101H117.03Z" fill="#6F4439"/>
<path d="M118.49 34.8002C119.22 35.3202 119.99 35.8502 120.88 35.9602C121.77 36.0702 122.79 35.5702 122.96 34.7002C123.03 34.3102 122.95 33.8402 123.21 33.5402C123.53 33.1802 124.1 33.3102 124.57 33.3702C126.22 33.5802 128.18 31.7902 128.64 30.1902C129.05 30.8302 129.97 31.0402 130.61 30.6402C131.26 30.2402 131.49 30.0102 132 29.4502C132.51 28.8902 133.22 28.3902 133.97 28.5102C134.39 28.5802 134.78 28.8402 135.2 28.8102C135.95 28.7602 136.33 27.8902 136.46 27.1502C136.59 26.4102 136.69 25.5502 137.33 25.1602C137.92 24.8002 138.68 25.0302 139.36 25.1402C140.04 25.2502 140.93 25.1102 141.12 24.4402C141.22 24.0902 141.08 23.7202 140.89 23.4002C140.03 21.9902 138.11 21.3302 136.57 21.9202C136.05 20.0302 134.32 18.5402 132.38 18.2902C130.44 18.0502 128.39 19.0702 127.43 20.7702C126.25 19.6602 124.51 19.1702 122.93 19.5002C121.34 19.8302 119.95 20.9702 119.31 22.4602C117.94 22.0702 116.35 22.5702 115.45 23.6902C114.55 24.8002 114.4 26.4602 115.07 27.7202C114.04 28.2802 113.14 29.2802 113.1 30.4602C113.06 31.6402 114.18 32.8302 115.32 32.5402C114.84 33.4502 115.19 34.7002 116.07 35.2302C116.95 35.7602 118.22 35.4802 118.79 34.6402" fill="#263238"/>
<path d="M136.97 23.6102C136.97 23.6102 136.97 23.6502 136.97 23.7102C136.97 23.7802 136.96 23.8802 136.93 24.0102C136.87 24.2702 136.76 24.6602 136.5 25.1002C136.24 25.5302 135.83 26.0302 135.21 26.4202C134.61 26.8102 133.79 27.1102 132.87 27.0402L132.97 26.9202C133.14 27.4102 133.08 27.9902 132.83 28.4902C132.59 28.9902 132.22 29.4402 131.83 29.8702C131.63 30.0802 131.46 30.3202 131.18 30.5102C130.91 30.6902 130.6 30.7902 130.27 30.8302C129.63 30.9002 128.91 30.6902 128.46 30.1402L128.67 30.0802C128.5 31.2102 127.84 32.3202 126.81 32.9902C126.26 33.3702 125.59 33.6002 124.93 33.5702C124.27 33.5502 123.67 33.3502 123.1 33.1302L123.25 33.0702C122.93 33.7702 122.45 34.3602 121.87 34.8002C121.3 35.2302 120.55 35.4802 119.88 35.3002C118.55 34.9902 117.68 33.8602 117.52 32.8002L117.65 32.8602C116.98 33.2102 116.26 33.2302 115.69 33.1102C115.11 32.9902 114.66 32.7302 114.34 32.4802C114.02 32.2202 113.83 31.9602 113.72 31.7702C113.62 31.5802 113.58 31.4802 113.58 31.4702C113.61 31.4502 113.76 31.9102 114.4 32.4002C114.72 32.6402 115.16 32.8702 115.72 32.9702C116.27 33.0702 116.95 33.0402 117.57 32.7002L117.68 32.6402L117.7 32.7602C117.86 33.7402 118.7 34.8002 119.94 35.0702C120.55 35.2302 121.21 35.0002 121.75 34.6002C122.29 34.1902 122.75 33.6202 123.05 32.9602L123.1 32.8602L123.21 32.9002C123.77 33.1102 124.35 33.3002 124.96 33.3202C125.57 33.3402 126.17 33.1402 126.69 32.7802C127.67 32.1502 128.29 31.1002 128.45 30.0402L128.49 29.7702L128.66 29.9802C129.04 30.4502 129.69 30.6502 130.26 30.5902C130.55 30.5602 130.83 30.4702 131.06 30.3202C131.29 30.1702 131.47 29.9302 131.67 29.7202C132.06 29.3002 132.42 28.8702 132.65 28.4002C132.89 27.9402 132.94 27.4302 132.8 26.9802L132.76 26.8402H132.9C133.76 26.9302 134.55 26.6602 135.14 26.2902C135.74 25.9302 136.15 25.4602 136.42 25.0402C136.95 24.1902 136.95 23.5902 136.99 23.6002L136.97 23.6102Z" fill="#455A64"/>
<path d="M135.24 53.6802C135.21 53.4702 133.81 53.7302 132.59 52.7202C131.36 51.7102 131.23 50.1902 131.04 50.2102C130.95 50.2102 130.83 50.6002 130.94 51.2302C131.04 51.8502 131.41 52.7202 132.16 53.3402C132.91 53.9602 133.78 54.1202 134.37 54.0502C134.97 53.9902 135.28 53.7702 135.26 53.6702L135.24 53.6802Z" fill="#263238"/>
<path d="M175.74 134.12L164.92 122.19L155.87 94.84C154.02 90.1 152.44 84.07 150.2 79.57C149.1 77.36 147.24 75.61 144.99 74.61L141.15 72.9L138.85 69.23C140.17 77.52 128.55 78.54 116.2 68.25C116.2 68.25 112.12 71.01 106.37 75.78C103.85 77.87 101.57 80.15 100.62 83.6C98.8899 89.86 106.32 108.38 114.41 125.81C116.83 131.02 128.35 154.38 128.35 154.38L132.5 157.4C132.5 157.4 169.16 146.29 172.46 140.2L175.76 134.11L175.74 134.12Z" fill="#E0E0E0"/>
<path d="M169.74 127.01C169.74 127.01 169.64 126.88 169.43 126.65C169.19 126.4 168.88 126.07 168.5 125.67C167.65 124.8 166.47 123.59 165.01 122.1L165.04 122.15C164.36 120.07 163.55 117.58 162.65 114.8C161.72 112.02 160.77 108.94 159.82 105.68C157.97 99.2898 156.22 93.5098 154.61 89.4498C153.83 87.4098 153.09 85.7998 152.57 84.6998C152.31 84.1798 152.1 83.7598 151.94 83.4398C151.79 83.1498 151.71 83.0098 151.7 83.0098C151.69 83.0098 151.75 83.1698 151.88 83.4698C152.02 83.7998 152.21 84.2198 152.45 84.7498C152.92 85.8698 153.62 87.4898 154.37 89.5398C155.92 93.6098 157.62 99.3898 159.47 105.78C160.42 109.04 161.38 112.13 162.33 114.9C163.26 117.66 164.1 120.15 164.8 122.22V122.25L164.83 122.27C166.32 123.73 167.53 124.91 168.4 125.76C168.8 126.15 169.13 126.45 169.38 126.69C169.61 126.9 169.73 127.01 169.74 127V127.01Z" fill="#263238"/>
<path d="M136.07 81.4698L148.75 133.46L161.92 140.01V127.29L139.13 80.3398L136.07 81.4698Z" fill="#014F81"/>
<g opacity="0.3">
<path d="M160.33 128.77C156.73 130.12 153.5 132.26 150.32 134.42C147.14 136.58 143.97 138.8 140.45 140.33C136.93 141.86 132.98 142.68 129.22 141.9C125.46 141.12 121.94 138.55 120.7 134.92L160.33 128.77Z" fill="black"/>
</g>
<path d="M141.14 72.7499L137.9 67.7899L136.63 74.5899L133.4 70.9399L117.37 63.4399L114.59 69.3999L132.3 79.8699L137.21 79.4999L140.79 75.2499L141.14 72.7499Z" fill="#E0E0E0"/>
<path d="M141.14 72.7498C141.14 72.7498 141.03 73.1298 140.9 73.7798C140.74 74.5598 140.56 75.4298 140.36 76.3998L140.68 76.3498C140.41 75.8498 140.11 75.3098 139.81 74.7498C139.33 73.8898 138.87 73.0898 138.46 72.3598L138.29 72.0498L138.18 72.3798C137.9 73.1898 137.74 73.8698 137.62 74.3498C137.5 74.8298 137.42 75.0998 137.46 75.1098C137.49 75.1198 137.63 74.8698 137.8 74.4098C137.98 73.9498 138.18 73.2698 138.48 72.4998L138.19 72.5198C138.59 73.2598 139.03 74.0698 139.5 74.9298C139.81 75.4798 140.11 76.0198 140.39 76.5198L140.62 76.9298L140.71 76.4698C141.14 74.3198 141.25 72.7598 141.16 72.7498H141.14Z" fill="#263238"/>
<path d="M135.75 75.2598L137.79 75.0098C138.34 75.6298 139.69 76.9098 140.25 77.5298V77.5898C140.01 78.9498 139.76 80.3098 139.52 81.6698C138.38 81.6098 137.23 81.7098 136.12 81.9398C135.44 80.7498 134.93 79.8398 134.24 78.6498L135.75 75.2598Z" fill="#014F81"/>
<path d="M132.27 151.94C132.27 151.94 132.91 151.34 133.92 150.35C134.92 149.36 136.35 148.03 138.03 146.68C139.71 145.34 141.32 144.23 142.51 143.47C143.7 142.71 144.45 142.26 144.42 142.21C144.41 142.19 144.21 142.27 143.85 142.45C143.49 142.62 142.99 142.89 142.37 143.25C141.14 143.96 139.49 145.04 137.8 146.39C136.11 147.75 134.7 149.12 133.73 150.16C133.25 150.68 132.87 151.12 132.63 151.43C132.38 151.74 132.25 151.92 132.27 151.94Z" fill="#263238"/>
<path d="M135.59 75.6698L133.33 74.5498L132.56 78.5198L134.45 78.6898L135.6 75.6698H135.59Z" fill="#014F81"/>
<path opacity="0.3" d="M133.63 72.9602V81.9402L116.94 70.9102L132.48 79.9602L133.64 72.9602H133.63Z" fill="black"/>
<path d="M114.59 69.3899C114.59 69.3899 114.92 69.6699 115.56 70.1199C116.2 70.5599 117.15 71.1899 118.35 71.9099C120.74 73.3799 124.16 75.1699 127.85 77.2899C129.41 78.1899 130.88 79.0999 132.2 79.9999L132.42 80.1499L132.47 79.8899C132.98 77.1499 133.42 74.7699 133.75 72.9799L133.56 73.0399C134.28 73.7099 134.87 74.2599 135.32 74.6799C135.73 75.0599 135.96 75.2499 135.98 75.2399C135.99 75.2299 135.79 74.9999 135.41 74.5999C134.98 74.1599 134.41 73.5899 133.72 72.8799L133.57 72.7299L133.53 72.9399C133.17 74.7199 132.69 77.0999 132.14 79.8299L132.41 79.7199C131.09 78.8099 129.61 77.8899 128.04 76.9799C124.34 74.8499 120.9 73.0999 118.49 71.6899C117.28 70.9999 116.32 70.4099 115.65 69.9999C114.99 69.5899 114.62 69.3699 114.6 69.3899H114.59Z" fill="#263238"/>
<path d="M137.76 75.77L138.7 73.48L140.24 76.32L139.58 77.35L137.76 75.77Z" fill="#014F81"/>
<path d="M135.21 75.4302C135.13 75.5002 136.25 76.7902 137.45 78.5202C138.66 80.2402 139.49 81.7302 139.59 81.6802C139.68 81.6402 138.98 80.0502 137.75 78.3102C136.53 76.5602 135.28 75.3702 135.21 75.4402V75.4302Z" fill="#263238"/>
<path d="M136.34 82.0099C136.37 82.1099 137.13 81.9899 138.07 81.8399C139.01 81.6799 139.77 81.5399 139.76 81.4399C139.76 81.3399 138.96 81.32 138.01 81.48C137.05 81.64 136.32 81.9199 136.34 82.0099Z" fill="#263238"/>
<path d="M220.49 114.34L231.06 84.4799C231.26 83.8399 230.87 83.1599 230.21 83.0099L205.81 76.6399C205.2 76.5099 204.59 76.8499 204.39 77.4499L193.29 111.09L158.85 133.71L160.5 135.4L169.31 133.25L220.49 114.35V114.34Z" fill="#455A64"/>
<path d="M160.5 135.4C160.5 135.4 160.56 135.37 160.68 135.3C160.81 135.22 160.98 135.11 161.18 134.98C161.64 134.68 162.28 134.26 163.09 133.73C164.76 132.62 167.14 131.03 170.08 129.08C175.98 125.11 184.1 119.65 193.06 113.61C193.68 113.19 194.31 112.77 194.88 112.38L194.93 112.34L194.95 112.28C198.19 102.49 201.1 93.7299 203.2 87.3799C204.23 84.2299 205.06 81.6799 205.64 79.8899C205.91 79.0299 206.13 78.3499 206.28 77.8599C206.35 77.6399 206.4 77.4699 206.44 77.3299C206.47 77.2099 206.49 77.1499 206.48 77.1499C206.48 77.1499 206.45 77.2099 206.4 77.3199C206.35 77.4599 206.29 77.6299 206.21 77.8399C206.04 78.3199 205.8 78.9999 205.5 79.8499C204.89 81.6299 204.02 84.1699 202.95 87.2999C200.82 93.6399 197.88 102.39 194.59 112.17L194.66 112.08C194.08 112.47 193.46 112.89 192.84 113.31C183.9 119.38 175.8 124.87 169.92 128.87C167.01 130.87 164.65 132.48 162.99 133.62C162.19 134.18 161.57 134.61 161.12 134.93C160.92 135.07 160.76 135.19 160.64 135.28C160.53 135.36 160.48 135.4 160.48 135.41L160.5 135.4Z" fill="#263238"/>
<path d="M216.28 113.71C216.28 113.61 211.49 113.3 205.56 113.02C199.63 112.74 194.83 112.6 194.82 112.7C194.82 112.8 199.61 113.11 205.54 113.39C211.46 113.67 216.27 113.81 216.28 113.71Z" fill="#263238"/>
<path d="M212.39 96.6602C211.96 98.0102 212.2 99.3002 212.92 99.5202C213.64 99.7502 214.57 98.8302 214.99 97.4802C215.42 96.1302 215.18 94.8402 214.46 94.6202C213.74 94.3902 212.81 95.3102 212.39 96.6602Z" fill="#E0E0E0"/>
<path d="M182.32 107.31C182.32 107.31 183.23 107.76 183.37 106.31C183.49 105.02 180.4 103.11 179.24 102.39C178.08 101.67 175.64 102.17 174.39 102.33C172.71 102.55 168.78 104.3 167.54 105.8C166.27 107.32 165.41 111.21 164.94 111.58C164.48 111.95 148.89 118.08 148.89 118.08L152.44 130.43C152.44 130.43 166.75 124.11 169.29 121.57C171.83 119.03 171.27 118.38 171.71 116.46C172.15 114.54 172.63 112.49 172.63 112.49L173.98 111.93L176.52 112.65C176.52 112.65 176.83 113.61 177.48 114.36C178.26 115.26 179.67 115.22 180.46 114.33C180.46 114.33 181.75 114.78 182.37 113.32C182.63 112.73 182.44 111.82 182.44 111.82C182.44 111.82 183.59 112.05 183.6 110.61C183.61 109.07 182.31 107.3 182.31 107.3L182.32 107.31Z" fill="#AE7461"/>
<path d="M174.2 108.94C174.2 109 174.72 108.98 175.52 109.16C176.32 109.33 177.4 109.75 178.33 110.57C179.26 111.39 179.81 112.42 180.08 113.18C180.36 113.95 180.4 114.47 180.46 114.47C180.5 114.47 180.55 113.93 180.32 113.11C180.11 112.29 179.56 111.18 178.56 110.3C177.56 109.42 176.39 109.02 175.55 108.91C174.7 108.79 174.17 108.91 174.18 108.95L174.2 108.94Z" fill="#6F4439"/>
<path d="M175.37 106.29C175.37 106.36 175.94 106.26 176.8 106.46C177.65 106.65 178.78 107.2 179.74 108.14C180.7 109.09 181.35 110.15 181.83 110.91C182.3 111.67 182.6 112.15 182.64 112.12C182.68 112.1 182.47 111.58 182.05 110.78C181.63 109.98 181 108.87 179.99 107.88C178.98 106.89 177.76 106.34 176.85 106.21C175.93 106.07 175.36 106.26 175.37 106.29Z" fill="#6F4439"/>
<path d="M175.59 103.4C175.59 103.46 176.08 103.4 176.83 103.53C177.58 103.66 178.58 104.05 179.52 104.74C180.46 105.43 181.18 106.23 181.71 106.79C182.24 107.36 182.57 107.71 182.61 107.68C182.65 107.65 182.38 107.24 181.9 106.62C181.42 106.01 180.71 105.16 179.72 104.44C178.73 103.72 177.65 103.34 176.85 103.27C176.05 103.19 175.56 103.35 175.57 103.39L175.59 103.4Z" fill="#6F4439"/>
<path d="M109.05 75.3501C104.67 76.2101 101.81 80.0601 100.92 84.8701C99.6502 91.7001 115.32 123.99 118.24 131.04C121.31 138.47 128.12 140.09 132.08 140C136.04 139.91 163.8 126.89 163.8 126.89L159.73 112.81L135.07 120.13L125.3 92.6301" fill="#E0E0E0"/>
<path d="M125.28 92.6298C125.28 92.6298 125.33 92.7999 125.43 93.1199C125.54 93.4499 125.71 93.9298 125.92 94.5499C126.36 95.8199 127 97.6598 127.83 100.03C129.51 104.8 131.93 111.67 134.93 120.17L134.97 120.29L135.09 120.25C142.18 118.15 150.55 115.68 159.76 112.96L159.55 112.85C160.85 117.35 162.2 122.07 163.61 126.94L163.71 126.73C157.23 129.74 150.3 132.89 143.07 135.94C140.13 137.16 137.23 138.37 134.29 139.31L133.19 139.63C132.82 139.73 132.46 139.76 132.09 139.83C131.33 139.84 130.57 139.81 129.83 139.7C128.33 139.52 126.88 139.09 125.53 138.48C122.83 137.26 120.59 135.18 119.23 132.67C118.54 131.43 118.03 130.08 117.45 128.79C116.87 127.5 116.3 126.23 115.73 124.97C111.17 114.93 107.13 105.85 104.24 98.0298C102.81 94.1198 101.58 90.5298 101.08 87.2698C100.98 86.4598 100.91 85.6599 101.02 84.9099C101.16 84.1599 101.33 83.4398 101.56 82.7698C102 81.4298 102.58 80.2698 103.24 79.3098C104.57 77.3898 106.17 76.4098 107.28 75.9298C107.84 75.6898 108.29 75.5398 108.59 75.4698C108.89 75.3898 109.05 75.3398 109.05 75.3398C109.05 75.3398 108.89 75.3698 108.58 75.4298C108.27 75.4898 107.82 75.6198 107.25 75.8598C106.12 76.3198 104.49 77.2999 103.12 79.2299C102.44 80.1899 101.84 81.3598 101.39 82.7098C101.15 83.3798 100.98 84.1098 100.83 84.8699C100.71 85.6498 100.77 86.4598 100.88 87.2898C101.37 90.5898 102.59 94.1898 104 98.1098C106.87 105.95 110.89 115.05 115.43 125.1C115.99 126.36 116.56 127.63 117.14 128.92C117.72 130.2 118.22 131.54 118.93 132.83C120.32 135.4 122.62 137.55 125.38 138.8C126.76 139.42 128.25 139.86 129.78 140.05C130.54 140.15 131.32 140.19 132.1 140.18C132.49 140.11 132.9 140.07 133.28 139.97L134.4 139.65C137.37 138.7 140.28 137.49 143.22 136.27C150.46 133.23 157.39 130.06 163.87 127.05L164.01 126.99L163.97 126.84C162.56 121.97 161.2 117.26 159.89 112.76L159.84 112.6L159.68 112.65C150.48 115.4 142.11 117.89 135.03 120.01L135.19 120.09C132.15 111.61 129.69 104.74 127.98 99.9898C127.12 97.6298 126.46 95.7898 126 94.5298C125.77 93.9198 125.6 93.4398 125.48 93.1098C125.36 92.7898 125.29 92.6298 125.29 92.6298H125.28Z" fill="#263238"/>
<path d="M131.12 130.46C131.23 130.48 131.61 128.01 132.71 125.15C133.79 122.29 135.15 120.19 135.06 120.13C135.02 120.1 134.63 120.6 134.1 121.46C133.57 122.32 132.92 123.57 132.37 125.02C131.82 126.47 131.47 127.83 131.29 128.83C131.11 129.83 131.07 130.45 131.12 130.46Z" fill="#263238"/>
<path d="M110.76 75.41C110.74 75.47 111.67 75.77 113.06 76.48C113.76 76.83 114.56 77.3 115.41 77.88C116.25 78.47 117.14 79.18 117.99 80.01C118.84 80.85 119.57 81.72 120.18 82.54C120.78 83.38 121.27 84.17 121.64 84.86C122.38 86.24 122.7 87.16 122.76 87.14C122.78 87.14 122.72 86.9 122.58 86.48C122.45 86.06 122.21 85.46 121.87 84.75C121.53 84.03 121.05 83.22 120.46 82.35C119.85 81.5 119.11 80.6 118.25 79.75C117.38 78.91 116.47 78.19 115.6 77.6C114.72 77.02 113.89 76.57 113.17 76.24C112.45 75.91 111.85 75.69 111.42 75.57C111 75.44 110.76 75.39 110.75 75.41H110.76Z" fill="#263238"/>
<path d="M183.35 163.98C183.42 164.05 191.32 155.99 200.99 145.98C210.67 135.97 218.45 127.79 218.37 127.72C218.3 127.65 210.4 135.71 200.72 145.72C191.05 155.73 183.26 163.91 183.34 163.98H183.35Z" fill="#455A64"/>
<path opacity="0.3" d="M249.55 165.52C249.55 165.52 234.05 136.54 226.74 134.61C226.74 134.61 237.3 148.93 240.84 159.06L249.55 165.52Z" fill="black"/>
<path d="M215.07 131.15C215.08 131.2 215.77 130.87 217.11 130.76C218.43 130.63 220.41 130.86 222.56 131.92C224.71 132.95 226.83 134.94 228.7 137.49C230.56 140.05 232.42 143.01 234.2 146.2C237.72 152.62 240.43 158.69 242.59 162.98C243.65 165.13 244.56 166.86 245.2 168.04C245.52 168.6 245.77 169.05 245.96 169.39C246.14 169.7 246.24 169.85 246.25 169.85C246.26 169.85 246.18 169.67 246.03 169.36C245.85 169.01 245.62 168.55 245.33 167.98C244.73 166.78 243.86 165.04 242.83 162.87C240.73 158.55 238.05 152.47 234.52 146.02C232.73 142.81 230.86 139.86 228.97 137.28C227.07 134.72 224.89 132.71 222.67 131.68C220.47 130.63 218.44 130.44 217.1 130.61C215.75 130.77 215.08 131.14 215.08 131.14L215.07 131.15Z" fill="#455A64"/>
<path d="M250.83 185.74L260.69 203.92C260.69 203.92 282.68 201.32 284.63 204.63L248.9 222.9L234.07 194.26L250.82 185.75L250.83 185.74Z" fill="#333333"/>
<path d="M248.85 208.02C247.39 209.33 249.34 211.65 250.85 210.38C252.47 208.92 250.16 206.56 248.74 208.14" fill="#E0E0E0"/>
<path d="M248.91 222.89L247.53 219.94L282.31 203.53C282.31 203.53 284.25 203.41 284.65 204.62L248.92 222.89H248.91Z" fill="#455A64"/>
<path d="M261.18 203.44C261.26 203.62 260.43 204.14 259.86 205.14C259.26 206.13 259.21 207.11 259.01 207.12C258.01 206.51 260.17 202.86 261.18 203.44Z" fill="white"/>
<path d="M265.72 203.07C265.85 203.22 265.24 203.9 265.03 204.94C264.78 205.98 265.04 206.85 264.86 206.93C263.71 206.7 264.59 202.79 265.72 203.07Z" fill="white"/>
<path d="M270.14 206.47C269.18 206.59 269.03 202.73 270 202.78C269.95 202.9 270.09 206.36 270.14 206.47Z" fill="white"/>
<path d="M258.71 199.39C258.59 199.39 255.17 201.39 255.11 201.5C254.56 200.68 258.26 198.51 258.71 199.39Z" fill="white"/>
<path d="M264.25 153.34L281.15 165.26C281.15 165.26 299.71 153.18 302.92 155.28L279 187.5L253.65 167.54L264.25 153.35V153.34Z" fill="#333333"/>
<path d="M272.35 174.18C271.63 176 274.4 177.22 275.19 175.4C275.99 173.37 272.87 172.28 272.3 174.33" fill="#E0E0E0"/>
<path d="M279 187.49L276.46 185.46L300.35 155.33C300.35 155.33 302.04 154.36 302.93 155.27L279.01 187.49H279Z" fill="#455A64"/>
<path d="M281.37 164.61C281.52 164.73 281.01 165.57 280.94 166.72C280.84 167.87 281.23 168.77 281.06 168.87C279.9 168.77 280.21 164.53 281.37 164.61Z" fill="white"/>
<path d="M285.28 162.27C285.46 162.35 285.22 163.23 285.49 164.26C285.73 165.3 286.35 165.97 286.23 166.12C285.1 166.42 284.15 162.53 285.29 162.28L285.28 162.27Z" fill="white"/>
<path d="M290.75 163.36C289.94 163.9 288.1 160.5 288.99 160.12C289 160.25 290.65 163.29 290.75 163.36Z" fill="white"/>
<path opacity="0.3" d="M185.99 161.24C185.99 161.24 205.7 146.24 210.39 140.46C215.03 134.76 217.5 129.22 217.5 129.22L185.99 161.25V161.24Z" fill="black"/>
<path d="M264.63 176.71L277.96 160.05C277.96 160.05 226.4 117.57 221.53 114.54C217.84 112.24 210.33 109.19 203.23 111.58C196.13 113.97 184.1 122.27 179.67 124.97C175.24 127.66 136.65 151.57 132.48 157.41C132.48 157.41 140.88 172.6 146.37 175.14C150.68 177.14 163.09 174.16 170.34 169.75C177.59 165.34 210.87 136.84 210.87 136.84L264.63 176.7V176.71Z" fill="#054E82"/>
<path d="M259.67 196.23L241.66 209.16L207.01 152.69L172.02 168.63L195.55 129.32C195.55 129.32 214.52 129.54 217.51 129.21C221.34 128.78 228.32 134.82 232.13 142.19C235.44 148.6 259.67 196.22 259.67 196.22V196.23Z" fill="#054E82"/>
</g>
<defs>
<clipPath id="clip0_80_10946">
<rect width="303" height="255" fill="white"/>
</clipPath>
</defs>
</svg>
