<?xml version="1.0" encoding="UTF-8"?>
<svg xmlns="http://www.w3.org/2000/svg" xmlns:xlink="http://www.w3.org/1999/xlink" version="1.1" id="Layer_1" x="0px" y="0px" viewBox="0 0 600 420" style="enable-background:new 0 0 600 420;" xml:space="preserve">
<style type="text/css">
	.st0{fill:#E1F3FB;}
	.st1{opacity:0.1;fill:#1E2329;enable-background:new    ;}
	.st2{font-family:'Calibri';}
	.st3{font-size:3.0768px;}
	.st4{fill:#0F8DBD;}
	.st5{fill:#127D9E;}
	.st6{fill:#0F6C82;}
	.st7{fill:#13A1D6;}
	.st8{fill:#1DBCED;}
	.st9{opacity:0.1;enable-background:new    ;}
	.st10{fill:#1E2329;}
	.st11{fill:#B2B2B2;}
	.st12{opacity:0.2;enable-background:new    ;}
	.st13{fill:#FFFFFF;}
	.st14{fill:#F6F6F6;}
	.st15{fill:#96ADB6;}
	.st16{fill:#D2DFE4;}
	.st17{fill:#444444;}
	.st18{fill:none;stroke:#1E2329;stroke-width:2.9178;stroke-linecap:round;stroke-miterlimit:10;}
	.st19{fill:none;stroke:#1E2329;stroke-width:2.9178;stroke-linecap:round;stroke-miterlimit:10;stroke-dasharray:0,8.6628;}
</style>
<g>
	<path id="hexa_00000043416003596217499350000011027714130232397470_" class="st0" d="M150.5,78.9l187.8-63.1l149,130.5l-39,193.8   l-187.7,63.1l-149-130.5L150.5,78.9z"></path>
	<text transform="matrix(1 0 0 1 222.7726 121.9068)" class="st1 st2 st3">!</text>
</g>
<g>
	<path id="Path_23060_00000119805023590130884650000017900154019606938773_" class="st4" d="M269.1,365.2V250.8   c0-1.5,2.7-2.7,6.1-2.7l0,0h27.3c3.4,0,6.1,1.2,6.1,2.7l0,0v114.4H269.1z"></path>
	<path id="Path_23061_00000130641448935066166080000003548708265325499836_" class="st5" d="M208.8,365.2V275c0-1.5,2.7-2.7,6.1-2.7   h27.3c3.4,0,6.1,1.2,6.1,2.7v90.3L208.8,365.2z"></path>
	<path id="Path_23061_00000147927616461021561290000011723867621368720006_" class="st6" d="M148.6,365.2v-72.5   c0-1.2,2.7-2.2,6.1-2.2H182c3.4,0,6.1,1,6.1,2.2v72.5H148.6z"></path>
	<path id="Path_23062_00000129173050710069647150000017065676088717591209_" class="st7" d="M368.9,206.5v158.7h-39.6V206.5   c0-1.5,2.7-2.7,6.1-2.7h27.3C366.2,203.8,368.9,205,368.9,206.5z"></path>
	<path id="Path_23062_00000158024254877826031070000009893966650351915708_" class="st8" d="M429.1,167.8v197.4h-39.6V167.8   c0-1.9,2.7-3.4,6.1-3.4H423C426.4,164.4,429.1,165.9,429.1,167.8z"></path>
	<g transform="translate(803.54 740.951)">
		<g class="st9">
			<path class="st10" d="M-430.9-613.4c0.4,0.3,0.8,0.5,1.3,0.9c0,0,0,0.3-0.1,0.9c-0.5,5-3.9,30.2-22,36.5     c-20.1,6.9-32.9,13.9-32.9,13.9l-1.2-1.8c0,0,12.8-6.9,32.9-13.8C-434.9-583.2-431.4-608.3-430.9-613.4z"></path>
		</g>
		<g class="st9">
			<path class="st10" d="M-484.6-594.1c5.3-1.4,10.4-3,15.5-5c20.9-7.7,58.9-25.3,87.5-59.3c7.8-9.2,14.5-19.2,20-29.9     c2.8,0.1,4.3,0.3,4.3,0.3c-5.8,12-13.1,23.2-21.7,33.4c-28.6,33.9-66.6,51.6-87.5,59.3c-5.1,1.9-10.3,3.6-15.5,5     c-7.4-4.9-11.4-9.7-13.6-13.8C-492.6-600.1-488.8-596.7-484.6-594.1z"></path>
		</g>
		<g>
			<path class="st11" d="M-462.9-598c0.2,0.6,0.4,1.2,0.6,1.8c2.7,13.6-25.6,31.9-25.6,31.9l2.1,3.2c0,0,12.8-6.9,32.9-13.8     c18.1-6.2,21.5-31.5,22-36.5c0.1-0.6,0.1-0.9,0.1-0.9C-447.4-624.7-462.9-598-462.9-598z"></path>
		</g>
		<g class="st12">
			<path class="st13" d="M-432.1-613.2c0.4,0.3,0.8,0.5,1.3,0.9c0,0,0,0.3-0.1,0.9c-0.5,5-3.9,30.2-22,36.5     C-473-568-485.8-561-485.8-561l-1.2-1.8c0,0,12.8-6.9,32.9-13.8C-436.1-583-432.6-608-432.1-613.2z"></path>
		</g>
		<g>
			<path class="st11" d="M-501.5-649.3c-14.4,15.7-25.9,24.6-25.9,24.6l2.1,3.2c0,0,29.4-19.5,40.2-10.1c0.2,0.2,0.5,0.4,0.7,0.6     c0,0,30.6-3.4,26-23.6c0,0-0.2-0.1-0.7-0.2C-463.4-656.2-488.3-663.5-501.5-649.3z"></path>
		</g>
		<g class="st9">
			<path d="M-462.9-598c0.2,0.6,0.4,1.2,0.6,1.8c10.8-4.3,21.3-9.4,31.4-15.2c0.1-0.6,0.1-0.9,0.1-0.9     C-447.4-624.7-462.9-598-462.9-598z"></path>
		</g>
		<g class="st9">
			<path d="M-459.1-654.7c-9.3,7-18,14.8-26,23.2c0.2,0.2,0.5,0.4,0.7,0.6c0,0,30.6-3.4,26-23.6     C-458.4-654.5-458.6-654.6-459.1-654.7z"></path>
		</g>
		<g>
			<path class="st14" d="M-488.2-627.2c-3.7,4-7.4,8.3-11,12.8c-5.5,6.8-2.8,12,16,24.4c5.3-1.4,10.4-3,15.5-5     c20.9-7.7,58.9-25.3,87.5-59.3c8.6-10.2,15.9-21.4,21.7-33.4c0,0-16.4-2.3-40.9,4.1S-456.3-662-488.2-627.2z"></path>
		</g>
		<g>
			<path class="st7" d="M-425-660.8c-5.6,3.7-7.2,11.2-3.5,16.8c1.5,2.3,3.8,4.1,6.5,4.9c1.1,0.3,2.2,0.5,3.3,0.6c0.5,0,1,0,1.5,0     c2-0.2,3.8-0.8,5.5-1.9l0.2-0.2c4.4-3,6.3-8.6,4.7-13.7c-0.3-0.9-0.7-1.8-1.2-2.7l-0.2-0.3C-411.8-662.9-419.3-664.5-425-660.8z"></path>
		</g>
		<g>
			<path class="st11" d="M-399.4-683.5c2.8,21.4,19.1,29.3,19.1,29.3c8.6-10.2,15.9-21.4,21.7-33.4     C-358.6-687.6-375-689.9-399.4-683.5z"></path>
		</g>
		<g>
			<path class="st15" d="M-488.2-627.2c-2.5,2.7-5,5.6-7.5,8.5c-1.2,1.4-2.4,2.9-3.6,4.3c-1.8,2.2-2.8,12,16,24.4     c0,0,1.9-0.5,5.4-1.5c2.6-0.8,6-1.9,10.1-3.4c-5.1-3.8-9.5-8.4-12.9-13.8C-484.4-614.3-486.9-620.6-488.2-627.2z"></path>
		</g>
		<g>
			<path class="st16" d="M-495.7-618.7c-1.2,1.4-2.4,2.9-3.6,4.3c-1.8,2.2-2.8,12,16,24.4c0,0,1.9-0.5,5.4-1.5     C-477.9-591.5-494.5-605.8-495.7-618.7z"></path>
		</g>
		<g class="st12">
			<path class="st13" d="M-406.7-654.3L-406.7-654.3l-4.7,13.7l-0.2,0.2c-1.6,1.1-3.5,1.7-5.5,1.9l9.2-18.4L-406.7-654.3z"></path>
		</g>
		<g class="st12">
			<path class="st13" d="M-416.8-651l-5.1,12c1.1,0.3,2.2,0.5,3.3,0.6l3-12.3L-416.8-651z"></path>
		</g>
		<g class="st12">
			<path class="st13" d="M-485.8-593.8c5.3-1.4,10.4-3,15.5-5c20.9-7.7,58.9-25.3,87.5-59.3c7.8-9.2,14.5-19.2,20-29.9     c2.8,0.1,4.3,0.3,4.3,0.3c-5.8,12-13.1,23.2-21.7,33.4c-28.6,33.9-66.6,51.6-87.5,59.3c-5.1,1.9-10.3,3.6-15.5,5     c-7.4-4.9-11.4-9.7-13.6-13.8C-493.8-599.9-490-596.5-485.8-593.8z"></path>
		</g>
		<g transform="translate(-3211.547 -981.079)">
			<g>
				<path class="st7" d="M2745.7,358.9L2745.7,358.9l1.9-13.1l12.2-4.9l10.4,8.2l-1.9,13.1L2756,367L2745.7,358.9z M2769.3,349.4      L2769.3,349.4l-9.6-7.6l-11.4,4.6l-1.7,12.2l9.6,7.6l11.4-4.6L2769.3,349.4z"></path>
			</g>
			<g>
				<path class="st17" d="M2765.7,353.9C2765.7,353.8,2765.7,353.8,2765.7,353.9L2765.7,353.9l-1.4-1.1c-0.1,0-0.1-0.1-0.2,0      c-0.1,0-0.1,0.1-0.2,0.1l-0.5,0.8c-0.3-0.2-0.7-0.3-1-0.2c-0.5,0-0.9,0.2-1.2,0.6c-0.1-0.9-0.8-1.6-1.7-1.6      c-0.7,0-1.4,0.3-1.8,0.9c0-0.9-0.6-1.6-1.5-1.7c-0.8,1.7-0.7,3.7,0.2,5.3c0.5-0.2,0.9-0.7,1.1-1.2c0.2,0.7,0.7,1.3,1.4,1.5      c0.8,0,1.6-0.5,1.9-1.3c0.4,1,1.3,2.1,2,2c0.9-0.1,1.6-1.4,1.5-2.9c0-0.1,0-0.2-0.1-0.4l0.2,0.1l0.6,0.9      c0.1,0.1,0.1,0.1,0.2,0.1c0.1,0,0.2-0.1,0.2-0.2s0-0.2,0-0.3l-0.6-1h-0.1l-0.8-0.5l0.3-0.6l1.1,0.9c0.1,0.1,0.3,0.1,0.4,0      S2765.9,354,2765.7,353.9L2765.7,353.9z M2760.9,346.4c-0.5-0.8-1.1-0.8-2.1-0.2c-1.1,0.7-2.7,2.8-1.3,5.8      c0.3-0.2,0.6-0.4,0.9-0.4c-0.9-1.5-0.5-3.5,1-4.5c0.3-0.2,0.5-0.2,0.6,0c0.7,1.1-0.4,4.5-0.4,4.5c0.4,0,0.7,0.2,1,0.4      C2761.5,350.1,2761.4,347.2,2760.9,346.4L2760.9,346.4z M2762.6,349c-0.2-0.3-0.5-0.5-0.8-0.5c0,0.4,0,0.9,0,1.3      c0.3,0.4,0.4,1.2-0.6,2.8c0.1,0.2,0.1,0.4,0.1,0.6c0.2-0.1,0.4-0.1,0.7-0.2C2763,351.7,2763.1,349.8,2762.6,349L2762.6,349z       M2763.7,354.8c0.2,0.3,0.3,0.6,0.3,1c0,0.7-0.6,1.2-1.2,1.1c-0.5-0.3-0.8-0.9-0.7-1.4c0.1-0.6,0.6-1,1.1-1      C2763.4,354.6,2763.6,354.7,2763.7,354.8L2763.7,354.8z M2755,351.8c-0.1,0-0.2,0.1-0.3,0.1c-0.4,0.1-0.8,0.3-1.1,0.5      c-0.5,1.7-0.4,3.6,0.5,5.1c0.5,0,1,0,1.4-0.2C2754.5,355.6,2754.3,353.6,2755,351.8L2755,351.8z M2752.2,353.2      c-0.7,0.5-1.2,1.3-1.4,2.2c0,0.4,0.1,0.7,0.3,1l0,0c0.5,0.4,1.1,0.7,1.7,0.9C2752.2,356.1,2752,354.6,2752.2,353.2L2752.2,353.2      z"></path>
			</g>
		</g>
	</g>
	<g>
		<g>
			<line class="st18" x1="143" y1="193.4" x2="143" y2="193.4"></line>
			<path class="st19" d="M151.3,191c8.3-0.4,21.5,4.3,33.3,32.1c19,44.7,67.3-14.9,47.3-29.3c-20-14.3-29.5,9.2-11.8,20.5     s38.7,0.9,47.3-33.8c6.2-25,19.2-30.6,26-31.8"></path>
			<line class="st18" x1="297.6" y1="148.5" x2="297.6" y2="148.5"></line>
		</g>
	</g>
</g>
</svg>
