<svg width="432" height="432" viewBox="0 0 432 432" fill="none" xmlns="http://www.w3.org/2000/svg">
<g clip-path="url(#clip0_80_12241)">
<path d="M216 364.081C308.519 364.081 383.521 359.702 383.521 354.301C383.521 348.899 308.519 344.52 216 344.52C123.481 344.52 48.479 348.899 48.479 354.301C48.479 359.702 123.481 364.081 216 364.081Z" fill="#F5F5F5"/>
<path d="M205.973 295.082H39.1436C36.422 295.078 34.2188 292.87 34.2188 290.148V55.6329C34.2421 52.9286 36.4392 50.747 39.1436 50.7427H205.973C208.698 50.7427 210.907 52.9511 210.907 55.6761V290.148C210.907 292.873 208.698 295.082 205.973 295.082ZM39.1436 50.9155C36.5412 50.9207 34.4348 53.0305 34.4348 55.6329V290.148C34.4348 292.751 36.5412 294.861 39.1436 294.866H205.973C208.577 294.862 210.686 292.752 210.691 290.148V55.6329C210.686 53.0297 208.577 50.9198 205.973 50.9155H39.1436Z" fill="#E6E6E6"/>
<path d="M392.865 295.082H226.027C223.304 295.078 221.098 292.871 221.093 290.148V55.6329C221.122 52.9269 223.321 50.747 226.027 50.7427H392.865C395.566 50.7522 397.758 52.9321 397.781 55.6329V290.148C397.781 292.867 395.583 295.072 392.865 295.082ZM226.027 50.9155C223.423 50.9207 221.314 53.0297 221.309 55.6329V290.148C221.314 292.752 223.423 294.861 226.027 294.866H392.865C395.468 294.862 397.577 292.752 397.583 290.148V55.6329C397.577 53.0297 395.468 50.9198 392.865 50.9155H226.027Z" fill="#E6E6E6"/>
<path d="M82.08 338.87H46.4746V339.086H82.08V338.87Z" fill="#E0E0E0"/>
<path d="M154.656 337.142H118.947V337.358H154.656V337.142Z" fill="#E0E0E0"/>
<path d="M201.122 337.142H192.482V337.358H201.122V337.142Z" fill="#E0E0E0"/>
<path d="M114.765 344.52H74.8052V344.736H114.765V344.52Z" fill="#E0E0E0"/>
<path d="M252.979 338.757H234.317V338.973H252.979V338.757Z" fill="#E0E0E0"/>
<path d="M284.8 338.757H260.669V338.973H284.8V338.757Z" fill="#E0E0E0"/>
<path d="M401.181 342.412H347.233V342.628H401.181V342.412Z" fill="#E0E0E0"/>
<path d="M356.348 98.6904H315.213V127.436H356.348V98.6904Z" fill="#E6E6E6"/>
<path d="M333.763 98.6904H315.213V127.436H333.763V98.6904Z" fill="#F0F0F0"/>
<path opacity="0.4" d="M324.473 102.587C327.857 102.587 330.599 105.329 330.599 108.713C330.599 112.096 327.857 114.838 324.473 114.838C321.09 114.838 318.348 112.096 318.348 108.713C318.348 105.329 321.09 102.587 324.473 102.587Z" fill="#E0E0E0"/>
<path d="M327.463 120.662C327.463 122.313 326.124 123.651 324.473 123.651C322.822 123.651 321.484 122.313 321.484 120.662C321.484 119.011 322.822 117.672 324.473 117.672C326.124 117.672 327.463 119.012 327.463 120.662Z" fill="#E0E0E0"/>
<path d="M324.429 110.872C325.392 110.872 326.172 110.092 326.172 109.129C326.172 108.167 325.392 107.387 324.429 107.387C323.467 107.387 322.687 108.167 322.687 109.129C322.687 110.092 323.467 110.872 324.429 110.872Z" fill="#FAFAFA"/>
<path d="M268.528 88.3975H250.74V127.447H268.528V88.3975Z" fill="#F0F0F0"/>
<path d="M291.645 88.3975H268.043V127.447H291.645V88.3975Z" fill="#E6E6E6"/>
<path d="M259.569 100.797C260.93 100.797 262.033 101.9 262.033 103.261C262.033 104.622 260.93 105.724 259.569 105.724C258.208 105.724 257.105 104.621 257.105 103.261C257.106 101.9 258.209 100.797 259.569 100.797Z" fill="white"/>
<path d="M259.569 96.9512C260.249 96.9512 260.801 97.5024 260.801 98.1832C260.801 98.8641 260.25 99.4153 259.569 99.4153C258.889 99.4153 258.337 98.8641 258.337 98.1832C258.337 97.5024 258.889 96.9512 259.569 96.9512Z" fill="white"/>
<path d="M259.569 93.2168C260.249 93.2168 260.801 93.768 260.801 94.4489C260.801 95.1297 260.25 95.6809 259.569 95.6809C258.889 95.6809 258.337 95.1297 258.337 94.4489C258.337 93.768 258.889 93.2168 259.569 93.2168Z" fill="white"/>
<path d="M291.231 110.3H251.138V110.916H291.231V110.3Z" fill="#E0E0E0"/>
<path d="M291.231 113.765H251.138V114.381H291.231V113.765Z" fill="#E0E0E0"/>
<path d="M291.231 117.229H251.138V117.845H291.231V117.229Z" fill="#E0E0E0"/>
<path d="M291.231 120.694H251.138V121.31H291.231V120.694Z" fill="#E0E0E0"/>
<path d="M291.231 124.158H251.138V124.774H291.231V124.158Z" fill="#E0E0E0"/>
<path d="M259.992 111.352H258.299V113.045H259.992V111.352Z" fill="#E0E0E0"/>
<path d="M259.992 114.997H258.299V116.69H259.992V114.997Z" fill="#E0E0E0"/>
<path d="M259.992 118.281H258.299V119.975H259.992V118.281Z" fill="#E0E0E0"/>
<path d="M259.992 121.823H258.299V123.517H259.992V121.823Z" fill="#E0E0E0"/>
<path d="M259.992 125.264H258.299V126.957H259.992V125.264Z" fill="#E0E0E0"/>
<path d="M216.751 165.902H215.887V132.807C215.887 129.093 218.908 126.071 222.622 126.071H251.138V126.935H222.622C219.385 126.935 216.751 129.57 216.751 132.807V165.902Z" fill="#E0E0E0"/>
<path d="M215.023 165.951H214.159V132.564C214.159 128.057 217.825 124.391 222.331 124.391H251.138V125.255H222.331C218.302 125.255 215.023 128.534 215.023 132.564V165.951Z" fill="#E0E0E0"/>
<path d="M120.417 82.9458H93.3647V111.743H120.417V82.9458Z" fill="#E6E6E6"/>
<path d="M127.346 82.9458H120.417V111.743H127.346V82.9458Z" fill="#F5F5F5"/>
<path d="M106.593 78.5049H86.2715V111.743H106.593V78.5049Z" fill="#E6E6E6"/>
<path d="M112.459 78.5049H106.584V111.743H112.459V78.5049Z" fill="#F5F5F5"/>
<path d="M100.605 82.9458H83.4722V111.743H100.605V82.9458Z" fill="#EBEBEB"/>
<path d="M104.519 82.9458H100.605V111.743H104.519V82.9458Z" fill="#F5F5F5"/>
<path d="M86.5825 87.8188H64.1099V111.743H86.5825V87.8188Z" fill="#E6E6E6"/>
<path d="M92.3368 87.8188H86.5825V111.743H92.3368V87.8188Z" fill="#F5F5F5"/>
<path d="M75.0998 84.1294H58.2173V111.743H75.0998V84.1294Z" fill="#E6E6E6"/>
<path d="M79.9729 84.1294H75.0913V111.743H79.9729V84.1294Z" fill="#F5F5F5"/>
<path d="M70.1233 87.8188H53.7246V111.743H70.1233V87.8188Z" fill="#E6E6E6"/>
<path d="M73.3805 87.8188H70.1318V111.743H73.3805V87.8188Z" fill="#F0F0F0"/>
<path d="M34.558 120.062L210.814 120.062V111.727L34.558 111.727V120.062Z" fill="#E6E6E6"/>
<path d="M66.1875 120.258H75.9377L68.8357 130.982H66.1875V120.258Z" fill="#E0E0E0"/>
<path d="M66.1867 120.258H64.7827V130.982H66.1867V120.258Z" fill="#E0E0E0"/>
<path d="M175.663 120.258H185.414L178.311 130.982H175.663V120.258Z" fill="#E0E0E0"/>
<path d="M175.663 120.258H174.258V130.982H175.663V120.258Z" fill="#E0E0E0"/>
<path d="M397.642 127.447H221.386V135.781H397.642V127.447Z" fill="#E6E6E6"/>
<path d="M366.014 146.702H363.366L356.263 135.978H366.014V146.702Z" fill="#E0E0E0"/>
<path d="M367.418 135.978H366.014V146.702H367.418V135.978Z" fill="#E0E0E0"/>
<path d="M256.537 146.702H253.889L246.787 135.978H256.537V146.702Z" fill="#E0E0E0"/>
<path d="M257.942 135.978H256.537V146.702H257.942V135.978Z" fill="#E0E0E0"/>
<path d="M170.597 94.945C170.597 93.6749 170.41 92.4463 170.057 91.292L173.262 88.4727L171.244 84.977L167.199 86.3447C165.525 84.558 163.337 83.2611 160.872 82.6883L160.032 78.5039H155.996L155.159 82.6883C152.693 83.2611 150.503 84.558 148.829 86.3447L144.784 84.977L142.766 88.4727L145.97 91.292C145.62 92.4463 145.43 93.6749 145.43 94.945C145.43 96.2185 145.62 97.4437 145.97 98.6014L142.766 101.418L144.784 104.914L148.829 103.546C150.503 105.333 152.693 106.63 155.159 107.205L155.996 111.389H160.032L160.872 107.205C163.337 106.63 165.525 105.333 167.199 103.546L171.244 104.914L173.262 101.418L170.057 98.6014C170.41 97.4437 170.597 96.2185 170.597 94.945ZM158.014 101.738C154.403 101.738 151.476 98.8088 151.476 95.1972C151.476 91.5857 154.403 88.6568 158.014 88.6568C161.626 88.6568 164.555 91.5857 164.555 95.1972C164.555 98.8088 161.626 101.738 158.014 101.738Z" fill="#F0F0F0"/>
<path d="M192.424 97.0592C191.988 96.3455 191.46 95.72 190.864 95.1938L191.695 92.5085L189.36 91.2393L187.559 93.3975C186.004 92.9699 184.331 92.9932 182.749 93.5194L180.839 91.4587L178.572 92.8463L179.541 95.4832C178.353 96.6531 177.569 98.134 177.243 99.7125L174.502 100.335L174.57 102.991L177.339 103.473C177.54 104.242 177.855 104.997 178.292 105.71C178.73 106.424 179.258 107.048 179.853 107.577L179.022 110.26L181.356 111.529L183.158 109.37C184.712 109.798 186.387 109.774 187.97 109.249L189.879 111.311L192.145 109.923L191.178 107.285C192.365 106.114 193.147 104.634 193.473 103.054L196.214 102.432L196.145 99.7756L193.377 99.2961C193.178 98.5262 192.862 97.7737 192.424 97.0592ZM187.694 105.199C185.666 106.44 183.016 105.802 181.774 103.773C180.533 101.746 181.169 99.0947 183.196 97.8532C185.224 96.6116 187.876 97.2492 189.117 99.2771C190.36 101.306 189.721 103.957 187.694 105.199Z" fill="#F0F0F0"/>
<path d="M392.41 235.976H40.2271V240.407H392.41V235.976Z" fill="#263238"/>
<path d="M61.2051 239.155V344.857H63.9526L67.4086 239.155H61.2051Z" fill="#263238"/>
<path d="M93.6396 242.611V340.537H96.3872L99.8432 242.611H93.6396Z" fill="#263238"/>
<path opacity="0.5" d="M93.6396 242.611V340.537H96.3872L99.8432 242.611H93.6396Z" fill="black"/>
<path d="M372.682 239.155V344.857H369.943L366.479 239.155H372.682Z" fill="#263238"/>
<path d="M340.256 242.611V340.537H337.509L334.053 242.611H340.256Z" fill="#263238"/>
<path opacity="0.5" d="M340.256 242.611V340.537H337.509L334.053 242.611H340.256Z" fill="black"/>
<path d="M378.947 245.15H54.7249L47.5537 240.408H386.118L378.947 245.15Z" fill="#263238"/>
<path opacity="0.5" d="M378.947 245.15H54.7249L47.5537 240.408H386.118L378.947 245.15Z" fill="black"/>
<path d="M63.3745 222.389V225.807C63.3745 226.384 63.5992 226.925 64.0052 227.333L66.7476 230.075C66.9981 230.326 67.304 230.498 67.6349 230.6C68.7538 233.005 71.1842 234.676 74.0112 234.676H75.0376C78.9239 234.676 82.0741 231.525 82.0741 227.64V219.577H66.9748V220.231H65.5319C64.3422 220.23 63.3745 221.199 63.3745 222.389ZM65.1025 222.389C65.1025 222.152 65.2952 221.958 65.5319 221.958H66.9748V227.639C66.9748 227.717 66.9834 227.792 66.986 227.869L65.2278 226.111C65.1483 226.03 65.1025 225.92 65.1025 225.807V222.389Z" fill="#054E82"/>
<path opacity="0.5" d="M63.3745 222.389V225.807C63.3745 226.384 63.5992 226.925 64.0052 227.333L66.7476 230.075C66.9981 230.326 67.304 230.498 67.6349 230.6C68.7538 233.005 71.1842 234.676 74.0112 234.676H75.0376C78.9239 234.676 82.0741 231.525 82.0741 227.64V219.577H66.9748V220.231H65.5319C64.3422 220.23 63.3745 221.199 63.3745 222.389ZM65.1025 222.389C65.1025 222.152 65.2952 221.958 65.5319 221.958H66.9748V227.639C66.9748 227.717 66.9834 227.792 66.986 227.869L65.2278 226.111C65.1483 226.03 65.1025 225.92 65.1025 225.807V222.389Z" fill="white"/>
<path d="M85.6579 235.83H63.9378C62.5252 235.83 61.3804 234.551 61.3804 234.551H88.2153C88.2153 234.551 87.0705 235.83 85.6579 235.83Z" fill="#054E82"/>
<path opacity="0.5" d="M85.6579 235.83H63.9378C62.5252 235.83 61.3804 234.551 61.3804 234.551H88.2153C88.2153 234.551 87.0705 235.83 85.6579 235.83Z" fill="white"/>
<path d="M377.883 225.297C377.77 221.867 375.159 221.027 371.75 220.64V219.387C371.744 219.086 371.496 218.847 371.195 218.853C371.192 218.853 371.188 218.853 371.184 218.853H359.42C359.113 218.841 358.855 219.079 358.843 219.386V235.726H371.75V233.939C375.165 233.557 377.779 228.732 377.883 225.297ZM371.75 231.827V222.753C374.256 223.122 375.987 223.465 375.618 225.971C375.323 227.973 373.751 231.531 371.75 231.827Z" fill="#054E82"/>
<g opacity="0.5">
<path d="M377.883 225.297C377.77 221.867 375.159 221.027 371.75 220.64V219.387C371.744 219.086 371.496 218.847 371.195 218.853C371.192 218.853 371.188 218.853 371.184 218.853H359.42C359.113 218.841 358.855 219.079 358.843 219.386V235.726H371.75V233.939C375.165 233.557 377.779 228.732 377.883 225.297ZM371.75 231.827V222.753C374.256 223.122 375.987 223.465 375.618 225.971C375.323 227.973 373.751 231.531 371.75 231.827Z" fill="white"/>
</g>
<path d="M221.093 214.903H210.907V235.598H221.093V214.903Z" fill="#5EA813"/>
<path opacity="0.5" d="M221.093 214.903H210.907V235.598H221.093V214.903Z" fill="white"/>
<path d="M225.692 235.968H206.393L211.1 231.825H220.985L225.692 235.968Z" fill="#5EA813"/>
<path opacity="0.5" d="M225.692 235.968H206.393L211.1 231.825H220.985L225.692 235.968Z" fill="white"/>
<path d="M268.124 229.268H219.878L228.596 235.993H276.833L268.124 229.268Z" fill="#5EA813"/>
<path opacity="0.4" d="M268.124 229.268H219.878L228.596 235.993H276.833L268.124 229.268Z" fill="white"/>
<path d="M220.993 235.993L219.878 229.268L228.596 235.993H220.993Z" fill="#5EA813"/>
<path opacity="0.5" d="M220.993 235.993L219.878 229.268L228.596 235.993H220.993Z" fill="black"/>
<path d="M171.846 165.926H259.659C260.579 165.926 261.324 166.671 261.324 167.592V221.44C261.324 222.361 260.579 223.106 259.659 223.106H171.846C170.926 223.106 170.18 222.361 170.18 221.44V167.592C170.18 166.671 170.926 165.926 171.846 165.926Z" fill="#495358"/>
<path opacity="0.5" d="M257.922 169.499H173.491V219.329H257.922V169.499Z" fill="black"/>
<path opacity="0.4" d="M255.239 179.748H212.635V209.079H255.239V179.748Z" fill="black"/>
<path d="M255.239 179.748H212.635V182.435H255.239V179.748Z" fill="#FFCA3A"/>
<path d="M220.441 195.969L227.406 199.83C227.755 200.026 227.989 200.201 228.104 200.354C228.218 200.508 228.276 200.704 228.276 200.942C228.276 201.242 228.168 201.503 227.952 201.724C227.735 201.944 227.482 202.054 227.196 202.054C227.007 202.054 226.725 201.949 226.347 201.739L217.361 196.742C216.756 196.405 216.756 195.534 217.361 195.197L226.347 190.2C226.725 189.997 227.004 189.896 227.186 189.896C227.48 189.896 227.735 190.004 227.952 190.221C228.169 190.438 228.277 190.696 228.277 190.997C228.277 191.235 228.219 191.431 228.104 191.585C227.989 191.738 227.756 191.913 227.407 192.109L220.441 195.969Z" fill="white"/>
<path d="M238.363 188.773L231.47 203.627C231.295 203.998 231.138 204.239 230.998 204.351C230.816 204.498 230.596 204.571 230.337 204.571C230.043 204.571 229.79 204.467 229.577 204.256C229.363 204.046 229.257 203.809 229.257 203.543C229.257 203.355 229.341 203.078 229.508 202.715L236.421 187.872C236.596 187.501 236.749 187.26 236.883 187.148C237.072 187.001 237.292 186.928 237.543 186.928C237.837 186.928 238.089 187.031 238.299 187.237C238.509 187.444 238.614 187.679 238.614 187.946C238.615 188.134 238.531 188.41 238.363 188.773Z" fill="white"/>
<path d="M247.029 195.969L240.064 192.109C239.714 191.914 239.482 191.738 239.367 191.585C239.251 191.431 239.194 191.235 239.194 190.997C239.194 190.696 239.302 190.437 239.519 190.221C239.736 190.004 239.99 189.896 240.284 189.896C240.467 189.896 240.746 189.997 241.123 190.2L250.109 195.197C250.714 195.534 250.714 196.405 250.109 196.742L241.123 201.739C240.746 201.949 240.466 202.054 240.284 202.054C239.987 202.054 239.729 201.942 239.511 201.721C239.305 201.512 239.194 201.236 239.194 200.942C239.194 200.704 239.252 200.509 239.367 200.355C239.482 200.201 239.714 200.026 240.064 199.831L247.029 195.969Z" fill="white"/>
<path d="M179.836 174.098H176.952V176.982H179.836V174.098Z" fill="white"/>
<path d="M179.836 181.565H176.952V184.449H179.836V181.565Z" fill="white"/>
<path d="M179.836 189.032H176.952V191.916H179.836V189.032Z" fill="white"/>
<path d="M179.836 196.498H176.952V199.382H179.836V196.498Z" fill="white"/>
<path d="M179.836 203.965H176.952V206.849H179.836V203.965Z" fill="white"/>
<path d="M179.836 211.432H176.952V214.316H179.836V211.432Z" fill="white"/>
<path d="M194.075 174.748H182.577V175.612H194.075V174.748Z" fill="white"/>
<path d="M189.352 182.234H185.257V183.098H189.352V182.234Z" fill="white"/>
<path d="M207.177 190.632H203.082V191.496H207.177V190.632Z" fill="white"/>
<path d="M189.352 197.297H185.257V198.161H189.352V197.297Z" fill="white"/>
<path d="M195.258 197.297H191.163V198.161H195.258V197.297Z" fill="white"/>
<path d="M201.628 190.632H191.163V191.496H201.628V190.632Z" fill="white"/>
<path d="M204.15 197.297H197.26V198.161H204.15V197.297Z" fill="white"/>
<path d="M201.331 213.306H197.235V214.17H201.331V213.306Z" fill="white"/>
<path d="M207.236 213.306H203.141V214.17H207.236V213.306Z" fill="white"/>
<path d="M211.526 213.306H209.238V214.17H211.526V213.306Z" fill="white"/>
<path d="M204.149 182.234H191.405V183.098H204.149V182.234Z" fill="white"/>
<path d="M195.258 205.096H191.163V205.96H195.258V205.096Z" fill="white"/>
<path d="M198.994 205.096H196.627V205.96H198.994V205.096Z" fill="white"/>
<path d="M207.493 205.096H200.806V205.96H207.493V205.096Z" fill="white"/>
<path d="M258.481 340.199L252.182 338.316L253.651 322.876L259.949 324.759L258.481 340.199Z" fill="#FFBE9D"/>
<path opacity="0.2" d="M260.469 321.271L254.17 319.396L253.35 328.045L259.717 329.229L260.469 321.271Z" fill="black"/>
<path d="M295.762 244.839C295.762 244.839 252.45 248.494 253.513 267.303C254.384 282.702 256.666 278.516 252.182 324.298L263.078 324.899C263.078 324.899 274.162 287.452 272.668 272.574C284.876 272.574 312.826 273.645 316.887 262.629C318.904 257.036 319.884 251.122 319.781 245.176L295.762 244.839Z" fill="#5EA813"/>
<path d="M264.811 327.007L250.572 324.571L250.806 318.272L265.545 321.547L264.811 327.007Z" fill="#263238"/>
<path d="M251.534 335.724L258.809 337.163C259.065 337.2 259.249 337.472 259.224 337.775L258.619 344.654C258.508 345.395 257.918 345.897 257.288 345.786C254.765 345.235 253.573 344.827 250.376 344.195C248.406 343.807 243.905 342.858 241.166 342.552C238.427 342.247 238.756 339.042 239.939 338.879C245.262 338.175 248.285 337.318 250.35 335.981C250.71 335.742 251.126 335.653 251.534 335.724Z" fill="#263238"/>
<path d="M248.27 336.971C248.843 337.049 249.422 337.066 249.998 337.023C250.057 337.022 250.109 336.984 250.128 336.928C250.157 336.877 250.157 336.815 250.128 336.764C249.946 336.583 248.313 335.036 247.475 335.209C247.278 335.242 247.116 335.382 247.052 335.572C246.914 335.848 246.933 336.177 247.104 336.436C247.414 336.751 247.829 336.942 248.27 336.971ZM249.661 336.738C248.46 336.738 247.613 336.6 247.363 336.246C247.263 336.075 247.263 335.863 247.363 335.693C247.39 335.598 247.466 335.526 247.562 335.503C248.002 335.407 248.987 336.133 249.661 336.738Z" fill="#5EA813"/>
<path d="M250.007 337.023C250.007 337.023 250.05 337.023 250.076 337.023C250.126 337.004 250.164 336.962 250.179 336.911C250.179 336.833 250.655 334.993 250.102 334.258C249.965 334.059 249.739 333.938 249.497 333.938C249.231 333.9 248.972 334.051 248.875 334.301C248.607 334.984 249.35 336.496 249.929 336.988C249.95 337.01 249.977 337.022 250.007 337.023ZM249.557 334.25C249.68 334.269 249.789 334.338 249.86 334.44C250.113 335.121 250.14 335.867 249.937 336.565C249.414 335.973 249.136 335.203 249.16 334.414C249.16 334.327 249.255 334.232 249.479 334.241L249.557 334.25Z" fill="#5EA813"/>
<path d="M230.4 342.601L224.404 339.905L228.552 325.113L234.548 327.809L230.4 342.601Z" fill="#FFBE9D"/>
<path opacity="0.2" d="M235.56 324.002L229.564 321.307L227.43 328.936L233.426 331.631L235.56 324.002Z" fill="black"/>
<path d="M282.871 244.839C282.586 244.839 234.314 249.807 234.254 266.18C234.15 293.258 226.417 324.298 226.417 324.298L235.958 329.024C235.958 329.024 252.571 295.375 252.32 274.267C265.6 270.457 299.953 276.859 304.013 265.852C307.34 256.849 305.543 244.839 305.543 244.839H282.871Z" fill="#5EA813"/>
<path d="M237.483 330.394L224.695 324.64L225.723 319.404L239.211 324.061L237.483 330.394Z" fill="#263238"/>
<path d="M225 334.934L232.293 336.449C232.545 336.495 232.725 336.792 232.699 337.122L232.128 344.683C232.031 345.504 231.44 346.067 230.807 345.94H230.807C228.284 345.357 227.091 344.908 223.895 344.246C221.925 343.843 216.559 342.541 213.855 341.834C211.151 341.127 211.755 337.682 212.991 337.66C218.339 337.581 221.804 336.706 223.86 335.214C224.206 334.961 224.607 334.862 225 334.934Z" fill="#263238"/>
<path d="M222.006 336.567C222.514 336.291 222.99 335.962 223.429 335.585C223.477 335.546 223.498 335.481 223.48 335.42C223.462 335.365 223.411 335.325 223.354 335.32C223.1 335.28 220.87 334.99 220.292 335.635C220.162 335.784 220.118 335.99 220.175 336.179C220.225 336.484 220.435 336.739 220.725 336.847C221.171 336.918 221.629 336.817 222.006 336.567ZM222.981 335.559C222.042 336.295 221.256 336.653 220.843 336.526C220.658 336.446 220.532 336.272 220.513 336.072C220.48 335.981 220.501 335.879 220.566 335.808C220.876 335.498 222.085 335.472 222.981 335.559Z" fill="#5EA813"/>
<path d="M223.428 335.585L223.492 335.539C223.523 335.5 223.53 335.445 223.507 335.4C223.461 335.336 222.751 333.567 221.872 333.298C221.643 333.224 221.394 333.263 221.199 333.403C220.963 333.533 220.845 333.808 220.915 334.069C221.1 334.778 222.592 335.552 223.357 335.604C223.382 335.603 223.406 335.597 223.428 335.585ZM221.42 333.617C221.529 333.556 221.658 333.543 221.778 333.581C222.387 333.983 222.854 334.567 223.111 335.251C222.335 335.088 221.651 334.632 221.202 333.979C221.151 333.909 221.172 333.776 221.359 333.652L221.42 333.617Z" fill="#5EA813"/>
<path d="M299.27 192.6C300.54 195.33 301.585 197.956 302.631 200.687C303.676 203.417 304.601 206.147 305.456 208.946C306.312 211.746 307.055 214.614 307.651 217.586C308.301 220.674 308.625 223.822 308.618 226.978C308.608 228.831 308.332 230.673 307.798 232.447C307.462 233.534 306.976 234.569 306.355 235.523C305.994 236.064 305.58 236.568 305.119 237.026L304.748 237.389C304.54 237.562 304.316 237.752 304.1 237.899C303.735 238.149 303.348 238.363 302.942 238.538C302.343 238.804 301.718 239.003 301.076 239.135C300.571 239.242 300.061 239.317 299.546 239.359C298.669 239.415 297.789 239.415 296.911 239.359C295.353 239.285 293.8 239.112 292.263 238.841C286.528 237.799 280.91 236.189 275.493 234.037L276.745 229.276C282.232 229.933 287.831 230.633 293.11 230.875C294.423 230.875 295.702 230.935 296.894 230.875C297.425 230.846 297.953 230.78 298.475 230.676C298.907 230.598 299.279 230.443 299.149 230.451C299.063 230.481 298.981 230.521 298.907 230.572C298.821 230.624 298.739 230.685 298.665 230.754C298.665 230.754 298.708 230.685 298.743 230.607C298.855 230.36 298.942 230.102 299.002 229.838C299.195 228.888 299.273 227.92 299.235 226.952C299.108 224.478 298.741 222.021 298.138 219.617C297.551 217.025 296.79 214.502 295.961 211.936C295.131 209.37 294.233 206.804 293.248 204.246C292.263 201.689 291.226 199.123 290.207 196.712L299.27 192.6Z" fill="#FFBE9D"/>
<path d="M279.13 230.572L273.402 227.35L270.524 233.553C270.524 233.553 277.22 236.344 278.629 234.599L279.13 230.572Z" fill="#FFBE9D"/>
<path d="M268.762 228.525L266.144 232.672L270.525 233.51L273.402 227.307L268.762 228.525Z" fill="#FFBE9D"/>
<path d="M285.912 197.527C284.815 200.283 283.666 202.918 282.456 205.588C281.247 208.258 280.037 210.884 278.758 213.511C276.184 218.859 273.3 224.051 270.118 229.063C269.254 230.341 268.39 231.612 267.423 232.882C266.939 233.521 266.403 234.152 265.833 234.8C265.522 235.128 265.271 235.43 264.908 235.767L264.39 236.268L264.096 236.545C263.274 237.249 262.306 237.762 261.262 238.048C260.712 238.205 260.152 238.323 259.586 238.403C258.663 238.514 257.733 238.552 256.804 238.515C255.2 238.464 253.6 238.305 252.018 238.04C246.16 237.005 240.422 235.379 234.893 233.184L236.154 228.415C241.745 229.089 247.456 229.806 252.83 230.03C254.097 230.08 255.366 230.061 256.631 229.979C257.141 229.939 257.647 229.858 258.143 229.737C258.306 229.699 258.462 229.641 258.61 229.564C258.662 229.564 258.61 229.503 258.377 229.65C258.292 229.698 258.213 229.756 258.143 229.823C258.143 229.823 258.204 229.745 258.23 229.719L258.472 229.452C258.627 229.296 258.817 229.037 258.999 228.829C259.353 228.38 259.716 227.896 260.079 227.369C260.796 226.341 261.496 225.201 262.187 224.043C263.569 221.727 264.857 219.265 266.118 216.777C267.379 214.288 268.589 211.748 269.781 209.191C272.157 204.093 274.482 198.866 276.693 193.725L285.912 197.527Z" fill="#FFBE9D"/>
<path d="M238.608 229.659L232.871 226.393L229.994 232.597C229.994 232.597 236.69 235.396 238.107 233.651L238.608 229.659Z" fill="#FFBE9D"/>
<path d="M228.24 227.62L225.614 231.759L229.994 232.597L232.871 226.393L228.24 227.62Z" fill="#FFBE9D"/>
<path d="M300.747 166.872L297.084 171.114L291.493 176.898C291.608 177.182 291.762 177.553 291.92 177.945C292.351 179.011 292.606 180.143 292.666 181.29C292.788 183.609 292.566 185.569 288.91 187.141C288.91 187.141 285.074 192.152 294.198 190.761C303.322 189.37 304.696 184.635 304.696 184.635C300.652 181.759 300.427 172.194 300.747 166.872Z" fill="#FFBE9D"/>
<path d="M282.145 162.086C282.145 162.656 281.86 163.14 281.48 163.157C281.1 163.174 280.797 162.725 280.789 162.155C280.78 161.585 281.083 161.101 281.454 161.083C281.826 161.066 282.137 161.515 282.145 162.086Z" fill="#263238"/>
<path d="M284.055 159.96C283.941 159.96 283.838 159.901 283.778 159.805C283.325 159.061 282.553 158.569 281.687 158.474C281.503 158.465 281.359 158.313 281.359 158.129C281.363 157.943 281.518 157.796 281.704 157.8C282.797 157.897 283.777 158.506 284.348 159.442C284.444 159.6 284.398 159.806 284.245 159.909C284.187 159.942 284.121 159.96 284.055 159.96Z" fill="#263238"/>
<path d="M281.938 162.405C281.475 163.961 280.806 165.449 279.951 166.829C280.669 167.234 281.531 167.297 282.301 167.002L281.938 162.405Z" fill="#EB996E"/>
<path d="M301.266 159.209C300.929 166.259 301.084 170.441 297.585 174.173C294.177 177.93 288.368 178.211 284.612 174.803C283.235 173.553 282.269 171.915 281.843 170.104C280.253 163.857 281.083 153.377 287.891 150.232C292.483 147.957 298.05 149.835 300.325 154.428C301.059 155.909 301.383 157.559 301.266 159.209Z" fill="#FFBE9D"/>
<path d="M304.465 161.559C303.445 164.549 301.899 167.331 299.886 169.767L290.71 171.495C290.71 171.495 283.461 168.463 285.396 163.469C284.17 162.432 284.627 159.227 285.491 157.464C286.874 158.57 289.146 158.665 290.39 157.334C291.393 159.175 294.399 159.434 295.704 157.775C297.199 159.434 300.387 158.924 301.285 156.877C302.391 157.602 303.981 157.499 304.983 156.635C305.026 156.591 305.07 156.557 305.113 156.514C305.26 157.775 305.113 159.425 304.465 161.559Z" fill="#263238"/>
<path opacity="0.1" d="M304.465 161.559C303.445 164.549 301.899 167.331 299.886 169.767L290.71 171.495C290.71 171.495 283.461 168.463 285.396 163.469C284.17 162.432 284.627 159.227 285.491 157.464C286.874 158.57 289.146 158.665 290.39 157.334C291.393 159.175 294.399 159.434 295.704 157.775C297.199 159.434 300.387 158.924 301.285 156.877C302.391 157.602 303.981 157.499 304.983 156.635C305.026 156.591 305.07 156.557 305.113 156.514C305.26 157.775 305.113 159.425 304.465 161.559Z" fill="white"/>
<path d="M305.787 153.015C306.305 154.172 306.02 155.632 305.113 156.514C305.07 156.557 305.027 156.591 304.983 156.635C303.981 157.499 302.391 157.602 301.286 156.877C300.387 158.924 297.199 159.434 295.704 157.775C294.399 159.434 291.393 159.175 290.39 157.335C289.146 158.665 286.874 158.57 285.492 157.464C285.129 157.179 284.826 156.816 284.628 156.393C284.576 156.298 284.541 156.203 284.507 156.108C284.429 156.194 284.351 156.272 284.265 156.341C283.427 157.032 282.105 157.136 281.189 156.522C280.437 156.021 280.022 155.088 280.083 154.198C280.092 154.008 280.126 153.827 280.178 153.645C280.109 153.775 280.022 153.896 279.919 153.999C279.167 154.803 277.577 154.838 276.843 153.922C275.927 152.79 276.446 150.906 277.698 150.155C278.199 149.861 278.752 149.723 279.323 149.723C280.204 149.723 281.102 150.042 281.802 150.578C281.051 149.498 281.318 147.848 282.373 147.062C283.427 146.284 285.086 146.5 285.898 147.528C285.785 146.301 286.191 145.567 286.822 145.187C288.014 144.495 290.002 145.092 290.969 146.249C290.969 146.249 292.3 143.035 294.598 143.398C295.099 143.467 297.458 144.513 297.398 145.359C297.398 145.42 297.38 145.472 297.354 145.524C297.389 145.455 297.423 145.394 297.467 145.334C297.916 144.625 298.823 144.271 299.678 144.288C300.603 144.297 301.484 144.651 302.34 144.997C304.128 145.731 306.029 146.552 307.066 148.185C308.094 149.826 307.645 152.496 305.787 153.015Z" fill="#263238"/>
<path d="M289.446 164.124C289.195 165.865 288.396 167.482 287.165 168.738C285.601 170.233 284.271 168.738 284.253 166.466C284.253 164.41 285.022 161.152 286.845 160.548C288.668 159.942 289.783 161.887 289.446 164.124Z" fill="#FFBE9D"/>
<path d="M317.077 187.09C316.429 185.362 313.405 183.634 311.547 183.634H310.32C308.178 183.634 305.508 183.807 302.916 184.109C297.977 184.655 293.073 185.48 288.228 186.58C285.999 187.168 283.847 187.911 282.137 188.55C279.959 189.414 278.681 189.993 278.681 189.993C278.681 189.993 281.067 205.877 282.301 221.655C282.988 230.435 282.703 239.154 282.923 245.151H319.781C321.051 237.945 320.851 231.661 320.954 218.649C321.015 210.838 319.747 194.201 317.077 187.09Z" fill="#263238"/>
<path opacity="0.2" d="M281.504 212.836C281.781 216.145 282.066 219.619 282.368 223.092C286.688 216.785 289.082 199.53 289.082 199.53L281.504 212.836Z" fill="black"/>
<path d="M276.598 191.154C271.319 194.126 266.144 209.336 266.144 209.336L278.231 218.457C282.844 214.093 289.592 203.267 290.327 198.939C291.51 192.295 285.056 186.419 276.598 191.154Z" fill="#263238"/>
<path d="M266.167 345.976C266.167 348.052 264.484 349.735 262.408 349.735C260.333 349.735 258.65 348.052 258.65 345.976C258.65 343.901 260.333 342.218 262.408 342.218C264.484 342.219 266.167 343.901 266.167 345.976Z" fill="#263238"/>
<path d="M322.231 345.976C322.231 348.052 323.915 349.735 325.99 349.735C328.065 349.735 329.748 348.052 329.748 345.976C329.748 343.901 328.065 342.218 325.99 342.218C323.915 342.219 322.231 343.901 322.231 345.976Z" fill="#263238"/>
<path d="M290.541 344.775C290.541 346.85 292.223 348.533 294.299 348.533C296.375 348.533 298.058 346.85 298.058 344.775C298.058 342.7 296.375 341.017 294.299 341.017C292.224 341.017 290.541 342.699 290.541 344.775Z" fill="#263238"/>
<path d="M293.132 340.136V332.87H282.367C280.253 332.871 278.145 333.068 276.068 333.457L256.022 337.353C255.034 337.546 254.389 338.503 254.581 339.491C254.752 340.369 255.534 340.993 256.428 340.964L293.132 340.136Z" fill="#263238"/>
<path d="M293.132 340.136V332.87H303.906C306.019 332.87 308.127 333.067 310.204 333.457L332.733 337.059C333.722 337.252 334.366 338.209 334.174 339.198C334.002 340.075 333.221 340.699 332.327 340.671L293.132 340.136Z" fill="#263238"/>
<path d="M299.793 299.605H286.462V332.878H299.793V299.605Z" fill="#263238"/>
<path d="M297.884 284.122H288.38V299.596H297.884V284.122Z" fill="#263238"/>
<path opacity="0.5" d="M288.38 288.667L297.884 291.06V284.122H288.38V288.667Z" fill="black"/>
<path d="M262.408 249.114H257.579V269.72H262.408V249.114Z" fill="#263238"/>
<path d="M286.623 284.122V194.541C286.623 191.149 288.086 187.922 290.638 185.688L297.023 180.099C299.169 178.221 301.922 177.186 304.773 177.186H327.839L339.11 189.178V284.123H286.623V284.122Z" fill="#5EA813"/>
<path d="M252.282 266.79H304.9V284.122H243.711C240.275 284.124 237.488 281.342 237.485 277.906C237.484 276.789 237.784 275.692 238.355 274.73C241.266 269.807 246.563 266.788 252.282 266.79Z" fill="#5EA813"/>
<path opacity="0.7" d="M339.111 189.181V284.126H243.709C240.279 284.126 237.488 281.344 237.488 277.905C237.488 276.791 237.782 275.694 238.352 274.735C241.263 269.818 246.543 266.794 252.254 266.794H278.755C283.1 266.794 286.623 263.272 286.623 258.926V194.538C286.623 191.151 288.084 187.92 290.641 185.691L297.026 180.101C299.169 178.217 301.925 177.189 304.776 177.189H327.836L339.111 189.181Z" fill="white"/>
<path d="M294.299 284.122V194.541C294.299 191.149 295.763 187.922 298.315 185.688L304.7 180.099C306.845 178.221 309.599 177.186 312.45 177.186H330.427C333.674 177.186 336.777 178.527 339.001 180.894L343.595 185.781C345.645 187.963 346.787 190.845 346.787 193.839V275.154C346.787 280.107 342.771 284.123 337.818 284.123H294.299V284.122Z" fill="#5EA813"/>
<path opacity="0.5" d="M294.299 284.122V194.541C294.299 191.149 295.763 187.922 298.315 185.688L304.7 180.099C306.845 178.221 309.599 177.186 312.45 177.186H330.427C333.674 177.186 336.777 178.527 339.001 180.894L343.595 185.781C345.645 187.963 346.787 190.845 346.787 193.839V275.154C346.787 280.107 342.771 284.123 337.818 284.123H294.299V284.122Z" fill="white"/>
<path d="M276.396 255.402C265.767 251.692 254.194 251.692 243.564 255.402C241.358 256.234 238.877 255.289 237.784 253.199C236.799 251.117 238.121 248.421 240.8 247.48C253.213 243.142 266.731 243.142 279.144 247.48C281.822 248.413 283.144 251.117 282.159 253.199C281.065 255.278 278.598 256.221 276.396 255.402Z" fill="#5EA813"/>
<path opacity="0.7" d="M276.396 255.402C265.767 251.692 254.194 251.692 243.564 255.402C241.358 256.234 238.877 255.289 237.784 253.199C236.799 251.117 238.121 248.421 240.8 247.48C253.213 243.142 266.731 243.142 279.144 247.48C281.822 248.413 283.144 251.117 282.159 253.199C281.065 255.278 278.598 256.221 276.396 255.402Z" fill="white"/>
<path d="M142.121 169.685C141.94 170.195 142.069 170.705 142.406 170.817C142.743 170.929 143.158 170.618 143.331 170.109C143.504 169.599 143.383 169.081 143.054 168.968C142.726 168.856 142.303 169.167 142.121 169.685Z" fill="#263238"/>
<path d="M142.026 170.212C142.093 171.992 142.404 173.754 142.95 175.448C142.07 175.701 141.123 175.555 140.358 175.051L142.026 170.212Z" fill="#FFBE9D"/>
<path d="M141.292 166.212C141.357 166.234 141.426 166.234 141.491 166.212C142.26 165.956 143.105 166.084 143.763 166.558C143.906 166.661 144.106 166.629 144.21 166.487C144.301 166.36 144.288 166.185 144.178 166.074C143.355 165.46 142.286 165.283 141.309 165.599C141.142 165.656 141.053 165.838 141.111 166.005C141.142 166.098 141.216 166.172 141.309 166.203L141.292 166.212Z" fill="#263238"/>
<path d="M123.174 171.569C124.141 176.485 125.1 185.497 121.662 188.78C121.662 188.78 123.009 193.765 132.151 193.765C142.199 193.765 136.954 188.78 136.954 188.78C131.468 187.466 132.351 183.397 133.31 179.578L123.174 171.569Z" fill="#EB996E"/>
<path d="M125.412 162.652C123.614 169.081 122.232 172.753 124.288 177.081C127.373 183.604 138.151 184.45 141.093 176.984C143.331 170.109 145.543 162.842 140.255 158.203C136.495 154.863 130.739 155.203 127.399 158.963C126.459 160.021 125.778 161.285 125.412 162.652Z" fill="#EB996E"/>
<path d="M118.444 164.789C117.976 162.421 117.856 159.83 119.038 157.725C120.22 155.62 123.085 154.33 125.164 155.558C126.959 151.774 131.298 149.367 135.459 149.847C139.62 150.327 143.295 153.661 144.179 157.755C145.063 161.85 143.09 166.402 139.499 168.557C139.978 166.79 140.458 165.024 140.937 163.257C140.525 165.698 139.188 167.972 137.256 169.519C137.533 167.753 137.811 165.987 138.089 164.221C137.835 166.716 136.331 169.052 134.165 170.314C134.501 169.077 134.837 167.84 135.173 166.603C135.025 167.147 133.68 171.037 133.223 171.569C132.375 172.557 131.807 179.054 128.829 179.258C118.65 181.297 119.537 170.32 118.444 164.789Z" fill="#263238"/>
<path d="M132.191 167.869C132.018 169.517 132.388 171.176 133.245 172.595C134.394 174.444 136.079 173.736 136.701 171.843C137.254 170.115 137.314 167.135 135.716 165.934C134.118 164.733 132.433 165.882 132.191 167.869Z" fill="#EB996E"/>
<path d="M107.838 230.145C106.738 229.78 101.599 227.137 100.78 227.609C103.153 221.554 104.633 220.625 105.712 216.771C106.315 214.618 105.9 212.941 104.563 211.149C103.045 209.114 102.513 208.083 99.9863 208.335C96.513 214.142 92.1395 221.308 90.4279 227.855C89.8516 230.06 89.4343 231.732 90.7458 233.595C91.9019 235.238 94.0394 235.9 96.0395 236.079C100.855 236.511 107.999 235.625 107.908 232.766C107.85 230.964 107.838 230.145 107.838 230.145Z" fill="#EB996E"/>
<path d="M107.021 229.929L111.103 228.603L110.74 235.974C110.74 235.974 107.472 236.091 105.731 233.905L107.021 229.929Z" fill="#EB996E"/>
<path d="M116.201 228.488L115.617 234.567L110.74 235.975L111.103 228.603L116.201 228.488Z" fill="#EB996E"/>
<path d="M162.961 235.161C162.961 235.161 157.273 230.703 149.804 215.967C148.697 213.907 147.638 211.83 146.625 209.736C145.608 207.622 144.632 205.554 143.701 203.334L152.528 199.53C154.347 203.49 157.178 207.575 159.181 211.507C161.185 215.438 165.917 224.748 166.509 225.617C166.804 226.064 167.122 226.435 167.428 226.848L167.885 227.454L162.19 234.037L162.961 235.161Z" fill="#EB996E"/>
<path d="M170.432 206.517L168.663 204.409L167.846 201.253L173.177 196.299C173.177 196.299 174.468 197.887 175.369 199.598C175.507 199.86 175.566 200.155 175.554 200.451L175.337 206.001L170.432 206.517Z" fill="#EB996E"/>
<path d="M167.923 197.835L171.913 194.208L173.175 196.325L167.846 201.253L167.923 197.835Z" fill="#EB996E"/>
<path d="M170.51 204.974C170.649 204.38 170.773 205.544 171.164 205.076C172.344 203.665 174.055 203.511 175.074 205.042C176.092 206.574 175.222 221.992 173.593 226.822C172.511 230.03 171.935 232.591 169.169 234.542C168.025 235.349 166.683 235.959 165.283 235.937C163.883 235.915 162.44 235.15 161.911 233.853C161.089 231.838 164.139 224.582 165.23 222.241C168.646 214.904 168.873 211.938 170.51 204.974Z" fill="#EB996E"/>
<path d="M159.075 204.31C161.43 204.288 163.784 204.264 166.138 204.242C167.144 204.232 168.189 204.213 169.093 203.774C170.279 203.197 171.028 201.987 171.506 200.759C172.505 198.198 172.589 195.389 172.986 192.669C173.382 189.948 174.2 187.11 176.258 185.287C172.508 185.784 165.877 184.608 162.997 187.682C161.469 189.311 158.787 204.313 159.075 204.31Z" fill="#5EA813"/>
<path opacity="0.5" d="M159.075 204.31C161.43 204.288 163.784 204.264 166.138 204.242C167.144 204.232 168.189 204.213 169.093 203.774C170.279 203.197 171.028 201.987 171.506 200.759C172.505 198.198 172.589 195.389 172.986 192.669C173.382 189.948 174.2 187.11 176.258 185.287C172.508 185.784 165.877 184.608 162.997 187.682C161.469 189.311 158.787 204.313 159.075 204.31Z" fill="white"/>
<path d="M171.155 193.824C170.749 193.931 170.482 195.381 170.57 195.79L170.966 196.498L171.773 200L174.468 198.508L172.038 194.197C171.863 193.886 171.5 193.733 171.155 193.824Z" fill="#EB996E"/>
<path d="M110.269 190.013C103.962 191.456 94.6348 211.107 94.6348 211.107L107.292 219.747C110.441 215.233 114.727 208.408 117.14 203.462C120.882 195.634 116.714 188.537 110.269 190.013Z" fill="#5EA813"/>
<path d="M119.484 190.491C118.759 188.909 117.972 187.104 119.605 186.542C121.411 185.92 131.295 185.281 134.699 186.447C136.569 186.956 137.672 188.884 137.164 190.753C137.158 190.776 137.151 190.797 137.145 190.82L119.484 190.491Z" fill="#263238"/>
<path opacity="0.2" d="M114.169 201.362L105.171 218.299L107.293 219.747C107.293 219.747 111.369 214.072 114.168 209.164L114.169 201.362Z" fill="black"/>
<path d="M148.619 198.661C149.982 205.558 146.797 221.959 146.83 248.75H110.862C110.624 243.336 114.563 230.515 109.67 204.975C109.511 204.147 109.44 190.161 110.269 190.015C113.752 189.403 117.267 188.987 120.797 188.771C125.89 188.473 130.996 188.473 136.09 188.771C138.168 188.98 141.448 190.272 143.515 191.016C146.743 192.177 147.953 195.295 148.619 198.661Z" fill="#5EA813"/>
<path opacity="0.2" d="M139.1 205.528C140.038 211.207 143.761 218.707 147.471 223.106C147.618 219.884 147.94 216.518 147.931 213.935L139.1 205.528Z" fill="black"/>
<path d="M136.541 196.996C135.677 203.364 148.205 219.624 148.205 219.624L160.811 210.984C160.811 210.984 157.312 202.025 151.428 196.149C144.723 189.41 137.526 190.067 136.541 196.996Z" fill="#5EA813"/>
<path d="M177.744 337.932H184.466L185.995 322.354H179.273L177.744 337.932Z" fill="#EB996E"/>
<path opacity="0.2" d="M185.892 323.304L185.114 331.33H178.384L179.17 323.304H185.892Z" fill="black"/>
<path d="M151.228 337.932H157.949L161.328 322.354H154.606L151.228 337.932Z" fill="#EB996E"/>
<g opacity="0.2">
<path d="M154.46 323.184H161.182L159.437 331.211H152.714L154.46 323.184Z" fill="black"/>
</g>
<path d="M184.846 334.912H177.51C177.232 334.913 176.992 335.164 176.931 335.516L175.601 343.209C175.476 343.889 175.801 344.569 176.327 344.73C176.406 344.754 176.487 344.766 176.568 344.764C179.212 344.708 183.04 344.506 186.366 344.506C190.263 344.506 193.624 344.775 198.186 344.775C200.951 344.775 201.719 341.163 200.562 340.839C195.3 339.352 191.006 339.194 186.461 335.56C185.979 335.155 185.42 334.931 184.846 334.912Z" fill="#263238"/>
<path d="M190.185 337.414C191.049 337.414 191.913 337.293 192.164 336.904C192.31 336.694 192.31 336.415 192.164 336.204C192.049 336.022 191.87 335.89 191.663 335.832C190.54 335.53 188.207 336.869 188.094 336.93C188.034 336.96 188.002 337.027 188.017 337.094C188.028 337.157 188.075 337.208 188.138 337.224C188.813 337.346 189.498 337.41 190.185 337.414ZM191.257 336.109C191.357 336.095 191.459 336.095 191.559 336.109C191.691 336.134 191.805 336.216 191.87 336.334C191.982 336.532 191.948 336.627 191.87 336.679C191.559 337.12 189.857 337.128 188.604 336.947C189.425 336.498 190.326 336.214 191.257 336.109Z" fill="#5EA813"/>
<path d="M188.155 337.223H188.224C189.036 336.86 190.643 335.409 190.514 334.631C190.514 334.45 190.358 334.234 189.926 334.182C189.612 334.155 189.301 334.255 189.062 334.459C188.198 335.158 188.025 336.973 188.017 337.051C188.011 337.107 188.033 337.162 188.077 337.197C188.1 337.211 188.127 337.22 188.155 337.223ZM189.796 334.502H189.891C190.177 334.502 190.194 334.649 190.203 334.683C190.28 335.141 189.183 336.282 188.354 336.774C188.423 336.014 188.724 335.292 189.218 334.709C189.378 334.571 189.585 334.497 189.796 334.502Z" fill="#5EA813"/>
<path d="M158.425 334.912H150.873C150.597 334.914 150.36 335.166 150.303 335.516L148.972 343.209C148.858 343.904 149.2 344.588 149.737 344.735C149.81 344.755 149.884 344.765 149.957 344.764C152.593 344.708 153.88 344.506 157.198 344.506C159.245 344.506 161.863 344.775 164.689 344.775C167.514 344.775 167.877 341.163 166.719 340.839C161.535 339.374 161.181 337.35 159.522 335.415C159.216 335.079 158.825 334.9 158.425 334.912Z" fill="#263238"/>
<path d="M162.373 338.269C162.949 338.344 163.531 338.186 163.989 337.829C164.152 337.605 164.152 337.301 163.989 337.077C163.885 336.885 163.702 336.749 163.488 336.705C162.503 336.472 160.645 337.742 160.567 337.794C160.517 337.833 160.491 337.895 160.498 337.958C160.51 338.019 160.559 338.067 160.619 338.079C161.195 338.204 161.783 338.268 162.373 338.269ZM163.237 336.99C163.3 336.982 163.364 336.982 163.427 336.99C163.552 337.009 163.661 337.086 163.721 337.198C163.868 337.466 163.781 337.569 163.721 337.613C163.436 337.984 162.062 337.993 161.051 337.829C161.702 337.389 162.443 337.102 163.22 336.99H163.237Z" fill="#5EA813"/>
<path d="M160.663 338.088H160.732C161.432 337.707 162.78 336.239 162.633 335.496C162.587 335.25 162.373 335.072 162.123 335.072C161.879 335.043 161.634 335.118 161.449 335.28C160.671 335.919 160.507 337.872 160.499 337.941C160.498 337.999 160.527 338.055 160.576 338.088C160.604 338.096 160.634 338.096 160.663 338.088ZM162.019 335.366H162.088C162.296 335.366 162.313 335.487 162.322 335.53C162.408 335.971 161.544 337.085 160.853 337.612C160.899 336.845 161.176 336.111 161.648 335.504C161.75 335.415 161.883 335.366 162.019 335.366Z" fill="#5EA813"/>
<path d="M136.047 248.759C136.047 248.759 167.884 261.903 174.468 272.009C170.553 297.704 163.53 326.977 163.53 326.977H151.557C151.557 326.977 151.228 310.699 154.657 289.167C156.385 257.761 99.8634 290.257 110.845 248.759H136.047Z" fill="#263238"/>
<path opacity="0.3" d="M158.058 270.419C155.827 270.506 153.615 270.845 151.41 271.185C149.084 271.543 146.758 271.9 144.431 272.258C148.029 275.279 151.83 278.057 155.8 280.569C158.209 282.093 160.83 283.563 163.679 283.575C166.872 283.59 175.547 279.475 174.109 275.221C172.65 270.909 161.688 270.279 158.058 270.419Z" fill="black"/>
<path d="M146.829 248.759C146.829 248.759 176.258 252.553 192.482 261.792C197.476 264.637 196.777 273.771 196.648 279.785C196.291 295.923 193.187 311.881 187.472 326.977H177.484C177.484 326.977 177.994 310.673 177.657 284.364C177.553 276.476 161.63 273.875 146.069 272.959C132.628 272.114 120.828 263.72 115.622 251.299L114.559 248.759H146.829Z" fill="#263238"/>
<path d="M189.917 324.298C189.969 324.298 189.269 329.024 189.269 329.024H175.445L175.065 324.808L189.917 324.298Z" fill="#5EA813"/>
<path d="M164.688 324.298C164.74 324.298 163.418 329.024 163.418 329.024H149.594L149.845 324.808L164.688 324.298Z" fill="#5EA813"/>
<path d="M127.539 272.6L117.635 345.614L115.845 345.369L123.491 272.047L127.539 272.6Z" fill="#5EA813"/>
<path opacity="0.4" d="M127.185 275.214L117.635 345.614L115.845 345.369L123.162 275.206L127.185 275.214Z" fill="black"/>
<path d="M162.382 275.214H106.222C106.222 271.673 109.092 268.803 112.633 268.803H155.971C159.512 268.803 162.382 271.673 162.382 275.214Z" fill="#5EA813"/>
<path opacity="0.7" d="M162.382 275.214H106.222C106.222 271.673 109.092 268.803 112.633 268.803H155.971C159.512 268.803 162.382 271.673 162.382 275.214Z" fill="white"/>
<path d="M108.823 275.206L100.355 346.192H102.17L112.909 275.206H108.823Z" fill="#5EA813"/>
<path d="M159.781 275.206L168.248 346.192H166.434L155.703 275.206H159.781Z" fill="#5EA813"/>
<path opacity="0.4" d="M159.781 275.206L168.248 346.192H166.434L155.703 275.206H159.781Z" fill="black"/>
<path d="M148.454 275.206L148.619 346.192H146.813L144.368 275.206H148.454Z" fill="#5EA813"/>
<path d="M216 364.08C308.52 364.08 383.52 359.7 383.52 354.3C383.52 348.9 308.52 344.52 216 344.52C123.48 344.52 48.48 348.9 48.48 354.3C48.48 359.7 123.48 364.08 216 364.08Z" fill="#F5F5F5"/>
<path d="M205.97 295.08H39.1402C36.4202 295.08 34.2202 292.87 34.2202 290.15V55.6302C34.2402 52.9302 36.4402 50.7402 39.1402 50.7402H205.97C208.69 50.7402 210.9 52.9502 210.9 55.6702V290.14C210.9 292.86 208.69 295.07 205.97 295.07V295.08ZM39.1402 50.9202C36.5402 50.9202 34.4302 53.0302 34.4302 55.6402V290.16C34.4302 292.76 36.5402 294.87 39.1402 294.88H205.97C208.57 294.88 210.68 292.77 210.69 290.16V55.6302C210.69 53.0302 208.58 50.9202 205.97 50.9102H39.1402V50.9202Z" fill="#E6E6E6"/>
<path d="M392.86 295.08H226.02C223.3 295.08 221.09 292.87 221.09 290.15V55.6302C221.12 52.9202 223.32 50.7402 226.02 50.7402H392.86C395.56 50.7402 397.75 52.9302 397.78 55.6302V290.15C397.78 292.87 395.58 295.07 392.86 295.08ZM226.03 50.9202C223.43 50.9202 221.32 53.0302 221.31 55.6402V290.16C221.31 292.76 223.42 294.87 226.03 294.88H392.87C395.47 294.88 397.58 292.77 397.59 290.16V55.6302C397.59 53.0302 395.47 50.9202 392.87 50.9102H226.03V50.9202Z" fill="#E6E6E6"/>
<path d="M82.0802 338.87H46.4702V339.09H82.0802V338.87Z" fill="#E0E0E0"/>
<path d="M154.66 337.14H118.95V337.36H154.66V337.14Z" fill="#E0E0E0"/>
<path d="M201.12 337.14H192.48V337.36H201.12V337.14Z" fill="#E0E0E0"/>
<path d="M114.76 344.52H74.7998V344.74H114.76V344.52Z" fill="#E0E0E0"/>
<path d="M252.98 338.76H234.32V338.98H252.98V338.76Z" fill="#E0E0E0"/>
<path d="M284.8 338.76H260.67V338.98H284.8V338.76Z" fill="#E0E0E0"/>
<path d="M401.18 342.41H347.23V342.63H401.18V342.41Z" fill="#E0E0E0"/>
<path d="M356.35 98.6899H315.22V127.44H356.35V98.6899Z" fill="#E6E6E6"/>
<path d="M333.76 98.6899H315.21V127.44H333.76V98.6899Z" fill="#F0F0F0"/>
<path opacity="0.4" d="M324.47 102.59C327.85 102.59 330.6 105.33 330.6 108.72C330.6 112.11 327.86 114.84 324.47 114.84C321.08 114.84 318.35 112.1 318.35 108.72C318.35 105.34 321.09 102.59 324.47 102.59Z" fill="#E0E0E0"/>
<path d="M327.46 120.66C327.46 122.31 326.12 123.65 324.47 123.65C322.82 123.65 321.48 122.31 321.48 120.66C321.48 119.01 322.82 117.67 324.47 117.67C326.12 117.67 327.46 119.01 327.46 120.66Z" fill="#E0E0E0"/>
<path d="M324.43 110.87C325.39 110.87 326.17 110.09 326.17 109.13C326.17 108.17 325.39 107.39 324.43 107.39C323.47 107.39 322.69 108.17 322.69 109.13C322.69 110.09 323.47 110.87 324.43 110.87Z" fill="#FAFAFA"/>
<path d="M268.53 88.3999H250.74V127.45H268.53V88.3999Z" fill="#F0F0F0"/>
<path d="M291.64 88.3999H268.04V127.45H291.64V88.3999Z" fill="#E6E6E6"/>
<path d="M259.57 100.8C260.93 100.8 262.03 101.9 262.03 103.26C262.03 104.62 260.93 105.72 259.57 105.72C258.21 105.72 257.11 104.62 257.11 103.26C257.11 101.9 258.21 100.8 259.57 100.8Z" fill="white"/>
<path d="M259.57 96.9502C260.25 96.9502 260.8 97.5002 260.8 98.1802C260.8 98.8602 260.25 99.4102 259.57 99.4102C258.89 99.4102 258.34 98.8602 258.34 98.1802C258.34 97.5002 258.89 96.9502 259.57 96.9502Z" fill="white"/>
<path d="M259.57 93.2202C260.25 93.2202 260.8 93.7702 260.8 94.4502C260.8 95.1302 260.25 95.6802 259.57 95.6802C258.89 95.6802 258.34 95.1302 258.34 94.4502C258.34 93.7702 258.89 93.2202 259.57 93.2202Z" fill="white"/>
<path d="M291.23 110.3H251.14V110.92H291.23V110.3Z" fill="#E0E0E0"/>
<path d="M291.23 113.76H251.14V114.38H291.23V113.76Z" fill="#E0E0E0"/>
<path d="M291.23 117.23H251.14V117.85H291.23V117.23Z" fill="#E0E0E0"/>
<path d="M291.23 120.69H251.14V121.31H291.23V120.69Z" fill="#E0E0E0"/>
<path d="M291.23 124.16H251.14V124.78H291.23V124.16Z" fill="#E0E0E0"/>
<path d="M259.99 111.35H258.3V113.04H259.99V111.35Z" fill="#E0E0E0"/>
<path d="M259.99 115H258.3V116.69H259.99V115Z" fill="#E0E0E0"/>
<path d="M259.99 118.28H258.3V119.97H259.99V118.28Z" fill="#E0E0E0"/>
<path d="M259.99 121.82H258.3V123.51H259.99V121.82Z" fill="#E0E0E0"/>
<path d="M259.99 125.26H258.3V126.95H259.99V125.26Z" fill="#E0E0E0"/>
<path d="M216.75 165.9H215.89V132.81C215.89 129.1 218.91 126.07 222.63 126.07H251.15V126.93H222.63C219.39 126.93 216.76 129.57 216.76 132.8V165.89L216.75 165.9Z" fill="#E0E0E0"/>
<path d="M215.02 165.95H214.16V132.56C214.16 128.05 217.83 124.39 222.33 124.39H251.14V125.25H222.33C218.3 125.25 215.02 128.53 215.02 132.56V165.95Z" fill="#E0E0E0"/>
<path d="M120.42 82.9502H93.3701V111.75H120.42V82.9502Z" fill="#E6E6E6"/>
<path d="M127.35 82.9502H120.42V111.75H127.35V82.9502Z" fill="#F5F5F5"/>
<path d="M106.59 78.5H86.27V111.74H106.59V78.5Z" fill="#E6E6E6"/>
<path d="M112.46 78.5H106.58V111.74H112.46V78.5Z" fill="#F5F5F5"/>
<path d="M100.61 82.9502H83.48V111.75H100.61V82.9502Z" fill="#EBEBEB"/>
<path d="M104.52 82.9502H100.61V111.75H104.52V82.9502Z" fill="#F5F5F5"/>
<path d="M86.5799 87.8198H64.1099V111.74H86.5799V87.8198Z" fill="#E6E6E6"/>
<path d="M92.3398 87.8198H86.5898V111.74H92.3398V87.8198Z" fill="#F5F5F5"/>
<path d="M75.1002 84.1299H58.2202V111.74H75.1002V84.1299Z" fill="#E6E6E6"/>
<path d="M79.9698 84.1299H75.0898V111.74H79.9698V84.1299Z" fill="#F5F5F5"/>
<path d="M70.1202 87.8198H53.7202V111.74H70.1202V87.8198Z" fill="#E6E6E6"/>
<path d="M73.3799 87.8198H70.1299V111.74H73.3799V87.8198Z" fill="#F0F0F0"/>
<path d="M34.5601 120.06H210.82V111.73H34.5601V120.06Z" fill="#E6E6E6"/>
<path d="M66.1899 120.26H75.9399L68.8399 130.98H66.1899V120.26Z" fill="#E0E0E0"/>
<path d="M66.19 120.26H64.79V130.98H66.19V120.26Z" fill="#E0E0E0"/>
<path d="M175.66 120.26H185.41L178.31 130.98H175.66V120.26Z" fill="#E0E0E0"/>
<path d="M175.66 120.26H174.26V130.98H175.66V120.26Z" fill="#E0E0E0"/>
<path d="M397.64 127.45H221.38V135.78H397.64V127.45Z" fill="#E6E6E6"/>
<path d="M366.01 146.7H363.36L356.26 135.98H366.01V146.7Z" fill="#E0E0E0"/>
<path d="M367.42 135.98H366.02V146.7H367.42V135.98Z" fill="#E0E0E0"/>
<path d="M256.54 146.7H253.89L246.79 135.98H256.54V146.7Z" fill="#E0E0E0"/>
<path d="M257.94 135.98H256.54V146.7H257.94V135.98Z" fill="#E0E0E0"/>
<path d="M170.6 94.94C170.6 93.67 170.41 92.44 170.06 91.29L173.26 88.47L171.24 84.97L167.2 86.34C165.53 84.55 163.34 83.26 160.87 82.68L160.03 78.5H155.99L155.15 82.68C152.68 83.25 150.49 84.55 148.82 86.34L144.78 84.97L142.76 88.47L145.96 91.29C145.61 92.44 145.42 93.67 145.42 94.94C145.42 96.21 145.61 97.44 145.96 98.6L142.76 101.42L144.78 104.92L148.82 103.55C150.49 105.34 152.68 106.63 155.15 107.21L155.99 111.39H160.03L160.87 107.21C163.34 106.63 165.52 105.34 167.2 103.55L171.24 104.92L173.26 101.42L170.06 98.6C170.41 97.44 170.6 96.22 170.6 94.94ZM158.02 101.73C154.41 101.73 151.48 98.8 151.48 95.19C151.48 91.58 154.41 88.65 158.02 88.65C161.63 88.65 164.56 91.58 164.56 95.19C164.56 98.8 161.63 101.73 158.02 101.73Z" fill="#F0F0F0"/>
<path d="M192.42 97.06C191.98 96.35 191.46 95.72 190.86 95.19L191.69 92.5L189.35 91.23L187.55 93.39C185.99 92.96 184.32 92.99 182.74 93.51L180.83 91.45L178.56 92.84L179.53 95.48C178.34 96.65 177.56 98.13 177.23 99.71L174.49 100.33L174.56 102.99L177.33 103.47C177.53 104.24 177.85 104.99 178.28 105.71C178.72 106.42 179.25 107.05 179.84 107.58L179.01 110.26L181.34 111.53L183.14 109.37C184.69 109.8 186.37 109.77 187.95 109.25L189.86 111.31L192.13 109.92L191.16 107.28C192.35 106.11 193.13 104.63 193.46 103.05L196.2 102.43L196.13 99.77L193.36 99.29C193.16 98.52 192.85 97.77 192.41 97.05L192.42 97.06ZM187.69 105.2C185.66 106.44 183.01 105.8 181.77 103.77C180.53 101.74 181.17 99.09 183.19 97.85C185.22 96.61 187.87 97.25 189.11 99.27C190.35 101.3 189.71 103.95 187.69 105.19V105.2Z" fill="#F0F0F0"/>
<path d="M392.41 235.98H40.23V240.41H392.41V235.98Z" fill="#263238"/>
<path d="M61.21 239.15V344.85H63.96L67.42 239.15H61.22H61.21Z" fill="#263238"/>
<path d="M93.6401 242.61V340.54H96.3901L99.8501 242.61H93.6501H93.6401Z" fill="#263238"/>
<path opacity="0.5" d="M93.6401 242.61V340.54H96.3901L99.8501 242.61H93.6501H93.6401Z" fill="black"/>
<path d="M372.68 239.15V344.85H369.94L366.48 239.15H372.68Z" fill="#263238"/>
<path d="M340.26 242.61V340.54H337.51L334.05 242.61H340.25H340.26Z" fill="#263238"/>
<path opacity="0.5" d="M340.26 242.61V340.54H337.51L334.05 242.61H340.25H340.26Z" fill="black"/>
<path d="M378.95 245.15H54.7198L47.5498 240.41H386.11L378.94 245.15H378.95Z" fill="#263238"/>
<path opacity="0.5" d="M378.95 245.15H54.7198L47.5498 240.41H386.11L378.94 245.15H378.95Z" fill="black"/>
<path d="M63.3701 222.39V225.81C63.3701 226.39 63.5901 226.93 64.0001 227.34L66.7401 230.08C66.9901 230.33 67.3001 230.5 67.6301 230.61C68.7501 233.01 71.1801 234.69 74.0101 234.69H75.0401C78.9301 234.69 82.0801 231.54 82.0801 227.65V219.59H66.9801V220.24H65.5401C64.3501 220.24 63.3801 221.21 63.3801 222.4L63.3701 222.39ZM65.1001 222.39C65.1001 222.15 65.2901 221.96 65.5301 221.96H66.9701V227.64C66.9701 227.72 66.9701 227.79 66.9801 227.87L65.2201 226.11C65.1401 226.03 65.0901 225.92 65.0901 225.81V222.39H65.1001Z" fill="#054E82"/>
<path opacity="0.5" d="M63.3701 222.39V225.81C63.3701 226.39 63.5901 226.93 64.0001 227.34L66.7401 230.08C66.9901 230.33 67.3001 230.5 67.6301 230.61C68.7501 233.01 71.1801 234.69 74.0101 234.69H75.0401C78.9301 234.69 82.0801 231.54 82.0801 227.65V219.59H66.9801V220.24H65.5401C64.3501 220.24 63.3801 221.21 63.3801 222.4L63.3701 222.39ZM65.1001 222.39C65.1001 222.15 65.2901 221.96 65.5301 221.96H66.9701V227.64C66.9701 227.72 66.9701 227.79 66.9801 227.87L65.2201 226.11C65.1401 226.03 65.0901 225.92 65.0901 225.81V222.39H65.1001Z" fill="white"/>
<path d="M85.6599 235.83H63.9399C62.5299 235.83 61.3799 234.55 61.3799 234.55H88.2099C88.2099 234.55 87.0699 235.83 85.6499 235.83H85.6599Z" fill="#054E82"/>
<path opacity="0.5" d="M85.6599 235.83H63.9399C62.5299 235.83 61.3799 234.55 61.3799 234.55H88.2099C88.2099 234.55 87.0699 235.83 85.6499 235.83H85.6599Z" fill="white"/>
<path d="M377.88 225.3C377.77 221.87 375.16 221.03 371.75 220.64V219.39C371.75 219.09 371.5 218.85 371.2 218.86H359.43C359.12 218.85 358.86 219.09 358.85 219.39V235.73H371.76V233.94C375.18 233.56 377.79 228.73 377.89 225.3H377.88ZM371.75 231.83V222.76C374.26 223.13 375.99 223.47 375.62 225.98C375.32 227.98 373.75 231.54 371.75 231.84V231.83Z" fill="#054E82"/>
<g opacity="0.5">
<path d="M377.88 225.3C377.77 221.87 375.16 221.03 371.75 220.64V219.39C371.75 219.09 371.5 218.85 371.2 218.86H359.43C359.12 218.85 358.86 219.09 358.85 219.39V235.73H371.76V233.94C375.18 233.56 377.79 228.73 377.89 225.3H377.88ZM371.75 231.83V222.76C374.26 223.13 375.99 223.47 375.62 225.98C375.32 227.98 373.75 231.54 371.75 231.84V231.83Z" fill="white"/>
</g>
<path d="M221.09 214.9H210.9V235.6H221.09V214.9Z" fill="#5EA813"/>
<path d="M221.09 214.9H210.9V235.6H221.09V214.9Z" fill="#495358"/>
<path d="M225.69 235.97H206.39L211.1 231.83H220.98L225.69 235.97Z" fill="#5EA813"/>
<path d="M225.69 235.97H206.39L211.1 231.83H220.98L225.69 235.97Z" fill="#495358"/>
<path d="M268.12 229.27H219.87L228.59 235.99H276.83L268.12 229.27Z" fill="#263238"/>
<path d="M220.99 235.99L219.88 229.27L228.6 235.99H221H220.99Z" fill="black"/>
<path d="M171.85 165.93H259.66C260.58 165.93 261.33 166.68 261.33 167.6V221.45C261.33 222.37 260.59 223.12 259.66 223.12H171.85C170.93 223.12 170.18 222.37 170.18 221.45V167.6C170.18 166.68 170.93 165.93 171.85 165.93Z" fill="#495358"/>
<path opacity="0.5" d="M257.92 169.5H173.49V219.33H257.92V169.5Z" fill="black"/>
<path opacity="0.4" d="M255.24 179.75H212.64V209.08H255.24V179.75Z" fill="black"/>
<path d="M255.24 179.75H212.64V182.44H255.24V179.75Z" fill="#FFCA3A"/>
<path d="M220.44 195.97L227.41 199.83C227.76 200.03 227.99 200.2 228.11 200.35C228.22 200.5 228.28 200.7 228.28 200.94C228.28 201.24 228.17 201.5 227.96 201.72C227.74 201.94 227.49 202.05 227.2 202.05C227.01 202.05 226.73 201.95 226.35 201.73L217.36 196.73C216.76 196.39 216.76 195.52 217.36 195.19L226.35 190.19C226.73 189.99 227.01 189.89 227.19 189.89C227.48 189.89 227.74 190 227.96 190.21C228.18 190.42 228.28 190.69 228.28 190.99C228.28 191.23 228.22 191.42 228.11 191.58C227.99 191.73 227.76 191.91 227.41 192.1L220.44 195.96V195.97Z" fill="white"/>
<path d="M238.36 188.77L231.47 203.62C231.29 203.99 231.14 204.23 231 204.34C230.82 204.49 230.6 204.56 230.34 204.56C230.05 204.56 229.79 204.46 229.58 204.24C229.37 204.03 229.26 203.79 229.26 203.53C229.26 203.34 229.34 203.07 229.51 202.7L236.42 187.86C236.59 187.49 236.75 187.25 236.88 187.14C237.07 186.99 237.29 186.92 237.54 186.92C237.83 186.92 238.09 187.02 238.3 187.23C238.51 187.44 238.62 187.67 238.62 187.94C238.62 188.13 238.54 188.4 238.37 188.77H238.36Z" fill="white"/>
<path d="M247.03 195.97L240.06 192.11C239.71 191.92 239.48 191.74 239.36 191.59C239.24 191.44 239.19 191.24 239.19 191C239.19 190.7 239.3 190.44 239.51 190.22C239.73 190 239.98 189.9 240.27 189.9C240.45 189.9 240.73 190 241.11 190.2L250.1 195.2C250.71 195.54 250.71 196.41 250.1 196.74L241.11 201.74C240.73 201.95 240.45 202.06 240.27 202.06C239.97 202.06 239.72 201.95 239.5 201.73C239.29 201.52 239.18 201.24 239.18 200.95C239.18 200.71 239.24 200.52 239.35 200.36C239.46 200.21 239.7 200.03 240.05 199.84L247.02 195.98L247.03 195.97Z" fill="white"/>
<path d="M179.84 174.1H176.96V176.98H179.84V174.1Z" fill="white"/>
<path d="M179.84 181.57H176.96V184.45H179.84V181.57Z" fill="white"/>
<path d="M179.84 189.03H176.96V191.91H179.84V189.03Z" fill="white"/>
<path d="M179.84 196.5H176.96V199.38H179.84V196.5Z" fill="white"/>
<path d="M179.84 203.96H176.96V206.84H179.84V203.96Z" fill="white"/>
<path d="M179.84 211.43H176.96V214.31H179.84V211.43Z" fill="white"/>
<path d="M194.07 174.75H182.57V175.61H194.07V174.75Z" fill="white"/>
<path d="M189.35 182.23H185.25V183.09H189.35V182.23Z" fill="white"/>
<path d="M207.18 190.63H203.08V191.49H207.18V190.63Z" fill="white"/>
<path d="M189.35 197.3H185.25V198.16H189.35V197.3Z" fill="white"/>
<path d="M195.26 197.3H191.16V198.16H195.26V197.3Z" fill="white"/>
<path d="M201.63 190.63H191.16V191.49H201.63V190.63Z" fill="white"/>
<path d="M204.15 197.3H197.26V198.16H204.15V197.3Z" fill="white"/>
<path d="M201.33 213.31H197.23V214.17H201.33V213.31Z" fill="white"/>
<path d="M207.24 213.31H203.15V214.17H207.24V213.31Z" fill="white"/>
<path d="M211.53 213.31H209.24V214.17H211.53V213.31Z" fill="white"/>
<path d="M204.15 182.23H191.41V183.09H204.15V182.23Z" fill="white"/>
<path d="M195.26 205.1H191.16V205.96H195.26V205.1Z" fill="white"/>
<path d="M198.99 205.1H196.62V205.96H198.99V205.1Z" fill="white"/>
<path d="M207.49 205.1H200.8V205.96H207.49V205.1Z" fill="white"/>
<path d="M258.48 340.2L252.18 338.32L253.65 322.88L259.95 324.76L258.48 340.2Z" fill="#FFBE9D"/>
<path opacity="0.2" d="M260.47 321.27L254.17 319.39L253.35 328.04L259.72 329.22L260.47 321.26V321.27Z" fill="black"/>
<path d="M295.76 244.84C295.76 244.84 252.45 248.49 253.51 267.3C254.38 282.7 256.66 278.51 252.18 324.29L263.08 324.89C263.08 324.89 274.16 287.44 272.67 272.57C284.88 272.57 312.83 273.64 316.89 262.62C318.91 257.03 319.89 251.11 319.78 245.17L295.76 244.83V244.84Z" fill="#014F81"/>
<path d="M264.81 327.01L250.57 324.57L250.8 318.27L265.54 321.54L264.81 327V327.01Z" fill="#263238"/>
<path d="M251.53 335.72L258.8 337.16C259.06 337.2 259.24 337.47 259.22 337.77L258.61 344.65C258.5 345.39 257.91 345.89 257.28 345.78C254.76 345.23 253.57 344.82 250.37 344.19C248.4 343.8 243.9 342.85 241.16 342.55C238.42 342.25 238.75 339.04 239.93 338.88C245.25 338.18 248.28 337.32 250.34 335.98C250.7 335.74 251.12 335.65 251.52 335.72H251.53Z" fill="#263238"/>
<path d="M248.27 336.97C248.84 337.05 249.42 337.07 250 337.02C250.06 337.02 250.11 336.98 250.13 336.92C250.16 336.87 250.16 336.81 250.13 336.76C249.95 336.58 248.31 335.03 247.48 335.21C247.28 335.24 247.12 335.38 247.06 335.57C246.92 335.85 246.94 336.18 247.11 336.43C247.42 336.75 247.83 336.94 248.28 336.97H248.27ZM249.66 336.74C248.46 336.74 247.61 336.6 247.36 336.25C247.26 336.08 247.26 335.87 247.36 335.7C247.39 335.6 247.46 335.53 247.56 335.51C248 335.41 248.99 336.14 249.66 336.75V336.74Z" fill="#5EA813"/>
<path d="M250.01 337.02H250.08C250.13 337 250.17 336.96 250.18 336.91C250.18 336.83 250.66 334.99 250.1 334.26C249.96 334.06 249.74 333.94 249.49 333.94C249.22 333.9 248.97 334.05 248.87 334.3C248.6 334.98 249.35 336.5 249.92 336.99C249.94 337.01 249.97 337.02 250 337.03L250.01 337.02ZM249.56 334.25C249.68 334.27 249.79 334.34 249.86 334.44C250.11 335.12 250.14 335.87 249.94 336.56C249.42 335.97 249.14 335.2 249.16 334.41C249.16 334.32 249.26 334.23 249.48 334.24H249.56V334.25Z" fill="#5EA813"/>
<path d="M230.4 342.6L224.4 339.9L228.55 325.11L234.55 327.81L230.4 342.6Z" fill="#FFBE9D"/>
<path opacity="0.2" d="M235.56 324L229.56 321.3L227.43 328.93L233.43 331.63L235.56 324Z" fill="black"/>
<path d="M282.87 244.84C282.58 244.84 234.31 249.81 234.25 266.18C234.15 293.26 226.41 324.3 226.41 324.3L235.95 329.03C235.95 329.03 252.56 295.38 252.31 274.27C265.59 270.46 299.94 276.86 304 265.85C307.33 256.85 305.53 244.84 305.53 244.84H282.86H282.87Z" fill="#014F81"/>
<path d="M237.48 330.39L224.69 324.64L225.72 319.4L239.21 324.06L237.48 330.39Z" fill="#263238"/>
<path d="M225 334.93L232.29 336.45C232.54 336.5 232.72 336.79 232.7 337.12L232.13 344.68C232.03 345.5 231.44 346.06 230.81 345.94C228.29 345.36 227.09 344.91 223.9 344.25C221.93 343.85 216.56 342.54 213.86 341.84C211.16 341.13 211.76 337.69 213 337.67C218.35 337.59 221.81 336.72 223.87 335.22C224.22 334.97 224.62 334.87 225.01 334.94L225 334.93Z" fill="#263238"/>
<path d="M222.01 336.57C222.52 336.29 222.99 335.97 223.43 335.59C223.48 335.55 223.5 335.49 223.48 335.43C223.46 335.37 223.41 335.33 223.35 335.33C223.1 335.29 220.87 335 220.29 335.65C220.16 335.8 220.12 336 220.17 336.19C220.22 336.5 220.43 336.75 220.72 336.86C221.17 336.93 221.62 336.83 222 336.58L222.01 336.57ZM222.99 335.56C222.05 336.3 221.26 336.65 220.85 336.53C220.67 336.45 220.54 336.28 220.52 336.08C220.49 335.99 220.51 335.89 220.57 335.82C220.88 335.51 222.09 335.48 222.99 335.57V335.56Z" fill="#5EA813"/>
<path d="M223.43 335.58L223.49 335.53C223.49 335.53 223.53 335.44 223.5 335.39C223.45 335.33 222.74 333.56 221.86 333.29C221.63 333.22 221.38 333.25 221.19 333.4C220.95 333.53 220.84 333.8 220.91 334.07C221.1 334.78 222.59 335.55 223.35 335.61C223.38 335.61 223.4 335.61 223.42 335.59L223.43 335.58ZM221.42 333.61C221.53 333.55 221.66 333.54 221.78 333.57C222.39 333.97 222.86 334.56 223.11 335.24C222.33 335.08 221.65 334.62 221.2 333.97C221.15 333.9 221.17 333.77 221.36 333.64L221.42 333.6V333.61Z" fill="#5EA813"/>
<path d="M299.27 192.6C300.54 195.33 301.59 197.96 302.63 200.69C303.67 203.42 304.6 206.15 305.45 208.95C306.31 211.75 307.05 214.62 307.65 217.59C308.3 220.68 308.62 223.83 308.62 226.98C308.61 228.83 308.33 230.68 307.8 232.45C307.46 233.54 306.98 234.57 306.36 235.53C306 236.07 305.58 236.57 305.12 237.03L304.75 237.39C304.54 237.56 304.32 237.75 304.1 237.9C303.73 238.15 303.35 238.36 302.94 238.54C302.34 238.81 301.72 239.01 301.07 239.14C300.57 239.25 300.06 239.32 299.54 239.36C298.66 239.42 297.78 239.42 296.91 239.36C295.35 239.29 293.8 239.11 292.26 238.84C286.53 237.8 280.91 236.19 275.49 234.04L276.74 229.28C282.23 229.94 287.83 230.64 293.1 230.88C294.41 230.88 295.69 230.94 296.88 230.88C297.41 230.85 297.94 230.78 298.46 230.68C298.89 230.6 299.26 230.45 299.13 230.46C299.04 230.49 298.96 230.53 298.89 230.58C298.8 230.63 298.72 230.69 298.65 230.76C298.65 230.76 298.69 230.69 298.73 230.61C298.84 230.36 298.93 230.11 298.99 229.84C299.18 228.89 299.26 227.92 299.22 226.95C299.09 224.48 298.73 222.02 298.12 219.62C297.53 217.03 296.77 214.5 295.94 211.94C295.11 209.37 294.21 206.81 293.23 204.25C292.25 201.69 291.21 199.13 290.19 196.72L299.25 192.61L299.27 192.6Z" fill="#FFBE9D"/>
<path d="M279.13 230.57L273.4 227.35L270.52 233.55C270.52 233.55 277.22 236.34 278.63 234.6L279.13 230.57Z" fill="#FFBE9D"/>
<path d="M268.76 228.52L266.14 232.67L270.52 233.51L273.4 227.31L268.76 228.53V228.52Z" fill="#FFBE9D"/>
<path d="M285.91 197.53C284.81 200.29 283.66 202.92 282.45 205.59C281.24 208.26 280.03 210.89 278.75 213.51C276.18 218.86 273.29 224.05 270.11 229.06C269.25 230.34 268.38 231.61 267.41 232.88C266.93 233.52 266.39 234.15 265.82 234.8C265.51 235.13 265.26 235.43 264.89 235.77L264.37 236.27L264.08 236.55C263.26 237.25 262.29 237.77 261.25 238.05C260.7 238.21 260.14 238.32 259.57 238.4C258.65 238.51 257.72 238.55 256.79 238.51C255.19 238.46 253.59 238.3 252 238.03C246.14 237 240.4 235.37 234.88 233.17L236.14 228.4C241.73 229.07 247.44 229.79 252.82 230.02C254.09 230.07 255.36 230.05 256.62 229.97C257.13 229.93 257.64 229.85 258.13 229.73C258.29 229.69 258.45 229.63 258.6 229.56C258.65 229.56 258.6 229.5 258.37 229.65C258.28 229.7 258.21 229.76 258.14 229.82C258.14 229.82 258.2 229.74 258.23 229.72L258.47 229.45C258.63 229.29 258.82 229.04 259 228.83C259.35 228.38 259.72 227.9 260.08 227.37C260.8 226.34 261.5 225.2 262.19 224.04C263.57 221.72 264.86 219.26 266.12 216.77C267.38 214.28 268.59 211.74 269.78 209.18C272.16 204.08 274.48 198.86 276.69 193.71L285.91 197.51V197.53Z" fill="#FFBE9D"/>
<path d="M238.61 229.66L232.87 226.39L229.99 232.59C229.99 232.59 236.69 235.39 238.1 233.64L238.6 229.65L238.61 229.66Z" fill="#FFBE9D"/>
<path d="M228.24 227.62L225.61 231.76L229.99 232.6L232.87 226.4L228.24 227.63V227.62Z" fill="#FFBE9D"/>
<path d="M300.75 166.87L297.09 171.11L291.5 176.89C291.61 177.17 291.77 177.54 291.93 177.94C292.36 179.01 292.62 180.14 292.68 181.28C292.8 183.6 292.58 185.56 288.92 187.13C288.92 187.13 285.08 192.14 294.21 190.75C303.33 189.36 304.71 184.62 304.71 184.62C300.67 181.74 300.44 172.18 300.76 166.86L300.75 166.87Z" fill="#FFBE9D"/>
<path d="M282.14 162.09C282.14 162.66 281.85 163.14 281.48 163.16C281.1 163.18 280.8 162.73 280.79 162.16C280.79 161.59 281.08 161.11 281.46 161.09C281.83 161.07 282.14 161.52 282.15 162.09H282.14Z" fill="#263238"/>
<path d="M284.05 159.96C283.94 159.96 283.83 159.9 283.77 159.8C283.32 159.06 282.54 158.56 281.68 158.47C281.5 158.47 281.35 158.31 281.35 158.12C281.35 157.93 281.51 157.79 281.7 157.79C282.79 157.89 283.77 158.5 284.34 159.43C284.44 159.59 284.39 159.79 284.24 159.9C284.18 159.93 284.12 159.95 284.05 159.95V159.96Z" fill="#263238"/>
<path d="M281.94 162.4C281.48 163.96 280.81 165.44 279.95 166.82C280.67 167.22 281.53 167.29 282.3 166.99L281.94 162.39V162.4Z" fill="#EB996E"/>
<path d="M301.27 159.21C300.93 166.26 301.09 170.44 297.59 174.17C294.18 177.93 288.37 178.21 284.62 174.8C283.24 173.55 282.28 171.91 281.85 170.1C280.26 163.85 281.09 153.37 287.9 150.23C292.49 147.96 298.06 149.83 300.33 154.43C301.06 155.91 301.39 157.56 301.27 159.21Z" fill="#FFBE9D"/>
<path d="M304.46 161.56C303.44 164.55 301.89 167.33 299.88 169.77L290.7 171.5C290.7 171.5 283.45 168.47 285.39 163.47C284.16 162.43 284.62 159.23 285.49 157.47C286.87 158.58 289.14 158.67 290.39 157.34C291.39 159.18 294.4 159.44 295.7 157.78C297.19 159.44 300.38 158.93 301.28 156.88C302.39 157.61 303.98 157.5 304.98 156.64C305.02 156.6 305.07 156.56 305.11 156.52C305.26 157.78 305.11 159.43 304.46 161.56Z" fill="#263238"/>
<path opacity="0.1" d="M304.46 161.56C303.44 164.55 301.89 167.33 299.88 169.77L290.7 171.5C290.7 171.5 283.45 168.47 285.39 163.47C284.16 162.43 284.62 159.23 285.49 157.47C286.87 158.58 289.14 158.67 290.39 157.34C291.39 159.18 294.4 159.44 295.7 157.78C297.19 159.44 300.38 158.93 301.28 156.88C302.39 157.61 303.98 157.5 304.98 156.64C305.02 156.6 305.07 156.56 305.11 156.52C305.26 157.78 305.11 159.43 304.46 161.56Z" fill="white"/>
<path d="M305.79 153.01C306.31 154.17 306.02 155.63 305.12 156.51C305.08 156.55 305.03 156.59 304.99 156.63C303.99 157.49 302.4 157.6 301.29 156.87C300.39 158.92 297.2 159.43 295.71 157.77C294.4 159.43 291.4 159.17 290.4 157.33C289.16 158.66 286.88 158.57 285.5 157.46C285.14 157.17 284.83 156.81 284.64 156.39C284.59 156.29 284.55 156.2 284.52 156.1C284.44 156.19 284.36 156.26 284.28 156.33C283.44 157.02 282.12 157.12 281.2 156.51C280.45 156.01 280.03 155.08 280.09 154.19C280.09 154 280.13 153.82 280.19 153.64C280.12 153.77 280.03 153.89 279.93 153.99C279.18 154.79 277.59 154.83 276.85 153.91C275.93 152.78 276.45 150.89 277.71 150.14C278.21 149.85 278.76 149.71 279.33 149.71C280.21 149.71 281.11 150.03 281.81 150.56C281.06 149.48 281.33 147.83 282.38 147.04C283.43 146.26 285.09 146.48 285.91 147.51C285.8 146.28 286.2 145.55 286.83 145.17C288.02 144.48 290.01 145.07 290.98 146.23C290.98 146.23 292.31 143.02 294.61 143.38C295.11 143.45 297.47 144.5 297.41 145.34C297.41 145.4 297.39 145.45 297.37 145.51C297.41 145.44 297.44 145.38 297.48 145.32C297.93 144.61 298.84 144.26 299.69 144.27C300.61 144.27 301.5 144.63 302.35 144.98C304.14 145.71 306.04 146.54 307.08 148.17C308.11 149.81 307.66 152.48 305.8 153L305.79 153.01Z" fill="#263238"/>
<path d="M289.45 164.12C289.2 165.86 288.4 167.48 287.17 168.73C285.61 170.22 284.28 168.73 284.26 166.46C284.26 164.4 285.03 161.15 286.85 160.54C288.67 159.93 289.79 161.88 289.45 164.12Z" fill="#FFBE9D"/>
<path d="M317.08 187.09C316.43 185.36 313.41 183.63 311.55 183.63H310.32C308.18 183.63 305.51 183.8 302.92 184.1C297.98 184.65 293.08 185.47 288.23 186.57C286 187.16 283.85 187.9 282.14 188.54C279.96 189.4 278.68 189.98 278.68 189.98C278.68 189.98 281.07 205.86 282.3 221.64C282.99 230.42 282.7 239.14 282.92 245.14H319.78C321.05 237.93 320.85 231.65 320.95 218.64C321.01 210.83 319.74 194.19 317.07 187.08L317.08 187.09Z" fill="#263238"/>
<path opacity="0.2" d="M281.5 212.84C281.78 216.15 282.06 219.62 282.36 223.1C286.68 216.79 289.07 199.54 289.07 199.54L281.49 212.85L281.5 212.84Z" fill="black"/>
<path d="M276.6 191.15C271.32 194.12 266.15 209.33 266.15 209.33L278.24 218.45C282.85 214.09 289.6 203.26 290.34 198.93C291.52 192.29 285.07 186.41 276.61 191.15H276.6Z" fill="#263238"/>
<path d="M266.17 345.98C266.17 348.06 264.49 349.74 262.41 349.74C260.33 349.74 258.65 348.06 258.65 345.98C258.65 343.9 260.33 342.22 262.41 342.22C264.49 342.22 266.17 343.9 266.17 345.98Z" fill="#263238"/>
<path d="M322.23 345.98C322.23 348.06 323.91 349.74 325.99 349.74C328.07 349.74 329.75 348.06 329.75 345.98C329.75 343.9 328.07 342.22 325.99 342.22C323.92 342.22 322.23 343.9 322.23 345.98Z" fill="#263238"/>
<path d="M290.54 344.77C290.54 346.85 292.22 348.53 294.3 348.53C296.38 348.53 298.06 346.85 298.06 344.77C298.06 342.69 296.38 341.01 294.3 341.01C292.22 341.01 290.54 342.69 290.54 344.77Z" fill="#263238"/>
<path d="M293.13 340.14V332.87H282.37C280.26 332.87 278.15 333.07 276.07 333.46L256.02 337.36C255.03 337.55 254.39 338.51 254.58 339.5C254.75 340.38 255.53 341 256.43 340.97L293.13 340.14Z" fill="#263238"/>
<path d="M293.13 340.14V332.87H303.9C306.01 332.87 308.12 333.07 310.2 333.46L332.73 337.06C333.72 337.25 334.36 338.21 334.17 339.2C334 340.08 333.22 340.7 332.32 340.67L293.12 340.13L293.13 340.14Z" fill="#263238"/>
<path d="M299.79 299.61H286.46V332.88H299.79V299.61Z" fill="#263238"/>
<path d="M297.88 284.12H288.38V299.59H297.88V284.12Z" fill="#263238"/>
<path opacity="0.5" d="M288.38 288.67L297.88 291.06V284.12H288.38V288.66V288.67Z" fill="black"/>
<path d="M262.41 249.11H257.58V269.72H262.41V249.11Z" fill="#263238"/>
<path d="M286.62 284.12V194.54C286.62 191.15 288.08 187.92 290.64 185.69L297.03 180.1C299.18 178.22 301.93 177.19 304.78 177.19H327.85L339.12 189.18V284.12H286.63H286.62Z" fill="#5EA813"/>
<path d="M252.28 266.79H304.9V284.12H243.71C240.27 284.12 237.49 281.34 237.48 277.9C237.48 276.78 237.78 275.69 238.35 274.72C241.26 269.8 246.56 266.78 252.28 266.78V266.79Z" fill="#5EA813"/>
<path d="M339.11 189.18V284.13H243.71C240.28 284.13 237.49 281.35 237.49 277.91C237.49 276.8 237.78 275.7 238.35 274.74C241.26 269.82 246.54 266.8 252.25 266.8H278.75C283.1 266.8 286.62 263.28 286.62 258.93V194.54C286.62 191.15 288.08 187.92 290.64 185.69L297.03 180.1C299.17 178.22 301.93 177.19 304.78 177.19H327.84L339.11 189.18Z" fill="#474748"/>
<path d="M294.3 284.12V194.54C294.3 191.15 295.76 187.92 298.32 185.69L304.71 180.1C306.85 178.22 309.61 177.19 312.46 177.19H330.44C333.69 177.19 336.79 178.53 339.01 180.9L343.6 185.79C345.65 187.97 346.79 190.85 346.79 193.85V275.16C346.79 280.11 342.77 284.13 337.82 284.13H294.3V284.12Z" fill="#333333"/>
<path d="M276.4 255.4C265.77 251.69 254.2 251.69 243.57 255.4C241.36 256.23 238.88 255.29 237.79 253.2C236.8 251.12 238.13 248.42 240.81 247.48C253.22 243.14 266.74 243.14 279.15 247.48C281.83 248.41 283.15 251.12 282.16 253.2C281.07 255.28 278.6 256.22 276.4 255.4Z" fill="#5EA813"/>
<path d="M276.4 255.4C265.77 251.69 254.2 251.69 243.57 255.4C241.36 256.23 238.88 255.29 237.79 253.2C236.8 251.12 238.13 248.42 240.81 247.48C253.22 243.14 266.74 243.14 279.15 247.48C281.83 248.41 283.15 251.12 282.16 253.2C281.07 255.28 278.6 256.22 276.4 255.4Z" fill="#5EA745"/>
<path d="M142.12 169.68C141.94 170.19 142.07 170.7 142.41 170.81C142.75 170.92 143.16 170.61 143.33 170.1C143.5 169.59 143.38 169.07 143.05 168.96C142.72 168.85 142.3 169.16 142.12 169.68Z" fill="#263238"/>
<path d="M142.03 170.21C142.1 171.99 142.41 173.75 142.95 175.45C142.07 175.7 141.12 175.56 140.36 175.05L142.03 170.21Z" fill="#FFBE9D"/>
<path d="M141.29 166.21C141.35 166.23 141.42 166.23 141.49 166.21C142.26 165.95 143.1 166.08 143.76 166.56C143.9 166.66 144.1 166.63 144.21 166.49C144.3 166.36 144.29 166.19 144.18 166.08C143.36 165.47 142.29 165.29 141.31 165.6C141.14 165.66 141.05 165.84 141.11 166.01C141.14 166.1 141.22 166.18 141.31 166.21H141.29Z" fill="#263238"/>
<path d="M123.17 171.57C124.14 176.49 125.1 185.5 121.66 188.78C121.66 188.78 123.01 193.77 132.15 193.77C142.2 193.77 136.95 188.78 136.95 188.78C131.46 187.47 132.35 183.4 133.31 179.58L123.17 171.57Z" fill="#EB996E"/>
<path d="M125.41 162.65C123.61 169.08 122.23 172.75 124.29 177.08C127.37 183.6 138.15 184.45 141.1 176.98C143.34 170.1 145.55 162.84 140.26 158.2C136.5 154.86 130.74 155.2 127.4 158.96C126.46 160.02 125.78 161.28 125.41 162.65Z" fill="#EB996E"/>
<path d="M118.44 164.79C117.97 162.42 117.85 159.83 119.03 157.73C120.21 155.62 123.08 154.33 125.16 155.56C126.95 151.78 131.29 149.37 135.45 149.85C139.61 150.33 143.29 153.66 144.17 157.76C145.05 161.86 143.08 166.41 139.49 168.56C139.97 166.79 140.45 165.03 140.93 163.26C140.52 165.7 139.18 167.97 137.25 169.52C137.53 167.75 137.81 165.99 138.08 164.22C137.83 166.72 136.32 169.05 134.16 170.31C134.5 169.07 134.83 167.84 135.17 166.6C135.02 167.14 133.68 171.03 133.22 171.57C132.37 172.56 131.8 179.06 128.83 179.26C118.65 181.3 119.54 170.32 118.45 164.79H118.44Z" fill="#263238"/>
<path d="M132.19 167.87C132.02 169.52 132.39 171.18 133.24 172.6C134.39 174.45 136.07 173.74 136.7 171.85C137.25 170.12 137.31 167.14 135.71 165.94C134.11 164.74 132.43 165.89 132.18 167.87H132.19Z" fill="#EB996E"/>
<path d="M107.84 230.15C106.74 229.78 101.6 227.14 100.78 227.61C103.15 221.56 104.63 220.63 105.71 216.77C106.31 214.62 105.9 212.94 104.56 211.15C103.04 209.11 102.51 208.08 99.9802 208.34C96.5102 214.15 92.1302 221.31 90.4202 227.86C89.8402 230.07 89.4302 231.74 90.7402 233.6C91.9002 235.24 94.0302 235.9 96.0302 236.08C100.85 236.51 107.99 235.63 107.9 232.77C107.84 230.97 107.83 230.15 107.83 230.15H107.84Z" fill="#EB996E"/>
<path d="M107.02 229.93L111.1 228.6L110.74 235.97C110.74 235.97 107.47 236.09 105.73 233.9L107.02 229.92V229.93Z" fill="#EB996E"/>
<path d="M116.2 228.49L115.62 234.57L110.74 235.98L111.1 228.61L116.2 228.5V228.49Z" fill="#EB996E"/>
<path d="M162.96 235.16C162.96 235.16 157.27 230.7 149.8 215.97C148.69 213.91 147.63 211.83 146.62 209.74C145.6 207.63 144.63 205.56 143.7 203.34L152.53 199.54C154.35 203.5 157.18 207.58 159.18 211.52C161.18 215.45 165.92 224.76 166.51 225.63C166.8 226.08 167.12 226.45 167.43 226.86L167.89 227.47L162.2 234.05L162.97 235.17L162.96 235.16Z" fill="#EB996E"/>
<path d="M170.43 206.52L168.66 204.41L167.84 201.25L173.17 196.3C173.17 196.3 174.46 197.89 175.36 199.6C175.5 199.86 175.56 200.16 175.54 200.45L175.32 206L170.42 206.52H170.43Z" fill="#EB996E"/>
<path d="M167.92 197.84L171.91 194.21L173.17 196.33L167.84 201.26L167.92 197.84Z" fill="#EB996E"/>
<path d="M170.51 204.97C170.65 204.38 170.77 205.54 171.16 205.07C172.34 203.66 174.05 203.5 175.07 205.04C176.09 206.57 175.22 221.99 173.59 226.82C172.51 230.03 171.93 232.59 169.17 234.54C168.03 235.35 166.68 235.96 165.28 235.93C163.88 235.91 162.44 235.14 161.91 233.85C161.09 231.84 164.14 224.58 165.23 222.24C168.65 214.9 168.87 211.94 170.51 204.97Z" fill="#EB996E"/>
<path d="M159.07 204.31C161.42 204.29 163.78 204.26 166.13 204.24C167.14 204.23 168.18 204.21 169.09 203.77C170.28 203.19 171.02 201.98 171.5 200.76C172.5 198.2 172.58 195.39 172.98 192.67C173.38 189.95 174.19 187.11 176.25 185.29C172.5 185.79 165.87 184.61 162.99 187.69C161.46 189.32 158.78 204.32 159.07 204.32V204.31Z" fill="#5EA813"/>
<path d="M159.07 204.31C161.42 204.29 163.78 204.26 166.13 204.24C167.14 204.23 168.18 204.21 169.09 203.77C170.28 203.19 171.02 201.98 171.5 200.76C172.5 198.2 172.58 195.39 172.98 192.67C173.38 189.95 174.19 187.11 176.25 185.29C172.5 185.79 165.87 184.61 162.99 187.69C161.46 189.32 158.78 204.32 159.07 204.32V204.31Z" fill="#EBDDE4"/>
<path d="M171.15 193.82C170.74 193.93 170.48 195.38 170.57 195.79L170.97 196.5L171.78 200L174.48 198.51L172.05 194.2C171.88 193.89 171.51 193.74 171.17 193.83L171.15 193.82Z" fill="#EB996E"/>
<path d="M110.27 190.01C103.96 191.45 94.6401 211.1 94.6401 211.1L107.3 219.74C110.45 215.23 114.73 208.4 117.15 203.46C120.89 195.63 116.72 188.53 110.28 190.01H110.27Z" fill="#FFC938"/>
<path d="M119.48 190.49C118.76 188.91 117.97 187.1 119.6 186.54C121.41 185.92 131.29 185.28 134.69 186.44C136.56 186.95 137.66 188.88 137.15 190.75C137.15 190.77 137.14 190.79 137.13 190.82L119.47 190.49H119.48Z" fill="#263238"/>
<path opacity="0.2" d="M114.17 201.36L105.17 218.3L107.29 219.75C107.29 219.75 111.37 214.08 114.17 209.17V201.37V201.36Z" fill="black"/>
<path d="M148.62 198.66C149.98 205.56 146.8 221.96 146.83 248.75H110.86C110.62 243.34 114.56 230.51 109.67 204.98C109.51 204.15 109.44 190.17 110.27 190.02C113.75 189.41 117.27 188.99 120.8 188.78C125.89 188.48 131 188.48 136.09 188.78C138.17 188.99 141.45 190.28 143.52 191.03C146.75 192.19 147.96 195.31 148.62 198.67V198.66Z" fill="#FFC938"/>
<path opacity="0.2" d="M139.1 205.53C140.04 211.21 143.76 218.71 147.47 223.11C147.62 219.89 147.94 216.52 147.93 213.94L139.1 205.53Z" fill="black"/>
<path d="M136.54 197C135.68 203.37 148.2 219.63 148.2 219.63L160.81 210.99C160.81 210.99 157.31 202.03 151.43 196.16C144.73 189.42 137.53 190.08 136.54 197.01V197Z" fill="#FFC938"/>
<path d="M177.74 337.93H184.46L185.99 322.35H179.27L177.74 337.93Z" fill="#EB996E"/>
<path opacity="0.2" d="M185.89 323.3L185.11 331.33H178.38L179.17 323.3H185.89Z" fill="black"/>
<path d="M151.23 337.93H157.95L161.33 322.35H154.61L151.23 337.93Z" fill="#EB996E"/>
<g opacity="0.2">
<path d="M154.46 323.18H161.18L159.43 331.21H152.71L154.46 323.18Z" fill="black"/>
</g>
<path d="M184.85 334.91H177.51C177.23 334.91 176.99 335.16 176.93 335.51L175.6 343.2C175.48 343.88 175.8 344.56 176.33 344.72C176.41 344.74 176.49 344.76 176.57 344.75C179.21 344.69 183.04 344.49 186.37 344.49C190.27 344.49 193.63 344.76 198.19 344.76C200.95 344.76 201.72 341.15 200.57 340.82C195.31 339.33 191.01 339.18 186.47 335.54C185.99 335.14 185.43 334.91 184.85 334.89V334.91Z" fill="#263238"/>
<path d="M190.18 337.41C191.04 337.41 191.91 337.29 192.16 336.9C192.31 336.69 192.31 336.41 192.16 336.2C192.04 336.02 191.87 335.89 191.66 335.83C190.54 335.53 188.2 336.87 188.09 336.93C188.03 336.96 188 337.03 188.01 337.09C188.02 337.15 188.07 337.2 188.13 337.22C188.81 337.34 189.49 337.41 190.18 337.41ZM191.25 336.11C191.35 336.1 191.45 336.1 191.55 336.11C191.68 336.13 191.8 336.22 191.86 336.34C191.97 336.54 191.94 336.63 191.86 336.68C191.55 337.12 189.85 337.13 188.59 336.95C189.41 336.5 190.31 336.22 191.24 336.11H191.25Z" fill="#263238"/>
<path d="M188.15 337.22H188.22C189.03 336.86 190.64 335.41 190.51 334.63C190.51 334.45 190.35 334.23 189.92 334.18C189.61 334.15 189.3 334.25 189.06 334.46C188.2 335.16 188.02 336.97 188.02 337.05C188.02 337.11 188.04 337.16 188.08 337.2C188.1 337.21 188.13 337.22 188.16 337.23L188.15 337.22ZM189.79 334.5H189.89C190.18 334.5 190.19 334.65 190.2 334.68C190.28 335.14 189.18 336.28 188.35 336.77C188.42 336.01 188.72 335.29 189.21 334.71C189.37 334.57 189.58 334.5 189.79 334.5Z" fill="#263238"/>
<path d="M158.43 334.91H150.88C150.6 334.91 150.37 335.16 150.31 335.51L148.98 343.2C148.87 343.89 149.21 344.58 149.74 344.73C149.81 344.75 149.89 344.76 149.96 344.76C152.6 344.7 153.88 344.5 157.2 344.5C159.25 344.5 161.87 344.77 164.69 344.77C167.51 344.77 167.88 341.16 166.72 340.83C161.54 339.37 161.18 337.34 159.52 335.41C159.21 335.07 158.82 334.89 158.42 334.91H158.43Z" fill="#263238"/>
<path d="M162.37 338.27C162.95 338.34 163.53 338.19 163.99 337.83C164.15 337.61 164.15 337.3 163.99 337.08C163.89 336.89 163.7 336.75 163.49 336.71C162.5 336.48 160.65 337.75 160.57 337.8C160.52 337.84 160.49 337.9 160.5 337.96C160.51 338.02 160.56 338.07 160.62 338.08C161.2 338.2 161.78 338.27 162.37 338.27ZM163.23 336.99C163.29 336.99 163.36 336.99 163.42 336.99C163.54 337.01 163.65 337.09 163.71 337.2C163.86 337.47 163.77 337.57 163.71 337.62C163.43 337.99 162.05 338 161.04 337.84C161.69 337.4 162.43 337.11 163.21 337H163.23V336.99Z" fill="#263238"/>
<path d="M160.66 338.09H160.73C161.43 337.71 162.78 336.24 162.63 335.5C162.58 335.25 162.37 335.08 162.12 335.08C161.88 335.05 161.63 335.13 161.45 335.29C160.67 335.93 160.51 337.88 160.5 337.95C160.5 338.01 160.53 338.06 160.58 338.1C160.61 338.1 160.64 338.1 160.67 338.1L160.66 338.09ZM162.02 335.37H162.09C162.3 335.37 162.32 335.49 162.32 335.53C162.41 335.97 161.54 337.08 160.85 337.61C160.9 336.84 161.17 336.11 161.64 335.5C161.74 335.41 161.88 335.36 162.01 335.36L162.02 335.37Z" fill="#263238"/>
<path d="M136.05 248.76C136.05 248.76 167.89 261.9 174.47 272.01C170.55 297.71 163.53 326.98 163.53 326.98H151.56C151.56 326.98 151.23 310.7 154.66 289.17C156.39 257.76 99.8699 290.26 110.85 248.76H136.05Z" fill="#263238"/>
<path opacity="0.3" d="M158.06 270.42C155.83 270.51 153.62 270.85 151.41 271.19C149.08 271.55 146.76 271.9 144.43 272.26C148.03 275.28 151.83 278.06 155.8 280.57C158.21 282.09 160.83 283.56 163.68 283.58C166.87 283.59 175.55 279.48 174.11 275.23C172.65 270.92 161.69 270.29 158.06 270.43V270.42Z" fill="black"/>
<path d="M146.83 248.76C146.83 248.76 176.26 252.55 192.48 261.79C197.47 264.64 196.77 273.77 196.65 279.78C196.29 295.92 193.19 311.88 187.47 326.97H177.48C177.48 326.97 177.99 310.67 177.65 284.36C177.55 276.47 161.62 273.87 146.06 272.96C132.62 272.11 120.82 263.72 115.61 251.3L114.55 248.76H146.82H146.83Z" fill="#263238"/>
<path d="M189.92 324.3C189.97 324.3 189.27 329.03 189.27 329.03H175.45L175.07 324.81L189.92 324.3Z" fill="#FFC938"/>
<path d="M164.69 324.3C164.74 324.3 163.42 329.03 163.42 329.03H149.6L149.85 324.81L164.69 324.3Z" fill="#FFC938"/>
<path d="M127.54 272.6L117.64 345.61L115.85 345.36L123.5 272.04L127.55 272.59L127.54 272.6Z" fill="#5EA813"/>
<path d="M127.18 275.21L117.63 345.61L115.84 345.36L123.16 275.2H127.18V275.21Z" fill="#BCBCBC"/>
<path d="M162.38 275.21H106.22C106.22 271.67 109.09 268.8 112.63 268.8H155.97C159.51 268.8 162.38 271.67 162.38 275.21Z" fill="#5EA813"/>
<path d="M162.38 275.21H106.22C106.22 271.67 109.09 268.8 112.63 268.8H155.97C159.51 268.8 162.38 271.67 162.38 275.21Z" fill="#5EA745"/>
<path d="M108.82 275.21L100.35 346.2H102.16L112.9 275.21H108.81H108.82Z" fill="#E7E6E6"/>
<path d="M159.78 275.21L168.25 346.2H166.44L155.71 275.21H159.79H159.78Z" fill="#5EA813"/>
<path d="M159.78 275.21L168.25 346.2H166.44L155.71 275.21H159.79H159.78Z" fill="#E7E6E6"/>
<path d="M148.45 275.21L148.62 346.2H146.81L144.36 275.21H148.45Z" fill="#BCBCBC"/>
</g>
<defs>
<clipPath id="clip0_80_12241">
<rect width="432" height="432" fill="white"/>
</clipPath>
</defs>
</svg>
