<svg width="558" height="384" viewBox="0 0 558 384" fill="none" xmlns="http://www.w3.org/2000/svg">
<path d="M501.723 355.113H464.786V355.392H501.723V355.113Z" fill="#EBEBEB"/>
<path d="M369.372 358.14H359.678V358.418H369.372V358.14Z" fill="#EBEBEB"/>
<path d="M463.669 344.758H442.267V345.037H463.669V344.758Z" fill="#EBEBEB"/>
<path d="M106.67 346.631H58.5015V346.91H106.67V346.631Z" fill="#EBEBEB"/>
<path d="M123.662 346.631H116.599V346.91H123.662V346.631Z" fill="#EBEBEB"/>
<path d="M251.08 351.34H146.614V351.619H251.08V351.34Z" fill="#EBEBEB"/>
<path d="M557.593 337.163H0V337.442H557.593V337.163Z" fill="#EBEBEB"/>
<path d="M421.952 298.994C422.091 285.461 420.701 270.762 422.796 258.226C423.149 256.109 423.187 253.843 422.428 251.76C417.791 254.769 417.273 266.694 417.127 271.531C413.257 259.9 410.887 246.86 412.147 234.932C412.603 230.609 412.603 224.194 408.054 228.105C404.017 231.575 405.516 243.653 406.438 247.695C403.38 238.221 399.609 228.772 396.539 219.537C392.9 208.588 383.521 211.275 390.55 221.854C395.144 228.767 401.912 244.927 401.912 244.927C401.885 244.941 380.362 218.802 376.634 223.066C373.879 226.218 398.329 243.862 402.157 250.156C398.873 246.859 387.566 238.906 385.474 243.551C384.329 246.093 388.612 247.112 391.305 248.441C398.525 252.005 404.457 256.892 408.098 264.328C409.834 268.273 410.628 270.28 412.063 274.35C409.787 270.843 400.451 262.944 399.004 266.179C398.026 268.366 403.76 272.656 406.563 275.468C413.476 282.399 417.043 289.921 418.972 299.46C420.163 299.276 420.759 299.182 421.952 298.994Z" fill="#E6E6E6"/>
<path d="M428.104 297.261C431.183 286.151 435.79 274.449 437.033 263.695C437.244 261.879 437.747 260.015 438.861 258.49C441.946 262.046 439.556 271.929 438.533 275.923C444.446 267.317 449.463 257.203 451.246 247.144C451.893 243.499 453.408 238.248 456.208 242.523C458.692 246.317 454.615 255.847 452.907 258.938C457.645 251.906 462.963 245.062 467.654 238.228C473.217 230.126 480.258 234.539 472.009 241.538C466.618 246.111 457.265 257.741 457.265 257.741C457.284 257.757 481.068 241.444 483.113 245.815C484.624 249.044 460.449 257.715 455.831 261.964C459.297 260.04 470.428 256.201 471.044 260.495C471.382 262.846 467.635 262.669 465.118 263.121C458.369 264.335 452.36 266.934 447.625 272.161C445.273 274.979 444.149 276.435 442.015 279.428C444.706 277.094 454.211 272.834 454.631 275.822C454.915 277.843 449.211 280.002 446.253 281.64C438.959 285.682 434.265 290.997 430.435 298.348C429.501 297.914 429.035 297.696 428.104 297.261Z" fill="#E0E0E0"/>
<path d="M426.454 301.035C423.928 284.174 423.108 265.592 418.317 250.315C417.509 247.735 417.067 244.914 417.654 242.184C423.961 245.132 426.68 259.921 427.702 265.933C430.511 250.749 431.202 234.066 427.558 219.403C426.237 214.089 425.123 206.084 431.479 210.174C437.118 213.802 437.347 229.132 436.897 234.336C439.066 221.985 442.131 209.538 444.357 197.483C446.995 183.189 459.164 184.914 452.231 199.334C447.701 208.756 442.064 230.096 442.064 230.096C442.1 230.108 464.413 193.756 469.805 198.43C473.79 201.882 446.349 228.146 442.666 236.665C446.191 231.98 458.917 220.094 462.335 225.525C464.205 228.497 459.038 230.514 455.909 232.64C447.521 238.341 440.968 245.47 437.717 255.38C436.236 260.602 435.594 263.245 434.51 268.574C436.74 263.802 447.018 252.325 449.384 256.11C450.984 258.669 444.577 265.018 441.567 269.013C434.146 278.861 431.002 288.867 430.253 301.104C428.735 301.075 427.975 301.061 426.454 301.035Z" fill="#F5F5F5"/>
<path d="M403.127 291.262L408.312 330.983C408.834 334.983 412.243 337.976 416.278 337.976H439.942C443.977 337.976 447.385 334.983 447.908 330.983L453.092 291.262H403.127Z" fill="#EBEBEB"/>
<path d="M164.478 213.625H71.0259V337.975H164.478V213.625Z" fill="#F0F0F0"/>
<path d="M182.307 213.625H164.479V337.975H182.307V213.625Z" fill="#E6E6E6"/>
<path d="M158.414 222.852H77.5723V253.05H158.414V222.852Z" fill="#FAFAFA"/>
<path d="M107.451 222.852L107.805 226.878C107.921 228.206 109.033 229.224 110.366 229.224H125.621C126.954 229.224 128.065 228.206 128.182 226.878L128.536 222.852H107.451Z" fill="#EBEBEB"/>
<path d="M158.414 256.349H77.5723V286.547H158.414V256.349Z" fill="#FAFAFA"/>
<path d="M107.451 256.349L107.805 260.375C107.921 261.703 109.033 262.721 110.366 262.721H125.621C126.954 262.721 128.065 261.703 128.182 260.375L128.536 256.349H107.451Z" fill="#EBEBEB"/>
<path d="M158.414 289.846H77.5723V320.044H158.414V289.846Z" fill="#FAFAFA"/>
<path d="M107.451 289.846L107.805 293.872C107.921 295.2 109.033 296.218 110.366 296.218H125.621C126.954 296.218 128.065 295.2 128.182 293.872L128.536 289.846H107.451Z" fill="#EBEBEB"/>
<path d="M273.419 383.238C392.835 383.238 489.641 377.584 489.641 370.611C489.641 363.637 392.835 357.983 273.419 357.983C154.003 357.983 57.1968 363.637 57.1968 370.611C57.1968 377.584 154.003 383.238 273.419 383.238Z" fill="#F5F5F5"/>
<path d="M396.413 183.814H181.349L194.165 0.533203H409.228L396.413 183.814Z" fill="#263238"/>
<path opacity="0.9" d="M396.413 183.814H181.349L194.165 0.533203H409.228L396.413 183.814Z" fill="white"/>
<path opacity="0.1" d="M184.728 135.484L181.349 183.814H396.413L399.792 135.484H184.728Z" fill="black"/>
<path d="M357.134 139.39C356.544 139.39 356.094 138.921 356.118 138.331L357.609 102.287H361.846L358.297 138.331C358.239 138.921 357.723 139.39 357.134 139.39Z" fill="#263238"/>
<path d="M340.821 137.272C340.176 137.272 339.714 136.712 339.83 136.071L345.958 102.287H350.196L341.948 136.373C341.823 136.892 341.347 137.272 340.821 137.272Z" fill="#263238"/>
<path d="M373.742 137.272C374.386 137.272 374.926 136.712 374.901 136.071L373.497 102.287H369.259L372.739 136.373C372.793 136.892 373.215 137.272 373.742 137.272Z" fill="#263238"/>
<g opacity="0.6">
<path d="M357.134 139.39C356.544 139.39 356.094 138.921 356.118 138.331L357.609 102.287H361.846L358.297 138.331C358.239 138.921 357.723 139.39 357.134 139.39Z" fill="white"/>
<path d="M340.821 137.272C340.176 137.272 339.714 136.712 339.83 136.071L345.958 102.287H350.196L341.948 136.373C341.823 136.892 341.347 137.272 340.821 137.272Z" fill="white"/>
<path d="M373.742 137.272C374.386 137.272 374.926 136.712 374.901 136.071L373.497 102.287H369.259L372.739 136.373C372.793 136.892 373.215 137.272 373.742 137.272Z" fill="white"/>
</g>
<path d="M262.777 11.7074H408.448L409.229 0.533203H263.557L262.777 11.7074Z" fill="#263238"/>
<path opacity="0.7" d="M262.777 11.7074H408.448L409.229 0.533203H263.557L262.777 11.7074Z" fill="white"/>
<path opacity="0.3" d="M336.394 0.533203H263.557L262.777 11.7074H335.612L336.394 0.533203Z" fill="white"/>
<path d="M397.138 14.356L385.474 181.165H393.949L405.614 14.356H397.138Z" fill="#263238"/>
<path opacity="0.6" d="M397.138 14.356L385.474 181.165H393.949L405.614 14.356H397.138Z" fill="white"/>
<path d="M253.386 9.65225H200.415C199.44 9.65225 198.704 8.86159 198.772 7.88692C198.84 6.91225 199.686 6.12158 200.661 6.12158H253.632C254.607 6.12158 255.343 6.91225 255.275 7.88692C255.207 8.86159 254.361 9.65225 253.386 9.65225Z" fill="#263238"/>
<path opacity="0.5" d="M253.386 9.65225H200.415C199.44 9.65225 198.704 8.86159 198.772 7.88692C198.84 6.91225 199.686 6.12158 200.661 6.12158H253.632C254.607 6.12158 255.343 6.91225 255.275 7.88692C255.207 8.86159 254.361 9.65225 253.386 9.65225Z" fill="white"/>
<path d="M312.004 164.098C312.85 164.098 313.528 163.305 313.384 162.483L306.101 120.75H301.53L310.815 163.155C310.937 163.713 311.421 164.098 312.004 164.098Z" fill="#263238"/>
<path d="M289.239 164.098H289.299C290.089 164.098 290.746 163.403 290.697 162.62L288.041 120.75H283.47L288.029 163.022C288.097 163.644 288.607 164.098 289.239 164.098Z" fill="#263238"/>
<g opacity="0.5">
<path d="M312.004 164.098C312.85 164.098 313.528 163.305 313.384 162.483L306.101 120.75H301.53L310.815 163.155C310.937 163.713 311.421 164.098 312.004 164.098Z" fill="white"/>
<path d="M289.239 164.098H289.299C290.089 164.098 290.746 163.403 290.697 162.62L288.041 120.75H283.47L288.029 163.022C288.097 163.644 288.607 164.098 289.239 164.098Z" fill="white"/>
</g>
<path d="M243.554 109.332H281.848L277.699 55.3426C276.652 41.7151 265.388 30.8442 252.312 30.8442H242.39C229.315 30.8442 219.199 41.7151 219.593 55.3426L220.473 85.7972L243.554 109.332Z" fill="#FFCA3A"/>
<path opacity="0.7" d="M243.554 109.332H281.848L277.699 55.3426C276.652 41.7151 265.388 30.8442 252.312 30.8442H242.39C229.315 30.8442 219.199 41.7151 219.593 55.3426L220.473 85.7972L243.554 109.332Z" fill="white"/>
<path d="M293.14 109.332H232.445L230.886 55.3426C230.492 41.7151 240.608 30.8442 253.684 30.8442H263.606C276.681 30.8442 287.946 41.7151 288.993 55.3426L293.14 109.332Z" fill="#FFCA3A"/>
<path d="M282.286 127.871C295.905 127.781 309.947 121.778 319.363 111.177C327.086 102.48 331.797 92.0132 332.685 80.7309C333.024 76.424 329.461 72.3012 325.029 72.4997H299.421C294.914 72.7004 290.978 76.1163 290.614 80.7309C290.542 81.6587 290.453 82.5843 290.322 83.5099C290.248 84.0296 289.779 86.0448 290.024 85.1548C289.536 86.9916 289.023 88.8026 288.318 90.5891C288.06 91.2438 287.776 91.8872 287.486 92.5296C287.656 92.1236 286.871 93.705 286.639 94.1087C285.684 95.7669 284.599 97.3293 283.454 98.8683C283.406 98.933 283.29 99.0824 283.172 99.2352C283.008 99.4292 282.783 99.698 282.702 99.7861C282.093 100.446 281.481 101.098 280.839 101.726C280.118 102.432 279.373 103.114 278.605 103.767C278.264 104.058 277.917 104.344 277.568 104.624C277.467 104.704 276.97 105.069 276.696 105.274C276.224 105.582 275.379 106.142 275.207 106.249C274.444 106.724 273.667 107.175 272.877 107.6C272.204 107.963 271.521 108.295 270.834 108.624C269.527 107.917 268.203 107.259 266.961 106.427C266.261 105.959 265.606 105.433 264.917 104.95C266.378 105.974 264.498 104.569 264.103 104.2C262.727 102.916 261.453 101.524 260.299 100.036C260.193 99.8987 260.092 99.7582 259.987 99.6188C260.179 99.8575 259.43 98.7846 259.317 98.6017C258.818 97.7955 258.353 96.9669 257.919 96.1216C257.484 95.2718 257.082 94.4053 256.715 93.521C256.551 93.1262 256.407 92.7236 256.245 92.3277C256.975 94.1031 256.211 92.1459 256.122 91.8448C255.568 89.9613 255.164 88.022 254.918 86.0548C254.864 85.6143 254.839 85.1604 254.776 84.721C255.06 86.6715 254.778 84.5694 254.771 84.1969C254.749 83.0438 254.79 81.8885 254.861 80.7309C255.125 76.4263 251.692 72.299 247.206 72.4997H221.598C217.157 72.6982 213.073 76.1174 212.791 80.7309C211.57 100.712 222.886 118.173 241.03 125.131C246.137 127.089 251.647 127.97 257.218 127.866L282.286 127.871Z" fill="#FFCA3A"/>
<path opacity="0.6" d="M282.286 127.871C295.905 127.781 309.947 121.778 319.363 111.177C327.086 102.48 331.797 92.0132 332.685 80.7309C333.024 76.424 329.461 72.3012 325.029 72.4997H299.421C294.914 72.7004 290.978 76.1163 290.614 80.7309C290.542 81.6587 290.453 82.5843 290.322 83.5099C290.248 84.0296 289.779 86.0448 290.024 85.1548C289.536 86.9916 289.023 88.8026 288.318 90.5891C288.06 91.2438 287.776 91.8872 287.486 92.5296C287.656 92.1236 286.871 93.705 286.639 94.1087C285.684 95.7669 284.599 97.3293 283.454 98.8683C283.406 98.933 283.29 99.0824 283.172 99.2352C283.008 99.4292 282.783 99.698 282.702 99.7861C282.093 100.446 281.481 101.098 280.839 101.726C280.118 102.432 279.373 103.114 278.605 103.767C278.264 104.058 277.917 104.344 277.568 104.624C277.467 104.704 276.97 105.069 276.696 105.274C276.224 105.582 275.379 106.142 275.207 106.249C274.444 106.724 273.667 107.175 272.877 107.6C272.204 107.963 271.521 108.295 270.834 108.624C269.527 107.917 268.203 107.259 266.961 106.427C266.261 105.959 265.606 105.433 264.917 104.95C266.378 105.974 264.498 104.569 264.103 104.2C262.727 102.916 261.453 101.524 260.299 100.036C260.193 99.8987 260.092 99.7582 259.987 99.6188C260.179 99.8575 259.43 98.7846 259.317 98.6017C258.818 97.7955 258.353 96.9669 257.919 96.1216C257.484 95.2718 257.082 94.4053 256.715 93.521C256.551 93.1262 256.407 92.7236 256.245 92.3277C256.975 94.1031 256.211 92.1459 256.122 91.8448C255.568 89.9613 255.164 88.022 254.918 86.0548C254.864 85.6143 254.839 85.1604 254.776 84.721C255.06 86.6715 254.778 84.5694 254.771 84.1969C254.749 83.0438 254.79 81.8885 254.861 80.7309C255.125 76.4263 251.692 72.299 247.206 72.4997H221.598C217.157 72.6982 213.073 76.1174 212.791 80.7309C211.57 100.712 222.886 118.173 241.03 125.131C246.137 127.089 251.647 127.97 257.218 127.866L282.286 127.871Z" fill="white"/>
<path d="M316.223 80.731C316.149 81.6589 316.061 82.5845 315.93 83.5101C315.849 84.0911 315.268 86.5523 315.75 84.7212C315.227 86.7073 314.687 88.6611 313.926 90.5904C313.595 91.4312 313.226 92.2576 312.847 93.0806C313.624 91.3944 312.528 93.6203 312.247 94.1099C311.292 95.7682 310.208 97.3306 309.062 98.8695C308.902 99.0825 308.011 100.219 308.708 99.3468C309.402 98.4781 308.495 99.5877 308.31 99.7873C307.701 100.447 307.089 101.099 306.447 101.728C305.726 102.434 304.981 103.115 304.213 103.769C303.872 104.06 303.525 104.345 303.176 104.624C302.992 104.771 301.47 105.876 302.446 105.198C303.251 104.639 301.1 106.07 300.814 106.249C300.051 106.724 299.274 107.175 298.484 107.6C297.69 108.029 296.883 108.415 296.07 108.802C295.826 108.918 294.498 109.486 295.532 109.057C296.641 108.597 294.871 109.294 294.652 109.372C292.936 109.981 291.185 110.475 289.419 110.845C288.857 110.964 286.368 111.337 288.246 111.114C287.096 111.25 285.944 111.345 284.793 111.386C282.933 111.453 281.098 111.36 279.262 111.192C278.835 111.153 277.769 110.856 279.42 111.217C278.988 111.122 278.538 111.066 278.103 110.98C277.129 110.787 276.164 110.553 275.213 110.283C274.374 110.046 273.547 109.778 272.73 109.483C272.325 109.336 271.933 109.15 271.523 109.02C270.413 108.664 272.661 109.65 271.663 109.079C270.094 108.182 268.467 107.435 266.96 106.426C266.26 105.958 265.605 105.432 264.917 104.95C266.378 105.973 264.498 104.568 264.103 104.199C262.727 102.915 261.454 101.523 260.299 100.035C260.042 99.7037 259.794 99.3669 259.547 99.029C260.675 100.566 259.464 98.8372 259.318 98.6008C258.819 97.7945 258.354 96.9659 257.922 96.1206C257.487 95.2708 257.084 94.4043 256.717 93.52C256.553 93.1252 256.41 92.7226 256.248 92.3267C256.977 94.1021 256.213 92.145 256.124 91.8439C255.571 89.9603 255.166 88.021 254.921 86.0538C254.866 85.6133 254.842 85.1594 254.777 84.7201C255.061 86.6716 254.779 84.5684 254.772 84.1959C254.75 83.0428 254.791 81.8875 254.863 80.7299C255.126 76.4253 251.693 72.298 247.207 72.4987C242.766 72.6972 238.683 76.1164 238.4 80.7299C237.179 100.711 248.495 118.172 266.639 125.13C284.076 131.817 306.225 125.969 319.364 111.176C327.088 102.479 331.798 92.0122 332.686 80.7299C333.025 76.4231 329.462 72.3002 325.03 72.4987C320.523 72.7006 316.586 76.1153 316.223 80.731Z" fill="#FFCA3A"/>
<g opacity="0.7">
<path d="M316.223 80.731C316.149 81.6589 316.061 82.5845 315.93 83.5101C315.849 84.0911 315.268 86.5523 315.75 84.7212C315.227 86.7073 314.687 88.6611 313.926 90.5904C313.595 91.4312 313.226 92.2576 312.847 93.0806C313.624 91.3944 312.528 93.6203 312.247 94.1099C311.292 95.7682 310.208 97.3306 309.062 98.8695C308.902 99.0825 308.011 100.219 308.708 99.3468C309.402 98.4781 308.495 99.5877 308.31 99.7873C307.701 100.447 307.089 101.099 306.447 101.728C305.726 102.434 304.981 103.115 304.213 103.769C303.872 104.06 303.525 104.345 303.176 104.624C302.992 104.771 301.47 105.876 302.446 105.198C303.251 104.639 301.1 106.07 300.814 106.249C300.051 106.724 299.274 107.175 298.484 107.6C297.69 108.029 296.883 108.415 296.07 108.802C295.826 108.918 294.498 109.486 295.532 109.057C296.641 108.597 294.871 109.294 294.652 109.372C292.936 109.981 291.185 110.475 289.419 110.845C288.857 110.964 286.368 111.337 288.246 111.114C287.096 111.25 285.944 111.345 284.793 111.386C282.933 111.453 281.098 111.36 279.262 111.192C278.835 111.153 277.769 110.856 279.42 111.217C278.988 111.122 278.538 111.066 278.103 110.98C277.129 110.787 276.164 110.553 275.213 110.283C274.374 110.046 273.547 109.778 272.73 109.483C272.325 109.336 271.933 109.15 271.523 109.02C270.413 108.664 272.661 109.65 271.663 109.079C270.094 108.182 268.467 107.435 266.96 106.426C266.26 105.958 265.605 105.432 264.917 104.95C266.378 105.973 264.498 104.568 264.103 104.199C262.727 102.915 261.454 101.523 260.299 100.035C260.042 99.7037 259.794 99.3669 259.547 99.029C260.675 100.566 259.464 98.8372 259.318 98.6008C258.819 97.7945 258.354 96.9659 257.922 96.1206C257.487 95.2708 257.084 94.4043 256.717 93.52C256.553 93.1252 256.41 92.7226 256.248 92.3267C256.977 94.1021 256.213 92.145 256.124 91.8439C255.571 89.9603 255.166 88.021 254.921 86.0538C254.866 85.6133 254.842 85.1594 254.777 84.7201C255.061 86.6716 254.779 84.5684 254.772 84.1959C254.75 83.0428 254.791 81.8875 254.863 80.7299C255.126 76.4253 251.693 72.298 247.207 72.4987C242.766 72.6972 238.683 76.1164 238.4 80.7299C237.179 100.711 248.495 118.172 266.639 125.13C284.076 131.817 306.225 125.969 319.364 111.176C327.088 102.479 331.798 92.0122 332.686 80.7299C333.025 76.4231 329.462 72.3002 325.03 72.4987C320.523 72.7006 316.586 76.1153 316.223 80.731Z" fill="white"/>
</g>
<path d="M223.216 164.098C222.369 164.098 221.803 163.305 222.062 162.483L234.663 122.399C234.968 121.431 235.882 120.75 236.878 120.75C238.317 120.75 239.257 122.13 238.762 123.512L224.536 163.155C224.334 163.713 223.797 164.098 223.216 164.098Z" fill="#263238"/>
<path d="M245.979 164.098H245.919C245.129 164.098 244.569 163.403 244.729 162.62L252.85 122.668C253.073 121.57 254.066 120.75 255.174 120.75C256.549 120.75 257.502 121.993 257.168 123.347L247.34 163.022C247.186 163.644 246.611 164.098 245.979 164.098Z" fill="#263238"/>
<g opacity="0.5">
<path d="M223.216 164.098C222.369 164.098 221.803 163.305 222.062 162.483L234.663 122.399C234.968 121.431 235.882 120.75 236.878 120.75C238.317 120.75 239.257 122.13 238.762 123.512L224.536 163.155C224.334 163.713 223.797 164.098 223.216 164.098Z" fill="white"/>
<path d="M245.979 164.098H245.919C245.129 164.098 244.569 163.403 244.729 162.62L252.85 122.668C253.073 121.57 254.066 120.75 255.174 120.75C256.549 120.75 257.502 121.993 257.168 123.347L247.34 163.022C247.186 163.644 246.611 164.098 245.979 164.098Z" fill="white"/>
</g>
<path d="M367.485 95.4856H365.282L360.013 87.2935H363.188L367.485 95.4856Z" fill="#263238"/>
<path opacity="0.7" d="M367.485 95.4856H365.282L360.013 87.2935H363.188L367.485 95.4856Z" fill="white"/>
<path d="M364.262 95.4854H352.18L355.205 79.7881H367.288L364.262 95.4854Z" fill="#263238"/>
<path opacity="0.6" d="M364.262 95.4854H352.18L355.205 79.7881H367.288L364.262 95.4854Z" fill="white"/>
<path opacity="0.4" d="M363.565 94.2775H353.342L355.902 80.9956H366.126L363.565 94.2775Z" fill="white"/>
<path opacity="0.4" d="M362.209 91.9269H355.605L357.259 83.3467H363.863L362.209 91.9269Z" fill="white"/>
<path d="M374.041 103.348H345.267C342.876 103.348 341.073 101.41 341.24 99.0188L341.506 95.2261H378.939L378.674 99.0188C378.506 101.41 376.432 103.348 374.041 103.348Z" fill="#263238"/>
<path opacity="0.8" d="M374.041 103.348H345.267C342.876 103.348 341.073 101.41 341.24 99.0188L341.506 95.2261H378.939L378.674 99.0188C378.506 101.41 376.432 103.348 374.041 103.348Z" fill="white"/>
<path opacity="0.5" d="M391.609 119.945L390.667 133.41C390.576 134.727 391.569 135.794 392.884 135.794C394.201 135.794 395.342 134.727 395.435 133.41L396.376 119.945C396.469 118.628 395.476 117.562 394.159 117.562C392.843 117.562 391.701 118.629 391.609 119.945Z" fill="white"/>
<path opacity="0.5" d="M398.278 20.8385L401.153 17.5342L403.568 20.8385H398.278Z" fill="white"/>
<path opacity="0.5" d="M392.78 175.115L389.903 178.42L387.49 175.115H392.78Z" fill="white"/>
<path d="M441.405 216.851H354.532L359.138 150.979H446.011L441.405 216.851Z" fill="#263238"/>
<path opacity="0.5" d="M441.405 216.851H354.532L359.138 150.979H446.011L441.405 216.851Z" fill="white"/>
<path opacity="0.3" d="M389.52 165.398H445.003L445.863 153.097H390.381L389.52 165.398Z" fill="black"/>
<path opacity="0.5" d="M445.863 153.097H358.99L359.138 150.979H446.011L445.863 153.097Z" fill="black"/>
<path opacity="0.5" d="M382.959 162.221H364.213C363.392 162.221 362.773 161.555 362.831 160.734C362.889 159.913 363.601 159.248 364.422 159.248H383.168C383.989 159.248 384.608 159.913 384.55 160.734C384.492 161.555 383.78 162.221 382.959 162.221Z" fill="white"/>
<path d="M371.687 178.751H361.571L362.278 168.635H372.395L371.687 178.751Z" fill="#5EA813"/>
<g opacity="0.9">
<path d="M376.49 183.916H366.163L366.449 179.828H368.4L368.25 181.964H374.676L375.125 175.538H372.99L373.126 173.588H377.212L376.49 183.916Z" fill="black"/>
</g>
<g opacity="0.5">
<path d="M442.309 156.658H433.304L433.414 155.069H442.42L442.309 156.658Z" fill="white"/>
<path d="M442.072 160.042H433.067L433.177 158.453H442.182L442.072 160.042Z" fill="white"/>
<path d="M441.835 163.427H432.83L432.941 161.838H441.946L441.835 163.427Z" fill="white"/>
</g>
<g opacity="0.5">
<path d="M425.357 155.69L424.155 156.813L426.42 159.249L423.815 161.682L424.86 162.806L428.667 159.249L425.357 155.69Z" fill="white"/>
<path d="M421.302 155.69L420.099 156.813L422.364 159.249L419.759 161.682L420.804 162.806L424.611 159.249L421.302 155.69Z" fill="white"/>
</g>
<path opacity="0.2" d="M418.789 178.618H384.358L384.556 175.786H418.988L418.789 178.618Z" fill="white"/>
<path d="M436.387 180.736H421.819L422.314 173.667H436.881L436.387 180.736Z" fill="#263238"/>
<path d="M418.068 188.947H383.636L383.834 186.116H418.265L418.068 188.947Z" fill="#5EA813"/>
<path d="M435.664 191.066H421.098L421.592 183.997H436.159L435.664 191.066Z" fill="#263238"/>
<path opacity="0.9" d="M417.345 199.277H382.914L383.112 196.445H417.543L417.345 199.277Z" fill="white"/>
<path d="M434.943 201.396H420.375L420.869 194.326H435.437L434.943 201.396Z" fill="#263238"/>
<path d="M434.22 211.725H416.704L417.198 204.656H434.714L434.22 211.725Z" fill="#263238"/>
<path d="M386.849 182.105H384.115L384.232 180.429L385.673 179.369L386.966 180.429L386.849 182.105Z" fill="#263238"/>
<path d="M385.405 202.763H382.669L382.788 201.087L384.228 200.028L385.522 201.087L385.405 202.763Z" fill="#263238"/>
<path d="M417.08 192.434H414.345L414.462 190.759L415.903 189.699L417.197 190.759L417.08 192.434Z" fill="#263238"/>
<g opacity="0.3">
<path d="M386.849 182.105H384.115L384.232 180.429L385.673 179.369L386.966 180.429L386.849 182.105Z" fill="white"/>
<path d="M385.405 202.763H382.669L382.788 201.087L384.228 200.028L385.522 201.087L385.405 202.763Z" fill="white"/>
<path d="M417.08 192.434H414.345L414.462 190.759L415.903 189.699L417.197 190.759L417.08 192.434Z" fill="white"/>
</g>
<path d="M194.597 149.35H107.724L112.329 83.4785H199.202L194.597 149.35Z" fill="#263238"/>
<path opacity="0.5" d="M194.597 149.35H107.724L112.329 83.4785H199.202L194.597 149.35Z" fill="white"/>
<path opacity="0.3" d="M142.712 97.8982H198.194L199.055 85.5977H143.572L142.712 97.8982Z" fill="black"/>
<path opacity="0.5" d="M199.055 85.5974H112.181L112.329 83.4785H199.202L199.055 85.5974Z" fill="black"/>
<path opacity="0.5" d="M136.151 94.7195H117.405C116.584 94.7195 115.965 94.0538 116.023 93.233C116.08 92.4122 116.792 91.7476 117.613 91.7476H136.359C137.18 91.7476 137.799 92.4133 137.741 93.233C137.684 94.0549 136.972 94.7195 136.151 94.7195Z" fill="white"/>
<path d="M123.135 109.376H114.894L115.471 101.135H123.712L123.135 109.376Z" fill="#5EA813"/>
<g opacity="0.9">
<path d="M127.048 113.583H118.634L118.867 110.254H120.456L120.335 111.994H125.57L125.935 106.759H124.196L124.307 105.17H127.636L127.048 113.583Z" fill="black"/>
</g>
<g opacity="0.5">
<path d="M195.5 89.158H186.495L186.606 87.5688H195.611L195.5 89.158Z" fill="white"/>
<path d="M195.263 92.5428H186.258L186.369 90.9536H195.374L195.263 92.5428Z" fill="white"/>
<path d="M195.027 95.927H186.021L186.132 94.3379H195.137L195.027 95.927Z" fill="white"/>
</g>
<g opacity="0.5">
<path d="M181.225 102.724H172.22L172.331 101.135H181.337L181.225 102.724Z" fill="white"/>
<path d="M180.989 106.109H171.983L172.094 104.52H181.099L180.989 106.109Z" fill="white"/>
<path d="M180.751 109.493H171.746L171.858 107.904H180.863L180.751 109.493Z" fill="white"/>
</g>
<g opacity="0.5">
<path d="M178.549 88.189L177.346 89.3131L179.611 91.7475L177.006 94.182L178.051 95.3061L181.859 91.7475L178.549 88.189Z" fill="white"/>
<path d="M174.494 88.189L173.292 89.3131L175.556 91.7475L172.951 94.182L173.996 95.3061L177.803 91.7475L174.494 88.189Z" fill="white"/>
</g>
<g opacity="0.5">
<path d="M190.872 106.109L190.635 109.493H194.343L194.58 106.109H190.872Z" fill="white"/>
<path d="M190.983 104.52H194.691L194.928 101.135H191.22L190.983 104.52Z" fill="white"/>
<path d="M189.394 104.52L189.631 101.135H185.923L185.686 104.52H189.394Z" fill="white"/>
<path d="M189.283 106.109H185.575L185.338 109.493H189.046L189.283 106.109Z" fill="white"/>
</g>
<path d="M126.357 131.045H137.745L138.541 119.655H127.153L126.357 131.045Z" fill="#263238"/>
<path opacity="0.6" d="M126.357 131.045H137.745L138.541 119.655H127.153L126.357 131.045Z" fill="white"/>
<path d="M138.805 131.045H150.195L150.991 119.655H139.601L138.805 131.045Z" fill="#263238"/>
<path opacity="0.4" d="M138.805 131.045H150.195L150.991 119.655H139.601L138.805 131.045Z" fill="white"/>
<path d="M125.484 143.524H136.873L137.67 132.135H126.28L125.484 143.524Z" fill="#5EA813"/>
<path opacity="0.4" d="M125.484 143.524H136.873L137.67 132.135H126.28L125.484 143.524Z" fill="white"/>
<path d="M137.933 143.524H149.321L150.118 132.135H138.729L137.933 143.524Z" fill="#5EA813"/>
<path opacity="0.2" d="M137.933 143.524H149.321L150.118 132.135H138.729L137.933 143.524Z" fill="white"/>
<path d="M113.908 131.045H125.298L126.094 119.655H114.704L113.908 131.045Z" fill="#263238"/>
<path opacity="0.8" d="M113.908 131.045H125.298L126.094 119.655H114.704L113.908 131.045Z" fill="white"/>
<path d="M113.036 143.524H124.424L125.221 132.135H113.832L113.036 143.524Z" fill="#5EA813"/>
<path opacity="0.6" d="M113.036 143.524H124.424L125.221 132.135H113.832L113.036 143.524Z" fill="white"/>
<path d="M175.277 143.524H186.666L187.462 132.135H176.073L175.277 143.524Z" fill="#5EA813"/>
<path opacity="0.4" d="M175.277 143.524H186.666L187.462 132.135H176.073L175.277 143.524Z" fill="black"/>
<path d="M163.701 131.045H175.091L175.887 119.655H164.497L163.701 131.045Z" fill="#263238"/>
<path d="M150.38 143.524H161.77L162.566 132.135H151.177L150.38 143.524Z" fill="#5EA813"/>
<path d="M151.253 131.045H162.642L163.438 119.655H152.05L151.253 131.045Z" fill="#263238"/>
<path opacity="0.2" d="M151.253 131.045H162.642L163.438 119.655H152.05L151.253 131.045Z" fill="white"/>
<path d="M162.83 143.524H174.218L175.014 132.135H163.626L162.83 143.524Z" fill="#5EA813"/>
<path opacity="0.2" d="M162.83 143.524H174.218L175.014 132.135H163.626L162.83 143.524Z" fill="black"/>
<path d="M193.414 294.637H187.065V330.044H193.414V294.637Z" fill="#263238"/>
<path opacity="0.2" d="M193.414 294.637H187.065V330.044H193.414V294.637Z" fill="white"/>
<path d="M222.569 363.292L190.413 351.451L157.908 363.302C156.786 363.711 155.598 362.881 155.598 361.686C155.598 361.016 155.987 360.407 156.594 360.125L190.413 344.433L223.892 360.124C224.495 360.407 224.881 361.014 224.881 361.679C224.882 362.874 223.691 363.705 222.569 363.292Z" fill="#263238"/>
<path opacity="0.3" d="M222.569 363.292L190.413 351.451L157.908 363.302C156.786 363.711 155.598 362.881 155.598 361.686C155.598 361.016 155.987 360.407 156.594 360.125L190.413 344.433L223.892 360.124C224.495 360.407 224.881 361.014 224.881 361.679C224.882 362.874 223.691 363.705 222.569 363.292Z" fill="white"/>
<path opacity="0.2" d="M182.836 354.213L190.414 351.45L197.644 354.113V347.821L190.414 344.432L182.836 347.948V354.213Z" fill="black"/>
<path d="M190.24 363.566C188.768 363.566 187.537 362.447 187.398 360.981L186.49 351.449V314.431H193.99V351.449L193.083 360.981C192.942 362.447 191.712 363.566 190.24 363.566Z" fill="#263238"/>
<path opacity="0.3" d="M190.24 363.566C188.768 363.566 187.537 362.447 187.398 360.981L186.49 351.449V314.431H193.99V351.449L193.083 360.981C192.942 362.447 191.712 363.566 190.24 363.566Z" fill="white"/>
<path d="M156.867 372.699C159.177 372.699 161.049 370.827 161.049 368.517C161.049 366.208 159.177 364.335 156.867 364.335C154.558 364.335 152.686 366.208 152.686 368.517C152.686 370.827 154.558 372.699 156.867 372.699Z" fill="#5EA813"/>
<path d="M156.867 370.608C158.022 370.608 158.958 369.672 158.958 368.517C158.958 367.362 158.022 366.426 156.867 366.426C155.713 366.426 154.776 367.362 154.776 368.517C154.776 369.672 155.713 370.608 156.867 370.608Z" fill="#263238"/>
<path d="M224.883 372.699C227.192 372.699 229.065 370.827 229.065 368.517C229.065 366.208 227.192 364.335 224.883 364.335C222.573 364.335 220.701 366.208 220.701 368.517C220.701 370.827 222.573 372.699 224.883 372.699Z" fill="#5EA813"/>
<path d="M224.882 370.608C226.037 370.608 226.973 369.672 226.973 368.517C226.973 367.362 226.037 366.426 224.882 366.426C223.728 366.426 222.792 367.362 222.792 368.517C222.792 369.672 223.728 370.608 224.882 370.608Z" fill="#263238"/>
<path d="M190.241 372.699C191.934 372.699 193.307 370.827 193.307 368.517C193.307 366.208 191.934 364.335 190.241 364.335C188.547 364.335 187.174 366.208 187.174 368.517C187.174 370.827 188.547 372.699 190.241 372.699Z" fill="#5EA813"/>
<path d="M161.809 219.177H156.868V232.93H161.809V219.177Z" fill="#263238"/>
<path opacity="0.3" d="M161.809 219.177H156.868V232.93H161.809V219.177Z" fill="white"/>
<path d="M175.825 223.967C176.763 223.949 177.704 224.368 178.332 225.411C190.34 245.379 194.606 269.384 190.463 292.285C190.203 293.72 189.22 294.389 188.13 294.463C186.312 294.587 153.954 294.472 152.781 294.47C151.016 294.466 149.077 292.967 149.492 290.676C153.342 269.394 149.103 246.976 137.971 228.464C136.588 226.164 138.628 224.005 140.69 223.966C141.627 223.949 173.763 224.007 175.825 223.967Z" fill="#5EA813"/>
<path opacity="0.2" d="M175.825 223.967C176.763 223.949 177.704 224.368 178.332 225.411C190.34 245.379 194.606 269.384 190.463 292.285C190.203 293.72 189.22 294.389 188.13 294.463C186.312 294.587 153.954 294.472 152.781 294.47C151.016 294.466 149.077 292.967 149.492 290.676C153.342 269.394 149.103 246.976 137.971 228.464C136.588 226.164 138.628 224.005 140.69 223.966C141.627 223.949 173.763 224.007 175.825 223.967Z" fill="black"/>
<path d="M149.491 290.677C153.34 269.395 149.101 246.978 137.97 228.466C135.958 225.119 141.188 222.073 143.195 225.411C155.204 245.38 159.469 269.384 155.326 292.285C154.635 296.113 148.801 294.492 149.491 290.677Z" fill="#5EA813"/>
<path d="M250.396 288.925C242.979 287.033 235.357 285.993 227.714 285.801C219.838 285.604 190.354 285.771 183.353 285.769C174.831 285.765 166.308 286.816 158.039 288.925C152.841 290.251 154.443 297.751 159.138 297.838C159.553 297.846 248.679 297.819 249.007 297.834C253.917 298.057 255.709 290.28 250.396 288.925Z" fill="#5EA813"/>
<path opacity="0.3" d="M250.396 288.925C242.979 287.033 235.357 285.993 227.714 285.801C219.838 285.604 190.354 285.771 183.353 285.769C174.831 285.765 166.308 286.816 158.039 288.925C152.841 290.251 154.443 297.751 159.138 297.838C159.553 297.846 248.679 297.819 249.007 297.834C253.917 298.057 255.709 290.28 250.396 288.925Z" fill="black"/>
<path d="M160.452 297.678C175.423 293.859 191.282 293.859 206.253 297.678C211.916 299.122 214.333 290.369 208.667 288.923C192.13 284.706 174.576 284.706 158.038 288.923C152.381 290.368 154.779 299.125 160.452 297.678Z" fill="#5EA813"/>
<path d="M168.871 222.847C169.761 222.866 170.634 222.392 170.921 221.272C172.98 213.2 172.98 204.633 170.921 196.562C170.657 195.525 169.891 195.043 169.073 194.991H149.697C148.335 194.904 146.831 196.012 147.272 197.74C149.136 205.047 149.136 212.787 147.272 220.095C146.831 221.825 148.335 222.932 149.698 222.843L168.871 222.847Z" fill="#5EA813"/>
<path opacity="0.2" d="M168.871 222.847C169.761 222.866 170.634 222.392 170.921 221.272C172.98 213.2 172.98 204.633 170.921 196.562C170.657 195.525 169.891 195.043 169.073 194.991H149.697C148.335 194.904 146.831 196.012 147.272 197.74C149.136 205.047 149.136 212.787 147.272 220.095C146.831 221.825 148.335 222.932 149.698 222.843L168.871 222.847Z" fill="black"/>
<path d="M147.271 220.094C149.135 212.787 149.135 205.047 147.271 197.739C146.566 194.975 150.839 193.796 151.544 196.562C153.602 204.634 153.602 213.201 151.544 221.272C150.84 224.033 146.565 222.863 147.271 220.094Z" fill="#5EA813"/>
<path d="M239.254 334.431L234.001 357.302L240.521 359.826L249.913 336.822L239.254 334.431Z" fill="#CE7A63"/>
<path d="M240.403 358.686L234.479 355.518C234.221 355.38 233.902 355.438 233.71 355.658L229.482 360.553C229.103 360.985 229.146 361.64 229.577 362.02C229.633 362.069 229.693 362.111 229.757 362.147C232.244 363.43 234.507 364.475 237.571 366.13C241.19 368.081 240.038 368.018 244.261 370.37C246.807 371.784 248.846 369.122 247.835 368.394C243.197 365.089 242.579 362.797 241.619 359.982C241.387 359.416 240.953 358.954 240.403 358.686Z" fill="#263238"/>
<path d="M186.396 263.482L218.421 261.717C218.421 261.717 271.629 270.039 270.872 284.916C270.114 299.794 248.429 346.698 248.429 346.698L235.731 343.167C235.731 343.167 245.402 296.011 251.706 288.195C251.706 288.195 211.971 283.534 202.029 280.883C196.559 279.423 183.371 281.889 186.396 263.482Z" fill="#054E82"/>
<path opacity="0.3" d="M246.332 287.546C246.476 284.544 246.178 279.868 243.891 274.704C240.931 268.021 216.575 264.013 204.923 262.461L186.397 263.482C183.372 281.889 196.56 279.423 202.032 280.882C209.706 282.93 235.134 286.174 246.332 287.546Z" fill="black"/>
<path d="M217.496 340.729L216.657 364.181L223.717 364.518L228.415 341.066L217.496 340.729Z" fill="#CE7A63"/>
<path d="M223.211 362.385L216.371 362.53C216.074 362.536 215.819 362.747 215.759 363.039L214.448 369.493C214.327 370.066 214.693 370.627 215.265 370.747C215.339 370.763 215.413 370.77 215.488 370.769C218.335 370.668 220.866 370.466 224.413 370.406C228.598 370.331 227.546 370.851 232.467 370.831C235.432 370.816 235.913 367.436 234.654 367.293C228.887 366.674 227.195 364.948 224.938 362.929C224.448 362.541 223.833 362.348 223.211 362.385Z" fill="#263238"/>
<path d="M194.97 263.483C194.97 263.483 237.839 264.996 240.36 278.108C242.882 291.221 228.508 349.975 228.508 349.975H215.648C215.648 349.975 217.161 297.273 221.448 286.177C221.448 286.177 186.145 291.725 176.815 283.712C170.146 277.986 178.076 263.479 178.076 263.479L194.97 263.483Z" fill="#054E82"/>
<path d="M234.724 340.394L250.699 344.848L247.777 350.99L233.215 347.37L234.724 340.394Z" fill="#263238"/>
<path opacity="0.3" d="M234.724 340.394L250.699 344.848L247.777 350.99L233.215 347.37L234.724 340.394Z" fill="#04375B"/>
<path d="M214.387 346.698L230.526 347.454L229.012 353.884L214.387 353.128V346.698Z" fill="#263238"/>
<path opacity="0.3" d="M214.387 346.698L230.526 347.454L229.012 353.884L214.387 353.128V346.698Z" fill="#04375B"/>
<path d="M231.037 235.463L251.81 235.814L262.251 231.31L268.942 236.997L266.293 239.923L259.397 238.724L250.612 241.154L229.91 242.4L231.037 235.463Z" fill="#CE7A63"/>
<path opacity="0.1" d="M231.037 235.463L251.81 235.814L262.251 231.31L268.942 236.997L266.293 239.923L259.397 238.724L250.612 241.154L229.91 242.4L231.037 235.463Z" fill="black"/>
<path d="M228.1 202.528C228.1 202.528 232.174 205.498 231.193 215.273C230.213 225.05 225.478 235.097 230.766 235.304C231.237 235.323 232.139 235.304 232.139 235.304V242.401C232.139 242.401 219.016 245.777 218.189 239.308C217.364 232.837 228.1 202.528 228.1 202.528Z" fill="#5EA813"/>
<path opacity="0.6" d="M228.1 202.528C228.1 202.528 232.174 205.498 231.193 215.273C230.213 225.05 225.478 235.097 230.766 235.304C231.237 235.323 232.139 235.304 232.139 235.304V242.401C232.139 242.401 219.016 245.777 218.189 239.308C217.364 232.837 228.1 202.528 228.1 202.528Z" fill="white"/>
<path opacity="0.1" d="M218.191 239.306C219.017 245.777 232.141 242.4 232.141 242.4V240.533C224.106 241.909 225.108 238.415 225.604 236.418C230.325 217.36 228.484 207.76 227.435 204.438C225.106 211.184 217.489 233.819 218.191 239.306Z" fill="black"/>
<path d="M230.305 233.999L230.314 243.887L234.11 243.516V234.626L230.305 233.999Z" fill="#5EA813"/>
<path opacity="0.7" d="M230.305 233.999L230.314 243.887L234.11 243.516V234.626L230.305 233.999Z" fill="white"/>
<path d="M176.111 266.094C176.111 266.094 180.562 209.217 186.974 200.952C193.387 192.687 224.025 196.052 228.099 202.528C232.474 209.482 222.38 223.819 220.011 261.91C220.011 261.91 194.243 269.278 176.111 266.094Z" fill="#5EA813"/>
<path opacity="0.4" d="M176.111 266.094C176.111 266.094 180.562 209.217 186.974 200.952C193.387 192.687 224.025 196.052 228.099 202.528C232.474 209.482 222.38 223.819 220.011 261.91C220.011 261.91 194.243 269.278 176.111 266.094Z" fill="white"/>
<path d="M210.517 194.291C210.485 194.34 205.117 193.783 205.117 193.783L203.231 196.069C203.231 196.069 206.478 201.706 207.296 210.952C207.296 210.952 210.044 206.629 211.827 206.549C213.612 206.471 215.232 208.639 215.232 208.639C215.232 208.639 217.521 206.269 218.813 206.264C220.104 206.258 221.902 209.814 221.902 209.814C221.902 209.814 220.515 196.013 218.915 195.177C217.315 194.34 210.517 194.291 210.517 194.291Z" fill="#5EA813"/>
<path opacity="0.7" d="M210.517 194.291C210.485 194.34 205.117 193.783 205.117 193.783L203.231 196.069C203.231 196.069 206.478 201.706 207.296 210.952C207.296 210.952 210.044 206.629 211.827 206.549C213.612 206.471 215.232 208.639 215.232 208.639C215.232 208.639 217.521 206.269 218.813 206.264C220.104 206.258 221.902 209.814 221.902 209.814C221.902 209.814 220.515 196.013 218.915 195.177C217.315 194.34 210.517 194.291 210.517 194.291Z" fill="white"/>
<path d="M206.3 194.898C206.3 194.898 205.791 196.965 208.184 201.309C210.248 205.056 213.202 205.213 215.085 205.213C216.967 205.213 219.609 203.889 218.915 199.428C218.221 194.967 212.99 194.967 206.3 194.898Z" fill="#CE7A63"/>
<path d="M218.145 192.97L211.072 185.287C210.4 191.18 208.1 194.528 206.768 196.019L207.405 198.905C215.977 208.542 217.955 199.289 217.955 199.289C215.869 197.541 218.145 192.97 218.145 192.97Z" fill="#CE7A63"/>
<path opacity="0.1" d="M213.906 188.364L210.608 188.035C210.608 188.035 210.753 197.916 217.514 198.764C216.259 196.769 218.145 192.969 218.145 192.969L213.906 188.364Z" fill="#263238"/>
<path d="M227.451 171.618C227.451 171.618 234.002 170.205 234.439 172.617C234.876 175.03 229.188 175.696 229.188 175.696L227.451 171.618Z" fill="#263238"/>
<path d="M212.036 176.837C210.506 183.822 209.25 187.818 211.671 192.434C214 197.006 219.594 198.823 224.165 196.494C225.846 195.637 227.228 194.288 228.124 192.626C231.338 186.948 233.306 176.481 227.451 171.618C223.551 168.195 217.613 168.581 214.189 172.48C213.102 173.718 212.359 175.222 212.036 176.837Z" fill="#CE7A63"/>
<path d="M221.765 182.075C221.601 182.63 221.773 183.173 222.143 183.259C222.513 183.344 222.92 183.018 223.084 182.465C223.248 181.91 223.081 181.359 222.698 181.277C222.316 181.194 221.921 181.518 221.765 182.075Z" fill="#263238"/>
<path d="M227.996 184.088C227.833 184.643 227.996 185.181 228.375 185.271C228.753 185.362 229.152 185.031 229.32 184.469C229.489 183.906 229.312 183.371 228.934 183.281C228.555 183.191 228.157 183.522 227.996 184.088Z" fill="#263238"/>
<path d="M220.416 179.415C220.363 179.403 220.312 179.38 220.269 179.344C220.155 179.198 220.18 178.989 220.326 178.874C220.329 178.87 220.334 178.868 220.337 178.865C221.199 178.185 222.343 177.978 223.388 178.315C223.561 178.381 223.648 178.574 223.582 178.747C223.581 178.75 223.58 178.753 223.578 178.757C223.512 178.929 223.319 179.016 223.146 178.951C223.143 178.95 223.14 178.948 223.136 178.947C222.322 178.693 221.436 178.849 220.759 179.367C220.665 179.45 220.53 179.469 220.416 179.415Z" fill="#263238"/>
<path d="M231.289 182.781C231.187 182.735 231.114 182.641 231.099 182.529C230.976 181.654 230.453 180.884 229.685 180.449C229.528 180.341 229.491 180.126 229.599 179.971C229.683 179.849 229.835 179.796 229.977 179.837C230.942 180.367 231.603 181.321 231.757 182.412C231.789 182.594 231.668 182.768 231.486 182.801C231.483 182.801 231.482 182.802 231.48 182.802C231.415 182.816 231.348 182.809 231.289 182.781Z" fill="#263238"/>
<path d="M221.272 190.873C221.582 190.963 221.9 191.028 222.221 191.065C222.323 191.082 222.422 191.012 222.439 190.91C222.439 190.907 222.44 190.905 222.44 190.903C222.447 190.796 222.369 190.703 222.263 190.691C220.619 190.516 219.156 189.57 218.321 188.144C218.274 188.048 218.159 188.008 218.063 188.055C217.967 188.102 217.927 188.216 217.974 188.312C218.683 189.576 219.872 190.499 221.272 190.873Z" fill="#263238"/>
<path d="M212.245 183.725C212.245 183.725 213.623 185.807 214.447 184.277C215.27 182.747 214.701 176.812 214.701 176.812C214.701 176.812 218.709 174.104 221.311 173.825C223.913 173.546 232.834 174.104 234.322 167.878C235.592 162.556 226.086 165.74 226.086 165.74C226.086 165.74 225.087 161.258 220.143 162.07C217.036 162.581 214.991 165.648 214.991 165.648C214.991 165.648 209.198 165.11 206.698 167.785C204.822 169.792 206.698 172.617 206.698 172.617C206.698 172.617 204.338 174.55 204.577 178.158C204.739 180.61 205.79 181.353 205.79 181.353C205.79 181.353 207.416 187.579 209.599 189.066C210.601 189.749 210.125 188.681 210.524 187.326C210.996 185.725 212.245 183.725 212.245 183.725Z" fill="#263238"/>
<path d="M225.829 183.725C226.003 185.646 226.428 187.536 227.096 189.346C225.864 189.952 224.313 189.02 224.313 189.02L225.829 183.725Z" fill="#BA4D3C"/>
<path d="M229.472 182.482C228.757 182.258 227.82 181.974 227.065 182.206L224.923 181.539C224.432 180.919 223.5 180.622 222.785 180.401C222.174 180.21 221.402 179.978 220.718 180.057L211.711 179.755L211.692 180.312L219.695 180.581C219.519 180.779 219.36 181.019 219.253 181.364C218.748 182.989 219.658 184.72 221.283 185.226C222.907 185.731 224.639 184.821 225.144 183.197C225.263 182.814 225.265 182.497 225.213 182.214L226.441 182.596C226.238 182.799 226.059 183.061 225.94 183.445C225.435 185.07 226.345 186.801 227.97 187.306C229.593 187.811 231.325 186.901 231.83 185.277C232.416 183.398 230.644 182.846 229.472 182.482ZM224.612 183.032C224.198 184.363 222.78 185.108 221.449 184.694C220.119 184.28 219.373 182.861 219.786 181.53C220.143 180.384 220.984 180.425 222.619 180.934C224.253 181.442 224.969 181.886 224.612 183.032ZM231.298 185.112C230.885 186.443 229.466 187.188 228.136 186.774C226.805 186.36 226.059 184.94 226.473 183.61C226.83 182.464 227.671 182.505 229.306 183.013C230.94 183.523 231.655 183.967 231.298 185.112Z" fill="#5EA813"/>
<path opacity="0.4" d="M229.472 182.482C228.757 182.258 227.82 181.974 227.065 182.206L224.923 181.539C224.432 180.919 223.5 180.622 222.785 180.401C222.174 180.21 221.402 179.978 220.718 180.057L211.711 179.755L211.692 180.312L219.695 180.581C219.519 180.779 219.36 181.019 219.253 181.364C218.748 182.989 219.658 184.72 221.283 185.226C222.907 185.731 224.639 184.821 225.144 183.197C225.263 182.814 225.265 182.497 225.213 182.214L226.441 182.596C226.238 182.799 226.059 183.061 225.94 183.445C225.435 185.07 226.345 186.801 227.97 187.306C229.593 187.811 231.325 186.901 231.83 185.277C232.416 183.398 230.644 182.846 229.472 182.482ZM224.612 183.032C224.198 184.363 222.78 185.108 221.449 184.694C220.119 184.28 219.373 182.861 219.786 181.53C220.143 180.384 220.984 180.425 222.619 180.934C224.253 181.442 224.969 181.886 224.612 183.032ZM231.298 185.112C230.885 186.443 229.466 187.188 228.136 186.774C226.805 186.36 226.059 184.94 226.473 183.61C226.83 182.464 227.671 182.505 229.306 183.013C230.94 183.523 231.655 183.967 231.298 185.112Z" fill="white"/>
<path d="M207.814 181.793C207.844 183.391 208.476 184.918 209.583 186.07C211.048 187.562 212.728 186.438 213.106 184.471C213.446 182.687 213.09 179.778 211.238 179.034C209.386 178.291 207.794 179.818 207.814 181.793Z" fill="#CE7A63"/>
<path d="M211.29 234.231L234.11 236.462L244.67 231.863L249.33 235.482L247.66 237.571L242.549 238.413L235.497 241.537L211.881 242.13L211.29 234.231Z" fill="#CE7A63"/>
<path opacity="0.1" d="M194.575 235.16C190.944 229.571 187.724 220.954 186.577 213.625C186.445 224.11 188.424 245.181 206.768 242.616C202.636 242.023 197.821 240.157 194.575 235.16Z" fill="black"/>
<path d="M188.834 200.317C192.992 198.174 196.826 201.891 200.172 217.132C203.517 232.373 213.554 233.249 213.554 233.249L214.447 242.409C214.447 242.409 200.869 245.568 194.108 235.16C187.347 224.752 182.001 203.839 188.834 200.317Z" fill="#5EA813"/>
<path opacity="0.6" d="M188.834 200.317C192.992 198.174 196.826 201.891 200.172 217.132C203.517 232.373 213.554 233.249 213.554 233.249L214.447 242.409C214.447 242.409 200.869 245.568 194.108 235.16C187.347 224.752 182.001 203.839 188.834 200.317Z" fill="white"/>
<path d="M212.449 231.863L213.74 243.786L217.658 243.28L216.446 232.369L212.449 231.863Z" fill="#5EA813"/>
<path opacity="0.7" d="M212.449 231.863L213.74 243.786L217.658 243.28L216.446 232.369L212.449 231.863Z" fill="white"/>
<path d="M393.658 247.721H221.024V251.555H393.658V247.721Z" fill="#263238"/>
<path opacity="0.3" d="M310.524 247.721H221.024V251.555H310.524V247.721Z" fill="white"/>
<path opacity="0.2" d="M393.658 247.721H310.522V251.555H393.658V247.721Z" fill="white"/>
<path d="M402.233 243.887H212.451V247.721H402.233V243.887Z" fill="#263238"/>
<path opacity="0.3" d="M402.232 243.887H301.949V247.721H402.232V243.887Z" fill="black"/>
<path d="M289.284 369.999L264.687 362.121V251.556H262.188H258.179H255.679V362.121L231.082 369.999V374.832H233.582L260.183 371.637L286.783 374.832H289.284V369.999Z" fill="#263238"/>
<path opacity="0.1" d="M289.284 369.999L264.687 362.121V251.556H262.188H258.179H255.679V362.121L231.082 369.999V374.832H233.582L260.183 371.637L286.783 374.832H289.284V369.999Z" fill="white"/>
<path d="M262.188 362.121V251.556H255.679V362.121L231.082 369.999V374.832L258.933 371.486L286.783 374.832V369.999L262.188 362.121Z" fill="#263238"/>
<path opacity="0.3" d="M262.188 362.121V251.556H255.679V362.121L231.082 369.999V374.832L258.933 371.486L286.783 374.832V369.999L262.188 362.121Z" fill="white"/>
<path d="M383.6 369.999L359.004 362.121V251.556H356.505H352.496H349.995V362.121L325.399 369.999V374.832H327.899L354.5 371.637L381.1 374.832H383.6V369.999Z" fill="#263238"/>
<path d="M356.505 362.121V251.556H349.995V362.121L325.399 369.999V374.832L353.25 371.486L381.1 374.832V369.999L356.505 362.121Z" fill="#263238"/>
<path opacity="0.2" d="M356.505 362.121V251.556H349.995V362.121L325.399 369.999V374.832L353.25 371.486L381.1 374.832V369.999L356.505 362.121Z" fill="white"/>
<path d="M278.353 239.485L254.97 240.601V243.922H278.353H293.408V239.485H278.353Z" fill="#263238"/>
<path opacity="0.3" d="M278.353 243.922H254.97V240.601L278.353 239.485V243.922Z" fill="white"/>
<path opacity="0.6" d="M293.409 239.485H278.354V243.922H293.409V239.485Z" fill="white"/>
<path d="M237.888 243.922C236.734 243.922 235.988 242.7 236.503 241.668C237.917 238.839 241.967 237.537 245.528 237.537C249.307 237.537 251.305 239.002 251.793 242.205C251.931 243.115 251.178 243.922 250.256 243.922H237.888Z" fill="#263238"/>
<path opacity="0.6" d="M237.888 243.922C236.734 243.922 235.988 242.7 236.503 241.668C237.917 238.839 241.967 237.537 245.528 237.537C249.307 237.537 251.305 239.002 251.793 242.205C251.931 243.115 251.178 243.922 250.256 243.922H237.888Z" fill="white"/>
<path d="M357.743 178.43L304.742 178.158L299.156 231.31L352.213 231.038C354.465 229.826 356.013 227.57 356.27 225.126L360.557 184.343C360.813 181.897 359.739 179.64 357.743 178.43Z" fill="#263238"/>
<path opacity="0.5" d="M357.743 178.43L304.742 178.158L299.156 231.31L352.213 231.038C354.465 229.826 356.013 227.57 356.27 225.126L360.557 184.343C360.813 181.897 359.739 179.64 357.743 178.43Z" fill="white"/>
<path d="M299.662 231.037L299.155 231.309L304.741 178.157L305.191 178.429C307.187 179.64 308.261 181.896 308.004 184.34L303.717 225.123C303.462 227.569 301.913 229.827 299.662 231.037Z" fill="#263238"/>
<path opacity="0.3" d="M299.662 231.037L299.155 231.309L304.741 178.157L305.191 178.429C307.187 179.64 308.261 181.896 308.004 184.34L303.717 225.123C303.462 227.569 301.913 229.827 299.662 231.037Z" fill="white"/>
<path opacity="0.1" d="M323.085 231.037L322.804 231.187L333.624 231.131L332.626 222.15L327.533 221.398L327.141 225.124C326.885 227.569 325.337 229.827 323.085 231.037Z" fill="black"/>
<path d="M342.236 241.703H331.938L327.478 221.31H337.775L342.236 241.703Z" fill="#263238"/>
<path d="M332.626 239.485L309.243 240.601V243.922H332.626H347.681V239.485H332.626Z" fill="#263238"/>
<path opacity="0.3" d="M332.626 243.922H309.243V240.601L332.626 239.485V243.922Z" fill="white"/>
<path opacity="0.6" d="M347.681 239.485H332.626V243.922H347.681V239.485Z" fill="white"/>
<path d="M315.872 99.8582L296.376 91.8154L304.419 111.311L307.23 104.68L315.2 112.65L317.211 110.639L309.241 102.67L315.872 99.8582Z" fill="#5EA813"/>
<path opacity="0.9" d="M315.872 99.8582L296.376 91.8154L304.419 111.311L307.23 104.68L315.2 112.65L317.211 110.639L309.241 102.67L315.872 99.8582Z" fill="white"/>
<path d="M315.2 113.655L307.473 105.928L304.411 113.155L295.067 90.5063L317.715 99.8494L310.49 102.913L318.217 110.64L315.2 113.655ZM306.987 103.431L315.2 111.645L316.205 110.64L307.992 102.427L314.028 99.8683L297.684 93.1248L304.427 109.469L306.987 103.431Z" fill="#263238"/>
<path d="M325.505 114.774H315.315V124.963H325.505V114.774Z" fill="#5EA813"/>
<path opacity="0.9" d="M325.505 114.774H315.315V124.963H325.505V114.774Z" fill="white"/>
<path d="M325.979 125.437H314.84V114.299H325.979V125.437ZM315.789 124.489H325.032V115.248H315.789V124.489Z" fill="#263238"/>
<path d="M323.965 119.158H321.121V116.314H319.699V119.158H316.855V120.58H319.699V123.423H321.121V120.58H323.965V119.158Z" fill="#263238"/>
<g clip-path="url(#clip0_80_13051)">
<path d="M501.72 355.11H464.78V355.39H501.72V355.11Z" fill="#EBEBEB"/>
<path d="M369.37 358.14H359.68V358.42H369.37V358.14Z" fill="#EBEBEB"/>
<path d="M463.67 344.76H442.27V345.04H463.67V344.76Z" fill="#EBEBEB"/>
<path d="M106.67 346.63H58.5V346.91H106.67V346.63Z" fill="#EBEBEB"/>
<path d="M123.66 346.63H116.6V346.91H123.66V346.63Z" fill="#EBEBEB"/>
<path d="M251.08 351.34H146.61V351.62H251.08V351.34Z" fill="#EBEBEB"/>
<path d="M557.59 337.16H0V337.44H557.59V337.16Z" fill="#EBEBEB"/>
<path d="M421.95 298.99C422.09 285.46 420.7 270.76 422.79 258.22C423.14 256.1 423.18 253.84 422.42 251.75C417.78 254.76 417.27 266.68 417.12 271.52C413.25 259.89 410.88 246.85 412.14 234.92C412.6 230.6 412.6 224.18 408.05 228.09C404.01 231.56 405.51 243.64 406.43 247.68C403.37 238.21 399.6 228.76 396.53 219.52C392.89 208.57 383.51 211.26 390.54 221.84C395.13 228.75 401.9 244.91 401.9 244.91C401.87 244.92 380.35 218.79 376.62 223.05C373.86 226.2 398.32 243.85 402.14 250.14C398.86 246.84 387.55 238.89 385.46 243.53C384.32 246.07 388.6 247.09 391.29 248.42C398.51 251.98 404.44 256.87 408.08 264.31C409.82 268.26 410.61 270.26 412.04 274.33C409.76 270.82 400.43 262.92 398.98 266.16C398 268.35 403.74 272.64 406.54 275.45C413.45 282.38 417.02 289.9 418.95 299.44C420.14 299.26 420.74 299.16 421.93 298.97L421.95 298.99Z" fill="#E6E6E6"/>
<path d="M428.1 297.26C431.18 286.15 435.79 274.45 437.03 263.69C437.24 261.87 437.74 260.01 438.86 258.48C441.95 262.04 439.56 271.92 438.53 275.91C444.44 267.3 449.46 257.19 451.24 247.13C451.89 243.48 453.4 238.23 456.2 242.51C458.68 246.3 454.61 255.83 452.9 258.92C457.64 251.89 462.96 245.04 467.65 238.21C473.21 230.11 480.25 234.52 472.01 241.52C466.62 246.09 457.27 257.72 457.27 257.72C457.29 257.74 481.07 241.42 483.12 245.79C484.63 249.02 460.46 257.69 455.84 261.94C459.31 260.02 470.44 256.18 471.05 260.47C471.39 262.82 467.64 262.64 465.12 263.1C458.37 264.31 452.36 266.91 447.63 272.14C445.28 274.96 444.15 276.41 442.02 279.41C444.71 277.08 454.22 272.82 454.64 275.8C454.92 277.82 449.22 279.98 446.26 281.62C438.97 285.66 434.27 290.98 430.44 298.33C429.51 297.9 429.04 297.68 428.11 297.24L428.1 297.26Z" fill="#E0E0E0"/>
<path d="M426.45 301.04C423.92 284.18 423.1 265.6 418.31 250.32C417.5 247.74 417.06 244.92 417.65 242.19C423.96 245.14 426.68 259.93 427.7 265.94C430.51 250.76 431.2 234.07 427.56 219.41C426.24 214.1 425.12 206.09 431.48 210.18C437.12 213.81 437.35 229.14 436.9 234.34C439.07 221.99 442.13 209.54 444.36 197.49C447 183.2 459.17 184.92 452.23 199.34C447.7 208.76 442.06 230.1 442.06 230.1C442.1 230.11 464.41 193.76 469.8 198.43C473.79 201.88 446.34 228.15 442.66 236.67C446.19 231.99 458.91 220.1 462.33 225.53C464.2 228.5 459.03 230.52 455.9 232.65C447.51 238.35 440.96 245.48 437.71 255.39C436.23 260.61 435.59 263.25 434.5 268.58C436.73 263.81 447.01 252.33 449.37 256.12C450.97 258.68 444.56 265.03 441.55 269.02C434.13 278.87 430.99 288.87 430.24 301.11C428.72 301.08 427.96 301.07 426.44 301.04H426.45Z" fill="#F5F5F5"/>
<path d="M403.13 291.26L408.31 330.98C408.83 334.98 412.24 337.97 416.28 337.97H439.94C443.98 337.97 447.38 334.98 447.91 330.98L453.09 291.26H403.13Z" fill="#EBEBEB"/>
<path d="M164.48 213.62H71.0298V337.97H164.48V213.62Z" fill="#F0F0F0"/>
<path d="M182.31 213.62H164.48V337.97H182.31V213.62Z" fill="#E6E6E6"/>
<path d="M158.41 222.85H77.5698V253.05H158.41V222.85Z" fill="#FAFAFA"/>
<path d="M107.45 222.85L107.8 226.88C107.92 228.21 109.03 229.23 110.36 229.23H125.62C126.95 229.23 128.06 228.21 128.18 226.88L128.53 222.85H107.45Z" fill="#EBEBEB"/>
<path d="M158.41 256.35H77.5698V286.55H158.41V256.35Z" fill="#FAFAFA"/>
<path d="M107.45 256.35L107.8 260.38C107.92 261.71 109.03 262.73 110.36 262.73H125.62C126.95 262.73 128.06 261.71 128.18 260.38L128.53 256.35H107.45Z" fill="#EBEBEB"/>
<path d="M158.41 289.85H77.5698V320.05H158.41V289.85Z" fill="#FAFAFA"/>
<path d="M107.45 289.85L107.8 293.88C107.92 295.21 109.03 296.23 110.36 296.23H125.62C126.95 296.23 128.06 295.21 128.18 293.88L128.53 289.85H107.45Z" fill="#EBEBEB"/>
<path d="M273.42 383.24C392.84 383.24 489.64 377.59 489.64 370.61C489.64 363.63 392.83 357.98 273.42 357.98C154.01 357.98 57.2002 363.63 57.2002 370.61C57.2002 377.59 154.01 383.24 273.42 383.24Z" fill="#F5F5F5"/>
<path d="M396.41 183.81H181.35L194.16 0.529785H409.22L396.4 183.81H396.41Z" fill="#263238"/>
<path opacity="0.9" d="M396.41 183.81H181.35L194.16 0.529785H409.22L396.4 183.81H396.41Z" fill="white"/>
<path opacity="0.1" d="M184.73 135.48L181.35 183.81H396.41L399.79 135.48H184.73Z" fill="black"/>
<path d="M357.13 139.39C356.54 139.39 356.09 138.92 356.11 138.33L357.6 102.29H361.84L358.29 138.33C358.23 138.92 357.72 139.39 357.13 139.39Z" fill="#263238"/>
<path d="M340.82 137.27C340.17 137.27 339.71 136.71 339.83 136.07L345.96 102.29H350.2L341.95 136.38C341.83 136.9 341.35 137.28 340.82 137.28V137.27Z" fill="#263238"/>
<path d="M373.74 137.27C374.38 137.27 374.92 136.71 374.9 136.07L373.5 102.29H369.26L372.74 136.38C372.79 136.9 373.22 137.28 373.74 137.28V137.27Z" fill="#263238"/>
<g opacity="0.6">
<path d="M357.13 139.39C356.54 139.39 356.09 138.92 356.11 138.33L357.6 102.29H361.84L358.29 138.33C358.23 138.92 357.72 139.39 357.13 139.39Z" fill="white"/>
<path d="M340.82 137.27C340.17 137.27 339.71 136.71 339.83 136.07L345.96 102.29H350.2L341.95 136.38C341.83 136.9 341.35 137.28 340.82 137.28V137.27Z" fill="white"/>
<path d="M373.74 137.27C374.38 137.27 374.92 136.71 374.9 136.07L373.5 102.29H369.26L372.74 136.38C372.79 136.9 373.22 137.28 373.74 137.28V137.27Z" fill="white"/>
</g>
<path d="M262.78 11.71H408.45L409.23 0.540039H263.56L262.78 11.71Z" fill="#263238"/>
<path opacity="0.7" d="M262.78 11.71H408.45L409.23 0.540039H263.56L262.78 11.71Z" fill="white"/>
<path opacity="0.3" d="M336.39 0.529785H263.55L262.77 11.6998H335.6L336.38 0.529785H336.39Z" fill="white"/>
<path d="M397.14 14.3599L385.48 181.17H393.96L405.63 14.3599H397.15H397.14Z" fill="#263238"/>
<path opacity="0.6" d="M397.14 14.3599L385.48 181.17H393.96L405.63 14.3599H397.15H397.14Z" fill="white"/>
<path d="M253.39 9.64986H200.42C199.45 9.64986 198.71 8.85986 198.78 7.87986C198.85 6.90986 199.69 6.10986 200.67 6.10986H253.64C254.61 6.10986 255.35 6.89986 255.28 7.87986C255.21 8.84986 254.37 9.64986 253.39 9.64986Z" fill="#263238"/>
<path opacity="0.5" d="M253.39 9.64986H200.42C199.45 9.64986 198.71 8.85986 198.78 7.87986C198.85 6.90986 199.69 6.10986 200.67 6.10986H253.64C254.61 6.10986 255.35 6.89986 255.28 7.87986C255.21 8.84986 254.37 9.64986 253.39 9.64986Z" fill="white"/>
<path d="M312 164.1C312.85 164.1 313.52 163.31 313.38 162.48L306.1 120.75H301.53L310.82 163.15C310.94 163.71 311.43 164.09 312.01 164.09L312 164.1Z" fill="#263238"/>
<path d="M289.24 164.1H289.3C290.09 164.1 290.75 163.4 290.7 162.62L288.04 120.75H283.47L288.03 163.02C288.1 163.64 288.61 164.1 289.24 164.1Z" fill="#263238"/>
<g opacity="0.5">
<path d="M312 164.1C312.85 164.1 313.52 163.31 313.38 162.48L306.1 120.75H301.53L310.82 163.15C310.94 163.71 311.43 164.09 312.01 164.09L312 164.1Z" fill="white"/>
<path d="M289.24 164.1H289.3C290.09 164.1 290.75 163.4 290.7 162.62L288.04 120.75H283.47L288.03 163.02C288.1 163.64 288.61 164.1 289.24 164.1Z" fill="white"/>
</g>
<path d="M243.55 109.33H281.84L277.69 55.3398C276.64 41.7098 265.38 30.8398 252.3 30.8398H242.38C229.31 30.8398 219.19 41.7098 219.58 55.3398L220.46 85.7898L243.54 109.32L243.55 109.33Z" fill="#FFCA3A"/>
<path d="M243.55 109.33H281.84L277.69 55.3398C276.64 41.7098 265.38 30.8398 252.3 30.8398H242.38C229.31 30.8398 219.19 41.7098 219.58 55.3398L220.46 85.7898L243.54 109.32L243.55 109.33Z" fill="#FFC938"/>
<path d="M293.14 109.33H232.44L230.88 55.3398C230.49 41.7098 240.6 30.8398 253.68 30.8398H263.6C276.68 30.8398 287.94 41.7098 288.99 55.3398L293.14 109.33Z" fill="#353535"/>
<path d="M282.29 127.87C295.91 127.78 309.95 121.78 319.37 111.18C327.09 102.48 331.8 92.0199 332.69 80.7299C333.03 76.4199 329.47 72.2999 325.03 72.4999H299.42C294.91 72.6999 290.98 76.1199 290.61 80.7299C290.54 81.6599 290.45 82.5799 290.32 83.5099C290.25 84.0299 289.78 86.0399 290.02 85.1499C289.53 86.9899 289.02 88.7999 288.31 90.5799C288.05 91.2299 287.77 91.8799 287.48 92.5199C287.65 92.1099 286.87 93.6999 286.63 94.0999C285.67 95.7599 284.59 97.3199 283.45 98.8599C283.4 98.9199 283.29 99.0699 283.17 99.2299C283.01 99.4199 282.78 99.6899 282.7 99.7799C282.09 100.44 281.48 101.09 280.84 101.72C280.12 102.43 279.37 103.11 278.61 103.76C278.27 104.05 277.92 104.34 277.57 104.62C277.47 104.7 276.97 105.06 276.7 105.27C276.23 105.58 275.38 106.14 275.21 106.24C274.45 106.71 273.67 107.17 272.88 107.59C272.21 107.95 271.52 108.28 270.84 108.61C269.53 107.9 268.21 107.25 266.97 106.41C266.27 105.94 265.61 105.42 264.93 104.93C266.39 105.95 264.51 104.55 264.12 104.18C262.74 102.9 261.47 101.5 260.32 100.02C260.21 99.8799 260.11 99.7399 260.01 99.5999C260.2 99.8399 259.45 98.7699 259.34 98.5799C258.84 97.7699 258.38 96.9499 257.94 96.0999C257.51 95.2499 257.1 94.3799 256.74 93.4999C256.58 93.1099 256.43 92.6999 256.27 92.3099C257 94.0899 256.24 92.1299 256.15 91.8299C255.6 89.9499 255.19 88.0099 254.95 86.0399C254.9 85.5999 254.87 85.1499 254.81 84.7099C255.09 86.6599 254.81 84.5599 254.81 84.1899C254.79 83.0399 254.83 81.8799 254.9 80.7199C255.16 76.4199 251.73 72.2899 247.25 72.4899H221.64C217.2 72.6899 213.11 76.1099 212.83 80.7199C211.61 100.7 222.93 118.16 241.07 125.12C246.18 127.08 251.69 127.96 257.26 127.86H282.33L282.29 127.87Z" fill="#474748"/>
<path d="M316.22 80.7299C316.15 81.6599 316.06 82.5799 315.93 83.5099C315.85 84.0899 315.27 86.5499 315.75 84.7199C315.23 86.7099 314.69 88.6599 313.93 90.5899C313.6 91.4299 313.23 92.2599 312.85 93.0799C313.63 91.3899 312.53 93.6199 312.25 94.1099C311.29 95.7699 310.21 97.3299 309.07 98.8699C308.91 99.0799 308.02 100.22 308.72 99.3499C309.41 98.4799 308.51 99.5899 308.32 99.7899C307.71 100.45 307.1 101.1 306.46 101.73C305.74 102.44 304.99 103.12 304.23 103.77C303.89 104.06 303.54 104.35 303.19 104.63C303.01 104.78 301.48 105.88 302.46 105.2C303.26 104.64 301.11 106.07 300.83 106.25C300.07 106.72 299.29 107.18 298.5 107.6C297.71 108.03 296.9 108.42 296.09 108.8C295.85 108.92 294.52 109.48 295.55 109.05C296.66 108.59 294.89 109.29 294.67 109.37C292.95 109.98 291.2 110.47 289.44 110.84C288.88 110.96 286.39 111.33 288.27 111.11C287.12 111.25 285.97 111.34 284.82 111.38C282.96 111.45 281.12 111.35 279.29 111.19C278.86 111.15 277.8 110.85 279.45 111.22C279.02 111.12 278.57 111.07 278.13 110.98C277.16 110.79 276.19 110.55 275.24 110.28C274.4 110.04 273.57 109.78 272.76 109.48C272.36 109.33 271.96 109.15 271.55 109.02C270.44 108.66 272.69 109.65 271.69 109.08C270.12 108.18 268.49 107.44 266.99 106.43C266.29 105.96 265.64 105.44 264.95 104.95C266.41 105.97 264.53 104.57 264.14 104.2C262.76 102.92 261.49 101.52 260.34 100.04C260.08 99.7099 259.83 99.3699 259.59 99.0299C260.72 100.57 259.51 98.8399 259.36 98.5999C258.86 97.7899 258.4 96.9699 257.96 96.1199C257.53 95.2699 257.12 94.3999 256.76 93.5199C256.6 93.1299 256.45 92.7199 256.29 92.3299C257.02 94.1099 256.26 92.1499 256.17 91.8499C255.62 89.9699 255.21 88.0299 254.97 86.0599C254.91 85.6199 254.89 85.1699 254.83 84.7299C255.11 86.6799 254.83 84.5799 254.83 84.2099C254.81 83.0599 254.85 81.8999 254.92 80.7399C255.18 76.4399 251.75 72.3099 247.26 72.5099C242.82 72.7099 238.74 76.1299 238.45 80.7399C237.23 100.72 248.55 118.18 266.69 125.14C284.13 131.83 306.28 125.98 319.42 111.19C327.14 102.49 331.85 92.0299 332.74 80.7399C333.08 76.4299 329.52 72.3099 325.08 72.5099C320.57 72.7099 316.64 76.1299 316.27 80.7399L316.22 80.7299Z" fill="#FFCA3A"/>
<path d="M316.22 80.7299C316.15 81.6599 316.06 82.5799 315.93 83.5099C315.85 84.0899 315.27 86.5499 315.75 84.7199C315.23 86.7099 314.69 88.6599 313.93 90.5899C313.6 91.4299 313.23 92.2599 312.85 93.0799C313.63 91.3899 312.53 93.6199 312.25 94.1099C311.29 95.7699 310.21 97.3299 309.07 98.8699C308.91 99.0799 308.02 100.22 308.72 99.3499C309.41 98.4799 308.51 99.5899 308.32 99.7899C307.71 100.45 307.1 101.1 306.46 101.73C305.74 102.44 304.99 103.12 304.23 103.77C303.89 104.06 303.54 104.35 303.19 104.63C303.01 104.78 301.48 105.88 302.46 105.2C303.26 104.64 301.11 106.07 300.83 106.25C300.07 106.72 299.29 107.18 298.5 107.6C297.71 108.03 296.9 108.42 296.09 108.8C295.85 108.92 294.52 109.48 295.55 109.05C296.66 108.59 294.89 109.29 294.67 109.37C292.95 109.98 291.2 110.47 289.44 110.84C288.88 110.96 286.39 111.33 288.27 111.11C287.12 111.25 285.97 111.34 284.82 111.38C282.96 111.45 281.12 111.35 279.29 111.19C278.86 111.15 277.8 110.85 279.45 111.22C279.02 111.12 278.57 111.07 278.13 110.98C277.16 110.79 276.19 110.55 275.24 110.28C274.4 110.04 273.57 109.78 272.76 109.48C272.36 109.33 271.96 109.15 271.55 109.02C270.44 108.66 272.69 109.65 271.69 109.08C270.12 108.18 268.49 107.44 266.99 106.43C266.29 105.96 265.64 105.44 264.95 104.95C266.41 105.97 264.53 104.57 264.14 104.2C262.76 102.92 261.49 101.52 260.34 100.04C260.08 99.7099 259.83 99.3699 259.59 99.0299C260.72 100.57 259.51 98.8399 259.36 98.5999C258.86 97.7899 258.4 96.9699 257.96 96.1199C257.53 95.2699 257.12 94.3999 256.76 93.5199C256.6 93.1299 256.45 92.7199 256.29 92.3299C257.02 94.1099 256.26 92.1499 256.17 91.8499C255.62 89.9699 255.21 88.0299 254.97 86.0599C254.91 85.6199 254.89 85.1699 254.83 84.7299C255.11 86.6799 254.83 84.5799 254.83 84.2099C254.81 83.0599 254.85 81.8999 254.92 80.7399C255.18 76.4399 251.75 72.3099 247.26 72.5099C242.82 72.7099 238.74 76.1299 238.45 80.7399C237.23 100.72 248.55 118.18 266.69 125.14C284.13 131.83 306.28 125.98 319.42 111.19C327.14 102.49 331.85 92.0299 332.74 80.7399C333.08 76.4299 329.52 72.3099 325.08 72.5099C320.57 72.7099 316.64 76.1299 316.27 80.7399L316.22 80.7299Z" fill="#FFC938"/>
<path d="M223.22 164.1C222.37 164.1 221.81 163.31 222.07 162.48L234.67 122.4C234.98 121.43 235.89 120.75 236.89 120.75C238.33 120.75 239.27 122.13 238.77 123.51L224.54 163.15C224.34 163.71 223.8 164.09 223.22 164.09V164.1Z" fill="#263238"/>
<path d="M245.98 164.1H245.92C245.13 164.1 244.57 163.4 244.73 162.62L252.85 122.67C253.07 121.57 254.07 120.75 255.17 120.75C256.55 120.75 257.5 121.99 257.16 123.35L247.33 163.03C247.18 163.65 246.6 164.11 245.97 164.11L245.98 164.1Z" fill="#263238"/>
<g opacity="0.5">
<path d="M223.22 164.1C222.37 164.1 221.81 163.31 222.07 162.48L234.67 122.4C234.98 121.43 235.89 120.75 236.89 120.75C238.33 120.75 239.27 122.13 238.77 123.51L224.54 163.15C224.34 163.71 223.8 164.09 223.22 164.09V164.1Z" fill="white"/>
<path d="M245.98 164.1H245.92C245.13 164.1 244.57 163.4 244.73 162.62L252.85 122.67C253.07 121.57 254.07 120.75 255.17 120.75C256.55 120.75 257.5 121.99 257.16 123.35L247.33 163.03C247.18 163.65 246.6 164.11 245.97 164.11L245.98 164.1Z" fill="white"/>
</g>
<path d="M367.48 95.4898H365.28L360.01 87.2998H363.18L367.48 95.4898Z" fill="#263238"/>
<path opacity="0.7" d="M367.48 95.4898H365.28L360.01 87.2998H363.18L367.48 95.4898Z" fill="white"/>
<path d="M364.26 95.49H352.18L355.2 79.79H367.28L364.25 95.49H364.26Z" fill="#263238"/>
<path opacity="0.6" d="M364.26 95.49H352.18L355.2 79.79H367.28L364.25 95.49H364.26Z" fill="white"/>
<path opacity="0.4" d="M363.57 94.28H353.35L355.91 81H366.13L363.57 94.28Z" fill="white"/>
<path opacity="0.4" d="M362.21 91.9301H355.61L357.26 83.3501H363.86L362.21 91.9301Z" fill="white"/>
<path d="M374.04 103.35H345.27C342.88 103.35 341.08 101.41 341.24 99.02L341.51 95.23H378.94L378.68 99.02C378.51 101.41 376.44 103.35 374.05 103.35H374.04Z" fill="#263238"/>
<path opacity="0.8" d="M374.04 103.35H345.27C342.88 103.35 341.08 101.41 341.24 99.02L341.51 95.23H378.94L378.68 99.02C378.51 101.41 376.44 103.35 374.05 103.35H374.04Z" fill="white"/>
<path opacity="0.5" d="M391.61 119.94L390.67 133.41C390.58 134.73 391.57 135.79 392.89 135.79C394.21 135.79 395.35 134.72 395.44 133.41L396.38 119.94C396.47 118.62 395.48 117.56 394.16 117.56C392.84 117.56 391.7 118.63 391.61 119.94Z" fill="white"/>
<path opacity="0.5" d="M398.28 20.84L401.16 17.54L403.57 20.84H398.28Z" fill="white"/>
<path opacity="0.5" d="M392.78 175.12L389.9 178.42L387.49 175.12H392.78Z" fill="white"/>
<path d="M441.4 216.85H354.53L359.14 150.98H446.01L441.4 216.85Z" fill="#263238"/>
<path opacity="0.5" d="M441.4 216.85H354.53L359.14 150.98H446.01L441.4 216.85Z" fill="white"/>
<path opacity="0.3" d="M389.52 165.4H445L445.86 153.1H390.38L389.52 165.4Z" fill="black"/>
<path opacity="0.5" d="M445.86 153.1H358.99L359.14 150.98H446.01L445.86 153.1Z" fill="black"/>
<path opacity="0.5" d="M382.96 162.22H364.21C363.39 162.22 362.77 161.55 362.83 160.73C362.89 159.91 363.6 159.24 364.42 159.24H383.17C383.99 159.24 384.61 159.9 384.55 160.73C384.49 161.55 383.78 162.22 382.96 162.22Z" fill="white"/>
<path d="M371.69 178.75H361.57L362.28 168.63H372.4L371.69 178.75Z" fill="#5EA813"/>
<g opacity="0.9">
<path d="M376.49 183.92H366.16L366.45 179.83H368.4L368.25 181.97H374.68L375.13 175.54H372.99L373.13 173.59H377.22L376.5 183.92H376.49Z" fill="black"/>
</g>
<g opacity="0.5">
<path d="M442.31 156.66H433.3L433.41 155.07H442.42L442.31 156.66Z" fill="white"/>
<path d="M442.07 160.04H433.06L433.17 158.45H442.18L442.07 160.04Z" fill="white"/>
<path d="M441.83 163.43H432.82L432.93 161.84H441.94L441.83 163.43Z" fill="white"/>
</g>
<g opacity="0.5">
<path d="M425.36 155.69L424.16 156.81L426.43 159.25L423.82 161.68L424.86 162.8L428.67 159.24L425.36 155.68V155.69Z" fill="white"/>
<path d="M421.3 155.69L420.1 156.81L422.37 159.25L419.76 161.68L420.8 162.8L424.61 159.24L421.3 155.68V155.69Z" fill="white"/>
</g>
<path opacity="0.2" d="M418.79 178.62H384.36L384.56 175.79H418.99L418.79 178.62Z" fill="white"/>
<path d="M436.39 180.74H421.82L422.31 173.67H436.88L436.39 180.74Z" fill="#263238"/>
<path d="M418.07 188.95H383.64L383.84 186.12H418.27L418.07 188.95Z" fill="#5EA813"/>
<path d="M435.66 191.07H421.09L421.58 184H436.15L435.66 191.07Z" fill="#5EA745"/>
<path opacity="0.9" d="M417.35 199.28H382.92L383.12 196.45H417.55L417.35 199.28Z" fill="white"/>
<path d="M434.94 201.4H420.37L420.86 194.33H435.43L434.94 201.4Z" fill="#263238"/>
<path d="M434.22 211.73H416.7L417.19 204.66H434.71L434.22 211.73Z" fill="#263238"/>
<path d="M386.85 182.1H384.12L384.24 180.42L385.68 179.36L386.97 180.42L386.85 182.1Z" fill="#263238"/>
<path d="M385.4 202.76H382.66L382.78 201.08L384.22 200.02L385.51 201.08L385.39 202.76H385.4Z" fill="#263238"/>
<path d="M417.08 192.43H414.35L414.47 190.75L415.91 189.69L417.2 190.75L417.08 192.43Z" fill="#263238"/>
<g opacity="0.3">
<path d="M386.85 182.1H384.12L384.24 180.42L385.68 179.36L386.97 180.42L386.85 182.1Z" fill="white"/>
<path d="M385.4 202.76H382.66L382.78 201.08L384.22 200.02L385.51 201.08L385.39 202.76H385.4Z" fill="white"/>
<path d="M417.08 192.43H414.35L414.47 190.75L415.91 189.69L417.2 190.75L417.08 192.43Z" fill="white"/>
</g>
<path d="M194.6 149.35H107.73L112.34 83.48H199.21L194.61 149.35H194.6Z" fill="#263238"/>
<path opacity="0.5" d="M194.6 149.35H107.73L112.34 83.48H199.21L194.61 149.35H194.6Z" fill="white"/>
<path opacity="0.3" d="M142.71 97.9001H198.19L199.05 85.6001H143.57L142.71 97.9001Z" fill="black"/>
<path opacity="0.5" d="M199.05 85.6H112.18L112.33 83.48H199.2L199.05 85.6Z" fill="black"/>
<path opacity="0.5" d="M136.15 94.7202H117.4C116.58 94.7202 115.96 94.0502 116.02 93.2302C116.08 92.4102 116.79 91.7402 117.61 91.7402H136.36C137.18 91.7402 137.8 92.4102 137.74 93.2302C137.68 94.0502 136.97 94.7202 136.15 94.7202Z" fill="white"/>
<path d="M123.14 109.38H114.9L115.48 101.14H123.72L123.14 109.38Z" fill="#5EA813"/>
<g opacity="0.9">
<path d="M127.05 113.58H118.64L118.87 110.25H120.46L120.34 111.99H125.58L125.94 106.75H124.2L124.31 105.16H127.64L127.05 113.57V113.58Z" fill="black"/>
</g>
<g opacity="0.5">
<path d="M195.5 89.1598H186.49L186.6 87.5698H195.6L195.49 89.1598H195.5Z" fill="white"/>
<path d="M195.26 92.5397H186.25L186.36 90.9497H195.36L195.25 92.5397H195.26Z" fill="white"/>
<path d="M195.03 95.9298H186.02L186.13 94.3398H195.13L195.02 95.9298H195.03Z" fill="white"/>
</g>
<g opacity="0.5">
<path d="M181.23 102.72H172.22L172.33 101.13H181.34L181.23 102.72Z" fill="white"/>
<path d="M180.99 106.11H171.98L172.09 104.52H181.1L180.99 106.11Z" fill="white"/>
<path d="M180.75 109.49H171.74L171.85 107.9H180.86L180.75 109.49Z" fill="white"/>
</g>
<g opacity="0.5">
<path d="M178.55 88.1899L177.35 89.3099L179.61 91.7399L177.01 94.1699L178.05 95.2899L181.86 91.7299L178.55 88.1699V88.1899Z" fill="white"/>
<path d="M174.49 88.1899L173.29 89.3099L175.55 91.7399L172.95 94.1699L173.99 95.2899L177.8 91.7299L174.49 88.1699V88.1899Z" fill="white"/>
</g>
<g opacity="0.5">
<path d="M190.87 106.11L190.63 109.49H194.34L194.58 106.11H190.87Z" fill="white"/>
<path d="M190.98 104.52H194.69L194.93 101.14H191.22L190.98 104.52Z" fill="white"/>
<path d="M189.39 104.52L189.63 101.14H185.92L185.68 104.52H189.39Z" fill="white"/>
<path d="M189.28 106.11H185.57L185.33 109.49H189.04L189.28 106.11Z" fill="white"/>
</g>
<path d="M126.36 131.04H137.75L138.55 119.65H127.16L126.36 131.04Z" fill="#263238"/>
<path opacity="0.6" d="M126.36 131.04H137.75L138.55 119.65H127.16L126.36 131.04Z" fill="white"/>
<path d="M138.8 131.04H150.19L150.99 119.65H139.6L138.8 131.04Z" fill="#263238"/>
<path opacity="0.4" d="M138.8 131.04H150.19L150.99 119.65H139.6L138.8 131.04Z" fill="white"/>
<path d="M125.48 143.52H136.87L137.67 132.13H126.28L125.48 143.52Z" fill="#5EA813"/>
<path d="M125.48 143.52H136.87L137.67 132.13H126.28L125.48 143.52Z" fill="#EBDDE4"/>
<path d="M137.93 143.52H149.32L150.12 132.13H138.73L137.93 143.52Z" fill="#5EA813"/>
<path d="M137.93 143.52H149.32L150.12 132.13H138.73L137.93 143.52Z" fill="#FFEED6"/>
<path d="M113.91 131.04H125.3L126.1 119.65H114.71L113.91 131.04Z" fill="#263238"/>
<path opacity="0.8" d="M113.91 131.04H125.3L126.1 119.65H114.71L113.91 131.04Z" fill="white"/>
<path d="M113.04 143.52H124.43L125.23 132.13H113.84L113.04 143.52Z" fill="#5EA813"/>
<path d="M113.04 143.52H124.43L125.23 132.13H113.84L113.04 143.52Z" fill="#E7E6E6"/>
<path d="M175.28 143.52H186.67L187.47 132.13H176.08L175.28 143.52Z" fill="#5EA813"/>
<path d="M175.28 143.52H186.67L187.47 132.13H176.08L175.28 143.52Z" fill="#FFC938"/>
<path d="M163.7 131.04H175.09L175.89 119.65H164.5L163.7 131.04Z" fill="#263238"/>
<path d="M150.38 143.52H161.77L162.57 132.13H151.18L150.38 143.52Z" fill="#FAE0D8"/>
<path d="M151.25 131.04H162.64L163.44 119.65H152.05L151.25 131.04Z" fill="#263238"/>
<path opacity="0.2" d="M151.25 131.04H162.64L163.44 119.65H152.05L151.25 131.04Z" fill="white"/>
<path d="M162.83 143.52H174.22L175.02 132.13H163.63L162.83 143.52Z" fill="#5EA813"/>
<path d="M162.83 143.52H174.22L175.02 132.13H163.63L162.83 143.52Z" fill="#014F81"/>
<path d="M193.41 294.64H187.06V330.05H193.41V294.64Z" fill="#263238"/>
<path opacity="0.2" d="M193.41 294.64H187.06V330.05H193.41V294.64Z" fill="white"/>
<path d="M222.57 363.29L190.41 351.45L157.91 363.3C156.79 363.71 155.6 362.88 155.6 361.68C155.6 361.01 155.99 360.4 156.6 360.12L190.42 344.43L223.9 360.12C224.5 360.4 224.89 361.01 224.89 361.67C224.89 362.87 223.7 363.7 222.58 363.28L222.57 363.29Z" fill="#263238"/>
<path opacity="0.3" d="M222.57 363.29L190.41 351.45L157.91 363.3C156.79 363.71 155.6 362.88 155.6 361.68C155.6 361.01 155.99 360.4 156.6 360.12L190.42 344.43L223.9 360.12C224.5 360.4 224.89 361.01 224.89 361.67C224.89 362.87 223.7 363.7 222.58 363.28L222.57 363.29Z" fill="white"/>
<path opacity="0.2" d="M182.84 354.21L190.42 351.45L197.65 354.11V347.82L190.42 344.43L182.84 347.95V354.22V354.21Z" fill="black"/>
<path d="M190.24 363.57C188.77 363.57 187.54 362.45 187.4 360.98L186.49 351.45V314.43H193.99V351.45L193.08 360.98C192.94 362.45 191.71 363.57 190.24 363.57Z" fill="#263238"/>
<path opacity="0.3" d="M190.24 363.57C188.77 363.57 187.54 362.45 187.4 360.98L186.49 351.45V314.43H193.99V351.45L193.08 360.98C192.94 362.45 191.71 363.57 190.24 363.57Z" fill="white"/>
<path d="M156.87 372.7C159.18 372.7 161.05 370.83 161.05 368.52C161.05 366.21 159.18 364.34 156.87 364.34C154.56 364.34 152.69 366.21 152.69 368.52C152.69 370.83 154.56 372.7 156.87 372.7Z" fill="#FFC938"/>
<path d="M156.87 370.61C158.02 370.61 158.96 369.67 158.96 368.52C158.96 367.37 158.02 366.43 156.87 366.43C155.72 366.43 154.78 367.37 154.78 368.52C154.78 369.67 155.72 370.61 156.87 370.61Z" fill="#263238"/>
<path d="M190.24 372.33C192.55 372.33 194.42 370.46 194.42 368.15C194.42 365.84 192.55 363.97 190.24 363.97C187.93 363.97 186.06 365.84 186.06 368.15C186.06 370.46 187.93 372.33 190.24 372.33Z" fill="#FFC938"/>
<path d="M190.24 370.24C191.39 370.24 192.33 369.3 192.33 368.15C192.33 367 191.39 366.06 190.24 366.06C189.09 366.06 188.15 367 188.15 368.15C188.15 369.3 189.09 370.24 190.24 370.24Z" fill="#263238"/>
<path d="M224.88 372.7C227.19 372.7 229.06 370.83 229.06 368.52C229.06 366.21 227.19 364.34 224.88 364.34C222.57 364.34 220.7 366.21 220.7 368.52C220.7 370.83 222.57 372.7 224.88 372.7Z" fill="#FFC938"/>
<path d="M224.88 370.61C226.03 370.61 226.97 369.67 226.97 368.52C226.97 367.37 226.03 366.43 224.88 366.43C223.73 366.43 222.79 367.37 222.79 368.52C222.79 369.67 223.73 370.61 224.88 370.61Z" fill="#263238"/>
<path d="M161.81 219.18H156.87V232.93H161.81V219.18Z" fill="#263238"/>
<path opacity="0.3" d="M161.81 219.18H156.87V232.93H161.81V219.18Z" fill="white"/>
<path d="M175.82 223.97C176.76 223.95 177.7 224.37 178.33 225.41C190.34 245.38 194.6 269.38 190.46 292.28C190.2 293.71 189.22 294.38 188.13 294.46C186.31 294.58 153.95 294.46 152.78 294.46C151.02 294.46 149.08 292.96 149.49 290.67C153.34 269.39 149.1 246.97 137.97 228.46C136.59 226.16 138.63 224 140.69 223.96C141.63 223.94 173.76 224 175.82 223.96V223.97Z" fill="#474748"/>
<path d="M149.49 290.68C153.34 269.4 149.1 246.98 137.97 228.47C135.96 225.12 141.19 222.08 143.2 225.41C155.21 245.38 159.47 269.38 155.33 292.28C154.64 296.11 148.8 294.49 149.49 290.67V290.68Z" fill="#333333"/>
<path d="M250.4 288.92C242.98 287.03 235.36 285.99 227.72 285.8C219.84 285.6 190.36 285.77 183.36 285.77C174.84 285.77 166.32 286.82 158.05 288.93C152.85 290.26 154.45 297.76 159.15 297.84C159.56 297.84 248.69 297.82 249.02 297.84C253.93 298.06 255.72 290.29 250.41 288.93L250.4 288.92Z" fill="#474748"/>
<path d="M160.45 297.68C175.42 293.86 191.28 293.86 206.25 297.68C211.91 299.12 214.33 290.37 208.66 288.92C192.12 284.7 174.57 284.7 158.03 288.92C152.37 290.37 154.77 299.12 160.44 297.68H160.45Z" fill="#333333"/>
<path d="M168.87 222.85C169.76 222.87 170.63 222.39 170.92 221.28C172.98 213.21 172.98 204.64 170.92 196.57C170.66 195.53 169.89 195.05 169.07 195H149.69C148.33 194.91 146.82 196.02 147.26 197.75C149.12 205.06 149.12 212.8 147.26 220.1C146.82 221.83 148.32 222.94 149.69 222.85H168.86H168.87Z" fill="#5EA813"/>
<path d="M168.87 222.85C169.76 222.87 170.63 222.39 170.92 221.28C172.98 213.21 172.98 204.64 170.92 196.57C170.66 195.53 169.89 195.05 169.07 195H149.69C148.33 194.91 146.82 196.02 147.26 197.75C149.12 205.06 149.12 212.8 147.26 220.1C146.82 221.83 148.32 222.94 149.69 222.85H168.86H168.87Z" fill="#DDA526"/>
<path d="M147.27 220.09C149.13 212.78 149.13 205.04 147.27 197.74C146.56 194.98 150.84 193.8 151.54 196.56C153.6 204.63 153.6 213.2 151.54 221.27C150.84 224.03 146.56 222.86 147.27 220.09Z" fill="#FFC938"/>
<path d="M239.25 334.43L234 357.3L240.52 359.82L249.91 336.82L239.25 334.43Z" fill="#CE7A63"/>
<path d="M240.4 358.69L234.48 355.52C234.22 355.38 233.9 355.44 233.71 355.66L229.48 360.56C229.1 360.99 229.14 361.65 229.58 362.03C229.64 362.08 229.7 362.12 229.76 362.16C232.25 363.44 234.51 364.49 237.57 366.14C241.19 368.09 240.04 368.03 244.26 370.38C246.81 371.79 248.84 369.13 247.83 368.4C243.19 365.09 242.57 362.8 241.61 359.99C241.38 359.42 240.94 358.96 240.39 358.69H240.4Z" fill="#263238"/>
<path d="M186.4 263.48L218.43 261.72C218.43 261.72 271.64 270.04 270.88 284.92C270.12 299.8 248.44 346.7 248.44 346.7L235.74 343.17C235.74 343.17 245.41 296.01 251.71 288.2C251.71 288.2 211.97 283.54 202.03 280.89C196.56 279.43 183.37 281.9 186.4 263.49V263.48Z" fill="#054E82"/>
<path opacity="0.3" d="M246.33 287.55C246.47 284.55 246.18 279.87 243.89 274.71C240.93 268.03 216.57 264.02 204.92 262.47L186.39 263.49C183.36 281.9 196.55 279.43 202.02 280.89C209.69 282.94 235.12 286.18 246.32 287.55H246.33Z" fill="black"/>
<path d="M217.5 340.73L216.66 364.18L223.72 364.52L228.42 341.07L217.5 340.73Z" fill="#CE7A63"/>
<path d="M223.21 362.39L216.37 362.53C216.07 362.53 215.82 362.75 215.76 363.04L214.45 369.49C214.33 370.06 214.69 370.62 215.27 370.74C215.34 370.76 215.42 370.76 215.49 370.76C218.34 370.66 220.87 370.46 224.41 370.4C228.6 370.32 227.54 370.85 232.46 370.82C235.43 370.81 235.91 367.43 234.65 367.28C228.88 366.66 227.19 364.93 224.93 362.92C224.44 362.53 223.82 362.34 223.2 362.38L223.21 362.39Z" fill="#263238"/>
<path d="M194.97 263.48C194.97 263.48 237.84 264.99 240.36 278.1C242.88 291.21 228.51 349.97 228.51 349.97H215.65C215.65 349.97 217.16 297.27 221.45 286.17C221.45 286.17 186.15 291.72 176.82 283.71C170.15 277.98 178.08 263.48 178.08 263.48H194.97Z" fill="#054E82"/>
<path d="M234.72 340.39L250.7 344.84L247.78 350.98L233.22 347.36L234.73 340.38L234.72 340.39Z" fill="#263238"/>
<path opacity="0.3" d="M234.72 340.39L250.7 344.84L247.78 350.98L233.22 347.36L234.73 340.38L234.72 340.39Z" fill="#04375B"/>
<path d="M214.39 346.7L230.53 347.46L229.02 353.89L214.4 353.13V346.7H214.39Z" fill="#263238"/>
<path opacity="0.3" d="M214.39 346.7L230.53 347.46L229.02 353.89L214.4 353.13V346.7H214.39Z" fill="#04375B"/>
<path d="M231.04 235.46L251.81 235.81L262.25 231.31L268.94 237L266.29 239.93L259.39 238.73L250.6 241.16L229.9 242.41L231.03 235.47L231.04 235.46Z" fill="#CE7A63"/>
<path opacity="0.1" d="M231.04 235.46L251.81 235.81L262.25 231.31L268.94 237L266.29 239.93L259.39 238.73L250.6 241.16L229.9 242.41L231.03 235.47L231.04 235.46Z" fill="black"/>
<path d="M228.1 202.53C228.1 202.53 232.17 205.5 231.19 215.27C230.21 225.05 225.48 235.09 230.76 235.3C231.23 235.32 232.13 235.3 232.13 235.3V242.4C232.13 242.4 219.01 245.78 218.18 239.31C217.36 232.84 228.09 202.53 228.09 202.53H228.1Z" fill="#5EA813"/>
<path d="M228.1 202.53C228.1 202.53 232.17 205.5 231.19 215.27C230.21 225.05 225.48 235.09 230.76 235.3C231.23 235.32 232.13 235.3 232.13 235.3V242.4C232.13 242.4 219.01 245.78 218.18 239.31C217.36 232.84 228.09 202.53 228.09 202.53H228.1Z" fill="#474748"/>
<path opacity="0.1" d="M218.19 239.31C219.02 245.78 232.14 242.4 232.14 242.4V240.53C224.1 241.91 225.11 238.41 225.6 236.41C230.32 217.35 228.48 207.75 227.43 204.43C225.1 211.18 217.48 233.81 218.19 239.3V239.31Z" fill="black"/>
<path d="M230.3 234V243.89L234.11 243.52V234.63L230.3 234Z" fill="#5EA813"/>
<path d="M230.3 234V243.89L234.11 243.52V234.63L230.3 234Z" fill="#E7E6E6"/>
<path d="M176.11 266.09C176.11 266.09 180.56 209.21 186.97 200.95C193.38 192.69 224.02 196.05 228.09 202.53C232.47 209.48 222.37 223.82 220 261.91C220 261.91 194.23 269.28 176.1 266.09H176.11Z" fill="#E7E6E6"/>
<path d="M210.52 194.29L205.12 193.78L203.23 196.07C203.23 196.07 206.48 201.71 207.3 210.95C207.3 210.95 210.05 206.63 211.83 206.55C213.62 206.47 215.23 208.64 215.23 208.64C215.23 208.64 217.52 206.27 218.81 206.26C220.1 206.26 221.9 209.81 221.9 209.81C221.9 209.81 220.51 196.01 218.91 195.17C217.31 194.33 210.51 194.28 210.51 194.28L210.52 194.29Z" fill="#5EA813"/>
<path d="M210.52 194.29L205.12 193.78L203.23 196.07C203.23 196.07 206.48 201.71 207.3 210.95C207.3 210.95 210.05 206.63 211.83 206.55C213.62 206.47 215.23 208.64 215.23 208.64C215.23 208.64 217.52 206.27 218.81 206.26C220.1 206.26 221.9 209.81 221.9 209.81C221.9 209.81 220.51 196.01 218.91 195.17C217.31 194.33 210.51 194.28 210.51 194.28L210.52 194.29Z" fill="#474748"/>
<path d="M206.3 194.9C206.3 194.9 205.79 196.97 208.18 201.31C210.24 205.06 213.2 205.21 215.08 205.21C216.96 205.21 219.6 203.89 218.91 199.42C218.22 194.96 212.99 194.96 206.3 194.89V194.9Z" fill="#CE7A63"/>
<path d="M218.15 192.97L211.08 185.29C210.41 191.18 208.11 194.53 206.78 196.02L207.42 198.91C215.99 208.55 217.97 199.29 217.97 199.29C215.88 197.54 218.16 192.97 218.16 192.97H218.15Z" fill="#CE7A63"/>
<path opacity="0.1" d="M213.91 188.36L210.61 188.03C210.61 188.03 210.76 197.91 217.52 198.76C216.26 196.76 218.15 192.96 218.15 192.96L213.91 188.36Z" fill="#263238"/>
<path d="M227.45 171.62C227.45 171.62 234 170.21 234.44 172.62C234.88 175.03 229.19 175.7 229.19 175.7L227.45 171.62Z" fill="#263238"/>
<path d="M212.04 176.84C210.51 183.83 209.25 187.82 211.68 192.44C214.01 197.01 219.6 198.83 224.17 196.5C225.85 195.64 227.23 194.29 228.13 192.63C231.34 186.95 233.31 176.48 227.46 171.62C223.56 168.2 217.62 168.58 214.2 172.48C213.11 173.72 212.37 175.22 212.05 176.84H212.04Z" fill="#CE7A63"/>
<path d="M221.76 182.07C221.6 182.63 221.76 183.17 222.14 183.25C222.51 183.33 222.92 183.01 223.08 182.46C223.24 181.91 223.08 181.35 222.69 181.27C222.31 181.19 221.91 181.51 221.76 182.07Z" fill="#263238"/>
<path d="M228 184.09C227.84 184.65 228 185.18 228.38 185.27C228.76 185.36 229.16 185.03 229.33 184.47C229.5 183.91 229.33 183.37 228.94 183.28C228.56 183.19 228.16 183.52 228 184.09Z" fill="#263238"/>
<path d="M220.42 179.41C220.37 179.4 220.32 179.38 220.27 179.34C220.16 179.19 220.18 178.99 220.33 178.87C220.33 178.87 220.33 178.87 220.34 178.87C221.2 178.19 222.35 177.98 223.39 178.32C223.56 178.39 223.65 178.58 223.58 178.75C223.58 178.75 223.58 178.75 223.58 178.76C223.51 178.93 223.32 179.02 223.15 178.95C222.34 178.7 221.45 178.85 220.77 179.37C220.68 179.45 220.54 179.47 220.43 179.42L220.42 179.41Z" fill="#263238"/>
<path d="M231.29 182.78C231.19 182.73 231.11 182.64 231.1 182.53C230.98 181.65 230.45 180.88 229.69 180.45C229.53 180.34 229.5 180.13 229.6 179.97C229.68 179.85 229.84 179.8 229.98 179.84C230.94 180.37 231.61 181.32 231.76 182.41C231.79 182.59 231.67 182.77 231.49 182.8C231.42 182.81 231.36 182.8 231.3 182.78H231.29Z" fill="#263238"/>
<path d="M221.27 190.87C221.58 190.96 221.9 191.02 222.22 191.06C222.32 191.08 222.42 191.01 222.44 190.91C222.44 190.8 222.37 190.71 222.26 190.7C220.62 190.53 219.15 189.58 218.32 188.15C218.27 188.05 218.16 188.01 218.06 188.06C217.96 188.11 217.92 188.22 217.97 188.32C218.68 189.58 219.87 190.51 221.27 190.88V190.87Z" fill="#263238"/>
<path d="M212.24 183.73C212.24 183.73 213.62 185.81 214.44 184.28C215.26 182.75 214.69 176.82 214.69 176.82C214.69 176.82 218.7 174.11 221.3 173.83C223.9 173.55 232.82 174.11 234.31 167.88C235.58 162.56 226.07 165.74 226.07 165.74C226.07 165.74 225.07 161.26 220.13 162.07C217.02 162.58 214.98 165.65 214.98 165.65C214.98 165.65 209.19 165.11 206.69 167.79C204.81 169.8 206.69 172.62 206.69 172.62C206.69 172.62 204.33 174.55 204.57 178.16C204.73 180.61 205.78 181.35 205.78 181.35C205.78 181.35 207.41 187.58 209.59 189.06C210.59 189.74 210.12 188.68 210.52 187.32C210.99 185.72 212.24 183.72 212.24 183.72V183.73Z" fill="#263238"/>
<path d="M225.83 183.73C226 185.65 226.43 187.54 227.1 189.35C225.87 189.96 224.32 189.02 224.32 189.02L225.84 183.73H225.83Z" fill="#BA4D3C"/>
<path d="M229.47 182.48C228.76 182.26 227.82 181.97 227.06 182.2L224.92 181.53C224.43 180.91 223.5 180.61 222.78 180.39C222.17 180.2 221.4 179.97 220.71 180.05L211.7 179.75L211.68 180.31L219.68 180.58C219.5 180.78 219.34 181.02 219.24 181.36C218.73 182.98 219.64 184.72 221.27 185.22C222.89 185.73 224.63 184.82 225.13 183.19C225.25 182.81 225.25 182.49 225.2 182.21L226.43 182.59C226.23 182.79 226.05 183.06 225.93 183.44C225.42 185.06 226.33 186.8 227.96 187.3C229.58 187.81 231.31 186.9 231.82 185.27C232.41 183.39 230.63 182.84 229.46 182.48H229.47ZM224.61 183.03C224.2 184.36 222.78 185.11 221.45 184.69C220.12 184.28 219.37 182.86 219.79 181.53C220.15 180.38 220.99 180.43 222.62 180.93C224.25 181.44 224.97 181.88 224.61 183.03ZM231.3 185.11C230.89 186.44 229.47 187.19 228.14 186.77C226.81 186.36 226.06 184.94 226.48 183.61C226.84 182.46 227.68 182.51 229.31 183.01C230.94 183.52 231.66 183.96 231.3 185.11Z" fill="#5EA813"/>
<path opacity="0.4" d="M229.47 182.48C228.76 182.26 227.82 181.97 227.06 182.2L224.92 181.53C224.43 180.91 223.5 180.61 222.78 180.39C222.17 180.2 221.4 179.97 220.71 180.05L211.7 179.75L211.68 180.31L219.68 180.58C219.5 180.78 219.34 181.02 219.24 181.36C218.73 182.98 219.64 184.72 221.27 185.22C222.89 185.73 224.63 184.82 225.13 183.19C225.25 182.81 225.25 182.49 225.2 182.21L226.43 182.59C226.23 182.79 226.05 183.06 225.93 183.44C225.42 185.06 226.33 186.8 227.96 187.3C229.58 187.81 231.31 186.9 231.82 185.27C232.41 183.39 230.63 182.84 229.46 182.48H229.47ZM224.61 183.03C224.2 184.36 222.78 185.11 221.45 184.69C220.12 184.28 219.37 182.86 219.79 181.53C220.15 180.38 220.99 180.43 222.62 180.93C224.25 181.44 224.97 181.88 224.61 183.03ZM231.3 185.11C230.89 186.44 229.47 187.19 228.14 186.77C226.81 186.36 226.06 184.94 226.48 183.61C226.84 182.46 227.68 182.51 229.31 183.01C230.94 183.52 231.66 183.96 231.3 185.11Z" fill="white"/>
<path d="M207.81 181.79C207.84 183.39 208.47 184.91 209.58 186.07C211.05 187.56 212.73 186.44 213.1 184.47C213.44 182.69 213.08 179.78 211.23 179.03C209.38 178.29 207.79 179.81 207.81 181.79Z" fill="#CE7A63"/>
<path d="M211.29 234.23L234.11 236.46L244.67 231.86L249.33 235.48L247.66 237.57L242.55 238.41L235.5 241.53L211.88 242.12L211.29 234.22V234.23Z" fill="#CE7A63"/>
<path opacity="0.1" d="M194.57 235.16C190.94 229.57 187.72 220.95 186.57 213.62C186.44 224.11 188.42 245.18 206.76 242.61C202.63 242.02 197.81 240.15 194.57 235.15V235.16Z" fill="black"/>
<path d="M188.83 200.32C192.99 198.18 196.82 201.89 200.17 217.14C203.52 232.38 213.55 233.26 213.55 233.26L214.44 242.42C214.44 242.42 200.86 245.58 194.1 235.17C187.34 224.76 181.99 203.85 188.83 200.33V200.32Z" fill="#5EA813"/>
<path d="M188.83 200.32C192.99 198.18 196.82 201.89 200.17 217.14C203.52 232.38 213.55 233.26 213.55 233.26L214.44 242.42C214.44 242.42 200.86 245.58 194.1 235.17C187.34 224.76 181.99 203.85 188.83 200.33V200.32Z" fill="#474748"/>
<path d="M212.45 231.86L213.74 243.78L217.66 243.27L216.45 232.36L212.45 231.85V231.86Z" fill="#5EA813"/>
<path d="M212.45 231.86L213.74 243.78L217.66 243.27L216.45 232.36L212.45 231.85V231.86Z" fill="#E7E6E6"/>
<path d="M393.66 247.72H221.03V251.55H393.66V247.72Z" fill="#263238"/>
<path opacity="0.3" d="M310.52 247.72H221.02V251.55H310.52V247.72Z" fill="white"/>
<path opacity="0.2" d="M393.66 247.72H310.52V251.55H393.66V247.72Z" fill="white"/>
<path d="M402.23 243.89H212.45V247.72H402.23V243.89Z" fill="#263238"/>
<path opacity="0.3" d="M402.23 243.89H301.95V247.72H402.23V243.89Z" fill="black"/>
<path d="M289.28 370L264.68 362.12V251.55H255.67V362.12L231.07 370V374.83H233.57L260.17 371.63L286.77 374.83H289.27V370H289.28Z" fill="#263238"/>
<path opacity="0.1" d="M289.28 370L264.68 362.12V251.55H255.67V362.12L231.07 370V374.83H233.57L260.17 371.63L286.77 374.83H289.27V370H289.28Z" fill="white"/>
<path d="M262.19 362.12V251.55H255.68V362.12L231.08 370V374.83L258.93 371.48L286.78 374.83V370L262.18 362.12H262.19Z" fill="#263238"/>
<path opacity="0.3" d="M262.19 362.12V251.55H255.68V362.12L231.08 370V374.83L258.93 371.48L286.78 374.83V370L262.18 362.12H262.19Z" fill="white"/>
<path d="M383.6 370L359 362.12V251.55H349.99V362.12L325.39 370V374.83H327.89L354.49 371.63L381.09 374.83H383.59V370H383.6Z" fill="#263238"/>
<path d="M356.51 362.12V251.55H350V362.12L325.4 370V374.83L353.25 371.48L381.1 374.83V370L356.5 362.12H356.51Z" fill="#263238"/>
<path opacity="0.2" d="M356.51 362.12V251.55H350V362.12L325.4 370V374.83L353.25 371.48L381.1 374.83V370L356.5 362.12H356.51Z" fill="white"/>
<path d="M278.35 239.49L254.97 240.61V243.93H293.41V239.49H278.36H278.35Z" fill="#263238"/>
<path opacity="0.3" d="M278.35 243.92H254.97V240.6L278.35 239.48V243.92Z" fill="white"/>
<path opacity="0.6" d="M293.41 239.49H278.36V243.93H293.41V239.49Z" fill="white"/>
<path d="M237.89 243.92C236.74 243.92 235.99 242.7 236.51 241.67C237.92 238.84 241.97 237.54 245.53 237.54C249.31 237.54 251.31 239 251.79 242.21C251.93 243.12 251.17 243.93 250.25 243.93H237.88L237.89 243.92Z" fill="#263238"/>
<path opacity="0.6" d="M237.89 243.92C236.74 243.92 235.99 242.7 236.51 241.67C237.92 238.84 241.97 237.54 245.53 237.54C249.31 237.54 251.31 239 251.79 242.21C251.93 243.12 251.17 243.93 250.25 243.93H237.88L237.89 243.92Z" fill="white"/>
<path d="M357.74 178.43L304.74 178.16L299.15 231.31L352.21 231.04C354.46 229.83 356.01 227.57 356.27 225.13L360.56 184.35C360.82 181.9 359.74 179.65 357.75 178.44L357.74 178.43Z" fill="#263238"/>
<path opacity="0.5" d="M357.74 178.43L304.74 178.16L299.15 231.31L352.21 231.04C354.46 229.83 356.01 227.57 356.27 225.13L360.56 184.35C360.82 181.9 359.74 179.65 357.75 178.44L357.74 178.43Z" fill="white"/>
<path d="M299.66 231.04L299.15 231.31L304.74 178.16L305.19 178.43C307.19 179.64 308.26 181.9 308 184.34L303.71 225.12C303.45 227.57 301.91 229.82 299.65 231.03L299.66 231.04Z" fill="#263238"/>
<path opacity="0.3" d="M299.66 231.04L299.15 231.31L304.74 178.16L305.19 178.43C307.19 179.64 308.26 181.9 308 184.34L303.71 225.12C303.45 227.57 301.91 229.82 299.65 231.03L299.66 231.04Z" fill="white"/>
<path opacity="0.1" d="M323.08 231.04L322.8 231.19L333.62 231.13L332.62 222.15L327.53 221.4L327.14 225.13C326.88 227.58 325.34 229.83 323.08 231.04Z" fill="black"/>
<path d="M342.24 241.7H331.94L327.48 221.31H337.78L342.24 241.7Z" fill="#263238"/>
<path d="M332.63 239.49L309.25 240.61V243.93H347.69V239.49H332.64H332.63Z" fill="#263238"/>
<path opacity="0.3" d="M332.63 243.92H309.25V240.6L332.63 239.48V243.92Z" fill="white"/>
<path opacity="0.6" d="M347.68 239.49H332.63V243.93H347.68V239.49Z" fill="white"/>
<path d="M315.87 99.8598L296.37 91.8198L304.41 111.32L307.22 104.69L315.19 112.66L317.2 110.65L309.23 102.68L315.86 99.8698L315.87 99.8598Z" fill="#5EA813"/>
<path opacity="0.9" d="M315.87 99.8598L296.37 91.8198L304.41 111.32L307.22 104.69L315.19 112.66L317.2 110.65L309.23 102.68L315.86 99.8698L315.87 99.8598Z" fill="white"/>
<path d="M315.2 113.65L307.47 105.92L304.41 113.15L295.07 90.5L317.72 99.84L310.49 102.9L318.22 110.63L315.2 113.64V113.65ZM306.99 103.43L315.2 111.64L316.2 110.64L307.99 102.43L314.03 99.87L297.69 93.13L304.43 109.47L306.99 103.43Z" fill="#263238"/>
<path d="M325.51 114.77H315.32V124.96H325.51V114.77Z" fill="#5EA813"/>
<path opacity="0.9" d="M325.51 114.77H315.32V124.96H325.51V114.77Z" fill="white"/>
<path d="M325.98 125.44H314.84V114.3H325.98V125.44ZM315.79 124.49H325.03V115.25H315.79V124.49Z" fill="#263238"/>
<path d="M323.96 119.16H321.12V116.32H319.7V119.16H316.86V120.58H319.7V123.42H321.12V120.58H323.96V119.16Z" fill="#263238"/>
</g>
<defs>
<clipPath id="clip0_80_13051">
<rect width="558" height="384" fill="white"/>
</clipPath>
</defs>
</svg>
