<svg width="456" height="364" viewBox="0 0 456 364" fill="none" xmlns="http://www.w3.org/2000/svg">
<path d="M227.628 363.702C353.343 363.702 455.255 357.751 455.255 350.409C455.255 343.067 353.343 337.116 227.628 337.116C101.912 337.116 0 343.067 0 350.409C0 357.751 101.912 363.702 227.628 363.702Z" fill="#F5F5F5"/>
<path d="M283.363 6.71777H255.206C253.362 6.71777 251.686 8.08784 251.292 9.91812L251.102 10.7998C250.141 15.2669 246.046 18.614 241.542 18.614H214.775C210.271 18.614 206.762 15.2669 206.582 10.7998L206.547 9.91812C206.473 8.08901 205.037 6.71777 203.193 6.71777H175.037C165.646 6.71777 157.368 14.33 156.546 23.7209L133.894 282.635C133.072 292.026 140.018 299.638 149.409 299.638H257.736C267.127 299.638 275.405 292.026 276.227 282.635L298.88 23.7209C299.7 14.33 292.754 6.71777 283.363 6.71777Z" fill="#5EA813"/>
<path opacity="0.7" d="M283.363 6.71777H255.206C253.362 6.71777 251.686 8.08784 251.292 9.91812L251.102 10.7998C250.141 15.2669 246.046 18.614 241.542 18.614H214.775C210.271 18.614 206.762 15.2669 206.582 10.7998L206.547 9.91812C206.473 8.08901 205.037 6.71777 203.193 6.71777H175.037C165.646 6.71777 157.368 14.33 156.546 23.7209L133.894 282.635C133.072 292.026 140.018 299.638 149.409 299.638H257.736C267.127 299.638 275.405 292.026 276.227 282.635L298.88 23.7209C299.7 14.33 292.754 6.71777 283.363 6.71777Z" fill="white"/>
<path d="M272.383 125.802H214.863C212.775 125.802 211.233 124.11 211.414 122.023L215.748 72.494C215.931 70.4066 217.771 68.7148 219.857 68.7148H277.377C279.465 68.7148 281.009 70.4066 280.825 72.494L276.492 122.023C276.31 124.11 274.469 125.802 272.383 125.802Z" fill="white"/>
<path d="M253.229 280.677H156.976C151.794 280.677 147.961 276.477 148.414 271.295C148.867 266.113 153.436 261.912 158.617 261.912H254.871C260.053 261.912 263.886 266.113 263.433 271.295C262.98 276.476 258.411 280.677 253.229 280.677Z" fill="white"/>
<path d="M260.918 55.0998H172.598C169.688 55.0998 167.535 52.7413 167.79 49.8321L168.51 41.6023C168.764 38.6931 171.33 36.3345 174.239 36.3345H262.561C265.47 36.3345 267.623 38.6931 267.368 41.6023L266.649 49.8321C266.393 52.7401 263.827 55.0998 260.918 55.0998Z" fill="white"/>
<path d="M278.876 41.3321C278.805 42.1421 278.092 42.7984 277.281 42.7984C276.471 42.7984 275.873 42.1421 275.943 41.3321C276.014 40.522 276.729 39.8657 277.537 39.8657C278.348 39.8657 278.947 40.522 278.876 41.3321Z" fill="white"/>
<path d="M278.493 45.7158C278.423 46.5259 277.709 47.1822 276.899 47.1822C276.089 47.1822 275.49 46.5259 275.561 45.7158C275.631 44.9058 276.345 44.2495 277.155 44.2495C277.965 44.2495 278.564 44.9058 278.493 45.7158Z" fill="white"/>
<path d="M278.109 50.1006C278.039 50.9107 277.325 51.567 276.515 51.567C275.705 51.567 275.106 50.9107 275.177 50.1006C275.247 49.2905 275.961 48.6343 276.771 48.6343C277.581 48.6343 278.18 49.2905 278.109 50.1006Z" fill="white"/>
<path d="M265.233 207.52H157.772C155.684 207.52 154.142 205.829 154.324 203.741L159.27 147.207C159.453 145.119 161.293 143.428 163.379 143.428H270.841C272.928 143.428 274.471 145.119 274.289 147.207L269.343 203.741C269.161 205.829 267.321 207.52 265.233 207.52Z" fill="white"/>
<path d="M187.337 219.333H153.882C153.373 219.333 152.996 218.92 153.041 218.411C153.085 217.901 153.535 217.488 154.044 217.488H187.499C188.009 217.488 188.385 217.901 188.341 218.411C188.296 218.92 187.847 219.333 187.337 219.333Z" fill="white"/>
<path d="M229.154 219.333H193.239C192.729 219.333 192.353 218.92 192.397 218.411C192.442 217.901 192.891 217.488 193.401 217.488H229.316C229.826 217.488 230.203 217.901 230.158 218.411C230.113 218.92 229.664 219.333 229.154 219.333Z" fill="white"/>
<path d="M175.801 227.486H153.17C152.66 227.486 152.283 227.072 152.328 226.563C152.372 226.053 152.822 225.64 153.332 225.64H175.963C176.472 225.64 176.849 226.053 176.805 226.563C176.76 227.072 176.31 227.486 175.801 227.486Z" fill="white"/>
<path d="M218.775 227.486H181.702C181.192 227.486 180.815 227.072 180.86 226.563C180.905 226.053 181.354 225.64 181.864 225.64H218.937C219.446 225.64 219.823 226.053 219.778 226.563C219.734 227.072 219.284 227.486 218.775 227.486Z" fill="white"/>
<path d="M212.79 235.639H152.456C151.946 235.639 151.569 235.226 151.614 234.716C151.659 234.207 152.108 233.793 152.618 233.793H212.952C213.462 233.793 213.839 234.207 213.794 234.716C213.75 235.226 213.3 235.639 212.79 235.639Z" fill="white"/>
<path d="M222.675 235.639H218.692C218.183 235.639 217.806 235.226 217.85 234.716C217.895 234.207 218.345 233.793 218.854 233.793H222.837C223.347 233.793 223.724 234.207 223.679 234.716C223.635 235.226 223.185 235.639 222.675 235.639Z" fill="white"/>
<path d="M179.912 243.793H151.743C151.234 243.793 150.857 243.38 150.902 242.87C150.946 242.36 151.396 241.947 151.905 241.947H180.074C180.584 241.947 180.961 242.36 180.916 242.87C180.872 243.378 180.422 243.793 179.912 243.793Z" fill="white"/>
<path d="M220.885 243.793H185.813C185.304 243.793 184.927 243.38 184.971 242.87C185.016 242.36 185.466 241.947 185.975 241.947H221.048C221.557 241.947 221.934 242.36 221.889 242.87C221.845 243.378 221.395 243.793 220.885 243.793Z" fill="white"/>
<path d="M185.714 251.945H151.029C150.52 251.945 150.143 251.532 150.188 251.022C150.232 250.513 150.682 250.1 151.191 250.1H185.876C186.386 250.1 186.763 250.513 186.718 251.022C186.674 251.532 186.224 251.945 185.714 251.945Z" fill="white"/>
<path d="M219.558 251.945H191.616C191.107 251.945 190.73 251.532 190.775 251.022C190.819 250.513 191.269 250.1 191.778 250.1H219.72C220.229 250.1 220.606 250.513 220.562 251.022C220.517 251.532 220.067 251.945 219.558 251.945Z" fill="white"/>
<path d="M271.017 121.115C270.546 121.601 269.8 121.648 269.351 121.219L221.304 75.3634C220.854 74.9348 220.873 74.1929 221.343 73.7057C221.814 73.2196 222.561 73.1727 223.009 73.6012L271.057 119.457C271.507 119.886 271.488 120.628 271.017 121.115Z" fill="#5EA813"/>
<path d="M217.051 121.095C216.665 120.608 216.777 119.866 217.301 119.438L241.81 99.3951C242.334 98.9666 243.072 99.0136 243.458 99.4996C243.844 99.9868 243.733 100.729 243.208 101.157L218.7 121.2C218.175 121.63 217.438 121.583 217.051 121.095Z" fill="#5EA813"/>
<path d="M248.725 95.1933C248.338 94.7073 248.45 93.9642 248.975 93.5356L273.529 73.4542C274.054 73.0257 274.791 73.0726 275.177 73.5587C275.564 74.0459 275.452 74.7879 274.927 75.2164L250.373 95.2978C249.848 95.7275 249.111 95.6806 248.725 95.1933Z" fill="#5EA813"/>
<g opacity="0.7">
<path d="M271.017 121.115C270.546 121.601 269.8 121.648 269.351 121.219L221.304 75.3634C220.854 74.9348 220.873 74.1929 221.343 73.7057C221.814 73.2196 222.561 73.1727 223.009 73.6012L271.057 119.457C271.507 119.886 271.488 120.628 271.017 121.115Z" fill="white"/>
</g>
<g opacity="0.7">
<path d="M217.051 121.095C216.665 120.608 216.777 119.866 217.301 119.438L241.81 99.3951C242.334 98.9666 243.072 99.0136 243.458 99.4996C243.844 99.9868 243.733 100.729 243.208 101.157L218.7 121.2C218.175 121.63 217.438 121.583 217.051 121.095Z" fill="white"/>
</g>
<g opacity="0.7">
<path d="M248.725 95.1933C248.338 94.7073 248.45 93.9642 248.975 93.5356L273.529 73.4542C274.054 73.0257 274.791 73.0726 275.177 73.5587C275.564 74.0459 275.452 74.7879 274.927 75.2164L250.373 95.2978C249.848 95.7275 249.111 95.6806 248.725 95.1933Z" fill="white"/>
</g>
<path d="M134.37 1.08691H119.163C116.08 1.08691 113.581 3.58638 113.581 6.66933V21.8763C113.581 24.9592 116.08 27.4587 119.163 27.4587H134.37C137.453 27.4587 139.952 24.9592 139.952 21.8763V6.66933C139.952 3.58638 137.453 1.08691 134.37 1.08691ZM126.766 6.48384C129.061 6.48384 130.295 8.34464 130.295 10.6398C130.295 12.935 129.061 14.7958 126.766 14.7958C124.471 14.7958 123.237 12.935 123.237 10.6398C123.237 8.34464 124.471 6.48384 126.766 6.48384ZM135.945 22.0618H117.587C117.435 22.0618 117.295 21.9995 117.195 21.8986L118.372 18.6853C119.129 16.6167 121.098 15.2408 123.3 15.2408H130.233C132.435 15.2408 134.404 16.6167 135.161 18.6853L136.338 21.8986C136.237 21.9995 136.098 22.0618 135.945 22.0618Z" fill="#5EA813"/>
<path opacity="0.7" d="M134.37 1.08691H119.163C116.08 1.08691 113.581 3.58638 113.581 6.66933V21.8763C113.581 24.9592 116.08 27.4587 119.163 27.4587H134.37C137.453 27.4587 139.952 24.9592 139.952 21.8763V6.66933C139.952 3.58638 137.453 1.08691 134.37 1.08691ZM126.766 6.48384C129.061 6.48384 130.295 8.34464 130.295 10.6398C130.295 12.935 129.061 14.7958 126.766 14.7958C124.471 14.7958 123.237 12.935 123.237 10.6398C123.237 8.34464 124.471 6.48384 126.766 6.48384ZM135.945 22.0618H117.587C117.435 22.0618 117.295 21.9995 117.195 21.8986L118.372 18.6853C119.129 16.6167 121.098 15.2408 123.3 15.2408H130.233C132.435 15.2408 134.404 16.6167 135.161 18.6853L136.338 21.8986C136.237 21.9995 136.098 22.0618 135.945 22.0618Z" fill="white"/>
<path d="M80.2657 63.6284H68.7111C64.5575 63.6284 61.1904 66.9955 61.1904 71.1491V82.7037C61.1904 86.8574 64.5575 90.2244 68.7111 90.2244H80.2657C84.4194 90.2244 87.7864 86.8574 87.7864 82.7037V71.1491C87.7876 66.9955 84.4205 63.6284 80.2657 63.6284ZM74.4884 83.232C74.4884 83.232 69.7419 78.0687 69.7419 75.4472C69.7419 72.8256 71.8669 70.7007 74.4884 70.7007C77.11 70.7007 79.2349 72.8256 79.2349 75.4472C79.2361 78.0687 74.4884 83.232 74.4884 83.232Z" fill="#5EA813"/>
<path d="M74.4883 73.2812C73.292 73.2812 72.3223 74.251 72.3223 75.4473C72.3223 76.6436 73.292 77.6133 74.4883 77.6133C75.6846 77.6133 76.6544 76.6436 76.6544 75.4473C76.6544 74.251 75.6846 73.2812 74.4883 73.2812Z" fill="#5EA813"/>
<g opacity="0.7">
<path d="M80.2657 63.6284H68.7111C64.5575 63.6284 61.1904 66.9955 61.1904 71.1491V82.7037C61.1904 86.8574 64.5575 90.2244 68.7111 90.2244H80.2657C84.4194 90.2244 87.7864 86.8574 87.7864 82.7037V71.1491C87.7876 66.9955 84.4205 63.6284 80.2657 63.6284ZM74.4884 83.232C74.4884 83.232 69.7419 78.0687 69.7419 75.4472C69.7419 72.8256 71.8669 70.7007 74.4884 70.7007C77.11 70.7007 79.2349 72.8256 79.2349 75.4472C79.2361 78.0687 74.4884 83.232 74.4884 83.232Z" fill="white"/>
<path d="M74.4883 73.2812C73.292 73.2812 72.3223 74.251 72.3223 75.4473C72.3223 76.6436 73.292 77.6133 74.4883 77.6133C75.6846 77.6133 76.6544 76.6436 76.6544 75.4473C76.6544 74.251 75.6846 73.2812 74.4883 73.2812Z" fill="white"/>
</g>
<path d="M333.898 30.8933L341.636 25.8838L333.898 20.8755V30.8933Z" fill="#5EA813"/>
<path d="M343.869 12.2314H329.129C325.658 12.2314 322.845 15.0444 322.845 18.5136V33.2556C322.845 36.7248 325.658 39.5377 329.129 39.5377H343.869C347.339 39.5377 350.153 36.7248 350.153 33.2556V18.5136C350.152 15.0432 347.339 12.2314 343.869 12.2314ZM336.499 35.7046C331.075 35.7046 326.678 31.3079 326.678 25.884C326.678 20.4601 331.075 16.0634 336.499 16.0634C341.923 16.0634 346.32 20.4601 346.32 25.884C346.318 31.3079 341.922 35.7046 336.499 35.7046Z" fill="#5EA813"/>
<g opacity="0.7">
<path d="M333.898 30.8933L341.636 25.8838L333.898 20.8755V30.8933Z" fill="white"/>
<path d="M343.869 12.2314H329.129C325.658 12.2314 322.845 15.0444 322.845 18.5136V33.2556C322.845 36.7248 325.658 39.5377 329.129 39.5377H343.869C347.339 39.5377 350.153 36.7248 350.153 33.2556V18.5136C350.152 15.0432 347.339 12.2314 343.869 12.2314ZM336.499 35.7046C331.075 35.7046 326.678 31.3079 326.678 25.884C326.678 20.4601 331.075 16.0634 336.499 16.0634C341.923 16.0634 346.32 20.4601 346.32 25.884C346.318 31.3079 341.922 35.7046 336.499 35.7046Z" fill="white"/>
</g>
<path d="M358.341 68.7875C358.341 68.4822 358.326 68.1817 358.299 67.8835L360.071 66.8997C359.937 66.0473 359.712 65.2255 359.412 64.4425L357.388 64.4765C357.132 63.9259 356.828 63.4023 356.482 62.9104L357.523 61.174C356.988 60.5131 356.384 59.9096 355.723 59.3743L353.987 60.4156C353.495 60.0693 352.971 59.7664 352.421 59.5093L352.455 57.4853C351.672 57.1836 350.85 56.9593 349.998 56.8267L349.014 58.5982C348.716 58.5724 348.415 58.556 348.11 58.556C347.805 58.556 347.504 58.5724 347.206 58.5982L346.222 56.8267C345.37 56.9605 344.548 57.1847 343.765 57.4853L343.799 59.5093C343.248 59.7652 342.725 60.0693 342.233 60.4156L340.496 59.3743C339.835 59.9096 339.232 60.5131 338.697 61.174L339.738 62.9104C339.392 63.4023 339.087 63.9259 338.832 64.4765L336.808 64.4425C336.506 65.2255 336.282 66.0473 336.149 66.8997L337.921 67.8835C337.895 68.1817 337.878 68.4822 337.878 68.7875C337.878 69.0927 337.894 69.3933 337.921 69.6915L336.149 70.6764C336.283 71.5288 336.507 72.3506 336.808 73.1336L338.832 73.0996C339.087 73.6502 339.392 74.1738 339.738 74.6657L338.697 76.4021C339.232 77.0631 339.835 77.6665 340.496 78.2019L342.233 77.1605C342.725 77.5068 343.248 77.8109 343.799 78.0668L343.765 80.0908C344.548 80.3926 345.37 80.6168 346.222 80.7494L347.206 78.9779C347.504 79.0037 347.805 79.0201 348.11 79.0201C348.415 79.0201 348.716 79.0037 349.014 78.9779L349.998 80.7494C350.85 80.6156 351.672 80.3914 352.455 80.0908L352.421 78.0668C352.971 77.8109 353.495 77.5068 353.987 77.1605L355.723 78.2019C356.384 77.6665 356.988 77.0631 357.523 76.4021L356.482 74.6657C356.828 74.1738 357.132 73.6502 357.388 73.0996L359.412 73.1336C359.714 72.3506 359.938 71.5288 360.071 70.6764L358.299 69.6926C358.325 69.3933 358.341 69.0915 358.341 68.7875ZM348.11 75.7329C344.273 75.7329 341.164 72.623 341.164 68.7875C341.164 64.9508 344.274 61.842 348.11 61.842C351.946 61.842 355.055 64.952 355.055 68.7875C355.055 72.623 351.945 75.7329 348.11 75.7329Z" fill="#5EA813"/>
<path opacity="0.7" d="M358.341 68.7875C358.341 68.4822 358.326 68.1817 358.299 67.8835L360.071 66.8997C359.937 66.0473 359.712 65.2255 359.412 64.4425L357.388 64.4765C357.132 63.9259 356.828 63.4023 356.482 62.9104L357.523 61.174C356.988 60.5131 356.384 59.9096 355.723 59.3743L353.987 60.4156C353.495 60.0693 352.971 59.7664 352.421 59.5093L352.455 57.4853C351.672 57.1836 350.85 56.9593 349.998 56.8267L349.014 58.5982C348.716 58.5724 348.415 58.556 348.11 58.556C347.805 58.556 347.504 58.5724 347.206 58.5982L346.222 56.8267C345.37 56.9605 344.548 57.1847 343.765 57.4853L343.799 59.5093C343.248 59.7652 342.725 60.0693 342.233 60.4156L340.496 59.3743C339.835 59.9096 339.232 60.5131 338.697 61.174L339.738 62.9104C339.392 63.4023 339.087 63.9259 338.832 64.4765L336.808 64.4425C336.506 65.2255 336.282 66.0473 336.149 66.8997L337.921 67.8835C337.895 68.1817 337.878 68.4822 337.878 68.7875C337.878 69.0927 337.894 69.3933 337.921 69.6915L336.149 70.6764C336.283 71.5288 336.507 72.3506 336.808 73.1336L338.832 73.0996C339.087 73.6502 339.392 74.1738 339.738 74.6657L338.697 76.4021C339.232 77.0631 339.835 77.6665 340.496 78.2019L342.233 77.1605C342.725 77.5068 343.248 77.8109 343.799 78.0668L343.765 80.0908C344.548 80.3926 345.37 80.6168 346.222 80.7494L347.206 78.9779C347.504 79.0037 347.805 79.0201 348.11 79.0201C348.415 79.0201 348.716 79.0037 349.014 78.9779L349.998 80.7494C350.85 80.6156 351.672 80.3914 352.455 80.0908L352.421 78.0668C352.971 77.8109 353.495 77.5068 353.987 77.1605L355.723 78.2019C356.384 77.6665 356.988 77.0631 357.523 76.4021L356.482 74.6657C356.828 74.1738 357.132 73.6502 357.388 73.0996L359.412 73.1336C359.714 72.3506 359.938 71.5288 360.071 70.6764L358.299 69.6926C358.325 69.3933 358.341 69.0915 358.341 68.7875ZM348.11 75.7329C344.273 75.7329 341.164 72.623 341.164 68.7875C341.164 64.9508 344.274 61.842 348.11 61.842C351.946 61.842 355.055 64.952 355.055 68.7875C355.055 72.623 351.945 75.7329 348.11 75.7329Z" fill="white"/>
<path d="M331.593 103.691C331.593 103.235 331.569 102.785 331.531 102.338L334.182 100.866C333.982 99.5913 333.646 98.3633 333.195 97.1904L330.169 97.2409C329.786 96.4179 329.331 95.6349 328.813 94.8988L330.371 92.3019C329.57 91.3133 328.667 90.4105 327.679 89.6099L325.082 91.1666C324.346 90.6489 323.564 90.1945 322.74 89.8106L322.79 86.784C321.619 86.3332 320.389 85.9974 319.114 85.7979L317.642 88.4488C317.196 88.41 316.746 88.3854 316.29 88.3854C315.833 88.3854 315.383 88.4088 314.937 88.4488L313.465 85.7979C312.19 85.9974 310.961 86.3332 309.789 86.784L309.84 89.8106C309.017 90.1945 308.234 90.6489 307.498 91.1666L304.901 89.6099C303.912 90.4105 303.009 91.3133 302.209 92.3019L303.765 94.8988C303.248 95.6349 302.793 96.4179 302.409 97.2409L299.382 97.1904C298.931 98.3621 298.595 99.5913 298.396 100.866L301.046 102.338C301.008 102.785 300.984 103.234 300.984 103.691C300.984 104.146 301.008 104.597 301.046 105.043L298.396 106.516C298.595 107.791 298.931 109.02 299.382 110.191L302.409 110.141C302.792 110.964 303.248 111.747 303.765 112.483L302.209 115.08C303.009 116.069 303.912 116.971 304.901 117.772L307.498 116.215C308.234 116.733 309.016 117.187 309.84 117.571L309.789 120.598C310.961 121.049 312.19 121.384 313.465 121.584L314.937 118.933C315.383 118.972 315.833 118.995 316.29 118.995C316.746 118.995 317.196 118.972 317.642 118.933L319.114 121.584C320.389 121.384 321.619 121.049 322.79 120.598L322.74 117.571C323.563 117.187 324.346 116.733 325.082 116.215L327.679 117.772C328.667 116.971 329.57 116.069 330.371 115.08L328.813 112.483C329.331 111.747 329.785 110.964 330.169 110.141L333.195 110.191C333.646 109.02 333.982 107.791 334.182 106.516L331.531 105.043C331.568 104.597 331.593 104.148 331.593 103.691ZM316.289 109.723C312.957 109.723 310.257 107.023 310.257 103.691C310.257 100.359 312.957 97.6589 316.289 97.6589C319.62 97.6589 322.321 100.359 322.321 103.691C322.321 107.023 319.619 109.723 316.289 109.723Z" fill="#5EA813"/>
<path opacity="0.7" d="M331.593 103.691C331.593 103.235 331.569 102.785 331.531 102.338L334.182 100.866C333.982 99.5913 333.646 98.3633 333.195 97.1904L330.169 97.2409C329.786 96.4179 329.331 95.6349 328.813 94.8988L330.371 92.3019C329.57 91.3133 328.667 90.4105 327.679 89.6099L325.082 91.1666C324.346 90.6489 323.564 90.1945 322.74 89.8106L322.79 86.784C321.619 86.3332 320.389 85.9974 319.114 85.7979L317.642 88.4488C317.196 88.41 316.746 88.3854 316.29 88.3854C315.833 88.3854 315.383 88.4088 314.937 88.4488L313.465 85.7979C312.19 85.9974 310.961 86.3332 309.789 86.784L309.84 89.8106C309.017 90.1945 308.234 90.6489 307.498 91.1666L304.901 89.6099C303.912 90.4105 303.009 91.3133 302.209 92.3019L303.765 94.8988C303.248 95.6349 302.793 96.4179 302.409 97.2409L299.382 97.1904C298.931 98.3621 298.595 99.5913 298.396 100.866L301.046 102.338C301.008 102.785 300.984 103.234 300.984 103.691C300.984 104.146 301.008 104.597 301.046 105.043L298.396 106.516C298.595 107.791 298.931 109.02 299.382 110.191L302.409 110.141C302.792 110.964 303.248 111.747 303.765 112.483L302.209 115.08C303.009 116.069 303.912 116.971 304.901 117.772L307.498 116.215C308.234 116.733 309.016 117.187 309.84 117.571L309.789 120.598C310.961 121.049 312.19 121.384 313.465 121.584L314.937 118.933C315.383 118.972 315.833 118.995 316.29 118.995C316.746 118.995 317.196 118.972 317.642 118.933L319.114 121.584C320.389 121.384 321.619 121.049 322.79 120.598L322.74 117.571C323.563 117.187 324.346 116.733 325.082 116.215L327.679 117.772C328.667 116.971 329.57 116.069 330.371 115.08L328.813 112.483C329.331 111.747 329.785 110.964 330.169 110.141L333.195 110.191C333.646 109.02 333.982 107.791 334.182 106.516L331.531 105.043C331.568 104.597 331.593 104.148 331.593 103.691ZM316.289 109.723C312.957 109.723 310.257 107.023 310.257 103.691C310.257 100.359 312.957 97.6589 316.289 97.6589C319.62 97.6589 322.321 100.359 322.321 103.691C322.321 107.023 319.619 109.723 316.289 109.723Z" fill="white"/>
<path d="M288.428 35.6206V41.7713L282.576 44.8589C281.561 45.3943 281.561 46.8465 282.576 47.3819L288.428 50.4695V56.6201C288.428 57.9926 289.541 59.1055 290.914 59.1055H311.911C313.283 59.1055 314.396 57.9926 314.396 56.6201V35.6206C314.396 34.2482 313.283 33.1353 311.911 33.1353H290.914C289.541 33.1364 288.428 34.2494 288.428 35.6206Z" fill="#FFCA3A"/>
<g opacity="0.9">
<path d="M295.656 42.0274C296.136 42.0274 307.106 42.0274 307.587 42.0274C308.397 42.0274 309.053 41.3711 309.053 40.5611C309.053 39.751 308.397 39.0947 307.587 39.0947C306.994 39.0947 296.249 39.0947 295.656 39.0947C294.846 39.0947 294.19 39.751 294.19 40.5611C294.19 41.3711 294.846 42.0274 295.656 42.0274Z" fill="white"/>
<path d="M307.587 44.6538C307.05 44.6538 296.193 44.6538 295.656 44.6538C294.846 44.6538 294.19 45.3101 294.19 46.1202C294.19 46.9302 294.846 47.5865 295.656 47.5865C296.193 47.5865 307.05 47.5865 307.587 47.5865C308.397 47.5865 309.053 46.9302 309.053 46.1202C309.053 45.3101 308.397 44.6538 307.587 44.6538Z" fill="white"/>
<path d="M307.587 50.2129C306.961 50.2129 296.282 50.2129 295.656 50.2129C294.846 50.2129 294.19 50.8692 294.19 51.6792C294.19 52.4893 294.846 53.1456 295.656 53.1456C296.1 53.1456 307.143 53.1456 307.587 53.1456C308.397 53.1456 309.053 52.4893 309.053 51.6792C309.053 50.8692 308.397 50.2129 307.587 50.2129Z" fill="white"/>
</g>
<path d="M169.771 25.9667H174.788L177.373 30.8682C178.121 32.2864 180.152 32.2864 180.9 30.8682L183.485 25.9667H188.501C190.499 25.9667 192.12 24.3466 192.12 22.3484V3.6183C192.12 1.62013 190.499 0 188.501 0H169.771C167.773 0 166.153 1.62013 166.153 3.6183V22.3484C166.153 24.3466 167.773 25.9667 169.771 25.9667Z" fill="#FFCA3A"/>
<path opacity="0.9" d="M179.149 5.59766L173.362 8.9835V18.8651H177.667V12.232H180.629V18.8651H184.936V8.9835L179.149 5.59766Z" fill="white"/>
<path d="M226.01 294.525H221.496L218.614 289.06C217.991 287.881 216.303 287.881 215.682 289.06L212.8 294.525H208.286C206.009 294.525 204.165 296.37 204.165 298.646V316.371C204.165 318.647 206.009 320.492 208.286 320.492H226.01C228.285 320.492 230.131 318.647 230.131 316.371V298.646C230.131 296.369 228.285 294.525 226.01 294.525Z" fill="#FFCA3A"/>
<path opacity="0.9" d="M219.654 301.294C217.153 298.793 213.085 298.793 210.584 301.294C208.084 303.795 208.084 307.863 210.584 310.363C212.802 312.581 216.251 312.826 218.749 311.109C218.795 311.395 218.927 311.67 219.147 311.889L223.129 315.872C223.69 316.433 224.601 316.433 225.162 315.872C225.723 315.31 225.723 314.399 225.162 313.838L221.18 309.856C220.959 309.635 220.684 309.505 220.399 309.457C222.117 306.961 221.871 303.512 219.654 301.294ZM218.298 309.006C216.545 310.759 213.693 310.759 211.94 309.006C210.188 307.253 210.188 304.4 211.94 302.648C213.693 300.895 216.546 300.895 218.298 302.648C220.051 304.402 220.051 307.253 218.298 309.006Z" fill="white"/>
<path d="M415.601 176.466C415.601 176.466 406.028 200.181 396.664 202.746C387.3 205.311 373.167 203.227 373.167 203.227L368.8 204.421L364.519 203.785C364.471 203.778 364.422 203.773 364.371 203.772L359.536 203.66C358.713 203.642 358.257 202.837 358.714 202.208L360.45 199.813C360.586 199.627 360.787 199.483 361.021 199.408L365.619 197.927C365.8 197.868 365.994 197.853 366.179 197.882L373.209 198.997C373.209 198.997 392.758 195.795 394.747 193.981C396.735 192.168 402.629 173.209 402.629 173.209L415.601 176.466Z" fill="#EEC1BB"/>
<path opacity="0.1" d="M373.66 198.922C373.371 198.97 373.209 198.997 373.209 198.997L366.179 197.882C365.994 197.852 365.8 197.868 365.619 197.926L361.021 199.407C360.787 199.482 360.585 199.625 360.45 199.813L358.714 202.208C358.257 202.837 358.713 203.641 359.536 203.66L364.371 203.772C364.421 203.773 364.47 203.776 364.518 203.785L367.397 204.213C369.534 203.283 371.657 201.344 373.66 198.922Z" fill="black"/>
<path d="M421.375 152.98C414.423 150.698 404.644 155.92 400.897 177.807L415.33 182.019C415.33 182.019 431.311 156.241 421.375 152.98Z" fill="#263238"/>
<path d="M380.941 124.38C380.951 125.099 381.329 125.68 381.801 125.675C382.272 125.671 382.677 125.053 382.65 124.356C382.623 123.657 382.262 123.056 381.79 123.069C381.316 123.081 380.94 123.664 380.941 124.38Z" fill="#263238"/>
<path d="M383.789 125.092L380.374 130.74C380.374 130.74 381.555 132.076 384.118 131.09L383.789 125.092Z" fill="#D4827D"/>
<path d="M384.432 119.875C384.346 119.969 384.221 120.016 384.096 120C383.158 119.838 382.2 120.137 381.52 120.803C381.384 120.958 381.15 120.975 380.993 120.842C380.839 120.704 380.824 120.466 380.958 120.309C381.8 119.446 383.011 119.051 384.199 119.253C384.406 119.281 384.549 119.471 384.522 119.677C384.51 119.749 384.479 119.818 384.432 119.875Z" fill="#263238"/>
<path d="M408.563 119.26C409.097 128.803 409.531 132.838 405.319 138.265C398.59 144.077 387.128 145.006 383.754 135.805C380.713 127.529 380.352 113.347 389.185 108.428C395.484 104.925 403.428 107.192 406.931 113.489C407.915 115.261 408.474 117.236 408.563 119.26Z" fill="#EEC1BB"/>
<path d="M395.264 140.148L397.681 154.286L409.471 151.562L405.345 137.13L395.264 140.148Z" fill="#EEC1BB"/>
<path d="M386.773 119.965C387.373 113.763 385.245 120.923 382.371 112.743C379.497 104.562 393.045 97.9113 395.21 99.4364C397.376 100.961 396.133 103.307 403.297 104.625C410.46 105.944 410.156 112.9 410.156 112.9C410.156 112.9 414.277 114.811 412.811 123.663C411.346 132.515 405.754 139.211 405.754 139.211C405.754 139.211 403.043 136.415 398.753 138.997C398.753 138.997 396.643 137.816 394.567 134.714C392.633 131.827 392.038 129.086 389.393 128.848C383.842 128.35 386.576 122.001 386.773 119.965Z" fill="#263238"/>
<path d="M409.38 113.991C409.38 113.991 415.228 110.395 412.641 106.626C410.053 102.856 411.302 110.766 409.38 113.991Z" fill="#263238"/>
<path d="M388.46 123.566C387.155 125.019 386.485 126.933 386.594 128.883C386.76 131.468 389.29 131.928 391.289 130.516C393.102 129.237 395.174 126.356 394.02 124.089C392.867 121.822 390.075 121.806 388.46 123.566Z" fill="#FFC3BD"/>
<path opacity="0.1" d="M395.492 141.481L396.453 147.094C396.39 141.962 399.103 139.425 399.103 139.425C396.343 139.835 395.492 141.481 395.492 141.481Z" fill="black"/>
<path d="M312.615 177.974H309.245V197.855H312.615V177.974Z" fill="#263238"/>
<path opacity="0.7" d="M312.615 177.974H309.245V197.855H312.615V177.974Z" fill="white"/>
<path d="M289.459 138.504H281.066C277.921 138.504 275.371 141.054 275.371 144.199V183.082C275.371 186.227 277.921 188.777 281.066 188.777H289.459V138.504Z" fill="#263238"/>
<path d="M340.793 188.777H284.001C280.856 188.777 278.306 186.227 278.306 183.082V144.199C278.306 141.054 280.856 138.504 284.001 138.504H340.793C343.938 138.504 346.488 141.054 346.488 144.199V183.082C346.488 186.227 343.938 188.777 340.793 188.777Z" fill="#263238"/>
<path opacity="0.5" d="M340.793 188.777H284.001C280.856 188.777 278.306 186.227 278.306 183.082V144.199C278.306 141.054 280.856 138.504 284.001 138.504H340.793C343.938 138.504 346.488 141.054 346.488 144.199V183.082C346.488 186.227 343.938 188.777 340.793 188.777Z" fill="white"/>
<path d="M284.001 140.853C282.156 140.853 280.654 142.353 280.654 144.2V183.083C280.654 184.929 282.156 186.43 284.001 186.43H340.794C342.64 186.43 344.141 184.93 344.141 183.083V144.2C344.141 142.355 342.64 140.853 340.794 140.853H284.001Z" fill="#263238"/>
<path d="M298.668 206.181C298.668 199.409 304.158 193.919 310.929 193.919C317.701 193.919 323.191 199.409 323.191 206.181H298.668Z" fill="#263238"/>
<path d="M327.613 201.997H303.089V205.984H352.137V204.345L327.613 201.997Z" fill="#263238"/>
<path opacity="0.8" d="M327.613 201.997H303.089V205.984H352.137V204.345L327.613 201.997Z" fill="white"/>
<path d="M327.613 205.984H303.089V201.997L327.613 204.345V205.984Z" fill="#263238"/>
<path opacity="0.6" d="M327.613 205.984H303.089V201.997L327.613 204.345V205.984Z" fill="white"/>
<path d="M381.688 343.003H331.09C326.844 343.003 323.403 339.562 323.403 335.317V219.006C323.403 214.76 326.844 211.319 331.09 211.319H381.688C382.822 211.319 383.743 212.24 383.743 213.374C383.743 214.509 382.822 215.428 381.688 215.428H331.09C329.114 215.428 327.512 217.03 327.512 219.006V335.317C327.512 337.293 329.114 338.894 331.09 338.894H381.688C382.822 338.894 383.743 339.814 383.743 340.949C383.743 342.083 382.822 343.003 381.688 343.003Z" fill="#263238"/>
<g opacity="0.5">
<path d="M381.688 343.003H331.09C326.844 343.003 323.403 339.562 323.403 335.317V219.006C323.403 214.76 326.844 211.319 331.09 211.319H381.688C382.822 211.319 383.743 212.24 383.743 213.374C383.743 214.509 382.822 215.428 381.688 215.428H331.09C329.114 215.428 327.512 217.03 327.512 219.006V335.317C327.512 337.293 329.114 338.894 331.09 338.894H381.688C382.822 338.894 383.743 339.814 383.743 340.949C383.743 342.083 382.822 343.003 381.688 343.003Z" fill="white"/>
</g>
<path d="M330.884 205.983H259.052V212.004H330.884V205.983Z" fill="#263238"/>
<path opacity="0.2" d="M330.884 205.983H259.052V212.004H330.884V205.983Z" fill="white"/>
<path d="M388.879 205.983H327.613V212.004H388.879V205.983Z" fill="#263238"/>
<path opacity="0.5" d="M388.879 205.983H327.613V212.004H388.879V205.983Z" fill="white"/>
<path d="M367.391 300.328L370.791 334.626H362.661L354.53 301.215L367.391 300.328Z" fill="#EEC1BB"/>
<path d="M361.899 332.387L372.267 332.564C372.658 332.571 372.992 332.847 373.071 333.23L374.801 341.697C374.96 342.447 374.481 343.183 373.732 343.343C373.636 343.363 373.537 343.373 373.439 343.373C369.703 343.244 366.382 342.983 361.73 342.909C356.239 342.818 357.621 343.498 351.164 343.48C347.273 343.465 346.637 339.032 348.29 338.842C355.855 338.02 356.678 335.754 359.635 333.102C360.275 332.595 361.082 332.34 361.899 332.387Z" fill="#263238"/>
<path opacity="0.1" d="M369.903 325.673L367.391 300.328L354.53 301.215L360.482 325.673H369.903Z" fill="black"/>
<path d="M423.026 221.236L389.701 222.431C389.701 222.431 344.859 238.107 343.601 250.212C342.31 262.631 357.388 319.695 357.388 319.695H370.778C370.778 319.695 367.086 277.819 365.668 264.995C364.249 252.171 412.384 256.421 420.739 245.481C428.43 235.41 423.026 221.236 423.026 221.236Z" fill="#263238"/>
<path opacity="0.2" d="M423.026 221.236L389.701 222.431C389.701 222.431 344.859 238.107 343.601 250.212C342.31 262.631 357.388 319.695 357.388 319.695H370.778C370.778 319.695 367.086 277.819 365.668 264.995C364.249 252.171 412.384 256.421 420.739 245.481C428.43 235.41 423.026 221.236 423.026 221.236Z" fill="#0D3885"/>
<path d="M373.057 317.773L373.352 322.503H356.795L355.169 317.773H373.057Z" fill="#213348"/>
<path d="M336.394 301.954L337.282 334.625H329.299L324.567 301.954H336.394Z" fill="#EEC1BB"/>
<path d="M328.192 332.386L338.561 332.564C338.952 332.571 339.285 332.847 339.365 333.229L341.095 341.696C341.254 342.446 340.775 343.183 340.026 343.342C339.93 343.362 339.831 343.373 339.734 343.373C335.997 343.244 332.677 342.983 328.024 342.909C322.533 342.817 323.915 343.497 317.457 343.48C313.566 343.464 312.93 339.031 314.583 338.841C322.148 338.019 322.971 335.753 325.928 333.101C326.568 332.594 327.375 332.339 328.192 332.386Z" fill="#263238"/>
<path opacity="0.1" d="M337.038 325.645L336.394 301.954H324.567L328.001 325.671C330.574 325.679 334.117 325.663 337.038 325.645Z" fill="black"/>
<path d="M408.538 223.995C408.538 223.995 411.304 249.324 385.528 250.506C359.752 251.689 339.647 254.646 339.055 263.811C338.464 272.977 339.055 319.693 339.055 319.693H325.047C325.047 319.693 319.597 290.161 317.472 271.844C315.408 254.054 311.641 241.158 329.891 235.132C349.293 228.725 383.787 222.805 383.787 222.805L408.626 221.235L408.538 223.995Z" fill="#213348"/>
<path d="M341.125 317.772L340.238 322.503H324.864L323.236 317.772H341.125Z" fill="#213348"/>
<path d="M414.13 151.314C414.13 151.314 414.127 145.597 402.589 146.258C390.338 146.96 392.645 152.437 392.645 152.437L414.13 151.314Z" fill="#263238"/>
<path opacity="0.3" d="M414.13 151.314C414.13 151.314 414.127 145.597 402.589 146.258C390.338 146.96 392.645 152.437 392.645 152.437L414.13 151.314Z" fill="black"/>
<path d="M424.844 176.903C424.07 188.183 424.335 222.125 424.335 222.125C424.335 222.125 399.713 223.743 380.333 223.114L378.086 157.821C378.086 155.496 379.53 153.381 381.775 152.509C387.247 150.381 400.089 147.973 420.178 150.61C427.107 151.52 425.758 163.567 424.844 176.903Z" fill="#5EA813"/>
<path d="M382.044 176.466C382.044 176.466 372.471 200.181 363.107 202.746C353.743 205.311 339.61 203.227 339.61 203.227L335.243 204.421L330.963 203.785C330.915 203.778 330.865 203.773 330.815 203.772L325.979 203.66C325.156 203.642 324.701 202.837 325.157 202.208L326.894 199.813C327.03 199.627 327.231 199.483 327.464 199.408L332.063 197.927C332.244 197.868 332.437 197.853 332.623 197.882L339.653 198.997C339.653 198.997 359.201 195.795 361.19 193.981C363.179 192.168 369.072 173.209 369.072 173.209L382.044 176.466Z" fill="#EEC1BB"/>
<path opacity="0.1" d="M381.796 165.435C381.796 165.435 380.313 167.199 378.498 169.762L379.148 188.661C386.343 185.487 389.196 166.956 389.196 166.956L384.525 163.641L381.796 165.435Z" fill="black"/>
<path d="M387.819 152.98C380.868 150.698 371.088 155.92 367.342 177.807L381.774 182.019C381.774 182.019 397.756 156.241 387.819 152.98Z" fill="#5EA813"/>
<path d="M397.011 262.803H386.152V294.634H397.011V262.803Z" fill="#263238"/>
<path opacity="0.6" d="M397.011 262.803H386.152V294.634H397.011V262.803Z" fill="white"/>
<path d="M398.697 323.469V283.025H384.467V323.469L352.074 327.963V332.456L391.582 329.086L431.089 332.456V327.963L398.697 323.469Z" fill="#263238"/>
<path d="M351.604 343.48C353.969 343.48 355.887 341.563 355.887 339.197C355.887 336.832 353.969 334.915 351.604 334.915C349.239 334.915 347.321 336.832 347.321 339.197C347.321 341.563 349.239 343.48 351.604 343.48Z" fill="#263238"/>
<path d="M431.089 343.48C433.455 343.48 435.372 341.563 435.372 339.197C435.372 336.832 433.455 334.915 431.089 334.915C428.724 334.915 426.807 336.832 426.807 339.197C426.807 341.563 428.724 343.48 431.089 343.48Z" fill="#263238"/>
<path d="M391.582 343.48C393.947 343.48 395.864 341.563 395.864 339.197C395.864 336.832 393.947 334.915 391.582 334.915C389.216 334.915 387.299 336.832 387.299 339.197C387.299 341.563 389.216 343.48 391.582 343.48Z" fill="#263238"/>
<path opacity="0.3" d="M397.011 262.803H386.152V270.668H397.011V262.803Z" fill="black"/>
<path d="M434.515 190.662H399.13C393.367 190.662 388.551 195.049 388.015 200.787L385.027 232.762C384.346 240.045 378.421 245.723 371.116 246.094L336.969 247.824C332.817 248.034 329.56 251.462 329.56 255.618V256.339C329.56 259.909 332.455 262.804 336.025 262.804H382.221H391.582H440.03L445.63 202.865C446.242 196.317 441.09 190.662 434.515 190.662Z" fill="#263238"/>
<path opacity="0.3" d="M434.515 190.662H399.13C393.367 190.662 388.551 195.049 388.015 200.787L385.027 232.762C384.346 240.045 378.421 245.723 371.116 246.094L336.969 247.824C332.817 248.034 329.56 251.462 329.56 255.618V256.339C329.56 259.909 332.455 262.804 336.025 262.804H382.221H391.582H440.03L445.63 202.865C446.242 196.317 441.09 190.662 434.515 190.662Z" fill="white"/>
<path d="M355.814 254.565H355.637C354.342 254.565 353.291 253.516 353.291 252.219V226.733H358.16V252.219C358.16 253.514 357.109 254.565 355.814 254.565Z" fill="#263238"/>
<path opacity="0.2" d="M355.814 254.565H355.637C354.342 254.565 353.291 253.516 353.291 252.219V226.733H358.16V252.219C358.16 253.514 357.109 254.565 355.814 254.565Z" fill="white"/>
<path d="M376.79 219.364H365.93V228.351H376.79C379.272 228.351 381.284 226.339 381.284 223.857C381.283 221.376 379.27 219.364 376.79 219.364Z" fill="#263238"/>
<path opacity="0.5" d="M376.79 219.364H365.93V228.351H376.79C379.272 228.351 381.284 226.339 381.284 223.857C381.283 221.376 379.27 219.364 376.79 219.364Z" fill="white"/>
<path d="M372.46 228.351H334.497C332.106 228.351 330.167 226.412 330.167 224.021V223.694C330.167 221.302 332.106 219.364 334.497 219.364H372.46C374.851 219.364 376.79 221.302 376.79 223.694V224.021C376.79 226.412 374.85 228.351 372.46 228.351Z" fill="#263238"/>
<path opacity="0.3" d="M372.46 228.351H334.497C332.106 228.351 330.167 226.412 330.167 224.021V223.694C330.167 221.302 332.106 219.364 334.497 219.364H372.46C374.851 219.364 376.79 221.302 376.79 223.694V224.021C376.79 226.412 374.85 228.351 372.46 228.351Z" fill="white"/>
<path d="M442.476 262.803H390.458L396.253 200.787C396.789 195.049 401.605 190.662 407.368 190.662H442.753C449.329 190.662 454.48 196.317 453.869 202.864L448.807 257.035C448.502 260.305 445.759 262.803 442.476 262.803Z" fill="#263238"/>
<path opacity="0.5" d="M442.476 262.803H390.458L396.253 200.787C396.789 195.049 401.605 190.662 407.368 190.662H442.753C449.329 190.662 454.48 196.317 453.869 202.864L448.807 257.035C448.502 260.305 445.759 262.803 442.476 262.803Z" fill="white"/>
<path d="M320.957 343.003H270.358C266.113 343.003 262.672 339.562 262.672 335.317V219.006C262.672 214.76 266.113 211.319 270.358 211.319H320.957C322.091 211.319 323.011 212.24 323.011 213.374C323.011 214.509 322.091 215.428 320.957 215.428H270.358C268.382 215.428 266.781 217.03 266.781 219.006V335.317C266.781 337.293 268.382 338.894 270.358 338.894H320.957C322.091 338.894 323.011 339.814 323.011 340.949C323.011 342.083 322.092 343.003 320.957 343.003Z" fill="#263238"/>
<g opacity="0.5">
<path d="M320.957 343.003H270.358C266.113 343.003 262.672 339.562 262.672 335.317V219.006C262.672 214.76 266.113 211.319 270.358 211.319H320.957C322.091 211.319 323.011 212.24 323.011 213.374C323.011 214.509 322.091 215.428 320.957 215.428H270.358C268.382 215.428 266.781 217.03 266.781 219.006V335.317C266.781 337.293 268.382 338.894 270.358 338.894H320.957C322.091 338.894 323.011 339.814 323.011 340.949C323.011 342.083 322.092 343.003 320.957 343.003Z" fill="white"/>
</g>
<path d="M287.521 150.117L283.958 147.753C283.576 147.499 283.576 146.939 283.958 146.685L287.521 144.321C287.787 144.145 288.145 144.217 288.321 144.483C288.497 144.75 288.426 145.108 288.159 145.284L285.244 147.218L288.159 149.153C288.425 149.329 288.497 149.689 288.321 149.954C288.144 150.22 287.786 150.293 287.521 150.117Z" fill="#FFCA3A"/>
<path d="M295.307 149.955C295.131 149.689 295.202 149.331 295.469 149.154L298.384 147.22L295.469 145.285C295.202 145.109 295.131 144.75 295.307 144.484C295.483 144.219 295.842 144.146 296.108 144.322L299.669 146.687C300.051 146.94 300.051 147.5 299.669 147.754L296.106 150.118C295.842 150.293 295.484 150.22 295.307 149.955Z" fill="#FFCA3A"/>
<path d="M290.487 151.493C290.183 151.397 290.014 151.073 290.111 150.768L292.536 143.086C292.632 142.782 292.956 142.613 293.26 142.709C293.564 142.805 293.734 143.129 293.637 143.435L291.212 151.116C291.116 151.42 290.791 151.589 290.487 151.493Z" fill="#FFCA3A"/>
<path d="M310.421 157.412H284.281C283.944 157.412 283.671 157.14 283.671 156.803C283.671 156.466 283.944 156.194 284.281 156.194H310.421C310.757 156.194 311.03 156.466 311.03 156.803C311.03 157.14 310.758 157.412 310.421 157.412Z" fill="#FFCA3A"/>
<path d="M340.457 157.412H314.316C313.979 157.412 313.707 157.14 313.707 156.803C313.707 156.466 313.979 156.194 314.316 156.194H340.457C340.794 156.194 341.066 156.466 341.066 156.803C341.066 157.14 340.794 157.412 340.457 157.412Z" fill="#FFCA3A"/>
<path d="M299.218 162.793H284.281C283.944 162.793 283.671 162.52 283.671 162.184C283.671 161.847 283.944 161.574 284.281 161.574H299.218C299.555 161.574 299.827 161.847 299.827 162.184C299.827 162.52 299.555 162.793 299.218 162.793Z" fill="white"/>
<path d="M327.579 162.793H303.112C302.776 162.793 302.502 162.52 302.502 162.184C302.502 161.847 302.775 161.574 303.112 161.574H327.579C327.916 161.574 328.189 161.847 328.189 162.184C328.189 162.52 327.916 162.793 327.579 162.793Z" fill="white"/>
<path d="M324.102 168.175H284.282C283.945 168.175 283.672 167.902 283.672 167.565C283.672 167.23 283.945 166.956 284.282 166.956H324.102C324.439 166.956 324.711 167.228 324.711 167.565C324.71 167.901 324.438 168.175 324.102 168.175Z" fill="white"/>
<path d="M336.31 168.175H327.996C327.66 168.175 327.387 167.902 327.387 167.565C327.387 167.23 327.659 166.956 327.996 166.956H336.31C336.646 166.956 336.92 167.228 336.92 167.565C336.92 167.901 336.647 168.175 336.31 168.175Z" fill="white"/>
<path d="M302.872 173.555H284.281C283.944 173.555 283.671 173.283 283.671 172.946C283.671 172.609 283.944 172.336 284.281 172.336H302.872C303.209 172.336 303.482 172.609 303.482 172.946C303.482 173.283 303.209 173.555 302.872 173.555Z" fill="white"/>
<path d="M329.914 173.555H306.766C306.43 173.555 306.157 173.283 306.157 172.946C306.157 172.609 306.429 172.336 306.766 172.336H329.914C330.25 172.336 330.523 172.609 330.523 172.946C330.523 173.283 330.251 173.555 329.914 173.555Z" fill="white"/>
<path d="M310.421 178.935H284.281C283.944 178.935 283.671 178.663 283.671 178.326C283.671 177.989 283.944 177.717 284.281 177.717H310.421C310.757 177.717 311.03 177.989 311.03 178.326C311.03 178.663 310.758 178.935 310.421 178.935Z" fill="white"/>
<path d="M332.758 178.935H314.316C313.979 178.935 313.707 178.663 313.707 178.326C313.707 177.989 313.979 177.717 314.316 177.717H332.758C333.095 177.717 333.367 177.989 333.367 178.326C333.367 178.663 333.093 178.935 332.758 178.935Z" fill="white"/>
<path d="M105.878 73.8462C106.354 79.3746 105.158 89.3924 100.986 92.5951C107.792 95.0453 114.99 99.2776 119.604 104.849C124.167 98.2045 118.971 94.416 118.971 94.416C113.089 92.3227 113.73 87.8779 115.242 83.7806L105.878 73.8462Z" fill="#B97964"/>
<path d="M128.099 69.081C128.032 69.7713 128.356 70.3713 128.811 70.4159C129.267 70.4605 129.687 69.924 129.753 69.2337C129.82 68.5433 129.495 67.9364 129.04 67.8918C128.586 67.8471 128.181 68.3825 128.099 69.081Z" fill="#263238"/>
<path d="M128.854 67.9125L130.567 67.585C130.567 67.585 129.593 68.8482 128.854 67.9125Z" fill="#263238"/>
<path d="M128.332 69.8203C128.809 71.4674 129.508 73.0406 130.41 74.4987C129.644 74.9472 128.717 75.0341 127.88 74.7371L128.332 69.8203Z" fill="#A24E3F"/>
<path d="M130.069 65.4252C130.175 65.4123 130.274 65.3606 130.347 65.2808C130.491 65.107 130.472 64.8499 130.305 64.6997C129.325 63.8098 127.975 63.4493 126.682 63.7323C126.488 63.8508 126.427 64.1044 126.545 64.2981C126.621 64.4214 126.756 64.4965 126.901 64.4954C127.93 64.2934 128.992 64.5916 129.765 65.2996C129.842 65.3841 129.954 65.4299 130.069 65.4252Z" fill="#263238"/>
<path d="M105.29 64.6725C105.019 73.2604 104.724 76.9128 108.554 81.6969C114.319 88.8959 124.751 87.3192 127.54 78.9602C130.053 71.4395 130.079 58.624 122.183 54.4622C114.285 50.3015 105.567 56.0612 105.29 64.6725Z" fill="#B97964"/>
<path d="M105.7 80.8785C97.2538 79.4403 99.6793 74.1174 99.6793 74.1174C91.3638 72.4338 97.7833 68.373 97.7833 68.373C90.8672 65.3933 97.7833 62.7213 97.7833 62.7213C91.1149 57.1893 100.673 55.3086 100.673 55.3086C98.3139 46.6784 106.506 50.2192 106.506 50.2192C110.974 42.8065 114.817 49.887 114.817 49.887C122.642 39.2657 124.545 48.2281 124.545 48.2281C132.53 46.1255 129.467 54.5302 129.467 54.5302C136.045 56.2971 130.882 59.6231 130.882 59.6231C133.413 62.8316 124.244 63.3846 124.244 63.3846C124.244 63.3846 128.608 70.3782 124.206 72.3646L113.102 80.8773C113.102 80.8773 108.002 78.7535 105.7 80.8785Z" fill="#263238"/>
<path d="M113.995 73.9509C113.995 73.9509 119.809 59.8956 115.277 47.8386L119.155 46.5107C119.155 46.5107 124.215 63.9941 113.995 73.9509Z" fill="#5EA813"/>
<path d="M119.85 72.4077C120.822 74.4247 121.19 75.3017 122.578 75.9709C123.794 76.6541 125.334 76.2221 126.016 75.007C126.328 74.4517 126.419 73.7989 126.27 73.1791C125.904 71.1574 124.349 68.186 122.202 68.1238C120.057 68.0615 118.847 70.4084 119.85 72.4077Z" fill="#B97964"/>
<path d="M113.791 101.731C113.791 101.731 121.733 107.564 124.964 109.91L147.958 99.0614C147.895 96.4516 149.434 94.0695 151.839 93.0552L153.475 92.3648L156.943 90.8222C158.257 90.2375 159.783 90.3984 160.946 91.2448C162.322 92.2451 162.92 94.0026 162.441 95.6345C161.455 98.9898 158.782 101.584 155.4 102.472L152.046 103.351C152.046 103.351 132.317 118.321 125.3 118.713C118.283 119.104 107.938 112.153 107.938 112.153L113.791 101.731Z" fill="#B97964"/>
<path d="M94.6733 91.8317C100.745 91.8058 107.528 95.6155 118.209 102.536C118.209 102.536 116.189 110.132 109.978 115.549C109.978 115.549 104.117 113.971 96.3193 106.63C86.8826 97.7487 90.9506 91.8469 94.6733 91.8317Z" fill="#263238"/>
<path d="M209.965 109.422H152.444C150.357 109.422 148.813 107.731 148.996 105.643L153.329 56.1141C153.513 54.0267 155.352 52.335 157.438 52.335H214.959C217.046 52.335 218.59 54.0267 218.407 56.1141L214.074 105.643C213.891 107.731 212.051 109.422 209.965 109.422Z" fill="#5EA813"/>
<path opacity="0.4" d="M209.965 109.422H152.444C150.357 109.422 148.813 107.731 148.996 105.643L153.329 56.1141C153.513 54.0267 155.352 52.335 157.438 52.335H214.959C217.046 52.335 218.59 54.0267 218.407 56.1141L214.074 105.643C213.891 107.731 212.051 109.422 209.965 109.422Z" fill="white"/>
<path opacity="0.7" d="M210.171 107.073C210.959 107.073 211.658 106.432 211.726 105.643L216.059 56.1128C216.129 55.3238 215.543 54.6816 214.754 54.6816H157.233C156.444 54.6816 155.746 55.3238 155.678 56.1128L151.344 105.643C151.275 106.432 151.861 107.073 152.65 107.073H210.171Z" fill="white"/>
<path d="M170.194 77.9507L151.388 105.15L151.344 105.643C151.275 106.432 151.861 107.073 152.65 107.073H185.235L170.194 77.9507Z" fill="#5EA813"/>
<path opacity="0.3" d="M170.194 77.9507L151.388 105.15L151.344 105.643C151.275 106.432 151.861 107.073 152.65 107.073H185.235L170.194 77.9507Z" fill="white"/>
<path d="M211.893 103.743L196.146 73.8438L172.83 107.074H210.172C210.961 107.074 211.659 106.433 211.727 105.644L211.893 103.743Z" fill="#5EA813"/>
<path d="M190.065 68.5574C189.81 71.4759 187.236 73.8427 184.318 73.8427C181.399 73.8427 179.239 71.4759 179.495 68.5574C179.749 65.6376 182.324 63.272 185.243 63.272C188.161 63.272 190.32 65.6388 190.065 68.5574Z" fill="#5EA813"/>
<path opacity="0.4" d="M190.065 68.5574C189.81 71.4759 187.236 73.8427 184.318 73.8427C181.399 73.8427 179.239 71.4759 179.495 68.5574C179.749 65.6376 182.324 63.272 185.243 63.272C188.161 63.272 190.32 65.6388 190.065 68.5574Z" fill="white"/>
<path d="M46.4989 309.295L40.6582 326.624L49.6147 330.28L56.6247 314.289L46.4989 309.295Z" fill="#B97964"/>
<path d="M52.8304 329.847C52.7365 329.794 52.6836 329.692 52.6942 329.586C52.7071 329.479 52.7858 329.392 52.8914 329.368C53.0781 329.326 57.3081 328.382 58.8836 329.387C59.1783 329.569 59.3908 329.859 59.4765 330.196C59.6103 330.581 59.487 331.009 59.1677 331.264C58.5725 331.683 57.1754 331.509 55.8946 331.114C54.8368 330.78 53.813 330.356 52.8304 329.847ZM53.7226 329.763C55.5682 330.593 58.1733 331.379 58.8578 330.856C58.9528 330.794 59.062 330.667 58.974 330.308C58.9306 330.097 58.7932 329.916 58.6007 329.819C58.4621 329.729 58.3107 329.66 58.1522 329.614C56.6788 329.383 55.1761 329.434 53.7226 329.763Z" fill="#5EA813"/>
<path d="M52.7061 329.793C52.6474 329.722 52.631 329.625 52.665 329.538C52.719 329.414 53.8519 326.718 55.4979 326.044C55.9734 325.842 56.5111 325.844 56.9854 326.047C57.6369 326.321 57.7426 326.726 57.6804 327.014C57.5418 328.241 54.3744 329.712 52.9738 329.877C52.9374 329.883 52.8998 329.875 52.8693 329.855C52.8094 329.855 52.7507 329.833 52.7061 329.793ZM56.6789 326.459C56.3714 326.36 56.0368 326.377 55.7409 326.506C54.6972 327.156 53.8789 328.112 53.3964 329.243C54.9074 328.882 57.0711 327.635 57.2237 326.917C57.2249 326.848 57.2507 326.663 56.8234 326.49L56.6789 326.459Z" fill="#5EA813"/>
<path d="M52.2234 328.079L40.9705 324.605C40.5467 324.474 40.0877 324.654 39.8681 325.039L35.0077 333.566C34.571 334.32 34.8281 335.284 35.5807 335.721C35.6769 335.777 35.7791 335.823 35.8859 335.857C39.9644 337.039 43.6391 337.93 48.6873 339.495C54.6466 341.337 52.9137 341.582 59.8897 343.846C64.0938 345.205 66.3479 340.644 64.6315 339.857C56.7574 336.296 56.6706 333.56 54.4153 329.652C53.9022 328.876 53.1215 328.316 52.2234 328.079Z" fill="#263238"/>
<path opacity="0.2" d="M43.6987 317.603L53.0908 322.351L56.6246 314.289L46.4987 309.295L43.6987 317.603Z" fill="#263238"/>
<path d="M86.2125 149.018C86.2125 149.018 73.5907 158.663 76.2944 188.852C76.5445 191.645 77.4473 194.57 77.4602 197.769C77.4684 199.889 76.8767 201.38 76.1817 206.156C75.1697 213.112 73.3124 239.025 71.3601 242.394C69.4265 245.729 68.6011 245.173 63.0927 254.468C57.1663 264.467 49.5939 282.008 43.6934 311.743C43.6934 311.743 48.8191 315.746 56.8834 317.265C56.8834 317.265 89.1381 266.41 95.9943 247.475C102.128 230.534 109.439 176.471 109.439 176.471L110.03 153.031L86.2125 149.018Z" fill="#5EA813"/>
<path opacity="0.1" d="M100.02 188.852H90.8801C90.8801 188.852 87.8758 217.587 97.8056 241.567C98.8434 237.718 99.8918 233.098 100.911 228.116L104.861 202.8C104.3 198.524 103.86 195.264 103.795 195.047C103.596 194.384 100.02 188.852 100.02 188.852Z" fill="black"/>
<path d="M98.5112 316.267L98.5723 334.685L108.963 333.99L110.558 316.267H98.5112Z" fill="#B97964"/>
<path d="M110.161 333.682C110.055 333.664 109.972 333.584 109.947 333.48C109.924 333.375 109.97 333.267 110.061 333.21C110.223 333.11 113.909 330.827 115.726 331.257C116.065 331.332 116.361 331.536 116.551 331.826C116.805 332.146 116.828 332.591 116.61 332.936C116.186 333.527 114.81 333.822 113.47 333.87C112.364 333.904 111.257 333.841 110.161 333.682ZM110.976 333.31C112.991 333.486 115.71 333.372 116.185 332.653C116.254 332.564 116.315 332.407 116.115 332.096C116.004 331.911 115.815 331.786 115.6 331.757C115.44 331.718 115.275 331.702 115.11 331.711C113.643 331.979 112.24 332.521 110.976 333.31Z" fill="#5EA813"/>
<path d="M110.025 333.672C109.946 333.625 109.899 333.537 109.901 333.445C109.911 333.309 110.095 330.392 111.428 329.213C111.81 328.865 112.319 328.69 112.834 328.726C113.54 328.771 113.772 329.119 113.81 329.41C114.083 330.615 111.576 333.045 110.306 333.662C110.274 333.68 110.236 333.685 110.201 333.675C110.143 333.698 110.081 333.695 110.025 333.672ZM112.68 329.216C112.357 329.225 112.048 329.35 111.809 329.569C111.038 330.527 110.58 331.698 110.495 332.925C111.803 332.087 113.438 330.198 113.345 329.469C113.324 329.404 113.286 329.22 112.826 329.198L112.68 329.216Z" fill="#5EA813"/>
<path d="M109.006 332.212L97.2373 332.633C96.7935 332.648 96.4202 332.97 96.3392 333.406L94.5535 343.057C94.3892 343.911 94.9492 344.738 95.8039 344.902C95.913 344.923 96.0246 344.933 96.1373 344.93C100.377 344.705 104.142 344.338 109.424 344.157C115.656 343.936 114.102 344.738 121.434 344.581C125.851 344.481 126.48 339.434 124.599 339.253C115.992 338.48 115.009 335.926 111.594 332.977C110.853 332.413 109.933 332.141 109.006 332.212Z" fill="#263238"/>
<path opacity="0.2" d="M98.5429 325.794L109.722 325.561L110.558 316.267H98.5112L98.5429 325.794Z" fill="#263238"/>
<path d="M93.2378 145.638C93.2378 145.638 80.6466 162.319 89.9729 194.985L100.503 242.63C100.503 242.63 90.4813 264.307 95.7713 321.48C95.7713 321.48 103.729 322.754 111.321 321.133C111.321 321.133 123.046 260.749 124.83 240.351C126.795 217.888 125.618 150.156 125.618 150.156L93.2378 145.638Z" fill="#5EA813"/>
<path d="M100.851 91.5993C100.851 91.5993 98.8998 83.2592 111.41 86.908C123.92 90.5568 122.878 97.6807 122.878 97.6807L100.851 91.5993Z" fill="#263238"/>
<path opacity="0.4" d="M100.851 91.5993C100.851 91.5993 98.8998 83.2592 111.41 86.908C123.92 90.5568 122.878 97.6807 122.878 97.6807L100.851 91.5993Z" fill="black"/>
<path d="M131.891 112.448C131.891 115.371 130.659 119.597 129.555 124.329C129.015 126.571 128.522 128.907 128.193 131.279C126.421 144.205 125.845 157.8 125.845 157.8C125.845 157.8 105.394 163.541 85.5298 149.805C85.5298 149.805 90.4489 145.637 89.4392 116.768C88.9814 103.76 84.2853 88.2983 105.781 90.7285C123.932 92.783 130.036 98.4182 131.504 107.235C131.516 107.341 131.539 107.458 131.563 107.576C131.598 107.846 131.633 108.116 131.668 108.397C131.821 109.677 131.891 111.039 131.891 112.448Z" fill="#263238"/>
<path opacity="0.4" d="M131.892 112.448C131.892 115.371 130.659 119.598 129.555 124.329C124.648 118.424 119.729 107.364 119.729 107.364L123.779 101.4L130.917 104.723C131.164 105.533 131.352 106.366 131.504 107.235C131.516 107.341 131.54 107.458 131.563 107.576C131.598 107.846 131.633 108.116 131.669 108.397C131.821 109.677 131.892 111.039 131.892 112.448Z" fill="black"/>
<path d="M139.306 107.348C139.306 107.348 146.291 114.299 149.136 117.1L173.489 109.798C173.816 107.208 175.693 105.082 178.222 104.437L179.942 103.998L183.601 102.99C184.988 102.607 186.473 102.994 187.497 104.004C188.708 105.198 189.038 107.025 188.321 108.567C186.846 111.738 183.817 113.907 180.34 114.279L176.893 114.649C176.893 114.649 155.155 126.513 148.158 125.855C141.161 125.196 131.968 116.782 131.968 116.782L139.306 107.348Z" fill="#B97964"/>
<path d="M121.876 94.7107C127.884 95.59 134.022 100.367 143.554 108.802C143.554 108.802 140.427 116.013 133.477 120.444C133.477 120.444 127.916 118.011 121.299 109.59C113.292 99.4009 118.193 94.1718 121.876 94.7107Z" fill="#263238"/>
<g clip-path="url(#clip0_80_12580)">
<path d="M227.63 363.7C353.34 363.7 455.26 357.75 455.26 350.41C455.26 343.07 353.35 337.12 227.63 337.12C101.91 337.12 0 343.07 0 350.41C0 357.75 101.91 363.7 227.63 363.7Z" fill="#F5F5F5"/>
<path d="M283.36 6.72021H255.2C253.36 6.72021 251.68 8.09022 251.29 9.92022L251.1 10.8002C250.14 15.2702 246.04 18.6102 241.54 18.6102H214.77C210.27 18.6102 206.76 15.2602 206.58 10.8002L206.54 9.92022C206.47 8.09022 205.03 6.72021 203.19 6.72021H175.03C165.64 6.72021 157.36 14.3302 156.54 23.7202L133.89 282.63C133.07 292.02 140.01 299.63 149.4 299.63H257.73C267.12 299.63 275.4 292.02 276.22 282.63L298.87 23.7202C299.69 14.3302 292.74 6.72021 283.35 6.72021H283.36Z" fill="#474748"/>
<path opacity="0.7" d="M283.36 6.72021H255.2C253.36 6.72021 251.68 8.09022 251.29 9.92022L251.1 10.8002C250.14 15.2702 246.04 18.6102 241.54 18.6102H214.77C210.27 18.6102 206.76 15.2602 206.58 10.8002L206.54 9.92022C206.47 8.09022 205.03 6.72021 203.19 6.72021H175.03C165.64 6.72021 157.36 14.3302 156.54 23.7202L133.89 282.63C133.07 292.02 140.01 299.63 149.4 299.63H257.73C267.12 299.63 275.4 292.02 276.22 282.63L298.87 23.7202C299.69 14.3302 292.74 6.72021 283.35 6.72021H283.36Z" fill="white"/>
<path d="M272.38 125.8H214.86C212.77 125.8 211.23 124.11 211.41 122.02L215.74 72.49C215.92 70.4 217.76 68.71 219.85 68.71H277.37C279.46 68.71 281 70.4 280.82 72.49L276.49 122.02C276.31 124.11 274.47 125.8 272.38 125.8Z" fill="white"/>
<path d="M253.23 280.68H156.98C151.8 280.68 147.97 276.48 148.42 271.3C148.87 266.12 153.44 261.92 158.62 261.92H254.87C260.05 261.92 263.88 266.12 263.43 271.3C262.98 276.48 258.41 280.68 253.23 280.68Z" fill="white"/>
<path d="M260.92 55.1001H172.6C169.69 55.1001 167.54 52.7401 167.79 49.8301L168.51 41.6001C168.76 38.6901 171.33 36.3301 174.24 36.3301H262.56C265.47 36.3301 267.62 38.6901 267.37 41.6001L266.65 49.8301C266.39 52.7401 263.83 55.1001 260.92 55.1001Z" fill="white"/>
<path d="M278.88 41.3299C278.81 42.1399 278.1 42.7999 277.28 42.7999C276.46 42.7999 275.87 42.1399 275.94 41.3299C276.01 40.5199 276.73 39.8599 277.53 39.8599C278.33 39.8599 278.94 40.5199 278.87 41.3299H278.88Z" fill="white"/>
<path d="M278.49 45.72C278.42 46.53 277.71 47.19 276.9 47.19C276.09 47.19 275.49 46.53 275.56 45.72C275.63 44.91 276.34 44.25 277.15 44.25C277.96 44.25 278.56 44.91 278.49 45.72Z" fill="white"/>
<path d="M278.11 50.0999C278.04 50.9099 277.33 51.5699 276.52 51.5699C275.71 51.5699 275.11 50.9099 275.18 50.0999C275.25 49.2899 275.96 48.6299 276.77 48.6299C277.58 48.6299 278.18 49.2899 278.11 50.0999Z" fill="white"/>
<path d="M265.23 207.52H157.77C155.68 207.52 154.14 205.83 154.32 203.74L159.27 147.21C159.45 145.12 161.29 143.43 163.38 143.43H270.84C272.93 143.43 274.47 145.12 274.29 147.21L269.34 203.74C269.16 205.83 267.32 207.52 265.23 207.52Z" fill="white"/>
<path d="M187.34 219.33H153.88C153.37 219.33 152.99 218.92 153.04 218.41C153.08 217.9 153.53 217.49 154.04 217.49H187.49C188 217.49 188.38 217.9 188.33 218.41C188.29 218.92 187.84 219.33 187.33 219.33H187.34Z" fill="white"/>
<path d="M229.15 219.33H193.23C192.72 219.33 192.34 218.92 192.39 218.41C192.43 217.9 192.88 217.49 193.39 217.49H229.3C229.81 217.49 230.19 217.9 230.14 218.41C230.1 218.92 229.65 219.33 229.14 219.33H229.15Z" fill="white"/>
<path d="M175.8 227.49H153.17C152.66 227.49 152.28 227.08 152.33 226.57C152.37 226.06 152.82 225.65 153.33 225.65H175.96C176.47 225.65 176.85 226.06 176.8 226.57C176.76 227.08 176.31 227.49 175.8 227.49Z" fill="white"/>
<path d="M218.77 227.49H181.7C181.19 227.49 180.81 227.08 180.86 226.57C180.9 226.06 181.35 225.65 181.86 225.65H218.93C219.44 225.65 219.82 226.06 219.77 226.57C219.73 227.08 219.28 227.49 218.77 227.49Z" fill="white"/>
<path d="M212.79 235.64H152.46C151.95 235.64 151.57 235.23 151.62 234.72C151.66 234.21 152.11 233.8 152.62 233.8H212.95C213.46 233.8 213.84 234.21 213.79 234.72C213.75 235.23 213.3 235.64 212.79 235.64Z" fill="white"/>
<path d="M222.68 235.64H218.7C218.19 235.64 217.81 235.23 217.86 234.72C217.9 234.21 218.35 233.8 218.86 233.8H222.84C223.35 233.8 223.73 234.21 223.68 234.72C223.64 235.23 223.19 235.64 222.68 235.64Z" fill="white"/>
<path d="M179.91 243.79H151.74C151.23 243.79 150.85 243.38 150.9 242.87C150.94 242.36 151.39 241.95 151.9 241.95H180.07C180.58 241.95 180.96 242.36 180.91 242.87C180.87 243.38 180.42 243.79 179.91 243.79Z" fill="white"/>
<path d="M220.88 243.79H185.81C185.3 243.79 184.92 243.38 184.97 242.87C185.02 242.36 185.47 241.95 185.97 241.95H221.04C221.55 241.95 221.93 242.36 221.88 242.87C221.84 243.38 221.39 243.79 220.88 243.79Z" fill="white"/>
<path d="M185.71 251.95H151.03C150.52 251.95 150.14 251.54 150.19 251.03C150.23 250.52 150.68 250.11 151.19 250.11H185.88C186.39 250.11 186.77 250.52 186.72 251.03C186.68 251.54 186.23 251.95 185.72 251.95H185.71Z" fill="white"/>
<path d="M219.56 251.95H191.62C191.11 251.95 190.73 251.54 190.78 251.03C190.82 250.52 191.27 250.11 191.78 250.11H219.72C220.23 250.11 220.61 250.52 220.56 251.03C220.52 251.54 220.07 251.95 219.56 251.95Z" fill="white"/>
<path d="M271.02 121.11C270.55 121.6 269.8 121.64 269.35 121.21L221.3 75.35C220.85 74.92 220.87 74.18 221.34 73.69C221.81 73.2 222.56 73.16 223.01 73.59L271.06 119.45C271.51 119.88 271.49 120.62 271.02 121.11Z" fill="#5EA813"/>
<path d="M217.05 121.1C216.66 120.61 216.78 119.87 217.3 119.44L241.81 99.4C242.33 98.97 243.07 99.02 243.46 99.5C243.85 99.99 243.74 100.73 243.21 101.16L218.7 121.2C218.18 121.63 217.44 121.58 217.05 121.1Z" fill="#5EA813"/>
<path d="M248.73 95.1898C248.34 94.6998 248.45 93.9598 248.98 93.5298L273.53 73.4498C274.05 73.0198 274.79 73.0698 275.18 73.5498C275.57 74.0398 275.45 74.7798 274.93 75.2098L250.38 95.2898C249.86 95.7198 249.12 95.6698 248.73 95.1898Z" fill="#5EA813"/>
<path d="M271.02 121.11C270.55 121.6 269.8 121.64 269.35 121.21L221.3 75.35C220.85 74.92 220.87 74.18 221.34 73.69C221.81 73.2 222.56 73.16 223.01 73.59L271.06 119.45C271.51 119.88 271.49 120.62 271.02 121.11Z" fill="#D3D3D3"/>
<path d="M217.05 121.1C216.66 120.61 216.78 119.87 217.3 119.44L241.81 99.4C242.33 98.97 243.07 99.02 243.46 99.5C243.85 99.99 243.74 100.73 243.21 101.16L218.7 121.2C218.18 121.63 217.44 121.58 217.05 121.1Z" fill="#D3D3D3"/>
<path d="M248.73 95.1898C248.34 94.6998 248.45 93.9598 248.98 93.5298L273.53 73.4498C274.05 73.0198 274.79 73.0698 275.18 73.5498C275.57 74.0398 275.45 74.7798 274.93 75.2098L250.38 95.2898C249.86 95.7198 249.12 95.6698 248.73 95.1898Z" fill="#D3D3D3"/>
<path d="M134.37 1.08984H119.16C116.08 1.08984 113.58 3.58984 113.58 6.66984V21.8798C113.58 24.9598 116.08 27.4598 119.16 27.4598H134.37C137.45 27.4598 139.95 24.9598 139.95 21.8798V6.66984C139.95 3.58984 137.45 1.08984 134.37 1.08984ZM126.77 6.48984C129.07 6.48984 130.3 8.34984 130.3 10.6498C130.3 12.9498 129.07 14.8098 126.77 14.8098C124.47 14.8098 123.24 12.9498 123.24 10.6498C123.24 8.34984 124.47 6.48984 126.77 6.48984ZM135.95 22.0698H117.59C117.44 22.0698 117.3 22.0098 117.2 21.9098L118.38 18.6998C119.14 16.6298 121.11 15.2598 123.31 15.2598H130.24C132.44 15.2598 134.41 16.6398 135.17 18.6998L136.35 21.9098C136.25 22.0098 136.11 22.0698 135.96 22.0698H135.95Z" fill="#FFEED6"/>
<path d="M80.2702 63.6299H68.7202C64.5702 63.6299 61.2002 66.9999 61.2002 71.1499V82.6999C61.2002 86.8499 64.5702 90.2199 68.7202 90.2199H80.2702C84.4202 90.2199 87.7902 86.8499 87.7902 82.6999V71.1499C87.7902 66.9999 84.4202 63.6299 80.2702 63.6299ZM74.4902 83.2299C74.4902 83.2299 69.7402 78.0699 69.7402 75.4499C69.7402 72.8299 71.8602 70.6999 74.4902 70.6999C77.1202 70.6999 79.2402 72.8199 79.2402 75.4499C79.2402 78.0699 74.4902 83.2299 74.4902 83.2299Z" fill="#FAE0D8"/>
<path d="M74.4898 73.2798C73.2898 73.2798 72.3198 74.2498 72.3198 75.4498C72.3198 76.6498 73.2898 77.6198 74.4898 77.6198C75.6898 77.6198 76.6598 76.6498 76.6598 75.4498C76.6598 74.2498 75.6898 73.2798 74.4898 73.2798Z" fill="#FAE0D8"/>
<path d="M333.9 30.8901L341.64 25.8801L333.9 20.8701V30.8901Z" fill="#D3D3D3"/>
<path d="M343.87 12.23H329.13C325.66 12.23 322.85 15.04 322.85 18.51V33.25C322.85 36.72 325.66 39.53 329.13 39.53H343.87C347.34 39.53 350.15 36.72 350.15 33.25V18.51C350.15 15.04 347.34 12.23 343.87 12.23ZM336.5 35.7C331.08 35.7 326.68 31.3 326.68 25.88C326.68 20.46 331.08 16.06 336.5 16.06C341.92 16.06 346.32 20.46 346.32 25.88C346.32 31.3 341.92 35.7 336.5 35.7Z" fill="#D3D3D3"/>
<path d="M358.34 68.7898C358.34 68.4798 358.32 68.1798 358.3 67.8898L360.07 66.9098C359.94 66.0598 359.71 65.2398 359.41 64.4498L357.39 64.4798C357.13 63.9298 356.83 63.4098 356.48 62.9098L357.52 61.1698C356.98 60.5098 356.38 59.9098 355.72 59.3698L353.98 60.4098C353.49 60.0598 352.96 59.7598 352.41 59.4998L352.44 57.4798C351.66 57.1798 350.84 56.9498 349.98 56.8198L349 58.5898C348.7 58.5598 348.4 58.5498 348.1 58.5498C347.8 58.5498 347.49 58.5698 347.2 58.5898L346.22 56.8198C345.37 56.9498 344.55 57.1798 343.76 57.4798L343.79 59.4998C343.24 59.7598 342.72 60.0598 342.22 60.4098L340.48 59.3698C339.82 59.9098 339.22 60.5098 338.68 61.1698L339.72 62.9098C339.37 63.3998 339.07 63.9298 338.81 64.4798L336.79 64.4498C336.49 65.2298 336.26 66.0498 336.13 66.9098L337.9 67.8898C337.87 68.1898 337.86 68.4898 337.86 68.7898C337.86 69.0898 337.88 69.3998 337.9 69.6898L336.13 70.6698C336.26 71.5198 336.49 72.3398 336.79 73.1298L338.81 73.0998C339.07 73.6498 339.37 74.1698 339.72 74.6698L338.68 76.4098C339.22 77.0698 339.82 77.6698 340.48 78.2098L342.22 77.1698C342.71 77.5198 343.23 77.8198 343.79 78.0798L343.76 80.0998C344.54 80.3998 345.36 80.6298 346.22 80.7598L347.2 78.9898C347.5 79.0198 347.8 79.0298 348.1 79.0298C348.4 79.0298 348.71 79.0098 349 78.9898L349.98 80.7598C350.83 80.6298 351.65 80.3998 352.44 80.0998L352.41 78.0798C352.96 77.8198 353.48 77.5198 353.98 77.1698L355.72 78.2098C356.38 77.6698 356.99 77.0698 357.52 76.4098L356.48 74.6698C356.83 74.1798 357.13 73.6498 357.39 73.0998L359.41 73.1298C359.71 72.3498 359.94 71.5298 360.07 70.6698L358.3 69.6898C358.33 69.3898 358.34 69.0898 358.34 68.7798V68.7898ZM348.11 75.7398C344.27 75.7398 341.16 72.6298 341.16 68.7898C341.16 64.9498 344.27 61.8398 348.11 61.8398C351.95 61.8398 355.06 64.9498 355.06 68.7898C355.06 72.6298 351.95 75.7398 348.11 75.7398Z" fill="#FFC938"/>
<path d="M331.59 103.69C331.59 103.23 331.57 102.78 331.53 102.34L334.18 100.87C333.98 99.6 333.64 98.37 333.19 97.19L330.16 97.24C329.78 96.42 329.32 95.63 328.8 94.9L330.36 92.3C329.56 91.31 328.66 90.41 327.67 89.61L325.07 91.17C324.33 90.65 323.55 90.2 322.73 89.81L322.78 86.78C321.61 86.33 320.38 85.99 319.1 85.79L317.63 88.44C317.18 88.4 316.73 88.38 316.28 88.38C315.83 88.38 315.37 88.4 314.93 88.44L313.46 85.79C312.19 85.99 310.96 86.33 309.78 86.78L309.83 89.81C309.01 90.19 308.22 90.65 307.49 91.17L304.89 89.61C303.9 90.41 303 91.31 302.2 92.3L303.76 94.9C303.24 95.64 302.79 96.42 302.4 97.24L299.37 97.19C298.92 98.36 298.58 99.59 298.38 100.87L301.03 102.34C300.99 102.79 300.97 103.24 300.97 103.69C300.97 104.14 300.99 104.6 301.03 105.04L298.38 106.51C298.58 107.79 298.92 109.01 299.37 110.19L302.4 110.14C302.78 110.96 303.24 111.75 303.76 112.48L302.2 115.08C303 116.07 303.9 116.97 304.89 117.77L307.49 116.21C308.23 116.73 309.01 117.18 309.83 117.57L309.78 120.6C310.95 121.05 312.18 121.39 313.46 121.59L314.93 118.94C315.38 118.98 315.83 119 316.28 119C316.73 119 317.19 118.98 317.63 118.94L319.1 121.59C320.37 121.39 321.6 121.06 322.78 120.6L322.73 117.57C323.55 117.19 324.34 116.73 325.07 116.21L327.67 117.77C328.66 116.97 329.56 116.07 330.36 115.08L328.8 112.48C329.32 111.74 329.77 110.96 330.16 110.14L333.19 110.19C333.64 109.02 333.98 107.79 334.18 106.51L331.53 105.04C331.57 104.59 331.59 104.15 331.59 103.69ZM316.29 109.72C312.96 109.72 310.26 107.02 310.26 103.69C310.26 100.36 312.96 97.66 316.29 97.66C319.62 97.66 322.32 100.36 322.32 103.69C322.32 107.02 319.62 109.72 316.29 109.72Z" fill="#014F81"/>
<path d="M288.43 35.6199V41.7699L282.58 44.8599C281.57 45.3999 281.57 46.8499 282.58 47.3799L288.43 50.4699V56.6199C288.43 57.9899 289.54 59.1099 290.92 59.1099H311.92C313.29 59.1099 314.4 57.9999 314.4 56.6199V35.6199C314.4 34.2499 313.29 33.1299 311.92 33.1299H290.92C289.55 33.1299 288.43 34.2399 288.43 35.6199Z" fill="#474748"/>
<g opacity="0.9">
<path d="M295.66 42.0298H307.59C308.4 42.0298 309.06 41.3698 309.06 40.5598C309.06 39.7498 308.4 39.0898 307.59 39.0898H295.66C294.85 39.0898 294.19 39.7498 294.19 40.5598C294.19 41.3698 294.85 42.0298 295.66 42.0298Z" fill="white"/>
<path d="M307.59 44.6499H295.66C294.85 44.6499 294.19 45.3099 294.19 46.1199C294.19 46.9299 294.85 47.5899 295.66 47.5899H307.59C308.4 47.5899 309.06 46.9299 309.06 46.1199C309.06 45.3099 308.4 44.6499 307.59 44.6499Z" fill="white"/>
<path d="M307.59 50.21H295.66C294.85 50.21 294.19 50.87 294.19 51.68C294.19 52.49 294.85 53.15 295.66 53.15H307.59C308.4 53.15 309.06 52.49 309.06 51.68C309.06 50.87 308.4 50.21 307.59 50.21Z" fill="white"/>
</g>
<path d="M169.77 25.97H174.79L177.38 30.87C178.13 32.29 180.16 32.29 180.91 30.87L183.5 25.97H188.52C190.52 25.97 192.14 24.35 192.14 22.35V3.62C192.14 1.62 190.52 0 188.52 0H169.79C167.79 0 166.17 1.62 166.17 3.62V22.35C166.17 24.35 167.79 25.97 169.79 25.97H169.77Z" fill="#D3D3D3"/>
<path d="M179.15 5.6001L173.36 8.9901V18.8701H177.67V12.2401H180.63V18.8701H184.94V8.9901L179.15 5.6001Z" fill="white"/>
<path d="M226.01 294.52H221.5L218.62 289.06C218 287.88 216.31 287.88 215.69 289.06L212.81 294.52H208.3C206.02 294.52 204.18 296.37 204.18 298.64V316.37C204.18 318.65 206.02 320.49 208.3 320.49H226.02C228.3 320.49 230.14 318.64 230.14 316.37V298.64C230.14 296.36 228.29 294.52 226.02 294.52H226.01Z" fill="#FFCA3A"/>
<path opacity="0.9" d="M219.65 301.29C217.15 298.79 213.08 298.79 210.58 301.29C208.08 303.79 208.08 307.86 210.58 310.36C212.8 312.58 216.25 312.82 218.74 311.11C218.79 311.4 218.92 311.67 219.14 311.89L223.12 315.87C223.68 316.43 224.59 316.43 225.15 315.87C225.71 315.31 225.71 314.4 225.15 313.84L221.17 309.86C220.95 309.64 220.67 309.51 220.39 309.46C222.11 306.96 221.86 303.51 219.65 301.3V301.29ZM218.29 309C216.54 310.75 213.68 310.75 211.93 309C210.18 307.25 210.18 304.39 211.93 302.64C213.68 300.89 216.54 300.89 218.29 302.64C220.04 304.39 220.04 307.24 218.29 309Z" fill="white"/>
<path d="M415.6 176.47C415.6 176.47 406.03 200.18 396.66 202.75C387.29 205.32 373.16 203.23 373.16 203.23L368.79 204.42L364.51 203.78C364.51 203.78 364.41 203.77 364.36 203.77L359.53 203.66C358.71 203.64 358.25 202.84 358.71 202.21L360.45 199.82C360.59 199.63 360.79 199.49 361.02 199.42L365.62 197.94C365.8 197.88 366 197.87 366.18 197.9L373.21 199.01C373.21 199.01 392.76 195.81 394.75 193.99C396.74 192.18 402.63 173.22 402.63 173.22L415.6 176.48V176.47Z" fill="#EEC1BB"/>
<path opacity="0.1" d="M373.66 198.92C373.37 198.97 373.21 198.99 373.21 198.99L366.18 197.88C366 197.85 365.8 197.87 365.62 197.92L361.02 199.4C360.79 199.47 360.58 199.62 360.45 199.81L358.71 202.2C358.25 202.83 358.71 203.63 359.53 203.65L364.36 203.76C364.36 203.76 364.46 203.76 364.51 203.77L367.39 204.2C369.53 203.27 371.65 201.33 373.65 198.91L373.66 198.92Z" fill="black"/>
<path d="M421.38 152.98C414.43 150.7 404.65 155.92 400.9 177.81L415.33 182.02C415.33 182.02 431.31 156.24 421.38 152.98Z" fill="#263238"/>
<path d="M380.94 124.38C380.94 125.1 381.33 125.68 381.8 125.68C382.27 125.68 382.68 125.06 382.65 124.36C382.62 123.66 382.26 123.06 381.79 123.07C381.32 123.08 380.94 123.67 380.94 124.38Z" fill="#263238"/>
<path d="M383.79 125.09L380.37 130.74C380.37 130.74 381.55 132.08 384.11 131.09L383.78 125.09H383.79Z" fill="#D4827D"/>
<path d="M384.43 119.88C384.34 119.97 384.22 120.02 384.09 120C383.15 119.84 382.19 120.14 381.51 120.8C381.37 120.95 381.14 120.97 380.98 120.84C380.83 120.7 380.81 120.46 380.94 120.31C381.78 119.45 382.99 119.05 384.18 119.25C384.39 119.28 384.53 119.47 384.5 119.67C384.49 119.74 384.46 119.81 384.41 119.87L384.43 119.88Z" fill="#263238"/>
<path d="M408.56 119.26C409.09 128.8 409.53 132.84 405.32 138.26C398.59 144.07 387.13 145 383.75 135.8C380.71 127.52 380.35 113.34 389.18 108.42C395.48 104.92 403.42 107.18 406.93 113.48C407.91 115.25 408.47 117.23 408.56 119.25V119.26Z" fill="#EEC1BB"/>
<path d="M395.26 140.15L397.68 154.29L409.47 151.57L405.34 137.14L395.26 140.16V140.15Z" fill="#EEC1BB"/>
<path d="M386.77 119.96C387.37 113.76 385.24 120.92 382.37 112.74C379.5 104.56 393.04 97.9102 395.21 99.4302C397.38 100.95 396.13 103.3 403.3 104.62C410.46 105.94 410.16 112.9 410.16 112.9C410.16 112.9 414.28 114.81 412.81 123.66C411.35 132.51 405.75 139.21 405.75 139.21C405.75 139.21 403.04 136.41 398.75 139C398.75 139 396.64 137.82 394.56 134.72C392.63 131.83 392.03 129.09 389.39 128.85C383.84 128.35 386.57 122 386.77 119.97V119.96Z" fill="#263238"/>
<path d="M409.38 113.99C409.38 113.99 415.23 110.39 412.64 106.63C410.05 102.86 411.3 110.77 409.38 113.99Z" fill="#263238"/>
<path d="M388.46 123.57C387.16 125.02 386.48 126.94 386.59 128.89C386.76 131.48 389.29 131.93 391.29 130.52C393.1 129.24 395.18 126.36 394.02 124.09C392.87 121.82 390.08 121.81 388.46 123.57Z" fill="#FFC3BD"/>
<path opacity="0.1" d="M395.49 141.48L396.45 147.09C396.39 141.96 399.1 139.42 399.1 139.42C396.34 139.83 395.49 141.48 395.49 141.48Z" fill="black"/>
<path d="M312.61 177.97H309.24V197.85H312.61V177.97Z" fill="#263238"/>
<path opacity="0.7" d="M312.61 177.97H309.24V197.85H312.61V177.97Z" fill="white"/>
<path d="M289.46 138.5H281.07C277.92 138.5 275.37 141.05 275.37 144.2V183.08C275.37 186.23 277.92 188.77 281.07 188.77H289.46V138.5Z" fill="#263238"/>
<path d="M340.79 188.78H284C280.85 188.78 278.3 186.23 278.3 183.09V144.21C278.3 141.06 280.85 138.51 284 138.51H340.79C343.93 138.51 346.49 141.06 346.49 144.21V183.09C346.49 186.24 343.94 188.78 340.79 188.78Z" fill="#263238"/>
<path opacity="0.5" d="M340.79 188.78H284C280.85 188.78 278.3 186.23 278.3 183.09V144.21C278.3 141.06 280.85 138.51 284 138.51H340.79C343.93 138.51 346.49 141.06 346.49 144.21V183.09C346.49 186.24 343.94 188.78 340.79 188.78Z" fill="white"/>
<path d="M284 140.85C282.15 140.85 280.65 142.35 280.65 144.2V183.08C280.65 184.93 282.15 186.43 284 186.43H340.79C342.64 186.43 344.14 184.93 344.14 183.08V144.2C344.14 142.35 342.64 140.85 340.79 140.85H284Z" fill="#263238"/>
<path d="M298.67 206.18C298.67 199.41 304.16 193.92 310.93 193.92C317.7 193.92 323.19 199.41 323.19 206.18H298.67Z" fill="#263238"/>
<path d="M327.61 202H303.09V205.99H352.14V204.35L327.62 202H327.61Z" fill="#263238"/>
<path opacity="0.8" d="M327.61 202H303.09V205.99H352.14V204.35L327.62 202H327.61Z" fill="white"/>
<path d="M327.61 205.98H303.09V201.99L327.61 204.34V205.98Z" fill="#263238"/>
<path opacity="0.6" d="M327.61 205.98H303.09V201.99L327.61 204.34V205.98Z" fill="white"/>
<path d="M381.69 343H331.09C326.84 343 323.4 339.56 323.4 335.31V219C323.4 214.75 326.84 211.31 331.09 211.31H381.69C382.82 211.31 383.75 212.23 383.75 213.36C383.75 214.49 382.83 215.41 381.69 215.41H331.09C329.11 215.41 327.51 217.01 327.51 218.99V335.3C327.51 337.28 329.11 338.88 331.09 338.88H381.69C382.82 338.88 383.75 339.8 383.75 340.93C383.75 342.06 382.83 342.98 381.69 342.98V343Z" fill="#263238"/>
<g opacity="0.5">
<path d="M381.69 343H331.09C326.84 343 323.4 339.56 323.4 335.31V219C323.4 214.75 326.84 211.31 331.09 211.31H381.69C382.82 211.31 383.75 212.23 383.75 213.36C383.75 214.49 382.83 215.41 381.69 215.41H331.09C329.11 215.41 327.51 217.01 327.51 218.99V335.3C327.51 337.28 329.11 338.88 331.09 338.88H381.69C382.82 338.88 383.75 339.8 383.75 340.93C383.75 342.06 382.83 342.98 381.69 342.98V343Z" fill="white"/>
</g>
<path d="M330.88 205.98H259.05V212H330.88V205.98Z" fill="#263238"/>
<path opacity="0.2" d="M330.88 205.98H259.05V212H330.88V205.98Z" fill="white"/>
<path d="M388.88 205.98H327.61V212H388.88V205.98Z" fill="#263238"/>
<path opacity="0.5" d="M388.88 205.98H327.61V212H388.88V205.98Z" fill="white"/>
<path d="M367.39 300.33L370.79 334.63H362.66L354.53 301.22L367.39 300.33Z" fill="#EEC1BB"/>
<path d="M361.9 332.39L372.27 332.57C372.66 332.57 373 332.85 373.07 333.24L374.8 341.71C374.96 342.46 374.48 343.2 373.73 343.36C373.63 343.38 373.53 343.39 373.44 343.39C369.7 343.26 366.38 343 361.73 342.93C356.24 342.84 357.62 343.52 351.16 343.5C347.27 343.48 346.63 339.05 348.29 338.86C355.86 338.04 356.68 335.77 359.64 333.12C360.28 332.61 361.09 332.36 361.9 332.41V332.39Z" fill="#263238"/>
<path opacity="0.1" d="M369.9 325.67L367.39 300.32L354.53 301.21L360.48 325.67H369.9Z" fill="black"/>
<path d="M423.03 221.24L389.7 222.44C389.7 222.44 344.86 238.12 343.6 250.22C342.31 262.64 357.39 319.7 357.39 319.7H370.78C370.78 319.7 367.09 277.82 365.67 265C364.25 252.18 412.39 256.43 420.74 245.49C428.43 235.42 423.03 221.24 423.03 221.24Z" fill="#263238"/>
<path opacity="0.2" d="M423.03 221.24L389.7 222.44C389.7 222.44 344.86 238.12 343.6 250.22C342.31 262.64 357.39 319.7 357.39 319.7H370.78C370.78 319.7 367.09 277.82 365.67 265C364.25 252.18 412.39 256.43 420.74 245.49C428.43 235.42 423.03 221.24 423.03 221.24Z" fill="#0D3885"/>
<path d="M373.06 317.77L373.35 322.5H356.79L355.16 317.77H373.05H373.06Z" fill="#213348"/>
<path d="M336.39 301.95L337.28 334.62H329.3L324.57 301.95H336.4H336.39Z" fill="#EEC1BB"/>
<path d="M328.19 332.39L338.56 332.57C338.95 332.57 339.28 332.85 339.36 333.24L341.09 341.71C341.25 342.46 340.77 343.2 340.02 343.36C339.92 343.38 339.82 343.39 339.73 343.39C335.99 343.26 332.67 343 328.02 342.93C322.53 342.84 323.91 343.52 317.45 343.5C313.56 343.48 312.92 339.05 314.58 338.86C322.15 338.04 322.97 335.77 325.93 333.12C326.57 332.61 327.38 332.36 328.19 332.4V332.39Z" fill="#263238"/>
<path opacity="0.1" d="M337.04 325.64L336.4 301.95H324.57L328 325.67C330.57 325.67 334.12 325.67 337.04 325.64Z" fill="black"/>
<path d="M408.54 223.99C408.54 223.99 411.31 249.32 385.53 250.5C359.75 251.68 339.65 254.64 339.06 263.81C338.47 272.98 339.06 319.69 339.06 319.69H325.05C325.05 319.69 319.6 290.16 317.47 271.84C315.41 254.05 311.64 241.15 329.89 235.13C349.29 228.72 383.79 222.8 383.79 222.8L408.63 221.23L408.54 223.99Z" fill="#213348"/>
<path d="M341.12 317.77L340.23 322.5H324.86L323.23 317.77H341.12Z" fill="#213348"/>
<path d="M414.13 151.31C414.13 151.31 414.13 145.59 402.59 146.25C390.34 146.95 392.65 152.43 392.65 152.43L414.14 151.31H414.13Z" fill="#263238"/>
<path opacity="0.3" d="M414.13 151.31C414.13 151.31 414.13 145.59 402.59 146.25C390.34 146.95 392.65 152.43 392.65 152.43L414.14 151.31H414.13Z" fill="black"/>
<path d="M424.84 176.9C424.07 188.18 424.33 222.12 424.33 222.12C424.33 222.12 399.71 223.74 380.33 223.11L378.08 157.82C378.08 155.5 379.52 153.38 381.77 152.51C387.24 150.38 400.08 147.97 420.17 150.61C427.1 151.52 425.75 163.57 424.84 176.9Z" fill="#5EA813"/>
<path d="M382.04 176.47C382.04 176.47 372.47 200.18 363.1 202.75C353.74 205.32 339.6 203.23 339.6 203.23L335.23 204.42L330.95 203.78C330.95 203.78 330.85 203.77 330.8 203.77L325.96 203.66C325.14 203.64 324.68 202.84 325.14 202.21L326.88 199.82C327.02 199.63 327.22 199.49 327.45 199.42L332.05 197.94C332.23 197.88 332.42 197.87 332.61 197.9L339.64 199.01C339.64 199.01 359.19 195.81 361.18 193.99C363.17 192.18 369.06 173.22 369.06 173.22L382.03 176.48L382.04 176.47Z" fill="#EEC1BB"/>
<path opacity="0.1" d="M381.8 165.43C381.8 165.43 380.32 167.19 378.5 169.76L379.15 188.66C386.34 185.49 389.2 166.95 389.2 166.95L384.53 163.64L381.8 165.43Z" fill="black"/>
<path d="M387.82 152.98C380.87 150.7 371.09 155.92 367.34 177.81L381.77 182.02C381.77 182.02 397.75 156.24 387.82 152.98Z" fill="#5EA813"/>
<path d="M397.01 262.8H386.15V294.63H397.01V262.8Z" fill="#263238"/>
<path opacity="0.6" d="M397.01 262.8H386.15V294.63H397.01V262.8Z" fill="white"/>
<path d="M398.7 323.47V283.03H384.47V323.47L352.08 327.96V332.45L391.59 329.08L431.1 332.45V327.96L398.71 323.47H398.7Z" fill="#263238"/>
<path d="M351.6 343.48C353.96 343.48 355.88 341.56 355.88 339.2C355.88 336.84 353.96 334.92 351.6 334.92C349.24 334.92 347.32 336.84 347.32 339.2C347.32 341.56 349.24 343.48 351.6 343.48Z" fill="#263238"/>
<path d="M431.09 343.48C433.46 343.48 435.37 341.56 435.37 339.2C435.37 336.84 433.45 334.92 431.09 334.92C428.73 334.92 426.81 336.84 426.81 339.2C426.81 341.56 428.73 343.48 431.09 343.48Z" fill="#263238"/>
<path d="M391.58 343.48C393.94 343.48 395.86 341.56 395.86 339.2C395.86 336.84 393.94 334.92 391.58 334.92C389.22 334.92 387.3 336.84 387.3 339.2C387.3 341.56 389.22 343.48 391.58 343.48Z" fill="#263238"/>
<path opacity="0.3" d="M397.01 262.8H386.15V270.66H397.01V262.8Z" fill="black"/>
<path d="M434.52 190.66H399.13C393.37 190.66 388.55 195.05 388.02 200.78L385.03 232.75C384.35 240.03 378.42 245.71 371.12 246.08L336.97 247.81C332.82 248.02 329.56 251.45 329.56 255.6V256.32C329.56 259.89 332.45 262.78 336.02 262.78H440.03L445.63 202.84C446.24 196.29 441.09 190.64 434.52 190.64V190.66Z" fill="#263238"/>
<path opacity="0.3" d="M434.52 190.66H399.13C393.37 190.66 388.55 195.05 388.02 200.78L385.03 232.75C384.35 240.03 378.42 245.71 371.12 246.08L336.97 247.81C332.82 248.02 329.56 251.45 329.56 255.6V256.32C329.56 259.89 332.45 262.78 336.02 262.78H440.03L445.63 202.84C446.24 196.29 441.09 190.64 434.52 190.64V190.66Z" fill="white"/>
<path d="M355.81 254.57H355.63C354.34 254.57 353.28 253.52 353.28 252.22V226.73H358.15V252.22C358.15 253.52 357.1 254.57 355.8 254.57H355.81Z" fill="#263238"/>
<path opacity="0.2" d="M355.81 254.57H355.63C354.34 254.57 353.28 253.52 353.28 252.22V226.73H358.15V252.22C358.15 253.52 357.1 254.57 355.8 254.57H355.81Z" fill="white"/>
<path d="M376.79 219.36H365.93V228.35H376.79C379.27 228.35 381.28 226.34 381.28 223.86C381.28 221.38 379.27 219.37 376.79 219.37V219.36Z" fill="#263238"/>
<path opacity="0.5" d="M376.79 219.36H365.93V228.35H376.79C379.27 228.35 381.28 226.34 381.28 223.86C381.28 221.38 379.27 219.37 376.79 219.37V219.36Z" fill="white"/>
<path d="M372.46 228.35H334.5C332.11 228.35 330.17 226.41 330.17 224.02V223.69C330.17 221.3 332.11 219.36 334.5 219.36H372.46C374.85 219.36 376.79 221.3 376.79 223.69V224.02C376.79 226.41 374.85 228.35 372.46 228.35Z" fill="#263238"/>
<path opacity="0.3" d="M372.46 228.35H334.5C332.11 228.35 330.17 226.41 330.17 224.02V223.69C330.17 221.3 332.11 219.36 334.5 219.36H372.46C374.85 219.36 376.79 221.3 376.79 223.69V224.02C376.79 226.41 374.85 228.35 372.46 228.35Z" fill="white"/>
<path d="M442.48 262.8H390.46L396.25 200.78C396.79 195.04 401.6 190.66 407.37 190.66H442.75C449.33 190.66 454.48 196.31 453.87 202.86L448.81 257.03C448.51 260.3 445.76 262.8 442.48 262.8Z" fill="#263238"/>
<path opacity="0.5" d="M442.48 262.8H390.46L396.25 200.78C396.79 195.04 401.6 190.66 407.37 190.66H442.75C449.33 190.66 454.48 196.31 453.87 202.86L448.81 257.03C448.51 260.3 445.76 262.8 442.48 262.8Z" fill="white"/>
<path d="M320.96 343H270.36C266.12 343 262.67 339.56 262.67 335.31V219C262.67 214.75 266.11 211.31 270.36 211.31H320.96C322.09 211.31 323.01 212.23 323.01 213.36C323.01 214.49 322.09 215.41 320.96 215.41H270.36C268.38 215.41 266.78 217.01 266.78 218.99V335.3C266.78 337.28 268.38 338.88 270.36 338.88H320.96C322.09 338.88 323.01 339.8 323.01 340.93C323.01 342.06 322.09 342.98 320.96 342.98V343Z" fill="#263238"/>
<g opacity="0.5">
<path d="M320.96 343H270.36C266.12 343 262.67 339.56 262.67 335.31V219C262.67 214.75 266.11 211.31 270.36 211.31H320.96C322.09 211.31 323.01 212.23 323.01 213.36C323.01 214.49 322.09 215.41 320.96 215.41H270.36C268.38 215.41 266.78 217.01 266.78 218.99V335.3C266.78 337.28 268.38 338.88 270.36 338.88H320.96C322.09 338.88 323.01 339.8 323.01 340.93C323.01 342.06 322.09 342.98 320.96 342.98V343Z" fill="white"/>
</g>
<path d="M287.52 150.12L283.96 147.76C283.58 147.51 283.58 146.95 283.96 146.69L287.52 144.33C287.79 144.15 288.14 144.23 288.32 144.49C288.5 144.76 288.42 145.11 288.16 145.29L285.24 147.22L288.16 149.15C288.43 149.33 288.5 149.69 288.32 149.95C288.14 150.22 287.78 150.29 287.52 150.11V150.12Z" fill="#FFCA3A"/>
<path d="M295.31 149.96C295.13 149.69 295.2 149.34 295.47 149.16L298.39 147.23L295.47 145.3C295.2 145.12 295.13 144.76 295.31 144.5C295.49 144.24 295.85 144.16 296.11 144.34L299.67 146.7C300.05 146.95 300.05 147.51 299.67 147.77L296.11 150.13C295.85 150.31 295.49 150.23 295.31 149.97V149.96Z" fill="#FFCA3A"/>
<path d="M290.49 151.49C290.19 151.39 290.02 151.07 290.11 150.77L292.54 143.09C292.64 142.79 292.96 142.62 293.26 142.71C293.56 142.81 293.73 143.13 293.64 143.44L291.22 151.12C291.12 151.42 290.8 151.59 290.49 151.5V151.49Z" fill="#FFCA3A"/>
<path d="M310.42 157.41H284.28C283.94 157.41 283.67 157.14 283.67 156.8C283.67 156.46 283.94 156.19 284.28 156.19H310.42C310.76 156.19 311.03 156.46 311.03 156.8C311.03 157.14 310.76 157.41 310.42 157.41Z" fill="#FFCA3A"/>
<path d="M340.46 157.41H314.32C313.98 157.41 313.71 157.14 313.71 156.8C313.71 156.46 313.98 156.19 314.32 156.19H340.46C340.8 156.19 341.07 156.46 341.07 156.8C341.07 157.14 340.8 157.41 340.46 157.41Z" fill="#FFCA3A"/>
<path d="M299.22 162.79H284.28C283.94 162.79 283.67 162.52 283.67 162.18C283.67 161.84 283.94 161.57 284.28 161.57H299.22C299.56 161.57 299.83 161.84 299.83 162.18C299.83 162.52 299.56 162.79 299.22 162.79Z" fill="white"/>
<path d="M327.58 162.79H303.11C302.77 162.79 302.5 162.52 302.5 162.18C302.5 161.84 302.77 161.57 303.11 161.57H327.58C327.92 161.57 328.19 161.84 328.19 162.18C328.19 162.52 327.92 162.79 327.58 162.79Z" fill="white"/>
<path d="M324.1 168.18H284.28C283.94 168.18 283.67 167.91 283.67 167.57C283.67 167.23 283.94 166.96 284.28 166.96H324.1C324.44 166.96 324.71 167.23 324.71 167.57C324.71 167.91 324.44 168.18 324.1 168.18Z" fill="white"/>
<path d="M336.31 168.18H328C327.66 168.18 327.39 167.91 327.39 167.57C327.39 167.23 327.66 166.96 328 166.96H336.31C336.65 166.96 336.92 167.23 336.92 167.57C336.92 167.91 336.65 168.18 336.31 168.18Z" fill="white"/>
<path d="M302.87 173.55H284.28C283.94 173.55 283.67 173.28 283.67 172.94C283.67 172.6 283.94 172.33 284.28 172.33H302.87C303.21 172.33 303.48 172.6 303.48 172.94C303.48 173.28 303.21 173.55 302.87 173.55Z" fill="white"/>
<path d="M329.91 173.55H306.76C306.42 173.55 306.15 173.28 306.15 172.94C306.15 172.6 306.42 172.33 306.76 172.33H329.91C330.25 172.33 330.52 172.6 330.52 172.94C330.52 173.28 330.25 173.55 329.91 173.55Z" fill="white"/>
<path d="M310.42 178.93H284.28C283.94 178.93 283.67 178.66 283.67 178.32C283.67 177.98 283.94 177.71 284.28 177.71H310.42C310.76 177.71 311.03 177.98 311.03 178.32C311.03 178.66 310.76 178.93 310.42 178.93Z" fill="white"/>
<path d="M332.76 178.93H314.32C313.98 178.93 313.71 178.66 313.71 178.32C313.71 177.98 313.98 177.71 314.32 177.71H332.76C333.1 177.71 333.37 177.98 333.37 178.32C333.37 178.66 333.1 178.93 332.76 178.93Z" fill="white"/>
<path d="M105.88 73.8501C106.36 79.3801 105.16 89.4001 100.99 92.6001C107.8 95.0501 114.99 99.2801 119.61 104.85C124.17 98.2101 118.98 94.4201 118.98 94.4201C113.1 92.3301 113.74 87.8801 115.25 83.7801L105.89 73.8501H105.88Z" fill="#B97964"/>
<path d="M128.1 69.0798C128.03 69.7698 128.36 70.3698 128.81 70.4098C129.27 70.4498 129.69 69.9198 129.75 69.2298C129.82 68.5398 129.49 67.9298 129.04 67.8898C128.59 67.8498 128.18 68.3798 128.1 69.0798Z" fill="#263238"/>
<path d="M128.85 67.9101L130.56 67.5801C130.56 67.5801 129.59 68.8401 128.85 67.9101Z" fill="#263238"/>
<path d="M128.33 69.8198C128.81 71.4698 129.51 73.0398 130.41 74.4998C129.64 74.9498 128.72 75.0398 127.88 74.7398L128.33 69.8198Z" fill="#A24E3F"/>
<path d="M130.07 65.43C130.18 65.42 130.28 65.37 130.35 65.29C130.49 65.12 130.47 64.86 130.31 64.71C129.33 63.82 127.98 63.46 126.69 63.74C126.5 63.86 126.44 64.11 126.55 64.31C126.63 64.43 126.76 64.51 126.91 64.51C127.94 64.31 129 64.61 129.77 65.31C129.85 65.39 129.96 65.44 130.07 65.44V65.43Z" fill="#263238"/>
<path d="M105.29 64.6701C105.02 73.2601 104.72 76.9101 108.55 81.6901C114.31 88.8901 124.75 87.3101 127.54 78.9501C130.05 71.4301 130.08 58.6101 122.18 54.4501C114.28 50.2901 105.56 56.0501 105.29 64.6601V64.6701Z" fill="#B97964"/>
<path d="M105.7 80.88C97.2501 79.44 99.6801 74.12 99.6801 74.12C91.3601 72.44 97.7801 68.38 97.7801 68.38C90.8601 65.4 97.7801 62.73 97.7801 62.73C91.1101 57.2 100.67 55.32 100.67 55.32C98.3101 46.69 106.5 50.23 106.5 50.23C110.97 42.82 114.81 49.9 114.81 49.9C122.63 39.28 124.54 48.24 124.54 48.24C132.53 46.14 129.46 54.54 129.46 54.54C136.04 56.31 130.88 59.63 130.88 59.63C133.41 62.84 124.24 63.39 124.24 63.39C124.24 63.39 128.6 70.38 124.2 72.37L113.1 80.88C113.1 80.88 108 78.76 105.7 80.88Z" fill="#263238"/>
<path d="M114 73.9498C114 73.9498 119.81 59.8898 115.28 47.8398L119.16 46.5098C119.16 46.5098 124.22 63.9898 114 73.9498Z" fill="#FFC938"/>
<path d="M119.85 72.4098C120.82 74.4298 121.19 75.2998 122.58 75.9698C123.8 76.6498 125.34 76.2198 126.02 75.0098C126.33 74.4498 126.42 73.7998 126.27 73.1798C125.9 71.1598 124.35 68.1898 122.2 68.1198C120.05 68.0598 118.84 70.3998 119.85 72.3998V72.4098Z" fill="#B97964"/>
<path d="M113.79 101.73C113.79 101.73 121.73 107.56 124.96 109.91L147.95 99.0602C147.89 96.4502 149.43 94.0702 151.83 93.0502L153.47 92.3602L156.94 90.8202C158.25 90.2402 159.78 90.4002 160.94 91.2402C162.32 92.2402 162.91 94.0002 162.43 95.6302C161.44 98.9902 158.77 101.58 155.39 102.47L152.04 103.35C152.04 103.35 132.31 118.32 125.29 118.71C118.27 119.1 107.93 112.15 107.93 112.15L113.78 101.73H113.79Z" fill="#B97964"/>
<path d="M94.67 91.8298C100.74 91.7998 107.52 95.6098 118.21 102.53C118.21 102.53 116.19 110.13 109.98 115.54C109.98 115.54 104.12 113.96 96.32 106.62C86.88 97.7398 90.95 91.8398 94.67 91.8198V91.8298Z" fill="#263238"/>
<path d="M209.96 109.42H152.44C150.35 109.42 148.81 107.73 148.99 105.64L153.32 56.1101C153.5 54.0201 155.34 52.3301 157.43 52.3301H214.95C217.04 52.3301 218.58 54.0201 218.4 56.1101L214.07 105.64C213.89 107.73 212.05 109.42 209.96 109.42Z" fill="#FFC938"/>
<path d="M170.19 77.9502L151.38 105.15L151.34 105.64C151.27 106.43 151.86 107.07 152.65 107.07H185.24L170.2 77.9502H170.19Z" fill="#5EA813"/>
<path d="M170.19 77.9502L151.38 105.15L151.34 105.64C151.27 106.43 151.86 107.07 152.65 107.07H185.24L170.2 77.9502H170.19Z" fill="#474748"/>
<path d="M211.89 103.74L196.14 73.8398L172.82 107.07H210.16C210.95 107.07 211.65 106.43 211.72 105.64L211.89 103.74Z" fill="#333333"/>
<path d="M190.07 68.56C189.81 71.48 187.24 73.85 184.32 73.85C181.4 73.85 179.24 71.48 179.5 68.56C179.75 65.64 182.33 63.27 185.25 63.27C188.17 63.27 190.33 65.64 190.07 68.56Z" fill="#5EA813"/>
<path d="M190.07 68.56C189.81 71.48 187.24 73.85 184.32 73.85C181.4 73.85 179.24 71.48 179.5 68.56C179.75 65.64 182.33 63.27 185.25 63.27C188.17 63.27 190.33 65.64 190.07 68.56Z" fill="#E7E6E6"/>
<path d="M46.5002 309.3L40.6602 326.63L49.6202 330.29L56.6302 314.3L46.5002 309.31V309.3Z" fill="#B97964"/>
<path d="M52.8301 329.85C52.7401 329.8 52.6801 329.7 52.6901 329.59C52.7001 329.48 52.7801 329.4 52.8901 329.37C53.0801 329.33 57.3101 328.38 58.8801 329.39C59.1701 329.57 59.3901 329.86 59.4701 330.2C59.6001 330.58 59.4801 331.01 59.1601 331.27C58.5601 331.69 57.1701 331.51 55.8901 331.12C54.8301 330.79 53.8101 330.36 52.8301 329.85ZM53.7201 329.77C55.5701 330.6 58.1701 331.39 58.8601 330.86C58.9601 330.8 59.0601 330.67 58.9801 330.31C58.9401 330.1 58.8001 329.92 58.6101 329.82C58.4701 329.73 58.3201 329.66 58.1601 329.62C56.6901 329.39 55.1801 329.44 53.7301 329.77H53.7201Z" fill="#5EA813"/>
<path d="M52.7102 329.79C52.6502 329.72 52.6302 329.62 52.6702 329.53C52.7202 329.41 53.8602 326.71 55.5002 326.04C55.9802 325.84 56.5102 325.84 56.9902 326.04C57.6402 326.31 57.7502 326.72 57.6802 327.01C57.5402 328.24 54.3702 329.71 52.9702 329.87C52.9302 329.87 52.9002 329.87 52.8702 329.85C52.8102 329.85 52.7502 329.83 52.7102 329.79ZM56.6802 326.46C56.3702 326.36 56.0402 326.38 55.7402 326.51C54.7002 327.16 53.8802 328.12 53.4002 329.25C54.9102 328.89 57.0702 327.64 57.2302 326.92C57.2302 326.85 57.2602 326.67 56.8302 326.49L56.6902 326.46H56.6802Z" fill="#5EA813"/>
<path d="M52.2199 328.08L40.9699 324.61C40.5499 324.48 40.0899 324.66 39.8699 325.04L35.0099 333.57C34.5699 334.32 34.8299 335.29 35.5799 335.72C35.6799 335.78 35.7799 335.82 35.8899 335.86C39.9699 337.04 43.6399 337.93 48.6899 339.5C54.6499 341.34 52.9199 341.59 59.8899 343.85C64.0899 345.21 66.3499 340.65 64.6299 339.86C56.7599 336.3 56.6699 333.56 54.4099 329.66C53.8999 328.88 53.1199 328.32 52.2199 328.09V328.08Z" fill="#263238"/>
<path opacity="0.2" d="M43.6999 317.6L53.0899 322.35L56.6199 314.29L46.4899 309.3L43.6899 317.61L43.6999 317.6Z" fill="#263238"/>
<path d="M86.2099 149.02C86.2099 149.02 73.5899 158.66 76.2899 188.85C76.5399 191.64 77.4399 194.57 77.4599 197.77C77.4599 199.89 76.8799 201.38 76.1799 206.16C75.1699 213.12 73.3099 239.03 71.3599 242.4C69.4299 245.74 68.5999 245.18 63.0899 254.47C57.1599 264.47 49.5899 282.01 43.6899 311.75C43.6899 311.75 48.8199 315.75 56.8799 317.27C56.8799 317.27 89.1299 266.41 95.9899 247.48C102.12 230.54 109.43 176.48 109.43 176.48L110.02 153.04L86.1999 149.03L86.2099 149.02Z" fill="#014F81"/>
<path opacity="0.1" d="M100.02 188.85H90.8802C90.8802 188.85 87.8802 217.59 97.8102 241.56C98.8502 237.71 99.9002 233.09 100.92 228.11L104.87 202.79C104.31 198.51 103.87 195.25 103.8 195.04C103.6 194.38 100.02 188.85 100.02 188.85Z" fill="black"/>
<path d="M98.5098 316.27L98.5698 334.69L108.96 333.99L110.56 316.27H98.5098Z" fill="#B97964"/>
<path d="M110.16 333.68C110.05 333.66 109.97 333.58 109.95 333.48C109.93 333.37 109.97 333.27 110.06 333.21C110.22 333.11 113.91 330.83 115.73 331.26C116.07 331.34 116.37 331.54 116.56 331.83C116.81 332.15 116.84 332.6 116.62 332.94C116.2 333.53 114.82 333.83 113.48 333.87C112.37 333.9 111.27 333.84 110.17 333.68H110.16ZM110.97 333.31C112.98 333.49 115.7 333.37 116.18 332.65C116.25 332.56 116.31 332.4 116.11 332.09C116 331.91 115.81 331.78 115.6 331.75C115.44 331.71 115.28 331.7 115.11 331.7C113.64 331.97 112.24 332.51 110.98 333.3L110.97 333.31Z" fill="#5EA813"/>
<path d="M110.03 333.67C109.95 333.62 109.9 333.53 109.91 333.44C109.92 333.3 110.1 330.39 111.44 329.21C111.82 328.86 112.33 328.69 112.85 328.72C113.56 328.76 113.79 329.11 113.83 329.4C114.1 330.6 111.6 333.04 110.33 333.65C110.3 333.67 110.26 333.67 110.22 333.66C110.16 333.68 110.1 333.68 110.04 333.66L110.03 333.67ZM112.68 329.21C112.36 329.21 112.05 329.34 111.81 329.56C111.04 330.52 110.58 331.69 110.5 332.92C111.81 332.08 113.44 330.19 113.35 329.46C113.33 329.39 113.29 329.21 112.83 329.19L112.68 329.21Z" fill="#5EA813"/>
<path d="M109.01 332.21L97.2402 332.63C96.8002 332.65 96.4202 332.97 96.3402 333.4L94.5502 343.05C94.3902 343.9 94.9502 344.73 95.8002 344.9C95.9102 344.92 96.0202 344.93 96.1302 344.93C100.37 344.7 104.13 344.34 109.42 344.16C115.65 343.94 114.1 344.74 121.43 344.58C125.85 344.48 126.48 339.43 124.6 339.25C115.99 338.48 115.01 335.92 111.6 332.97C110.86 332.41 109.94 332.13 109.01 332.21Z" fill="#263238"/>
<path opacity="0.2" d="M98.5398 325.79L109.72 325.56L110.56 316.27H98.5098L98.5398 325.8V325.79Z" fill="#263238"/>
<path d="M93.2398 145.64C93.2398 145.64 80.6498 162.32 89.9798 194.99L100.51 242.64C100.51 242.64 90.4898 264.32 95.7798 321.49C95.7798 321.49 103.74 322.76 111.33 321.14C111.33 321.14 123.05 260.76 124.84 240.36C126.8 217.9 125.63 150.17 125.63 150.17L93.2498 145.65L93.2398 145.64Z" fill="#014F81"/>
<path d="M100.85 91.6C100.85 91.6 98.8999 83.26 111.41 86.91C123.92 90.56 122.88 97.68 122.88 97.68L100.85 91.6Z" fill="#263238"/>
<path opacity="0.4" d="M100.85 91.6C100.85 91.6 98.8999 83.26 111.41 86.91C123.92 90.56 122.88 97.68 122.88 97.68L100.85 91.6Z" fill="black"/>
<path d="M131.89 112.45C131.89 115.37 130.66 119.6 129.55 124.33C129.01 126.57 128.52 128.91 128.19 131.28C126.42 144.21 125.84 157.8 125.84 157.8C125.84 157.8 105.39 163.54 85.52 149.8C85.52 149.8 90.44 145.63 89.43 116.76C88.97 103.75 84.28 88.2901 105.77 90.7201C123.92 92.7701 130.02 98.4101 131.49 107.23C131.5 107.34 131.53 107.45 131.55 107.57C131.59 107.84 131.62 108.11 131.65 108.39C131.8 109.67 131.87 111.03 131.87 112.44L131.89 112.45Z" fill="#263238"/>
<path opacity="0.4" d="M131.89 112.45C131.89 115.37 130.66 119.6 129.55 124.33C124.64 118.43 119.72 107.36 119.72 107.36L123.77 101.4L130.91 104.72C131.16 105.53 131.34 106.36 131.5 107.23C131.51 107.34 131.54 107.45 131.56 107.57C131.6 107.84 131.63 108.11 131.67 108.39C131.82 109.67 131.89 111.03 131.89 112.44V112.45Z" fill="black"/>
<path d="M139.31 107.35C139.31 107.35 146.3 114.3 149.14 117.1L173.49 109.8C173.82 107.21 175.69 105.08 178.22 104.44L179.94 104L183.6 102.99C184.99 102.61 186.47 102.99 187.5 104C188.71 105.19 189.04 107.02 188.32 108.56C186.84 111.73 183.82 113.9 180.34 114.27L176.89 114.64C176.89 114.64 155.15 126.5 148.15 125.85C141.15 125.19 131.96 116.78 131.96 116.78L139.3 107.35H139.31Z" fill="#B97964"/>
<path d="M121.88 94.7099C127.89 95.5899 134.03 100.37 143.56 108.8C143.56 108.8 140.43 116.01 133.48 120.44C133.48 120.44 127.92 118.01 121.3 109.59C113.29 99.3999 118.19 94.1699 121.88 94.7099Z" fill="#263238"/>
</g>
<defs>
<clipPath id="clip0_80_12580">
<rect width="456" height="364" fill="white"/>
</clipPath>
</defs>
</svg>
